<svg xmlns="http://www.w3.org/2000/svg" viewBox="0 0 400 300" width="406" height="306" class="illustration styles_illustrationTablet__1DWOa"><g id="_505_achievement_outline" data-name="#505_achievement_outline"><polygon points="220.99 239.61 234.35 219.71 257.4 226.25 226.08 140.9 189.67 154.26 220.99 239.61" fill="#093f68"></polygon><path d="M221,240.61h-.12a1,1,0,0,1-.82-.65l-31.32-85.34a1,1,0,0,1,.6-1.29L225.74,140a1,1,0,0,1,1.28.6l31.32,85.34a1,1,0,0,1-1.21,1.31l-22.36-6.34-13,19.3A1,1,0,0,1,221,240.61Zm-30-85.75,30.29,82.56,12.27-18.27a1,1,0,0,1,1.1-.4l21.17,6-30.3-82.57Z" fill="#093f68"></path><polygon points="179.01 239.61 165.65 219.71 142.6 226.25 173.92 140.9 210.33 154.26 179.01 239.61" fill="#f84f4f"></polygon><path d="M179,240.61a1,1,0,0,1-.83-.44l-13-19.3-22.36,6.34a1,1,0,0,1-1.21-1.31L173,140.56a1,1,0,0,1,1.28-.6l36.41,13.36a1,1,0,0,1,.6,1.29L180,240a1,1,0,0,1-.82.65Zm-13.36-21.9a1,1,0,0,1,.83.44l12.27,18.27L209,154.86l-34.53-12.68-30.3,82.57,21.17-6A.84.84,0,0,1,165.65,218.71Z" fill="#093f68"></path><path d="M261.45,119.12c0,6.16-9.53,10.74-11.33,16.29-1.87,5.76,3.08,15.05-.41,19.84s-13.91,3-18.74,6.5-6.22,14-12,15.83c-5.55,1.8-12.83-5.77-19-5.77s-13.44,7.57-19,5.77c-5.76-1.87-7.18-12.34-12-15.83s-15.22-1.66-18.74-6.5,1.46-14.08-.41-19.84c-1.8-5.55-11.33-10.13-11.33-16.29s9.53-10.73,11.33-16.28c1.87-5.76-3.08-15,.41-19.84S164.2,80,169,76.5s6.22-14,12-15.83c5.55-1.8,12.83,5.77,19,5.77s13.44-7.57,19-5.77c5.76,1.87,7.18,12.34,12,15.83s15.22,1.66,18.74,6.5-1.46,14.08.41,19.84C251.92,108.39,261.45,113,261.45,119.12Z" fill="#f84f4f"></path><path d="M217.17,178.86c-2.85,0-5.9-1.57-8.86-3.09s-5.77-3-8.31-3-5.47,1.5-8.31,3c-3.71,1.91-7.55,3.88-11,2.76-3.61-1.17-5.59-5.12-7.51-8.94-1.38-2.77-2.82-5.63-4.74-7s-5.16-1.92-8.24-2.39c-4.2-.65-8.54-1.32-10.73-4.33s-1.48-7.29-.81-11.46c.5-3.1,1-6.31.26-8.66s-2.86-4.33-5.14-6.57c-3.06-3-6.24-6.15-6.24-10s3.18-7,6.24-10c2.28-2.25,4.42-4.36,5.14-6.57s.24-5.56-.26-8.67c-.67-4.16-1.36-8.46.81-11.45s6.53-3.68,10.73-4.33c3.08-.47,6.28-1,8.24-2.39s3.36-4.26,4.74-7c1.92-3.82,3.9-7.77,7.51-8.94,3.44-1.12,7.28.85,11,2.76,2.84,1.45,5.77,3,8.31,3s5.47-1.51,8.31-3c3.71-1.91,7.55-3.88,11-2.76,3.61,1.17,5.59,5.12,7.51,8.94,1.38,2.77,2.82,5.63,4.74,7s5.16,1.92,8.24,2.39c4.2.65,8.54,1.31,10.73,4.33s1.48,7.29.81,11.45c-.5,3.11-1,6.32-.26,8.67s2.86,4.32,5.14,6.57c3.06,3,6.24,6.15,6.24,10s-3.18,7-6.24,10c-2.28,2.25-4.42,4.36-5.14,6.57s-.24,5.56.26,8.66c.67,4.17,1.36,8.47-.81,11.46s-6.53,3.68-10.73,4.33c-3.08.47-6.28,1-8.24,2.39s-3.36,4.26-4.74,7c-1.92,3.82-3.9,7.77-7.51,8.94A6.68,6.68,0,0,1,217.17,178.86ZM182.85,61.39a4.89,4.89,0,0,0-1.53.23c-2.81.91-4.61,4.48-6.34,7.94-1.49,3-3,6.06-5.36,7.75s-5.79,2.24-9.11,2.75c-3.79.58-7.71,1.18-9.42,3.53s-1.08,6-.44,10c.54,3.34,1.09,6.79.18,9.6s-3.29,5.06-5.63,7.37c-2.78,2.74-5.65,5.57-5.65,8.6s2.87,5.87,5.65,8.61c2.34,2.31,4.76,4.7,5.63,7.37s.36,6.26-.18,9.6c-.64,3.93-1.24,7.65.44,10s5.63,3,9.42,3.53c3.32.51,6.76,1,9.11,2.75s3.87,4.77,5.36,7.75c1.73,3.45,3.52,7,6.34,7.94,2.65.86,6-.84,9.45-2.64,3-1.56,6.21-3.18,9.23-3.18s6.18,1.62,9.23,3.18c3.5,1.8,6.8,3.5,9.45,2.64,2.81-.91,4.61-4.49,6.34-7.94,1.49-3,3-6.06,5.36-7.75s5.79-2.24,9.11-2.75c3.79-.58,7.71-1.18,9.42-3.53s1.08-6,.44-10c-.54-3.34-1.09-6.79-.18-9.6s3.29-5.06,5.63-7.37c2.78-2.74,5.65-5.57,5.65-8.61s-2.87-5.86-5.65-8.6c-2.34-2.31-4.76-4.7-5.63-7.37s-.36-6.26.18-9.6c.64-3.94,1.24-7.65-.44-10s-5.63-3-9.42-3.53c-3.32-.51-6.76-1-9.11-2.75s-3.87-4.77-5.36-7.75c-1.73-3.46-3.52-7-6.34-7.94-2.65-.86-6,.84-9.45,2.64-3,1.56-6.21,3.18-9.23,3.18s-6.18-1.62-9.23-3.18C187.92,62.79,185.19,61.39,182.85,61.39Z" fill="#093f68"></path><circle cx="200" cy="119.12" r="43.71" fill="#fff"></circle><path d="M200,163.83a44.71,44.71,0,1,1,44.71-44.71A44.76,44.76,0,0,1,200,163.83Zm0-87.41a42.71,42.71,0,1,0,42.71,42.7A42.75,42.75,0,0,0,200,76.42Z" fill="#093f68"></path><path d="M204.62,92.37l4.87,15a1.5,1.5,0,0,0,1.42,1H226.7a4.85,4.85,0,0,1,2.85,8.78l-12.77,9.28a1.5,1.5,0,0,0-.54,1.67l4.88,15a4.86,4.86,0,0,1-7.47,5.43l-12.77-9.28a1.5,1.5,0,0,0-1.76,0l-12.77,9.28a4.86,4.86,0,0,1-7.47-5.43l4.88-15a1.5,1.5,0,0,0-.54-1.67l-12.77-9.28a4.85,4.85,0,0,1,2.85-8.78h15.79a1.5,1.5,0,0,0,1.42-1l4.87-15A4.86,4.86,0,0,1,204.62,92.37Z" fill="#ffbc0e"></path><path d="M183.5,150.53a5.88,5.88,0,0,1-5.57-7.68l4.88-15a.5.5,0,0,0-.18-.56L169.86,118a5.85,5.85,0,0,1,3.44-10.59h15.78a.51.51,0,0,0,.48-.34l4.87-15a5.86,5.86,0,0,1,11.14,0h0l4.87,15a.51.51,0,0,0,.48.34H226.7A5.85,5.85,0,0,1,230.14,118l-12.77,9.28a.48.48,0,0,0-.18.55l4.88,15a5.86,5.86,0,0,1-9,6.55l-12.77-9.28a.48.48,0,0,0-.58,0l-12.77,9.28A5.83,5.83,0,0,1,183.5,150.53Zm-10.2-41.11a3.85,3.85,0,0,0-2.27,7l12.78,9.28a2.49,2.49,0,0,1,.9,2.79l-4.88,15a3.85,3.85,0,0,0,5.93,4.31l12.77-9.28a2.49,2.49,0,0,1,2.94,0l12.77,9.28a3.85,3.85,0,0,0,5.93-4.31l-4.88-15a2.49,2.49,0,0,1,.9-2.79L229,116.39a3.85,3.85,0,0,0-2.27-7H210.92a2.49,2.49,0,0,1-2.38-1.73l-4.88-15a3.85,3.85,0,0,0-7.32,0l-4.88,15a2.49,2.49,0,0,1-2.38,1.73Z" fill="#093f68"></path><path d="M189.67,113.59H174.84a1,1,0,0,1,0-2h14.83a1,1,0,0,1,0,2Z" fill="#fff"></path></g></svg>
