
<svg version="1.0" xmlns="http://www.w3.org/2000/svg"
 width="20" height="20" viewBox="0 0 50.000000 50.000000"
 preserveAspectRatio="xMidYMid meet">

<g transform="translate(0.000000,50.000000) scale(0.100000,-0.100000)"
fill="#fff" stroke="#fff" >
<path d="M59 441 c-20 -20 -29 -39 -29 -61 0 -43 47 -90 90 -90 43 0 90 47 90
90 0 43 -47 90 -90 90 -22 0 -41 -9 -61 -29z m108 -13 c29 -27 29 -65 1 -95
-27 -29 -65 -29 -95 -1 -29 27 -29 65 -1 95 27 29 65 29 95 1z"/>
<path d="M300 380 l0 -80 80 0 80 0 0 80 0 80 -80 0 -80 0 0 -80z m140 0 l0
-60 -60 0 -60 0 0 60 0 60 60 0 60 0 0 -60z"/>
<path d="M307 167 c-9 -30 -17 -56 -17 -59 0 -2 20 -19 45 -37 l45 -32 45 32
c25 18 45 35 45 37 0 3 -8 29 -17 59 l-17 53 -56 0 -56 0 -17 -53z m130 -11
c13 -39 13 -41 -14 -63 -35 -28 -47 -28 -83 -1 -31 22 -31 26 -9 86 8 20 15
23 51 20 38 -3 42 -6 55 -42z"/>
<path d="M72 136 c-23 -40 -42 -76 -42 -80 0 -3 40 -6 90 -6 50 0 90 3 90 6 0
11 -84 154 -90 154 -3 0 -25 -33 -48 -74z m82 -16 l27 -50 -61 0 -61 0 27 50
c15 28 30 50 34 50 4 0 19 -22 34 -50z"/>
</g>
</svg>
