<?xml version="1.0" standalone="no"?>
<!DOCTYPE svg PUBLIC "-//W3C//DTD SVG 20010904//EN"
 "http://www.w3.org/TR/2001/REC-SVG-20010904/DTD/svg10.dtd">
<svg version="1.0" xmlns="http://www.w3.org/2000/svg"
 width="406" height="306" viewBox="0 0 50.000000 50.000000"
 preserveAspectRatio="xMidYMid meet">

<g transform="translate(0.000000,50.000000) scale(0.100000,-0.100000)"
fill="#f84f4f" stroke="none">
<path d="M205 471 c-178 -45 -239 -261 -108 -382 90 -84 216 -84 306 0 115
106 85 293 -58 364 -39 19 -102 27 -140 18z m166 -46 c64 -45 91 -104 87 -187
-4 -82 -39 -139 -108 -176 -38 -20 -56 -23 -112 -20 -82 4 -139 39 -176 108
-20 38 -23 56 -20 112 4 82 39 139 108 176 38 20 56 23 112 20 55 -3 75 -9
109 -33z"/>
<path d="M133 360 c-13 -5 -23 -11 -23 -12 0 -2 22 -3 50 -3 48 0 55 7 15 18
-11 3 -30 2 -42 -3z"/>
<path d="M313 360 c-13 -5 -23 -11 -23 -12 0 -2 22 -3 50 -3 48 0 55 7 15 18
-11 3 -30 2 -42 -3z"/>
<path d="M210 267 c-33 -12 -65 -51 -72 -90 -3 -17 6 -18 112 -18 105 0 115 1
112 18 -15 76 -79 114 -152 90z m104 -29 c13 -13 27 -32 30 -44 6 -20 3 -21
-94 -21 -97 0 -100 1 -94 21 10 37 52 66 94 66 26 0 47 -7 64 -22z"/>
</g>
</svg>
