<?xml version="1.0" encoding="utf-8"?>
<!-- Generator: Adobe Illustrator 25.1.0, SVG Export Plug-In . SVG Version: 6.00 Build 0)  -->
<svg version="1.1" id="Layer_2_1_" xmlns="http://www.w3.org/2000/svg" xmlns:xlink="http://www.w3.org/1999/xlink" x="0px" y="0px"
	 viewBox="0 0 1600 1200" style="enable-background:new 0 0 1600 1200;" xml:space="preserve">
<style type="text/css">
	.st0{fill:#6C79D9;}
	.st1{fill:#98D8F4;}
	.st2{fill:#FFFFFF;}
	.st3{fill:#F9494B;}
	.st4{fill:#F696BB;}
</style>
<g id="dog">
	<path class="st0" d="M1097.7,1003.3c-3.9,0-6.8-1.6-8.7-4.9c-7.8-13.1,2-49.4,11.6-77.6c12-35.2,28.1-70.8,38-88.9l0.2-0.3
		l41.3,56.3v0.1C1179.4,889.2,1132.4,1003.3,1097.7,1003.3z"/>
	<path class="st0" d="M1299.7,1003.3c-4.1,0-7.2-1.8-9.4-5.4c-14.3-24.1,19.7-124.8,42.2-166l0.1-0.3l43.3,56.3v0.1
		C1375.5,889.2,1334.4,1003.3,1299.7,1003.3z"/>
	<path class="st0" d="M1419.4,1003.3c-36.2,0-81.9-75.9-83.8-79.1H1232c2.1,5,25.4,59.9,15.4,75.2c-1.7,2.6-4.3,3.9-7.7,3.9
		c-42.2,0-105.6-132.9-122.2-187.2c-2.8-9.3-2.2-17.3,1.7-22.7c3.1-4.2,8.1-6.5,14-6.5c6.5,0,13.8,2.7,20.5,7.7
		c7.6,5.6,14.6,14,20,24.2h174.6l0.1,0.1c1,1.4,96.7,142.7,85,176.6c-1.2,3.4-3.5,5.7-6.8,6.7
		C1424.4,1002.9,1421.9,1003.3,1419.4,1003.3z"/>
	<path class="st1" d="M1232,924.2L1232,924.2c-0.2-0.3-7.2-17.3-18.1-39.1V885v-0.1c0.9-9.8,14-21.7,29.5-21.7
		c1.8,0,3.6,0.2,5.3,0.5c25.4,4.7,35,28.2,36.1,30.9c5.3-3.8,10.9-5.7,16.7-5.7c10,0,16.8,5.8,16.8,5.8c7,12.9,16.9,28.9,17,29
		l0.2,0.3H1232V924.2z"/>
	<path class="st1" d="M1379.6,890.2c-17.6,0-33-11.3-38.3-28.2c-4.4-13.9-0.9-29.1,9.2-39.7l0.2-0.2l0.1,0.2
		c6.6,9.9,23.8,36,41,65.7l0.1,0.2l-0.2,0.1C1387.7,889.6,1383.7,890.2,1379.6,890.2z"/>
	<g>
		<path d="M1350.4,948.3c-0.6,0-1.2-0.3-1.6-0.8c-8.9-12.5-14.7-22.4-14.8-22.4c-0.1-0.2-12.7-21-20.6-34.9c-0.5-1-0.2-2.2,0.8-2.7
			c1-0.5,2.2-0.2,2.7,0.8c7.9,13.9,20.4,34.6,20.6,34.9c0.1,0.1,5.8,9.8,14.6,22.2c0.6,0.9,0.4,2.1-0.5,2.8
			C1351.2,948.2,1350.8,948.3,1350.4,948.3z"/>
	</g>
	<g>
		<path d="M1164.5,923.3c-0.7,0-1.4-0.4-1.7-1c-5.5-9.9-11.2-20.9-17.6-33.9c-0.5-1-0.1-2.2,0.9-2.7c1-0.5,2.2-0.1,2.7,0.9
			c6.3,12.9,12,23.9,17.4,33.7c0.5,1,0.2,2.2-0.8,2.7C1165.2,923.2,1164.8,923.3,1164.5,923.3z"/>
	</g>
	<path class="st0" d="M1288.5,780c2.1-17.5,12.2-52.2,26.2-53.2c0.1,0,0.2,0,0.3,0c1.9,0,4,1.1,6.2,3.4c7.3,7.6,14.5,27.4,13.7,44.8
		v0.2l-46.4,5L1288.5,780z"/>
	<path class="st0" d="M1357.7,853.7c-7.3,0-15-0.9-23.1-2.6c-31.2-6.6-49.9-25.6-60.1-40.5c-11.1-16.2-18.4-36.2-19.4-53.5
		c-0.6-10.6,1.5-18.1,5.5-19.4c1-0.3,2.2-0.5,3.4-0.5c14.5,0,38.1,24.7,39.7,26.5c1.3-0.5,12.2-4.5,26.2-4.5
		c16.2,0,38.6,5.5,53.9,31.6h28.2c6.6,0,12,5.4,12,11.9c0,1-0.1,2-0.3,2.9C1418,827.8,1397.3,853.7,1357.7,853.7L1357.7,853.7z"/>
	<g>
		<path d="M1303.7,766c-0.5,0-1.1-0.2-1.5-0.6c0,0-3.8-4.1-9.2-8.9c-0.8-0.7-0.9-2-0.2-2.8c0.7-0.8,2-0.9,2.8-0.2
			c5.5,4.9,9.3,9,9.4,9.1c0.8,0.8,0.7,2.1-0.1,2.8C1304.7,765.8,1304.2,766,1303.7,766z"/>
	</g>
	<g>
		<path d="M1357.8,855.6c-7.4,0-15.3-0.9-23.5-2.6c-21-4.3-40.2-15.7-54.2-32c-5.7-0.4-34.3-4.8-60.2-51
			c-14.2-25.3-26.8-56.2-38.9-86.1c-17.3-42.5-35.2-86.5-58.6-117.2c-12.5-16.4-25.4-27.8-39.6-34.6c-15.8-7.7-32.8-9.7-51.8-6
			c-21,4-25.9,28.3-32.1,59c-7,34.8-14.9,74.2-49.2,97.7c-0.9,0.6-2.2,0.4-2.8-0.5c-0.6-0.9-0.4-2.2,0.5-2.8
			c32.9-22.6,40.7-61.2,47.5-95.2c6.2-30.9,11.6-57.6,35.2-62.1c82.7-15.8,119.2,73.7,154.4,160.3c12.1,29.8,24.6,60.6,38.7,85.7
			c27,48.2,57.4,49,57.7,49c0.6,0,1.2,0.3,1.5,0.7c13.4,16,32,27.1,52.5,31.3c12.8,2.7,24.7,3.2,35.2,1.6c1.1-0.2,2.1,0.6,2.3,1.7
			c0.2,1.1-0.6,2.1-1.7,2.3C1366.7,855.2,1362.4,855.6,1357.8,855.6z"/>
	</g>
	<path d="M1422.2,810.1c-9.8-1-17.4-9.2-17.7-19.1v-0.2h7.5c6.6,0,12,5.4,12,11.9c0,1-0.1,2-0.3,2.9c-0.4,1.4-0.8,2.9-1.3,4.3
		L1422.2,810.1L1422.2,810.1z"/>
	<g>
		<path d="M1363.5,796.4c-0.8,0-1.6-0.5-1.9-1.4l-0.8-2.4c-0.3-1,0.2-2.2,1.3-2.5c1-0.4,2.2,0.2,2.5,1.3l0.8,2.4
			c0.3,1-0.2,2.2-1.3,2.5C1363.9,796.4,1363.7,796.4,1363.5,796.4z"/>
	</g>
	<g>
		<path d="M1303.7,766c-0.8,0-1.6-0.5-1.9-1.3c-0.4-1,0.2-2.2,1.2-2.6c9.5-3.4,20-5,30.3-4.6c1.1,0,2,1,1.9,2.1c0,1.1-0.9,2-2.1,1.9
			c-9.8-0.4-19.7,1.1-28.7,4.4C1304.2,766,1303.9,766,1303.7,766z"/>
	</g>
	<g>
		<path d="M1282.7,777c-0.7,0-1.4-0.4-1.7-1l-9-16c-0.5-1-0.2-2.2,0.8-2.7c1-0.5,2.2-0.2,2.7,0.8l9,16c0.5,1,0.2,2.2-0.8,2.7
			C1283.4,776.9,1283,777,1282.7,777z"/>
	</g>
</g>
<g id="woman">
	<path d="M499.5,869l0.1-0.1c9.8-14.7,23.9-32.6,41.9-53.3l0.2-0.2l0.1,0.2c10.6,17.3,16.1,37.1,16.1,57.4v0.1l-35,27.3L499.5,869z"
		/>
	<path d="M1007.9,1007.2c-15.3-12.9-31.6-30.6-48.6-52.6l-0.1-0.3l0.1,0c16.1-7.5,34-11.5,51.7-11.5h0.2c1.2,0,2.5,0,3.7,0.1h0.1
		l22.5,37.8L1007.9,1007.2L1007.9,1007.2z"/>
	<path d="M933.6,609.2c-0.1,0-7.9-3.1-8.9-13.2c-1-10,7.4-24.1,7.5-24.2l0.1-0.1l30.4,2.1l-0.1,0.2c-3.4,10.4-15.4,31.6-28.8,35.2
		H933.6z"/>
	<path d="M590.6,763.2c-23.2-16.4-52-54-56.1-79.6c-1.2-7.5-0.3-13.4,2.9-17.6c0.2-0.2,5-5.7,18.6-5.7c7.2,0,15.5,1.6,24.8,4.7
		c25.6,8.5,60.7,40.7,61.1,41l0.1,0.1l-0.1,0.1c-19.8,29.7-50.7,56.8-51,57l-0.1,0.1L590.6,763.2z"/>
	<g>
		<path class="st2" d="M567.6,792.2l2.6-5.3c12.2-13,21-21.9,21.7-22.6c1.5-1.3,31.9-28.2,51.3-57.3l8.9-13.4l89,69.7l-14.8,17.6
			c-8.5,10.6-19.5,21-31.1,32.1c-8.9,8.4-18,17.1-26.8,26.6l-12.5,9.9L589,872.8L567.6,792.2z"/>
		<path d="M652.6,696.5l85.7,67l-13.5,16c0,0,0,0-0.1,0.1c-8.4,10.5-19.4,20.8-31,31.9c-8.8,8.4-18,17.1-26.8,26.5l-12.1,9.6
			l-64.5,22.5l-20.6-77.7l2.1-4.4c11.8-12.6,20.5-21.3,21.4-22.3c2.1-1.8,32.2-28.7,51.6-57.7L652.6,696.5 M651.6,690.7l-10.1,15.2
			c-19.8,29.6-50.7,56.7-51,57c-0.1,0.1-9.2,9.2-22,22.9l-3.1,6.2l22.1,83.3l69.3-24.1l12.9-10.2c8.8-9.4,18-18.2,26.9-26.6
			c11.7-11.1,22.7-21.6,31.3-32.2L744,763L651.6,690.7L651.6,690.7z"/>
	</g>
	<path class="st3" d="M543.1,927.4L543.1,927.4c19.8-34.8,19.2-77.5-1.6-111.6l-0.1-0.1l0.1-0.1c8.4-9.6,17.5-19.7,27.1-29.9
		l0.2-0.2l0.1,0.2c0.2,0.3,23.8,34.3,25,71.8l10-11.8c8.6-10.1,21.1-15.9,34.4-15.9c7.5,0,15,1.9,21.6,5.5l10,5.5l-0.2,0.2
		c-20.9,22.4-45.1,54.2-46.8,101.1c-1.9,52.2-13.7,60.6-20.1,65.2l-0.2,0.1L543.1,927.4z"/>
	<g>
		<path class="st2" d="M936.2,919c-19.2-28.8-37-59-52.9-89.8l-12-23L972.1,779l9.8,11.5c8.7,14.3,16,26.2,21.7,35.4l4.4,10.4
			l3.9,71.3L944.2,927L936.2,919z"/>
		<path d="M971.4,781.3l8.9,10.4c8.6,14.2,15.8,26,21.5,35.1l4.2,10l3.8,69.3l-64.9,18.6l-7.1-7c-19.2-28.7-36.9-58.8-52.7-89.5
			l-10.8-20.8L971.4,781.3 M972.8,776.8l-104.4,28.1l13.1,25.2c15.9,30.9,33.8,61.2,53.1,90.2l9,9l70.3-20.1l-4-73.2l-4.6-10.9
			c-5.7-9.3-13.1-21.3-21.8-35.7L972.8,776.8L972.8,776.8z"/>
	</g>
	<path d="M534.7,312c35,25,65.2,17.1,85,10c28-10,58-16,95,16l-7,13c-51-5-62.7,43.4-113,72c-44,25-88,3-88,3L534.7,312z"/>
	<g>
		<path class="st2" d="M1040.5,596.9c-2.2,0-4.7-1.1-7.5-3.2l-0.4-0.3c-11.9-9-20.4-15.5-43.9-19.3c-4.4-0.7-12-1.1-21.7-1.7
			l-4.6-0.3l-30-2l-30.6-3.2l35.8-67.3l25.7,3.4c42.5,7,72,13.1,93.3,32.6c11,10,12.4,15.7,11.7,18.7c-0.6,2.8-3.4,3.9-4.2,4.2
			c-0.6,0.2-1,0.7-1.2,1.3s-0.1,1.2,0.3,1.8c0.6,0.8,3.5,5.2,2.5,9.1c-0.6,2.4-2.5,4.3-5.6,5.8l-1.3,0.5c-1,0.3-1.5,1.4-1.3,2.3
			c0.1,0.6,0.8,3.8-0.9,6.3c-1.2,1.8-3.4,2.8-6.6,3.1c-0.8,0.1-1.4,0.6-1.7,1.3C1048.1,590.7,1045.7,596.9,1040.5,596.9z"/>
		<path d="M938.8,501.7l24.3,3.2c42.2,7,71.4,13,92.3,32.1c11.2,10.2,11.5,15.1,11.1,16.8c-0.4,1.8-2.5,2.7-2.9,2.8
			c-1.2,0.4-2.1,1.4-2.4,2.6s-0.2,2.5,0.6,3.5c1.1,1.6,2.8,4.9,2.2,7.5c-0.4,1.7-1.9,3.2-4.4,4.4l-1.2,0.4c-1.9,0.7-3,2.7-2.6,4.7
			c0.1,0.3,0.6,2.9-0.6,4.7c-0.9,1.3-2.6,2-5.2,2.3c-1.5,0.2-2.8,1.2-3.3,2.6c-0.1,0.2-2.1,5.5-6,5.5c-1.7,0-3.9-1-6.3-2.8l-0.4-0.3
			c-11.6-8.9-20.8-15.8-44.7-19.6c-4.5-0.7-12.2-1.2-21.9-1.7l-4.5-0.3l-30-2l-27.7-2.9L938.8,501.7 M936.6,497.4l-37.9,71.2
			l33.6,3.5l30,2l4.5,0.3c9.6,0.6,17.2,1,21.5,1.7c22.9,3.6,31.3,10,43,18.9l0.4,0.3c3.1,2.4,6.1,3.6,8.7,3.6c6.5,0,9.3-7.1,9.7-8.1
			c3.8-0.4,6.5-1.7,8.1-4c2.2-3.2,1.4-7,1.2-7.9l1.4-0.5c3.8-1.8,6.1-4.2,6.8-7.2c1.2-4.8-2-9.7-2.8-10.8c1-0.4,4.6-1.9,5.4-5.7
			c1.2-5.2-2.9-12.1-12.3-20.7c-21.8-19.9-51.5-26-94.4-33.1L936.6,497.4L936.6,497.4z"/>
	</g>
	<path class="st4" d="M983.3,789.6c-27.3-44.9-70.2-116.5-124.2-207c34.1,16,65.2,26.3,74.6,26.6c-16-6.6-1.2-37.3-1.2-37.3
		c0.7-1.3,4.3-7.9,19.3-32.5c12.4-20.4,11.9-37.9,11.9-38.1l0-0.4l-0.2,0c-4.4-0.7-9-1.2-13.7-2c-4.4-0.7-8.9-1.4-13.5-2.2
		c-28-4.6-61.2-16.2-93.5-32.5c-31.3-15.8-58.3-34.3-76.1-52.1l-0.1-0.1l-13.9,6.4l-34.2-36.6l-0.1,0.3
		c-19.8,70.9-75.6,158.4-181,283.9c0,0,36.8-20.6,104.2,40.4c3.2,3.1,47.6,48,85.9,75.8c45.5,32.9,90.7,48.3,142.2,48.3
		c4,0,8-0.1,11.8-0.1c65.3-3,101.4-40.2,101.8-40.6V789.6L983.3,789.6z"/>
	<g>
		<path d="M1047.9,590.5c-0.6,0-1.2-0.3-1.6-0.8c-13.8-19.5-40-31.2-40.3-31.3c-1-0.4-1.5-1.6-1-2.6c0.4-1,1.6-1.5,2.6-1
			c1.1,0.5,27.5,12.3,41.9,32.7c0.6,0.9,0.4,2.1-0.5,2.8C1048.7,590.4,1048.3,590.5,1047.9,590.5z"/>
	</g>
	<g>
		<path d="M1057.7,579.1c-0.7,0-1.3-0.3-1.7-0.9c-14.3-21.7-45.6-33.3-45.9-33.4c-1-0.4-1.6-1.5-1.2-2.6c0.4-1,1.5-1.6,2.6-1.2
			c1.3,0.5,32.9,12.2,47.9,35c0.6,0.9,0.4,2.2-0.6,2.8C1058.5,579,1058.1,579.1,1057.7,579.1z"/>
	</g>
	<g>
		<path d="M1062.3,561.7c-0.6,0-1.1-0.2-1.5-0.7c-20.8-23.4-43.9-31.1-44.1-31.1c-1.1-0.3-1.6-1.5-1.3-2.5c0.3-1.1,1.5-1.6,2.5-1.3
			c1,0.3,24.4,8,45.9,32.3c0.7,0.8,0.7,2.1-0.2,2.8C1063.2,561.5,1062.8,561.7,1062.3,561.7z"/>
	</g>
	<g>
		<path class="st2" d="M710.5,429.5c-11,0-20-9-20-20s9-20,20-20s20,9,20,20S721.5,429.5,710.5,429.5z"/>
		<path d="M710.5,391.6c9.9,0,18,8.1,18,18s-8.1,18-18,18s-18-8.1-18-18C692.5,399.6,700.6,391.6,710.5,391.6 M710.5,387.6
			c-12.1,0-22,9.8-22,22c0,12.1,9.8,22,22,22s22-9.8,22-22C732.4,397.4,722.6,387.6,710.5,387.6L710.5,387.6z"/>
	</g>
	<g>
		<path class="st2" d="M754.2,427.2c-7.7,0-16-3.8-24-11.1c-35-31.9-35.4-49.9-24.6-68.8c0,0,4.3-7.1,11.9-14
			c10-9.2,20.8-13.8,32-13.8c0.8,0,1.7,0,2.6,0.1c16,1,29.7,25.2,31.8,56.2c1.2,18.1-3.1,33.9-12,43.4
			C766.9,424.4,760.8,427.2,754.2,427.2L754.2,427.2z"/>
		<path d="M749.5,321.5c0.8,0,1.6,0,2.4,0.1c6.8,0.4,13.6,5.8,19.1,15.2c5.9,10.1,9.8,24,10.8,39.1c1.2,17.3-3.1,33-11.4,41.9
			c-4.6,4.9-10.2,7.5-16.2,7.5c-7.2,0-15-3.7-22.6-10.6c-34-31-34.5-48.3-24.3-66.3C707.9,347.4,724.1,321.5,749.5,321.5
			 M749.5,317.5c-28.4,0-45.6,28.9-45.6,28.9c-12.1,21.1-8.8,40.4,25,71.2c8.9,8.1,17.5,11.6,25.3,11.6c19.6,0,33.7-22.7,31.6-53.6
			c-2.2-32.6-16.8-57-33.6-58C751.3,317.5,750.4,317.5,749.5,317.5L749.5,317.5z"/>
	</g>
	<g>
		<path d="M766,380.8c-0.5,0-0.9-0.2-1.3-0.5c-0.8-0.7-0.9-2-0.2-2.8c1-1.2,1.3-2.5,1.4-3.5c0.2-2.4-2.7-8-5.9-13.7
			c-0.5-1-0.2-2.2,0.8-2.7c1-0.5,2.2-0.2,2.7,0.8c5,9,6.6,13,6.3,16c-0.3,2.2-1.1,4.1-2.4,5.6C767.1,380.6,766.6,380.8,766,380.8z"
			/>
	</g>
	<g>
		<path d="M750.2,372.3c-0.8,0-1.5-0.5-1.8-1.2l-0.9-2.1c-0.4-1,0-2.2,1-2.6c1-0.4,2.2,0,2.6,1l0.9,2.1c0.4,1,0,2.2-1,2.6
			C750.7,372.2,750.5,372.3,750.2,372.3z"/>
	</g>
	<g>
		<path d="M771.4,357.5c-0.8,0-1.5-0.5-1.9-1.2l-0.9-2.2c-0.4-1,0.1-2.2,1.1-2.6c1-0.4,2.2,0.1,2.6,1.1l0.9,2.2
			c0.4,1-0.1,2.2-1.1,2.6C771.9,357.5,771.7,357.5,771.4,357.5z"/>
	</g>
	<g>
		<path d="M760.7,395c-3.6,0-7-2-8.6-5.4c-0.5-1,0-2.2,1-2.7c1-0.5,2.2,0,2.7,1c1.2,2.7,4.5,3.9,7.2,2.6c0.3-0.1,0.6-0.3,0.8-0.5
			c0.9-0.7,2.1-0.5,2.8,0.4c0.7,0.9,0.5,2.1-0.4,2.8c-0.5,0.4-1.1,0.7-1.5,0.9C763.5,394.7,762.1,395,760.7,395z"/>
	</g>
	<g>
		<path d="M708.1,415.1c-0.6,0-1.1-0.2-1.5-0.7c-0.7-0.8-0.6-2.1,0.2-2.8l9.7-8.4c0.8-0.7,2.1-0.6,2.8,0.2s0.6,2.1-0.2,2.8l-9.7,8.4
			C709,414.9,708.6,415.1,708.1,415.1z"/>
	</g>
	<path d="M772.1,332.8c-21.2,21.1-55.7,15.4-55.7,15.4c10.2,15.7,19.7,39.1,7.6,63.9c0,0-12.7-10.5-22.9-31.6s8.6-43.7,22-52.4
		S755.2,310,772.1,332.8z"/>
	<path class="st3" d="M1065.1,955.7c-16.7-8.2-35.3-12.5-53.9-12.5c-18,0-35.4,3.9-51.7,11.4l-0.1,0.1l-0.1-0.1
		c-8.1-10.5-16.5-22-24.7-34.3l-0.1-0.2l0.3-0.2c0.3-0.2,26-17.2,63.8-17.2c0.9,0,1.8,0,2.8,0L996,896c-15.1-18.9-14-46.4,2.5-64
		l6.8-7.2l0.1,0.2c7.3,11.9,12.2,19.6,14.5,22.9c18.7,26.7,38.5,32.1,64.5,32.1c2.5,0,5.3-0.1,8.3-0.2c0.9,0,1.9,0,2.8,0
		c26.8,0,38.3,14,38.4,14.1l0.1,0.1l-68.7,61.8L1065.1,955.7z"/>
	<g>
		<path d="M1042.2,871.5c-0.9,0-1.7-0.6-1.9-1.5l-21.8-77.8c-1.8-6.3-1-12.9,2.3-18.7c3.2-5.7,8.5-9.9,14.8-11.7
			c2-0.6,4.1-0.9,6.6-0.9c13.6,0,24.6,11,24.6,24.6c0,2.1-0.3,4.3-0.9,6.6l-21.8,77.9C1043.9,870.9,1043.1,871.5,1042.2,871.5z
			 M1042.2,765c-2.1,0-3.9,0.2-5.5,0.7c-5.3,1.5-9.7,5-12.5,9.8c-2.7,4.8-3.4,10.4-1.9,15.6l19.9,70.9l19.9-70.9
			c0.5-1.9,0.7-3.8,0.7-5.6C1062.8,774.2,1053.6,765,1042.2,765z"/>
	</g>
	<g>
		<path d="M1042.6,871.4c-1.1,0-1.9-0.8-2-1.9c-0.1-1.1,0.8-2,1.9-2.1c15-0.9,22.2-7.2,29.8-13.8c6.1-5.4,12.4-10.9,22.8-13.7
			c1.1-0.3,2.2,0.3,2.4,1.4c0.3,1.1-0.3,2.2-1.4,2.4c-9.5,2.6-15.2,7.5-21.2,12.8c-7.8,6.8-15.8,13.9-32.2,14.8
			C1042.7,871.4,1042.6,871.4,1042.6,871.4z"/>
	</g>
	<g>
		<path d="M720.3,931c-0.7,0-1.5,0-2.2-0.1c-2.2-0.2-4.6-0.7-6.8-1.5l-78.9-29.5c-0.8-0.3-1.4-1.1-1.3-2c0.1-0.9,0.7-1.6,1.6-1.8
			l82.8-15.8c6.7-1.3,13.5,0.2,19.2,4c5.7,3.9,9.5,9.7,10.7,16.4c0.4,2.3,0.5,4.7,0.3,7c-0.6,6.8-3.8,13-9,17.4
			C732.1,928.9,726.4,931,720.3,931z M640.5,898.6l72.2,27c1.9,0.7,3.9,1.1,5.8,1.3c11.8,1,22.3-7.8,23.3-19.7
			c0.2-1.9,0.1-4-0.3-5.9c-1.1-5.7-4.3-10.6-9.1-13.8c-4.8-3.2-10.5-4.5-16.2-3.4L640.5,898.6z"/>
	</g>
	<g>
		<path d="M1032.7,891c-0.3,0-0.6-0.1-0.9-0.2c-1-0.5-1.4-1.7-0.9-2.7l10-20c0.5-1,1.7-1.4,2.7-0.9c1,0.5,1.4,1.7,0.9,2.7l-10,20
			C1034.1,890.6,1033.4,891,1032.7,891z"/>
	</g>
	<g>
		<path d="M1060.7,904c-0.1,0-0.2,0-0.3,0c-1.1-0.1-1.9-1.1-1.7-2.2l3-24c0.1-1.1,1.1-1.9,2.2-1.7c1.1,0.1,1.9,1.1,1.7,2.2l-3,24
			C1062.6,903.3,1061.7,904,1060.7,904z"/>
	</g>
	<g>
		<path d="M858.8,583.9c-0.3,0-0.5-0.1-0.8-0.2c-33.8-15-59.8-31.1-75.8-42c-17.3-11.8-26.5-19.9-26.8-20.3c-0.8-0.7-0.9-2-0.2-2.8
			c0.7-0.8,2-0.9,2.8-0.2c0.1,0.1,9.4,8.3,26.5,20c15.8,10.8,41.6,26.7,75.1,41.6c1,0.4,1.5,1.6,1,2.6
			C860.3,583.5,859.6,583.9,858.8,583.9z"/>
	</g>
	<g>
		<path d="M926.7,805c-0.7,0-1.3-0.3-1.7-0.9L887.3,748L825,804.5c-0.7,0.6-1.7,0.7-2.4,0.2c-0.8-0.5-1.1-1.4-0.8-2.3l25.2-76.7
			l-88.5-9.7c-0.9-0.1-1.7-0.8-1.8-1.8c-0.1-0.9,0.5-1.8,1.3-2.1l88.2-30.4l-19.4-63.2c-0.3-0.8,0.1-1.8,0.8-2.2
			c0.7-0.5,1.7-0.5,2.4,0.1l59.3,47.8l3.5-21.6c0.2-1.1,1.2-1.8,2.3-1.7c1.1,0.2,1.8,1.2,1.7,2.3l-4,25c-0.1,0.7-0.6,1.3-1.3,1.6
			c-0.7,0.3-1.4,0.1-2-0.3l-56.9-45.9l18.1,58.8c0.3,1-0.2,2.1-1.3,2.5L767.8,713l82.1,9c0.6,0.1,1.1,0.4,1.5,0.9s0.4,1.1,0.2,1.7
			L828,796.4l58.4-52.9c0.4-0.4,1-0.6,1.6-0.5c0.6,0.1,1.1,0.4,1.4,0.9l35.3,52.6V734c0-0.6,0.3-1.2,0.8-1.6
			c0.5-0.4,1.1-0.5,1.7-0.4l27.2,6.8c1.1,0.3,1.7,1.4,1.5,2.4s-1.4,1.7-2.4,1.5l-24.7-6.2V803c0,0.9-0.6,1.7-1.4,1.9
			C927.1,805,926.9,805,926.7,805z"/>
	</g>
	<g>
		<path d="M697.7,701c-0.8,0-1.5-0.5-1.8-1.2l-31-71.8l-53,36.6c-0.7,0.5-1.6,0.5-2.3,0c-0.7-0.5-1-1.4-0.7-2.2l21.2-65.3l-33.3-0.1
			c-1.1,0-2-0.9-2-2c0-1.1,0.9-2,2-2c0,0,0,0,0,0l36,0.1c0.6,0,1.2,0.3,1.6,0.8c0.4,0.5,0.5,1.2,0.3,1.8L614.4,658l50.1-34.6
			c0.5-0.3,1.1-0.4,1.7-0.3c0.6,0.2,1,0.6,1.3,1.1l28.7,66.4l4.5-68.7c0-0.5,0.3-1,0.7-1.4c0.4-0.4,0.9-0.5,1.5-0.5l64.8,4.4
			L709,589c-0.6-0.4-0.9-1-1-1.7c0-0.7,0.3-1.3,0.9-1.7l47.2-31.6l-52.6,0.2c0,0,0,0,0,0c-0.5,0-1.1-0.2-1.5-0.6
			c-0.4-0.4-0.6-0.9-0.5-1.5l3.7-63.2L670.8,545c-0.4,0.6-1.1,1-1.8,1c-0.7,0-1.4-0.5-1.7-1.2l-14.4-32c-0.5-1,0-2.2,1-2.6
			c1-0.5,2.2,0,2.6,1l12.8,28.5L706,480c0.5-0.8,1.4-1.1,2.3-0.9c0.9,0.3,1.5,1.1,1.4,2l-4.1,69.1l57.1-0.2c0,0,0,0,0,0
			c0.9,0,1.7,0.6,1.9,1.4c0.3,0.8-0.1,1.8-0.8,2.2l-50.1,33.6l63,38.1c0.8,0.5,1.2,1.4,0.9,2.3c-0.3,0.9-1.1,1.5-2,1.4l-71-4.9
			l-4.9,75c-0.1,0.9-0.7,1.7-1.7,1.8C697.9,701,697.8,701,697.7,701z"/>
	</g>
	<g>
		<path d="M955,535.5c-0.7,0-1.4-0.4-1.8-1.1l-18.3-36.5c-0.5-1-0.1-2.2,0.9-2.7c1-0.5,2.2-0.1,2.7,0.9l18.3,36.5
			c0.5,1,0.1,2.2-0.9,2.7C955.6,535.4,955.3,535.5,955,535.5z"/>
	</g>
	<g>
		<path d="M896.7,581c-0.9,0-1.7-0.6-1.9-1.4l-19.4-63.9l-58.9,25.1c-0.8,0.4-1.8,0.1-2.4-0.6c-0.6-0.7-0.6-1.7,0-2.4l34.7-47
			l-60.8-24.9c-0.9-0.3-1.4-1.2-1.2-2.1c0.1-0.9,0.9-1.6,1.8-1.7l45.8-4.2c1.1-0.1,2.1,0.7,2.2,1.8c0.1,1.1-0.7,2.1-1.8,2.2
			l-37.7,3.5l55.6,22.8c0.6,0.2,1,0.7,1.2,1.3c0.2,0.6,0,1.2-0.3,1.7l-31.8,43.2l54.3-23.1c0.5-0.2,1.1-0.2,1.6,0
			c0.5,0.2,0.9,0.7,1.1,1.2l18,59.4l14.1-50.4c0.2-0.6,0.6-1.1,1.2-1.3c0.6-0.2,1.2-0.2,1.8,0.2l36,22c0.9,0.6,1.2,1.8,0.7,2.7
			c-0.6,0.9-1.8,1.2-2.8,0.7l-33.7-20.6l-15.3,54.5C898.4,580.4,897.6,581,896.7,581C896.7,581,896.7,581,896.7,581z"/>
	</g>
	<g>
		<path d="M657.2,957.9c-0.9,0-1.8-0.7-2-1.6c-1.8-10.1-6.5-16.5-11.5-23.2c-6.2-8.4-12.7-17.1-12.6-33.2l-23.9-6.7
			c-1.1-0.3-1.7-1.4-1.4-2.5s1.4-1.7,2.5-1.4l25.4,7.1c0.9,0.2,1.5,1.1,1.5,2c-0.4,15.7,5.5,23.8,11.8,32.3
			c5,6.8,10.2,13.8,12.2,24.8c0.2,1.1-0.5,2.1-1.6,2.3C657.4,957.9,657.3,957.9,657.2,957.9z"/>
	</g>
	<g>
		<path d="M625,922.2c-0.1,0-0.2,0-0.3,0l-25.3-4.2c-1.1-0.2-1.8-1.2-1.6-2.3c0.2-1.1,1.2-1.8,2.3-1.6l25.3,4.2
			c1.1,0.2,1.8,1.2,1.6,2.3C626.8,921.5,626,922.2,625,922.2z"/>
	</g>
</g>
<g id="BOY">
	<path d="M437.2,953.5c-9.4,0-21.2-2.2-24.7-12.5c0-0.3-1.5-5.5,5.5-11.5c3.4-2.7,8.7-4.8,12.6-6.7l0.2-0.1l0.1,0.2
		c6.9,10.9,19.9,28.8,20,29l0.2,0.2l-0.3,0.1C450.7,952.2,444.5,953.5,437.2,953.5z"/>
	<path d="M198.5,889.1c-13.9-25.8-3-35.3-2.9-35.3s0.5-0.2,1.6-0.2c2,0,7.4,0.3,11.8,4.7c5,5,8.8,15.5,8.8,15.6l0.1,0.2l-0.2,0.1
		c-4.9,3-18.8,14.9-19,15l-0.2,0.2L198.5,889.1z"/>
	<g>
		<path class="st2" d="M433.9,647.9l7.4-8.7c30.1-35,35.8-37.4,36.6-37.5c0.2,0,0.5,0,0.7,0c1.1,0,1.9,0.4,2.5,1.1
			c2,2.5,1.6,8.5,0.9,11.7c-0.1,0.6,0,1.1,0.3,1.6l26.3,37.1c-6.1,12.8-13.6,25-22.2,36.3l-0.1,0.1l-7.2,6.9L433.9,647.9z"/>
		<path d="M478.6,603.7c0.6,0,0.8,0.2,0.9,0.4c1.3,1.6,1.3,6.4,0.5,10c-0.2,1.1,0,2.3,0.6,3.2l25.7,36.1
			c-5.9,12.3-13.2,24-21.5,34.8l-5.6,5.4l-42.6-45.7l6.1-7.2l0.1-0.1c27.7-32.2,34.3-36.3,35.5-36.8
			C478.4,603.7,478.5,603.7,478.6,603.7 M478.6,599.7c-0.3,0-0.6,0-1,0.1c-4.7,0.6-23.2,21.1-37.9,38.2l-0.1,0.1l-8.4,9.9l47.8,51.2
			l8.7-8.4l0.1-0.2c9-11.6,16.7-24.3,22.9-37.6v-0.1l-27-38c0.7-3.2,1.4-10-1.3-13.3C481.7,600.4,480.3,599.7,478.6,599.7
			L478.6,599.7z"/>
	</g>
	<path class="st0" d="M426.6,730.6c-2,0-4-0.1-5.9-0.4c-44.5-5.9-85.7-43.7-86.1-44.1l-0.1-0.1l18.1-55.3h0.2
		c21.2,1.9,65,28.2,67.9,29.9c1-1.3,9.3-11.3,19.1-22.8l0.1-0.2l48.1,52.7l-0.1,0.1C474,708.9,452,730.6,426.6,730.6z"/>
	<path class="st0" d="M165.4,926l0.1-0.1c6.9-13.9,32.8-36.8,33-37.1c0.1-0.1,14.1-12,19-15l0.1-0.1h0.1c10.2,4.2,28,25.9,41.2,43.4
		c8.3,11,14.4,19.8,14.4,19.9l0.1,0.1l-0.1,0.1c-9.6,8.4-18.5,18.4-18.5,33.6c0,29.8-8.8,35.9-9.2,36.2l-0.1,0.1L165.4,926z"/>
	<path class="st1" d="M273.1,937.4c-0.2-0.1-15.4-6.4-26.5-18.3c-10.9-11.6-15.8-20.8-20.9-30.6c-2.4-4.5-4.9-9.2-8-14.3
		c-12.9-22.4-22.2-20.3-22.1-20.4c4-2.9,11.7-5.5,20.7-8.6c16.1-5.5,36.1-12.3,46.3-24.4c16.8-19.9,24.4-71.3,24.5-71.8v-0.2
		l86.9-0.1v0.2c0,0.3,0,34.2-4,54c-8.9,44.5-25.4,68.5-52.8,97.3c-8,8.1-16.6,15.7-25.7,22.6c-1.2,1-2.5,1.9-3.7,2.9
		c-5.2,4-10.1,7.8-14.5,11.6L273.1,937.4L273.1,937.4z"/>
	<path class="st0" d="M287.4,749.3l22.1-114.5l54.3,5.7l0.1,0.1c12.6,17.9,26.5,39.2,42.7,63.8c9.4,14.3,19,29.1,29.4,44.6l0.2,0.3
		L287.4,749.3L287.4,749.3z"/>
	<path class="st0" d="M500.6,1007.2c-0.2-0.2-22.3-16.5-50-55c-0.1-0.2-13.1-18.1-20-29l-8.1-10.2l79.3-53.2l9.1,9.8l3.1,5.5
		c19.6,34.7,21.2,37.6,38.8,41.8c4.6,1.1,8.7,2,12.3,2.7c13,2.7,19.5,4.1,22.8,10.4l0.1,0.1l-87.1,77.2L500.6,1007.2z"/>
	<path class="st1" d="M412.5,941.1c-0.6-1.9-1.8-7.5-3.4-15.2c-3.1-14.5-7.7-36.5-12.6-51.8c-7.9-24.7-26.8-45.7-27-45.9
		c-0.1-0.1-13.7-12.7-27.8-28.6c-13-14.7-29.2-35.4-32.3-50.4V749H436l0.1,0.1c21.5,31.5,39.8,60.4,54.8,85.9
		c8.3,14,14.8,25.4,20.1,34.7l0,0.1l0,0.1c-0.1,0.1-5.2,14.5-21.1,25.4c-11.1,7.6-25.4,13.6-39.3,19.4c-6.6,2.7-13.4,5.6-19.5,8.5
		C411.4,932.3,412.5,941.1,412.5,941.1z"/>
	<g>
		<path d="M364.7,825.2c-0.5,0-1-0.2-1.4-0.6c-6-5.8-17.7-17.5-28.9-31.1c-0.7-0.8-0.6-2.1,0.3-2.8c0.9-0.7,2.1-0.6,2.8,0.3
			c11.1,13.4,22.7,25,28.7,30.7c0.8,0.8,0.8,2,0,2.8C365.7,825,365.2,825.2,364.7,825.2z"/>
	</g>
	<g>
		<path d="M517.7,918c-0.5,0-1-0.2-1.4-0.6c-0.8-0.8-0.8-2,0-2.8l13-13c0.8-0.8,2-0.8,2.8,0c0.8,0.8,0.8,2,0,2.8l-13,13
			C518.7,917.8,518.2,918,517.7,918z"/>
	</g>
	<g>
		<path d="M532.7,933c-0.4,0-0.7-0.1-1-0.3c-0.9-0.6-1.2-1.8-0.7-2.8l10.4-16.9c0.6-0.9,1.8-1.2,2.8-0.7c0.9,0.6,1.2,1.8,0.7,2.8
			L534.4,932C534,932.7,533.4,933,532.7,933z"/>
	</g>
	<g>
		<path d="M260.3,954.4c-0.3,0-0.6-0.1-0.9-0.2l-13.6-6.4c-1-0.5-1.4-1.7-1-2.7c0.5-1,1.7-1.4,2.7-1l13.6,6.4c1,0.5,1.4,1.7,1,2.7
			C261.8,954,261,954.4,260.3,954.4z"/>
	</g>
	<g>
		<path d="M254.9,969.3c-0.1,0-0.2,0-0.3,0l-15.1-2.1c-1.1-0.2-1.9-1.2-1.7-2.3c0.2-1.1,1.2-1.9,2.3-1.7l15.1,2.1
			c1.1,0.2,1.9,1.2,1.7,2.3C256.7,968.6,255.9,969.3,254.9,969.3z"/>
	</g>
	<g>
		<path d="M422.7,732c-0.7,0-1.3-0.3-1.7-0.9l-30-46c-0.6-0.9-0.3-2.2,0.6-2.8c0.9-0.6,2.2-0.3,2.8,0.6l30,46
			c0.6,0.9,0.3,2.2-0.6,2.8C423.5,731.9,423.1,732,422.7,732z"/>
	</g>
	<g>
		<circle class="st3" cx="309.7" cy="391" r="83"/>
		<g>
			<path d="M333.8,450.5c-0.6,0-1.2-0.3-1.5-0.7l-29.9-36.1L271.2,437c-0.7,0.5-1.7,0.5-2.4,0c-0.7-0.5-1-1.4-0.7-2.3l13.1-37.7
				L252,374.2c-0.7-0.5-0.9-1.4-0.7-2.2c0.3-0.8,1-1.4,1.9-1.4l35.1-0.7l4.6-38.7c0.1-0.9,0.8-1.6,1.7-1.7c0.9-0.1,1.7,0.3,2.1,1.1
				l16.8,34.4l31.1-26.1c0.7-0.6,1.7-0.6,2.4-0.1c0.7,0.5,1.1,1.4,0.8,2.3l-13.3,39.1l37.1,12.4c0.9,0.3,1.4,1.1,1.4,2
				c0,0.9-0.7,1.7-1.6,1.9l-41.8,9.6l6.3,42.2c0.1,0.9-0.3,1.8-1.2,2.1C334.4,450.4,334.1,450.5,333.8,450.5z M302.7,408.9
				c0.6,0,1.1,0.2,1.5,0.7l26.5,32.1l-5.5-36.9c-0.2-1,0.5-2,1.5-2.2l36.7-8.4l-32.2-10.7c-0.5-0.2-0.9-0.5-1.2-1
				c-0.2-0.5-0.3-1-0.1-1.5l11.7-34.2L314,369.7c-0.5,0.4-1.1,0.5-1.7,0.4c-0.6-0.1-1.1-0.5-1.4-1.1L296,338.5l-4,33.6
				c-0.1,1-0.9,1.7-1.9,1.8l-31.2,0.6l25.9,20.2c0.7,0.5,0.9,1.4,0.7,2.2L274,429.9l27.5-20.6C301.9,409,302.3,408.9,302.7,408.9z
				 M290,371.9L290,371.9L290,371.9z"/>
		</g>
		<g>
			<path d="M523.7,681c-0.6,0-1.2-0.3-1.6-0.8l-166-220c-0.7-0.9-0.5-2.1,0.4-2.8c0.9-0.7,2.1-0.5,2.8,0.4l166,220
				c0.7,0.9,0.5,2.1-0.4,2.8C524.5,680.9,524.1,681,523.7,681z"/>
		</g>
		<polygon class="st3" points="350.9,450.5 386.8,465.6 355.8,489.1 		"/>
		<g>
			<path d="M352.4,464.2c-0.6,0-1.2-0.3-1.6-0.8c-0.6-0.9-0.4-2.1,0.5-2.8l9.8-7c0.9-0.6,2.1-0.4,2.8,0.5c0.6,0.9,0.4,2.1-0.5,2.8
				l-9.8,7C353.2,464.1,352.8,464.2,352.4,464.2z"/>
		</g>
	</g>
	<g>
		<path d="M249.7,924c-0.6,0-1.1-0.2-1.5-0.7c-0.7-0.9-0.6-2.1,0.3-2.8c0.3-0.2,27-22.4,49.9-43.9c18.9-17.8,33.8-41.8,45.5-73.2
			c0.4-1,1.5-1.6,2.6-1.2c1,0.4,1.6,1.5,1.2,2.6c-11.9,32.1-27.1,56.5-46.5,74.8c-23,21.6-49.8,43.9-50.1,44.1
			C250.6,923.8,250.2,924,249.7,924z"/>
	</g>
	<g>
		<path d="M224.7,888.1c-0.6,0-1.1-0.2-1.5-0.7c-0.7-0.8-0.7-2.1,0.2-2.8c9.1-8.1,20.3-15.7,31.2-22.9c10.5-7,20.3-13.7,26.8-19.9
			c20.5-19.8,35.6-47.7,50.5-93.5c0.3-1,1.5-1.6,2.5-1.3c1.1,0.3,1.6,1.5,1.3,2.5c-15.1,46.4-30.5,74.9-51.5,95.1
			c-6.7,6.4-16.7,13.2-27.3,20.3c-10.7,7.2-21.8,14.7-30.7,22.6C225.6,887.9,225.2,888.1,224.7,888.1z"/>
	</g>
	<g>
		<path d="M489.7,897c-0.8,0-1.5-0.4-1.8-1.2c-17.8-38.3-45.7-95.1-81.8-145.8c-0.6-0.9-0.4-2.1,0.5-2.8c0.9-0.6,2.1-0.4,2.8,0.5
			c36.3,51,64.3,108,82.2,146.4c0.5,1,0,2.2-1,2.7C490.3,896.9,490,897,489.7,897z"/>
	</g>
	<g>
		<path d="M448.7,917.1c-0.8,0-1.6-0.5-1.9-1.3c-12.1-34.5-22.5-60.1-33.9-82.9c-10.2-20.5-20.6-33.3-31.6-46.8
			c-8.3-10.3-16.9-20.9-26.3-35.7c-0.6-0.9-0.3-2.2,0.6-2.8c0.9-0.6,2.2-0.3,2.8,0.6c9.3,14.7,17.8,25.2,26.1,35.4
			c11.1,13.7,21.6,26.6,32,47.5c11.5,22.9,22,48.6,34.1,83.3c0.4,1-0.2,2.2-1.2,2.5C449.1,917.1,448.9,917.1,448.7,917.1z"/>
	</g>
	<g>
		<path d="M532.7,980.7c-0.4,0-0.7-0.1-1.1-0.3c-23.8-15.2-52.2-10.1-63.9-5.3c-1,0.4-2.2-0.1-2.6-1.1c-0.4-1,0.1-2.2,1.1-2.6
			c17.2-7.1,45.7-8.3,67.5,5.7c0.9,0.6,1.2,1.8,0.6,2.8C534,980.4,533.4,980.7,532.7,980.7z"/>
	</g>
	<g>
		<path d="M191.6,954.2c-0.3,0-0.5,0-0.8-0.2c-1-0.4-1.5-1.6-1.1-2.6c4.4-10.6,5.2-36.5-3.7-51.2c-0.6-0.9-0.3-2.2,0.7-2.7
			c0.9-0.6,2.2-0.3,2.7,0.7c9.6,16,8.8,43.2,3.9,54.8C193.1,953.7,192.4,954.2,191.6,954.2z"/>
	</g>
	<g>
		<path class="st2" d="M362.5,781.9c-3.4,0-7.3-0.2-11.6-0.7c-12.3-1.3-25.5-2.9-39.6-5.6l-10.3-3.7l19-56l7.6,0.4
			c23.7,6.6,38.4,11,41.4,12.3c3.3,1.5,5.2,3.2,5.5,4.9c0.3,1.5-0.7,2.7-1,3c-0.4,0.5-0.6,1.2-0.4,1.8s0.7,1.1,1.3,1.4
			c7,2.2,11.3,5.2,12.7,8.5c0.8,2,0.2,3.6,0,3.8c-0.3,0.7-0.2,1.5,0.2,2.1c0.2,0.3,2.2,2.8,1.9,5.5c-0.2,1.4-1,2.7-2.5,3.8
			c-0.7,0.5-1,1.5-0.7,2.3c0.6,1.7,0.6,3.1,0,4.3c-1.2,2.2-4,3-4.6,3.2c-1,0.3-1.6,1.2-1.5,2.2c0,0.3,0.1,1.2-0.8,2.3
			C377.9,779.3,374.1,781.9,362.5,781.9z"/>
		<path d="M321.4,718l5.8,0.3c32.9,9.1,39.6,11.6,40.9,12.2c3,1.4,4.3,2.7,4.4,3.5c0.1,0.6-0.5,1.3-0.5,1.4c-0.9,1-1.2,2.4-0.8,3.7
			c0.4,1.3,1.4,2.3,2.6,2.7c6.3,2,10.3,4.6,11.4,7.3c0.5,1.3,0.1,2.2,0.1,2.2c-0.7,1.4-0.5,3,0.5,4.2c0.6,0.7,1.6,2.5,1.5,4
			c0,0.3-0.2,1.3-1.7,2.4c-1.4,1-2,2.9-1.4,4.6c0.6,1.7,0.2,2.4,0.1,2.7c-0.6,1.2-2.5,1.9-3.4,2.2c-2,0.5-3.2,2.4-3,4.4
			c0,0,0,0.3-0.4,0.8c-0.6,0.8-3.6,3.5-15.1,3.5c-3.4,0-7.2-0.2-11.4-0.7c-12.2-1.3-25.4-2.9-39.3-5.5l-8.3-3L321.4,718
			 M318.5,713.8l-20.1,59.3l12.3,4.4c14.2,2.7,27.6,4.3,39.9,5.7c4.4,0.5,8.4,0.7,11.9,0.7c11.8,0,16.4-2.7,18.2-5
			c1.3-1.7,1.3-3.2,1.2-3.8c0.8-0.2,4.3-1.3,5.9-4.1c0.9-1.7,1-3.7,0.2-5.9c2-1.4,3.1-3.2,3.3-5.1c0.4-3.4-1.8-6.4-2.3-7
			c0.3-0.5,1.1-2.7,0-5.4c-1.6-3.9-6.2-7.2-13.9-9.6c0.5-0.6,1.8-2.4,1.4-4.7c-0.4-2.4-2.7-4.6-6.7-6.4c-4-1.8-25-7.8-41.9-12.5
			L318.5,713.8L318.5,713.8z"/>
	</g>
	<path class="st0" d="M310.7,777.5c-52.6-10-79.2-28.7-79.2-55.5c0-33.3,45.5-67.2,65.1-80.2l34.5-17.3L297,705.9
		c1.9,0.5,15.8,4.3,30.9,8.5l0.2,0.1l-17.2,63.2L310.7,777.5z"/>
	<g>
		<path d="M371.7,741c-0.2,0-0.3,0-0.5-0.1l-12-3c-1.1-0.3-1.7-1.4-1.5-2.4c0.3-1.1,1.4-1.7,2.4-1.5l12,3c1.1,0.3,1.7,1.4,1.5,2.4
			C373.4,740.4,372.6,741,371.7,741z"/>
	</g>
	<g>
		<path d="M386.7,756c-0.1,0-0.1,0-0.2,0c-0.4,0-9.5-1.1-43.2-9c-1.1-0.3-1.7-1.3-1.5-2.4s1.3-1.7,2.4-1.5c33.4,7.8,42.7,8.9,42.8,9
			c1.1,0.1,1.9,1.1,1.8,2.2C388.6,755.2,387.7,756,386.7,756z"/>
	</g>
	<g>
		<path d="M385.7,766c-6.5,0-32.5-3.1-45.6-7.1c-1.1-0.3-1.6-1.4-1.3-2.5c0.3-1.1,1.4-1.6,2.5-1.3c12.5,3.8,38.2,6.9,44.4,6.9
			c1.1,0,2,0.9,2,2S386.8,766,385.7,766z"/>
	</g>
	<g>
		<path d="M379.7,776c-9.9,0-28.9-1.9-42.4-5.1c-1.1-0.2-1.7-1.3-1.5-2.4c0.2-1.1,1.3-1.7,2.4-1.5c12.8,3,31.8,4.9,41.6,4.9
			c1.1,0,2,0.9,2,2S380.8,776,379.7,776z"/>
	</g>
	<g>
		<path d="M329.7,719c-0.2,0-0.4,0-0.5-0.1l-47-13c-1.1-0.3-1.7-1.4-1.4-2.5c0.3-1.1,1.4-1.7,2.5-1.4l47,13c1.1,0.3,1.7,1.4,1.4,2.5
			C331.4,718.4,330.6,719,329.7,719z"/>
	</g>
	<g>
		<path d="M296.7,708c-0.3,0-0.5-0.1-0.8-0.2c-1-0.4-1.5-1.6-1.1-2.6l10.3-24.5c0.4-1,1.6-1.5,2.6-1.1c1,0.4,1.5,1.6,1.1,2.6
			l-10.3,24.5C298.2,707.5,297.5,708,296.7,708z"/>
	</g>
	<g>
		<path class="st2" d="M306.6,646.7c-11,0-20-9-20-20s9-20,20-20s20,9,20,20C326.6,637.8,317.6,646.7,306.6,646.7z"/>
		<path d="M306.6,608.8c9.9,0,18,8.1,18,18s-8.1,18-18,18s-18-8.1-18-18S296.7,608.8,306.6,608.8 M306.6,604.8c-12.1,0-22,9.8-22,22
			s9.8,22,22,22s22-9.8,22-22S318.7,604.8,306.6,604.8L306.6,604.8z"/>
	</g>
	<g>
		<path class="st2" d="M350.2,655.5c-9.5,0-18.5-6-26-17.5c-26-39.6-21.8-57.2-6.7-72.7c0.1-0.1,17.7-17.3,39.4-17.3
			c4.3,0,8.4,0.7,12.5,2c15.3,5,22.5,31.8,16.8,62.3C381.3,637.7,366.5,655.5,350.2,655.5L350.2,655.5z"/>
		<path d="M356.8,550c4,0,8,0.6,11.8,1.9c6.5,2.1,11.7,9,14.7,19.5c3.2,11.3,3.5,25.7,0.7,40.5c-2.3,12.5-7,23.1-13.6,30.8
			c-6,7-13.2,10.8-20.3,10.8c-8.8,0-17.3-5.7-24.4-16.5c-25.2-38.4-21.4-55.4-7-70.2C319.5,566.1,336.3,550,356.8,550 M356.8,546
			c-22.8,0-40.9,17.9-40.9,17.9c-16.9,17.4-18.6,37,6.5,75.2c8.4,12.7,18.2,18.4,27.7,18.4c16.9,0,32.8-17.7,37.9-44.9
			c6-32.1-2.1-59.3-18.1-64.6C365.5,546.6,361.1,546,356.8,546L356.8,546z"/>
	</g>
	<g>
		<path d="M368.1,612.8c-0.6,0-1.2-0.3-1.6-0.8c-0.7-0.9-0.5-2.1,0.4-2.8c1-0.8,1.8-1.8,2.2-3c0.8-2.5-0.9-9.6-2.3-14.7
			c-0.3-1.1,0.3-2.2,1.4-2.5c1.1-0.3,2.2,0.3,2.5,1.4c2.5,9.4,3.1,14.1,2.2,17.1c-0.7,2-1.9,3.6-3.6,4.9
			C369,612.7,368.5,612.8,368.1,612.8z"/>
	</g>
	<g>
		<path d="M354.8,600.7c-1,0-1.8-0.7-2-1.7l-0.3-2.3c-0.1-1.1,0.6-2.1,1.7-2.2c1.1-0.1,2.1,0.6,2.2,1.7l0.3,2.3
			c0.1,1.1-0.6,2.1-1.7,2.2C355,600.7,354.9,600.7,354.8,600.7z"/>
	</g>
	<g>
		<path d="M379,591.5c-1,0-1.8-0.7-2-1.7l-0.3-2.2c-0.1-1.1,0.6-2.1,1.7-2.3c1.1-0.2,2.1,0.6,2.3,1.7l0.3,2.2
			c0.1,1.1-0.6,2.1-1.7,2.3C379.2,591.5,379.1,591.5,379,591.5z"/>
	</g>
	<g>
		<path d="M361.3,625.5c-4.5,0-8.5-3.1-9.4-7.7c-0.2-1.1,0.5-2.1,1.6-2.4c1.1-0.2,2.1,0.5,2.4,1.6c0.6,3,3.4,4.9,6.4,4.4
			c0.4-0.1,0.6-0.1,0.7-0.2c1-0.5,2.2-0.1,2.7,0.9c0.5,1,0.1,2.2-0.9,2.7c-0.6,0.3-1.3,0.5-1.8,0.6
			C362.4,625.5,361.9,625.5,361.3,625.5z"/>
	</g>
	<g>
		<path d="M303.4,631.6c-0.7,0-1.4-0.4-1.8-1.1c-0.5-1-0.1-2.2,0.9-2.7l11.5-5.7c1-0.5,2.2-0.1,2.7,0.9c0.5,1,0.1,2.2-0.9,2.7
			l-11.5,5.7C304,631.5,303.7,631.6,303.4,631.6z"/>
	</g>
	<path d="M385.3,567.8c-25.7,15.1-57.8,1-57.8,1c5.9,17.7,9.4,42.8-8.6,63.8c0,0-9.7-13.3-14.3-36.3s19.2-40.2,34.3-45.3
		S374.7,541.5,385.3,567.8z"/>
	<g>
		<g>
			<path class="st2" d="M497.8,662.8c-4.4,0-5.2-5.7-5.3-6.8c-0.1-0.9-0.8-1.7-1.8-1.8c-2.3-0.3-4-1.1-5.1-2.5
				c-1.7-2.3-1.3-5.6-1.2-6.2c0.1-0.5-0.1-1.1-0.4-1.5s-0.8-0.7-1.4-0.8c-2.3-0.3-4-1.1-5-2.5c-1.8-2.4-1.3-5.9-1.2-6.2
				c0.1-0.9-0.3-1.7-1.1-2.1c-4-1.9-5.7-4.3-5.1-6.9c1.3-5.9,12.7-12.6,19.5-12.6c1.8,0,5.3,1.3,6.2,6.4c0.2,0.9,1,1.6,1.9,1.6
				c2.7,0,4.7,1,5.9,2.7c1.3,1.8,1.4,4,0.9,5.3c-0.2,0.5-0.1,1.1,0.1,1.6c0.3,0.5,0.7,0.8,1.2,1c1.6,0.5,2.9,1.5,3.8,3
				c1.1,1.9,1.4,4.4,0.8,6.6c-0.2,0.7,0,1.4,0.5,1.9c1.5,1.6,2.3,3.8,2.2,6.2c-0.1,2.8-1.5,5.6-3.8,7.5
				C503.4,661.8,499.8,662.8,497.8,662.8L497.8,662.8z"/>
			<path d="M489.7,614.8c0,0,3.4,0.1,4.2,4.7c0.3,1.9,2,3.3,3.9,3.3c2,0,3.4,0.6,4.3,1.9c0.9,1.3,0.9,2.9,0.7,3.6
				c-0.3,1-0.2,2.2,0.3,3.1c0.5,1,1.4,1.7,2.5,2s2,1,2.6,2.1c0.8,1.4,1.1,3.4,0.6,5c-0.4,1.3,0,2.8,1,3.8c1.2,1.2,1.8,2.9,1.7,4.7
				c-0.1,2.3-1.3,4.5-3.1,6.1c-5.9,5-9.1,5.7-10.5,5.7c-2.7,0-3.2-4.5-3.3-5c-0.2-1.9-1.7-3.4-3.5-3.6c-2.6-0.3-3.4-1.4-3.7-1.7
				c-1.3-1.7-0.9-4.4-0.9-4.7c0.2-1.1-0.1-2.2-0.8-3c-0.7-0.9-1.6-1.4-2.7-1.6c-2.6-0.3-3.4-1.4-3.7-1.7c-1.3-1.8-0.9-4.6-0.8-4.7
				c0.3-1.8-0.6-3.5-2.2-4.3c-4.6-2.2-4.2-4.1-4-4.7C473.2,621.2,483.3,614.8,489.7,614.8 M489.7,610.8c-7.6,0-19.9,7.1-21.4,14.1
				c-0.6,2.6,0,6.2,6.2,9.2c-0.1,0.8-0.6,4.8,1.6,7.8c1.4,1.9,3.5,3,6.4,3.3c-0.1,1-0.6,4.8,1.6,7.7c1.4,1.9,3.6,3,6.5,3.3
				c0.1,1.2,1.1,8.6,7.3,8.6l0,0c3.4,0,7.8-2.2,13-6.7c2.7-2.3,4.4-5.6,4.6-8.9c0.1-2.9-0.8-5.7-2.7-7.7c0.7-2.7,0.3-5.7-1-8.1
				c-1.1-2-2.9-3.3-5-3.9c0.6-1.9,0.5-4.7-1.2-7.1c-1.1-1.6-3.4-3.6-7.5-3.6C496.7,612.5,492,610.8,489.7,610.8L489.7,610.8z"/>
		</g>
		<g>
			<path d="M492.2,656.6c-0.4,0-0.7-0.1-1.1-0.3c-0.9-0.6-1.2-1.8-0.6-2.8c5.3-8.5,18-13.2,18.5-13.4c1-0.4,2.2,0.1,2.6,1.2
				c0.4,1-0.1,2.2-1.2,2.6c-0.1,0-11.9,4.5-16.5,11.8C493.5,656.3,492.9,656.6,492.2,656.6z"/>
		</g>
		<g>
			<path d="M484.1,645.7c-0.4,0-0.8-0.1-1.2-0.4c-0.9-0.7-1-1.9-0.4-2.8c0.3-0.4,7.2-9.3,21-13.4c1.1-0.3,2.2,0.3,2.5,1.3
				c0.3,1.1-0.3,2.2-1.3,2.5c-12.6,3.7-18.9,11.9-19,12C485.3,645.4,484.7,645.7,484.1,645.7z"/>
		</g>
		<g>
			<path d="M476.7,634.6c-0.5,0-1-0.2-1.4-0.6c-0.8-0.8-0.8-2,0-2.8l0.6-0.6c3.2-3.2,8.5-8.6,19.3-11.5c1.1-0.3,2.2,0.3,2.5,1.4
				c0.3,1.1-0.3,2.2-1.4,2.5c-9.8,2.7-14.4,7.4-17.5,10.5l-0.6,0.6C477.7,634.4,477.2,634.6,476.7,634.6z"/>
		</g>
	</g>
</g>
</svg>
