<?xml version="1.0" encoding="utf-8"?>
<!-- Generator: Adobe Illustrator 25.1.0, SVG Export Plug-In . SVG Version: 6.00 Build 0)  -->
<svg version="1.1" id="Layer_2_1_" xmlns="http://www.w3.org/2000/svg" xmlns:xlink="http://www.w3.org/1999/xlink" x="0px" y="0px"
	 viewBox="0 0 1600 1200" style="enable-background:new 0 0 1600 1200;" xml:space="preserve">
<style type="text/css">
	.st0{fill:#FFFFFF;}
	.st1{fill:#F696BB;}
	.st2{fill:#F9494B;}
	.st3{fill:none;}
	.st4{fill:#6C79D9;}
	.st5{fill:#98D8F4;}
</style>
<g id="screen">
	<g>
		<path d="M1081.1,678.5H519.8c-28.1,0-50.9-22.8-50.9-50.9V289.3c0-28.1,22.8-50.9,50.9-50.9h561.3c28.1,0,50.9,22.8,50.9,50.9
			v338.3C1132,655.7,1109.2,678.5,1081.1,678.5z M519.8,242.4c-25.9,0-46.9,21-46.9,46.9v338.3c0,25.9,21,46.9,46.9,46.9h561.3
			c25.9,0,46.9-21,46.9-46.9V289.3c0-25.9-21-46.9-46.9-46.9H519.8z"/>
	</g>
	<g>
		<path d="M800.4,508.8c-40.5,0-73.5-33-73.5-73.5s33-73.5,73.5-73.5s73.5,33,73.5,73.5S840.9,508.8,800.4,508.8z M800.4,365.8
			c-38.3,0-69.5,31.2-69.5,69.5s31.2,69.5,69.5,69.5c38.3,0,69.5-31.2,69.5-69.5S838.7,365.8,800.4,365.8z"/>
	</g>
	<g>
		<path d="M792.4,462.7c-6.3,0-11.5-5.2-11.5-11.5v-31.6c0-1.9,0.5-3.8,1.5-5.7c3.1-5.5,10.2-7.4,15.7-4.3l27.4,15.8
			c1.8,1,3.3,2.5,4.3,4.3c1.5,2.6,1.9,5.7,1.1,8.7c-0.8,3-2.7,5.4-5.4,6.9l-27.4,15.8C796.5,462.2,794.5,462.7,792.4,462.7z
			 M792.4,412c-2.6,0-5.1,1.3-6.5,3.7c-0.7,1.3-1,2.6-1,3.8v31.6c0,4.1,3.4,7.5,7.5,7.5c1.4,0,2.6-0.3,3.8-1l27.4-15.8
			c1.7-1,3-2.6,3.5-4.5c0.5-2,0.3-4-0.7-5.8c-0.6-1.2-1.6-2.1-2.7-2.7c0,0,0,0-0.1,0L796.2,413C795,412.4,793.7,412,792.4,412z"/>
	</g>
</g>
<g id="flower">
	<g>
		<rect x="1278.9" y="549.7" class="st0" width="103" height="102"/>
		<path d="M1379.9,551.7v98h-99v-98H1379.9 M1383.9,547.7h-107v106h107V547.7L1383.9,547.7z"/>
	</g>
	<g>
		<circle class="st0" cx="1330.4" cy="550.2" r="51.5"/>
		<path d="M1330.4,500.7c27.3,0,49.5,22.2,49.5,49.5s-22.2,49.5-49.5,49.5s-49.5-22.2-49.5-49.5S1303.1,500.7,1330.4,500.7
			 M1330.4,496.7c-29.5,0-53.5,24-53.5,53.5s24,53.5,53.5,53.5s53.5-24,53.5-53.5S1359.9,496.7,1330.4,496.7L1330.4,496.7z"/>
	</g>
	<g>
		<path d="M1357.9,652.7c-1.1,0-2-0.9-2-2v-56c0-1.1,0.9-2,2-2s2,0.9,2,2v56C1359.9,651.8,1359,652.7,1357.9,652.7z"/>
	</g>
	<g>
		<path d="M1329.9,652.7c-1.1,0-2-0.9-2-2v-49c0-1.1,0.9-2,2-2s2,0.9,2,2v49C1331.9,651.8,1331,652.7,1329.9,652.7z"/>
	</g>
	<g>
		<path d="M1303.9,652.7c-1.1,0-2-0.9-2-2v-56c0-1.1,0.9-2,2-2s2,0.9,2,2v56C1305.9,651.8,1305,652.7,1303.9,652.7z"/>
	</g>
	<g>
		<path class="st0" d="M1397.5,385.9c-32-23-49.7,18.1-20.9,31.7c-31.8-0.4-34,44.2,4.9,37.6c31.7-7,76-18.9,76-18.9
			S1422.8,406.2,1397.5,385.9z"/>
		<path d="M1374,457.9c-11.6,0-17.3-5.1-19.9-8.6c-4.3-5.9-4.8-13.8-1.2-20.8c3.3-6.5,9.6-10.9,17.4-12.3
			c-6.3-4.7-10-11.4-10.2-18.7c-0.2-7.8,3.7-14.8,10.2-18.2c4.6-2.4,14.4-5,28.4,5c0,0,0.1,0,0.1,0.1c25,20.1,59.7,50.1,60.1,50.4
			c0.6,0.5,0.8,1.2,0.6,2s-0.7,1.3-1.4,1.5c-0.4,0.1-44.7,12-76.1,18.9C1379,457.6,1376.4,457.9,1374,457.9z M1376.2,419.6
			c-9,0-16.2,3.9-19.7,10.7c-2.9,5.6-2.5,11.9,0.9,16.6c4.4,6,12.8,8.2,23.8,6.3c26-5.7,60.9-14.9,72.2-17.9
			c-8.8-7.6-36.3-31.2-57-47.8c-9-6.5-17.6-8.2-24.1-4.7c-5.1,2.7-8.2,8.3-8.1,14.6c0.2,7.8,5,14.5,13.4,18.4
			c0.9,0.4,1.3,1.3,1.1,2.3c-0.2,0.9-1,1.6-1.9,1.6c0,0,0,0,0,0C1376.4,419.6,1376.3,419.6,1376.2,419.6z"/>
	</g>
	<g>
		<path d="M1457.4,438.4c-0.2,0-0.3,0-0.5-0.1l-80.9-18.8c-1.1-0.2-1.7-1.3-1.5-2.4c0.2-1.1,1.3-1.7,2.4-1.5l80.9,18.8
			c1.1,0.2,1.7,1.3,1.5,2.4C1459.1,437.8,1458.3,438.4,1457.4,438.4z"/>
	</g>
	<g>
		<path d="M1329.9,552.7c-1.1,0-2-0.9-2-2v-253c0-1.1,0.9-2,2-2s2,0.9,2,2v253C1331.9,551.8,1331,552.7,1329.9,552.7z"/>
	</g>
	<g>
		<path class="st0" d="M1286.9,481c42.8-8.3,23.2-53.6-9.6-40.8c24.5-25.2-9.7-60.9-33.9-24.7c-18.4,30.8-42.5,75.4-42.5,75.4
			S1251.4,486,1286.9,481z"/>
		<path d="M1200.9,492.9c-0.7,0-1.3-0.3-1.7-0.9c-0.4-0.6-0.4-1.4-0.1-2.1c0.2-0.4,24.3-45,42.5-75.5c0,0,0-0.1,0.1-0.1
			c10.5-15.7,21.5-16.8,27.2-16.1c7.9,1,14.6,6.7,17.5,14.8c2.7,7.7,1.4,16.1-3.5,23.5c8.7-1.7,17,0.4,23.1,5.9
			c6.3,5.7,8.9,14.1,6.8,21.7c-1.5,5.5-6.9,15.2-25.5,18.8c0,0-0.1,0-0.1,0c-35.1,4.9-85.6,9.9-86.1,9.9
			C1201,492.9,1201,492.9,1200.9,492.9z M1245.1,416.6c-15.3,25.6-34.7,61.1-40.6,72c12.4-1.2,52.6-5.4,82.1-9.5
			c12.2-2.4,20.1-8,22.3-16c1.7-6.2-0.4-13-5.6-17.7c-6.4-5.8-15.6-7-25.2-3.3c-0.9,0.3-1.9,0-2.4-0.8c-0.5-0.8-0.4-1.8,0.2-2.5
			c7.1-7.4,9.6-16.3,6.7-24.5c-2.3-6.6-7.8-11.3-14.2-12.1C1260.3,401.2,1252,406.3,1245.1,416.6z M1286.9,481L1286.9,481
			L1286.9,481z"/>
	</g>
	<g>
		<path d="M1200.9,492.9c-0.6,0-1.3-0.3-1.7-0.9c-0.6-0.9-0.4-2.2,0.6-2.8l76.4-50.7c0.9-0.6,2.2-0.4,2.8,0.6
			c0.6,0.9,0.4,2.2-0.6,2.8l-76.4,50.7C1201.7,492.8,1201.3,492.9,1200.9,492.9z"/>
	</g>
	<g>
		<path class="st0" d="M1394.6,461.1c-22.5-42.3-63.8-7.1-39.9,23.2c-34.4-17.6-60.8,29.8-15,43.6c38.3,9.4,92.9,20.3,92.9,20.3
			S1411.3,496.8,1394.6,461.1z"/>
		<path d="M1432.6,550.2c-0.1,0-0.3,0-0.4,0c-0.5-0.1-55.1-11-93-20.3c0,0-0.1,0-0.1,0c-19.8-6-24.5-17.1-25.6-23.3
			c-1.5-8.6,2.3-17.3,9.8-22.9c7.3-5.4,16.7-6.6,26.1-3.7c-4.7-8.7-5.3-18.2-1.4-26.4c4-8.4,11.8-13.8,20.5-14
			c6.2-0.2,18.1,2.3,27.8,20.6c0,0,0,0.1,0,0.1c16.5,35.3,37.8,86.7,38,87.2c0.3,0.7,0.2,1.5-0.3,2
			C1433.8,549.9,1433.2,550.2,1432.6,550.2z M1340.2,526c32.1,7.9,76.2,16.9,89.1,19.5c-5.1-12.1-22.5-53.6-36.5-83.5
			c-6.4-12.1-15-18.6-24.1-18.4c-7.2,0.2-13.7,4.7-17,11.7c-4.1,8.7-2.4,18.8,4.6,27.7c0.6,0.7,0.6,1.8,0,2.5
			c-0.6,0.7-1.6,0.9-2.5,0.5c-10.1-5.2-20.3-4.9-28.1,0.8c-6.3,4.6-9.4,11.9-8.2,19C1319.1,514.9,1327.1,522,1340.2,526z"/>
	</g>
	<g>
		<path d="M1432.7,550.3c-0.4,0-0.9-0.1-1.3-0.5l-77.9-63.9c-0.9-0.7-1-2-0.3-2.8c0.7-0.9,2-1,2.8-0.3l77.9,63.9
			c0.9,0.7,1,2,0.3,2.8C1433.9,550.1,1433.3,550.3,1432.7,550.3z"/>
	</g>
	<g>
		<path class="st0" d="M1298.6,357.8c-13.4,31.4,24.6,38.6,30.7,11.8l0.7-71.9C1329.9,297.7,1310.9,332.6,1298.6,357.8z"/>
		<path d="M1310.9,388.1c-5.1,0-9.8-2.1-13-5.9c-3-3.5-7-11.4-1.1-25.2c0,0,0-0.1,0-0.1c6.5-13.3,14.6-28.8,20.3-39.6
			c3.7-6.9,6.5-12.2,7.9-14.8c3.7-6.9,3.7-6.9,5-6.9c0.5,0,1,0.2,1.4,0.6c0.4,0.4,0.6,0.9,0.6,1.4l-0.7,71.9c0,0.1,0,0.3,0,0.4
			c-2.1,9-8,15.6-15.8,17.5C1313.9,387.9,1312.4,388.1,1310.9,388.1z M1300.4,358.6c-3.7,8.8-3.6,16.2,0.5,21
			c3.2,3.7,8.4,5.3,13.6,4c6.4-1.6,11-6.8,12.8-14.3l0.6-63.7C1321.8,317,1309.4,340.2,1300.4,358.6z"/>
	</g>
	<g>
		<path d="M1277.6,442c-0.6,0-1.3-0.3-1.7-0.9c-0.6-0.9-0.4-2.2,0.6-2.8l15.8-10.5c9.5-6.4,22.1-5.9,31.2,1.3l7.6,6
			c0.9,0.7,1,1.9,0.3,2.8c-0.7,0.9-1.9,1-2.8,0.3l-7.6-6c-7.8-6.1-18.4-6.5-26.5-1.1l-15.8,10.5C1278.4,441.9,1278,442,1277.6,442z"
			/>
	</g>
	<g>
		<path d="M1329.9,424.7c-0.6,0-1.2-0.3-1.6-0.8c-0.7-0.9-0.5-2.1,0.4-2.8l6.1-4.5c6.9-5.2,15.7-7,24.1-5l14.4,3.3
			c1.1,0.2,1.8,1.3,1.5,2.4c-0.2,1.1-1.3,1.7-2.4,1.5l-14.4-3.3c-7.3-1.7-14.9-0.1-20.9,4.4l-6.1,4.5
			C1330.7,424.6,1330.3,424.7,1329.9,424.7z"/>
	</g>
	<g>
		<path d="M1354.9,486.2c-0.4,0-0.9-0.1-1.3-0.5l-24.4-19.9c-0.9-0.7-1-2-0.3-2.8c0.7-0.9,2-1,2.8-0.3l24.4,19.9
			c0.9,0.7,1,2,0.3,2.8C1356.1,485.9,1355.5,486.2,1354.9,486.2z"/>
	</g>
	<g>
		<path d="M1418.9,653.7h-177c-1.1,0-2-0.9-2-2s0.9-2,2-2h177c1.1,0,2,0.9,2,2S1420,653.7,1418.9,653.7z"/>
	</g>
</g>
<g id="girl">
	<g>
		<path class="st0" d="M166.4,926.4l-19.5-21.1l8.4-30.9l17.6-3.2c4-0.3,7.9-0.8,11.7-1.4c33.7-5.8,52.3-23.5,52.5-23.7
			c0,0,10.3-9.3,31.9-33.9l26-15.8l47.7,111c-5.2,5.6-10.1,11.2-13.8,15.5c-4.8,5.7-6.4,8-6.7,9.4c-29.9,22.5-58.8,40.2-85.8,52.7
			L166.4,926.4z"/>
		<path d="M294.2,799.2l46.3,107.7c-4.9,5.3-7.4,12.1-10.9,16.2c-3.6,3.7-9,7.8-9,7.8c-29.2,21.9-57.4,39.3-83.8,51.6l-69-57.6
			l-18.6-20.2L157,876l16.3-2.9c4-0.3,7.9-0.8,11.7-1.5c33.2-5.7,52.2-22.9,53.5-24.1c0.8-0.7,11.1-10.2,31.9-33.8L294.2,799.2
			 M296,793.4l-28.2,17.2c-21.7,24.7-31.9,33.9-32,34c-0.2,0.2-18.5,17.5-51.5,23.1c-3.7,0.6-7.6,1.1-11.6,1.4l-19,3.4l-9.1,33.2
			l20.3,22.1l71.2,59.4l0.1-0.1c27.8-12.7,57.4-30.9,88.1-54.1l0.2-0.1l-0.3-0.3c-0.6-1.1,10.2-13.6,20.7-24.9l0.1-0.1L296,793.4
			L296,793.4z"/>
	</g>
	<path d="M235.8,844.8c-0.3-0.4-25.4-44.7-4.5-61.8l0,0l0.3-0.2c0,0,0.4-0.3,0.9-0.3c2,0,8.8,1,17.6,7.2c9.9,6.9,18,20.9,18.1,21.1
		l0.1,0.1l-0.1,0.1c-21.8,24.7-31.9,33.9-32,34l-0.2,0.2L235.8,844.8z"/>
	<path class="st1" d="M324.1,933c-2-2-19.5-19.9-29.3-44.2c-5.2-12.8-9.2-26.8-12.7-39.2c-4.6-16.2-8.6-30.2-14.1-38.6
		c-17.1-29.4-36.7-28-36.7-28c1.1-0.9,2.4-1.8,3.7-2.5c19.8-10.9,193.3-90.2,195-91l0.3-0.1l-17,163.4l0,0
		c-23.3,25.9-56.4,55.9-88.6,80.3l-0.1,0.1L324.1,933z"/>
	<path d="M412.9,876.9c-0.4-0.1-45.1-14.1-55.9-35.8c-2.7-5.5-3.1-11-1.2-16.5c0.2-0.3,4.2-4.6,14.6-4.6c6,0,13,1.5,20.7,4.5
		c8.8,3.4,17.2,7.8,25,12.9l0.1,0.1v0.1c-0.2,27.6-3,39-3,39.1l-0.1,0.2H412.9z"/>
	<path class="st2" d="M114.7,885.8L114.7,885.8c0.2-0.3,7.6-16.2,48.3-16.2c3.2,0,6.4-0.2,9.7-0.5h0.2l0.1,0.3
		c4.5,19.8,1.8,40.5-7.6,58.5l-0.1,0.2L114.7,885.8z"/>
	<polygon class="st3" points="324.1,933 324.4,932.7 324.5,932.8 324.2,933.1 	"/>
	<path d="M631,581.8l-15.1,68.9h160c0,0-54-104-61-111C704.7,529.5,631,581.8,631,581.8z"/>
	<g>
		<path class="st0" d="M731,609c-12.2,0-22-9.9-22-22c0-12.2,9.9-22,22-22s22,9.9,22,22C753.1,599.2,743.2,609,731,609z"/>
		<g>
			<path d="M731,567c11.1,0,20,9,20,20s-9,20-20,20s-20-9-20-20S720,567,731,567 M731,563c-13.3,0-24,10.8-24,24s10.8,24,24,24
				s24-10.8,24-24S744.3,563,731,563L731,563z"/>
		</g>
	</g>
	<g>
		<path class="st0" d="M687.6,634.3c-15.5,0-32.6-12.3-44.6-32.2c-17.7-29.2-20.6-59.5-6.8-70.6c8.3-6.7,18.7-10,30.7-10
			c15.6,0,28.5,5.7,28.6,5.8c12.5,5.9,19.7,13.5,23.2,24.5c3.9,12.4,3.3,29.2-2,52.9C712.6,623.5,702,634.3,687.6,634.3z"/>
		<g>
			<path d="M667,519.5v4l0,0c14.8,0,27.2,5.3,27.8,5.6c20.7,9.7,31.2,25.7,20.1,75.1c-4.1,18.1-13.8,28.1-27.2,28.1
				c-14.8,0-31.2-12-42.9-31.2c-8.6-14.2-13.9-29.1-14.9-42c-1-12,1.8-21.2,7.7-26c8-6.4,17.9-9.6,29.5-9.6L667,519.5 M667,519.5
				c-10.4,0-21.9,2.4-32,10.5c-14.4,11.5-12.2,42.6,6.3,73.2c12.9,21.3,30.7,33.1,46.3,33.1c14.1,0,26.3-9.8,31.2-31.2
				c11-48.9,1.8-68.3-22.3-79.6C696.5,525.4,683.2,519.5,667,519.5L667,519.5z"/>
		</g>
	</g>
	<path d="M696.5,525.4c22.6,10.7,32.2,28.4,24.1,71.1C686,581.7,683,534.7,683,534.7s-22,28-57,26.2c-1.4-13.7,1.6-24.9,9.1-30.9
		C660.8,509.4,696.5,525.4,696.5,525.4z"/>
	<g>
		<path d="M661.1,595.5c-0.2,0-0.3,0-0.5-0.1c-2.1-0.5-4.1-1.7-5.6-3.4c-2.1-2.6-3.3-7.6-4.4-18.3c-0.1-1.1,0.7-2.1,1.8-2.2
			c1.1-0.1,2.1,0.7,2.2,1.8c0.9,9.5,2,14.3,3.5,16.1c0.9,1.1,2.1,1.8,3.4,2.1c1.1,0.3,1.7,1.3,1.5,2.4
			C662.8,594.9,662,595.5,661.1,595.5z"/>
	</g>
	<g>
		<path d="M670,578c-0.9,0-1.8-0.6-2-1.6l-0.5-2.4c-0.2-1.1,0.5-2.1,1.6-2.4c1.1-0.2,2.1,0.5,2.4,1.6l0.5,2.4
			c0.2,1.1-0.5,2.1-1.6,2.4C670.3,578,670.1,578,670,578z"/>
	</g>
	<g>
		<path d="M641.7,578c-0.9,0-1.7-0.6-1.9-1.5l-0.6-2.5c-0.3-1.1,0.4-2.2,1.5-2.4c1.1-0.3,2.2,0.4,2.4,1.5l0.6,2.5
			c0.3,1.1-0.4,2.2-1.5,2.4C642,578,641.9,578,641.7,578z"/>
	</g>
	<g>
		<path d="M670.1,606.4c-1.1,0-2-0.9-2-2s0.9-2,2-2c0.4,0,0.8,0,1.1-0.1c3.3-0.6,5.6-3.9,5-7.2c-0.2-1.1,0.5-2.1,1.6-2.3
			c1.1-0.2,2.1,0.5,2.3,1.6c1,5.5-2.7,10.8-8.2,11.8C671.3,606.4,670.7,606.4,670.1,606.4z"/>
	</g>
	<g>
		<path d="M733.4,589.7c-0.1,0-0.1,0-0.2,0l-11.8-1.1c-1.1-0.1-1.9-1.1-1.8-2.2c0.1-1.1,1.1-1.9,2.2-1.8l11.8,1.1
			c1.1,0.1,1.9,1.1,1.8,2.2C735.3,588.9,734.4,589.7,733.4,589.7z"/>
	</g>
	<g>
		<path class="st0" d="M389.2,985.2c-3.2-9.1-8.4-36.1-9.3-41.1l5.9-8.4c11.1-11.5,22.2-26.6,28.9-58.7c0-0.2,3-15.4,3-39.5
			c0-0.4-2.1-32-2.8-42.6l116.2,68.7l-0.4,39.8c-5.1,29.8-12.6,57.3-22.2,81.7L389.2,985.2L389.2,985.2z"/>
		<path d="M417.2,798.6l111.9,66.2l-0.4,38.5c-5,29.1-12.2,56-21.6,79.9H390.6c-2.6-8.3-6.6-27.5-8.7-38.6l5.4-7.5
			c11.2-11.7,22.6-27.1,29.3-59.6c0-0.2,3.1-15.6,3.1-39.8v-0.1v-0.1C419.7,837.1,418,811.5,417.2,798.6 M412.7,791.3v0.4
			c0,0.5,3,45.5,3,45.9c0,23.8-3,38.9-3,39.1c-6.6,31.7-17.6,46.5-28.5,57.8l-6.5,9.2v0.1c0.1,0.3,6.5,34.6,10,43.3l0.1,0.1h122.1
			l0.1-0.1c9.9-24.8,17.6-52.9,22.8-83.4l0.4-41.1L412.7,791.3L412.7,791.3z"/>
	</g>
	<path class="st2" d="M347.8,987c0-0.1-0.8-14.6,16.1-32.5c3.7-3.9,7.5-7.5,11.1-11c3.2-3.1,6.3-6,9.3-9.1l0.1-0.2l0.1,0.2
		c13.9,14.7,23.8,32.8,28.5,52.5v0.3l-65.2-0.1V987z"/>
	<path class="st1" d="M706.9,986.9c-21.4,0-44.7-1.5-72.1-19c-33.6-21.5-64.9-61.8-95.7-123.4c-0.1,4.6-1.1,28.2-6.4,59.2v0.2h-0.2
		c-0.2,0-24-2.2-50.7-19c-13.8-8.7-22.6-15.5-31.9-22.8c-9.3-7.2-18.8-14.6-33.8-24.1c-42.6-26.7-60.4-13.4-60.4-13.4
		c6.8-19.3,30-77.7,69-161c9-19.2,30-32.1,52.2-32.1c41.9,0,88.7,36.2,120.5,66.6c33.7,32.1,58.2,64.6,59.6,66.4h122v0.1
		c15.1,46,22.2,85.9,21,118.7c-1,27.7-7.8,50.5-20.3,67.8C755.8,984.3,718,986.9,706.9,986.9z"/>
	<g>
		<path d="M538.9,845.7C538.9,845.7,538.8,845.7,538.9,845.7c-1.2,0-2-1-2-2.1c2-45.3-5.9-96.8-6-97.3c-0.2-1.1,0.6-2.1,1.7-2.3
			c1.1-0.2,2.1,0.6,2.3,1.7c0.1,0.5,8,52.4,6,98.1C540.9,844.9,540,845.7,538.9,845.7z"/>
	</g>
	<g>
		<path d="M687.3,813.7c-0.7,0-1.3-0.3-1.7-1c-9.6-16.1-20.1-32.3-30.3-46.9c-0.6-0.9-0.4-2.2,0.5-2.8c0.9-0.6,2.2-0.4,2.8,0.5
			c10.3,14.7,20.8,31,30.5,47.1c0.6,0.9,0.3,2.2-0.7,2.7C688,813.6,687.7,813.7,687.3,813.7z"/>
	</g>
	<path class="st2" d="M344.9,783.7l-0.4-0.2c-5-2.4-30.9-15-52.5-26.6c-1-0.6-2.1-1.3-3-2l-0.3-0.2l0.3-0.1
		c13.6-6.4,29.7-13.9,47.9-22.3l0.2-0.1v0.3c3.9,22.4,7.3,46.1,7.9,50.7l0.1,0.8L344.9,783.7z"/>
	<path class="st2" d="M290.4,877c-2.8-8.3-5.3-16.7-7.3-23.9V853v-0.1c5.9-9.5,11.2-18,15.9-25.3c4.7-6.5,10.3-10,15.9-10
		c5.4,0,10.2,3.4,12.3,8.7c1,2.4,3.4,10.6-4.6,18.8c2.2-0.7,4.3-1,6.3-1c9.7,0,15.5,7,16,13.7c0.5,6.5-3.9,14.2-17.6,16.3
		c-10.4,1.1-22.8,2.1-36.7,3.1h-0.1L290.4,877z"/>
	<path class="st2" d="M682.8,895.3c-4.9,0-9.5-2.9-12-7.4c-2.9-5.3-2.6-11.7,0.9-17.8c-3.3,2-6.8,3.1-10.2,3.1l0,0
		c-7.3,0-13.5-4.8-14.9-11.4c-1.5-7.4,3.5-14.3,13.5-18.5c23.1-8.4,50.6-17,55.9-18.6l0.8-0.3l-0.2,0.8c-1.6,5.3-9.8,32.9-17.8,56.2
		C695.2,890.2,689.4,895.3,682.8,895.3z"/>
	<path class="st2" d="M505.9,682.1c-6.2,0-11.2-4-12.8-10.1c-1.4-5.5,0.1-13.6,8.9-18.9c-0.3,0-0.7,0-1,0c-6.6,0-12.1-2.8-15.2-7.7
		c-2.7-4.2-3.1-9.2-1.1-13.4l0.1-0.1h0.1c17.5,1.8,37,9.4,58,22.6l0.2,0.1l-0.2,0.2c-8.4,8-16,15.1-22.6,21.1
		C515.4,680,510.4,682.1,505.9,682.1L505.9,682.1z"/>
	<path class="st2" d="M763.7,915.5c-10.7,0-15.6-6.6-15.7-13.2c-0.2-7.5,5.5-15.4,16.7-16.3c-9.3-4.1-12.2-12.2-11-18.5
		c1.3-6.6,6.5-10.8,13.2-10.8c4.1,0,8.5,1.5,13.2,4.5c6,4.2,12.7,9.2,20.1,14.6l0.1,0.1v0.1c0.1,10.2-0.8,20.5-2.5,30.6v0.1h-0.1
		c-9.9,3.1-18.9,5.8-26.8,8C768.3,915.2,765.9,915.5,763.7,915.5L763.7,915.5z"/>
	<path class="st2" d="M579.8,913.1c-5.5-7.5-11.1-16-16.7-25.1l0,0v-0.1c0.2-8.3,0.4-15.9,0.7-22.6c1.3-13.6,8.6-18.5,15-18.5
		c4.4,0,8.7,2.2,11.5,5.9c3.2,4.2,4.1,9.7,2.7,15.6c3.8-4.2,8.6-6.5,13.6-6.5c6.2,0,11.7,3.6,13.6,9.1c2.3,6.4-0.8,13.7-8.4,19.9
		c-8.8,6.5-19.5,14-31.6,22.4l-0.2,0.1L579.8,913.1z"/>
	<path class="st2" d="M466.1,874.3c-5.9-4.3-11-8.1-16.3-12.3l-2.6-2l0.1-0.1c5.8-13.2,11.1-24.8,15.8-34.6
		c4.3-7.8,10-12.1,16.1-12.1c5.1,0,9.8,3.1,12.1,8c2.7,5.7,1.8,12.5-2.6,18.3c2.9-1.3,5.7-2,8.5-2c7.7,0,14.4,5.3,15.4,12.4
		c1.3,9.3-7.1,15.2-15.4,17.6c-8.9,2.1-19.2,4.4-30.9,6.8L466.1,874.3L466.1,874.3z"/>
	<path class="st2" d="M422,784.7c-5.5,0-11.1-3.5-15.8-10c-5.4-8.2-11.5-17.9-18.3-28.9l-0.1-0.1v-0.1c2.8-6.5,5.8-13.3,8.8-20.2
		l0.1-0.1h0.1c14,0.9,26.9,1.9,37.4,3c13.7,2.1,18.1,9.7,17.6,16.2c-0.5,6.6-6.3,13.7-16,13.7c-2,0-4.1-0.3-6.3-1
		c8.1,8.1,5.7,16.4,4.7,18.8C432.2,781.3,427.3,784.7,422,784.7L422,784.7z"/>
	<path class="st2" d="M702.6,986.9c-8.1,0-16.3-0.7-24.4-2h-0.1v-0.1c-6.3-9.5-11.8-18.2-16.4-25.6c-4.2-7.6-4.8-14.6-1.8-19.7
		c2.4-4,6.7-6.4,11.7-6.4c5.6,0,12.6,3.2,15.9,12.2c1.5-10.8,9.3-15.7,16.1-15.7c4.2,0,8.1,1.9,10.5,5.1c2.3,3.1,4.5,8.8,1.6,18.6
		c-3.4,9.6-7.6,20.8-12.4,33.4l-0.1,0.2H702.6z"/>
	<g>
		<path d="M356.4,826.4c-0.2,0-0.4,0-0.7-0.1c-1-0.4-1.6-1.5-1.2-2.6c7.6-21.4,26.8-68.3,52.5-125.1c0.5-1,1.6-1.5,2.6-1
			c1,0.5,1.5,1.6,1,2.6C385,757,365.8,803.8,358.3,825.1C358,825.9,357.2,826.4,356.4,826.4z"/>
	</g>
	<g>
		<path d="M787.9,796.7h-111c-1.1,0-2-0.9-2-2s0.9-2,2-2h111c1.1,0,2,0.9,2,2S789,796.7,787.9,796.7z"/>
	</g>
	<g>
		<path class="st0" d="M493.2,772.3c-9.2-6.5-19-13.4-29.2-19.3c-32-18.8-43.1-19.4-54.9-20.2c-3.3-0.2-6.8-0.4-10.8-1.1
			c-5.2-0.9-8.4-2.6-9.6-5.2c-1.7-3.5,0.8-7.8,0.8-7.9l0.7-1.2l-0.8-1.1c-5.4-7,1.1-12.5,1.8-13.1l1.4-1.1l-0.9-1.5
			c-1.4-2.4-1.8-4.6-1.2-6.5c1.1-3.6,5.3-5.6,5.4-5.6l1.2-0.5v-1.3c0-8.6,12.6-13.9,33-13.9c13.7,0,29.4,2.4,45.5,6.8
			c11.8,3.3,27.7,8.8,47.4,16.4l40.5,19.6L528,790.9L493.2,772.3z"/>
		<g>
			<path d="M429.9,674.8c13.5,0,29,2.3,44.9,6.8c11.7,3.3,27.6,8.7,47.2,16.3l38.6,18.7l-33.5,71.6l-32.9-17.6
				c-9.2-6.5-19-13.4-29.3-19.3c-32.4-19-43.8-19.7-55.7-20.4c-3.3-0.2-6.7-0.4-10.6-1.1c-3.1-0.5-7-1.6-8.1-4.1
				c-1.2-2.5,0.7-6,0.7-6l1.4-2.3l-1.6-2.2c-1.8-2.4-2.2-4.6-1.1-6.9c0.9-2,2.6-3.4,2.6-3.4l0,0l2.8-2.2l-1.8-3
				c-1.1-1.9-1.5-3.5-1-4.9c0.7-2.3,3.3-4,4.3-4.4l2.3-1.1v-2.6C398.9,679.5,411.1,674.8,429.9,674.8 M429.9,670.8
				c-20.8,0-35,5.5-35,15.9c0,0-11,5-5,15c0,0-9,7-2.2,15.9c0,0-7.8,13.1,10.2,16.1s24-3,65,21c10,5.9,19.6,12.5,29.2,19.3
				l36.8,19.7l37-79l-42.3-20.5c-17.3-6.7-34.4-12.7-47.7-16.5C459.2,673,443.2,670.8,429.9,670.8L429.9,670.8z"/>
		</g>
	</g>
	<path class="st2" d="M596.8,819.9c-1.4,0-2.9,0-4.3-0.1c-39.5-2.3-68.7-23-96.8-43l-3.8-2.7l31.7-80.2l0.2,0.1
		c36.9,14.2,75.2,31.2,78.1,32.5c1.1-2.4,13.6-28,32.9-61.8c21-36.7,36.2-49.1,60.2-49.1c11.9,0,26,2.7,55.1,35.1
		c30.6,34.1,48.9,62.9,50.1,79.1c1,14.5-4.8,23.3-9.8,28.2c-5.5,5.2-11.3,7-11.3,7h-96.9C680.4,767.5,647.3,819.9,596.8,819.9z"/>
	<g>
		<path d="M681.9,766.7c-0.4,0-0.7-0.1-1-0.3c-0.9-0.6-1.2-1.8-0.7-2.8c7.5-12.1,18.8-30.5,32.9-64.7c0.4-1,1.6-1.5,2.6-1.1
			c1,0.4,1.5,1.6,1.1,2.6c-14.2,34.5-25.6,53-33.1,65.3C683.2,766.4,682.6,766.7,681.9,766.7z"/>
	</g>
	<g>
		<path d="M459,691.7c-0.2,0-0.3,0-0.5-0.1c-0.3-0.1-34.6-8.8-61.8-1c-1.1,0.3-2.2-0.3-2.5-1.4c-0.3-1.1,0.3-2.2,1.4-2.5
			c28.2-8.1,62.4,0.6,63.9,1c1.1,0.3,1.7,1.4,1.4,2.4C460.7,691.1,459.9,691.7,459,691.7z"/>
	</g>
	<g>
		<path d="M454.2,706.7c-0.2,0-0.3,0-0.5-0.1c-0.3-0.1-30-7.8-61.1-2c-1.1,0.2-2.1-0.5-2.3-1.6c-0.2-1.1,0.5-2.1,1.6-2.3
			c32.1-6,61.6,1.7,62.9,2c1.1,0.3,1.7,1.4,1.4,2.4C455.9,706.1,455.1,706.7,454.2,706.7z"/>
	</g>
	<g>
		<path d="M449.2,721.7c-0.1,0-0.2,0-0.3,0c-31.2-5.2-47.6-3.8-58.3-2c-1.1,0.2-2.1-0.6-2.3-1.6c-0.2-1.1,0.6-2.1,1.6-2.3
			c11.1-1.8,27.9-3.3,59.7,2c1.1,0.2,1.8,1.2,1.6,2.3C451,721,450.2,721.7,449.2,721.7z"/>
	</g>
</g>
<g id="frame">
	<g>
		<path d="M324.9,390.1c-0.5,0-1-0.2-1.4-0.6L288,352.8l-35.5,36.7c-0.8,0.8-2,0.8-2.8,0c-0.8-0.8-0.8-2,0-2.8l36.9-38.2
			c0.8-0.8,2.1-0.8,2.9,0l36.9,38.2c0.8,0.8,0.7,2.1,0,2.8C325.9,389.9,325.4,390.1,324.9,390.1z"/>
	</g>
	<g>
		<rect x="201.9" y="385.4" class="st0" width="172.1" height="191.3"/>
		<path d="M374,578.7H201.9c-1.1,0-2-0.9-2-2V385.4c0-1.1,0.9-2,2-2H374c1.1,0,2,0.9,2,2v191.3C376,577.8,375.1,578.7,374,578.7z
			 M203.9,574.7H372V387.4H203.9V574.7z"/>
	</g>
	<g>
		<path d="M333.9,427.6c-0.5,0-1-0.2-1.4-0.6c-0.8-0.8-0.8-2,0-2.8l37.3-37.3c0.8-0.8,2-0.8,2.8,0c0.8,0.8,0.8,2,0,2.8L335.3,427
			C334.9,427.4,334.4,427.6,333.9,427.6z"/>
	</g>
	<g>
		<path d="M242.1,427.6c-0.5,0-1-0.2-1.4-0.6l-37.3-37.3c-0.8-0.8-0.8-2,0-2.8c0.8-0.8,2-0.8,2.8,0l37.3,37.3c0.8,0.8,0.8,2,0,2.8
			C243.1,427.4,242.6,427.6,242.1,427.6z"/>
	</g>
	<g>
		<circle class="st0" cx="288" cy="353.1" r="12.3"/>
		<path d="M288,367.4c-7.9,0-14.3-6.4-14.3-14.3c0-7.9,6.4-14.3,14.3-14.3s14.3,6.4,14.3,14.3C302.3,361,295.9,367.4,288,367.4z
			 M288,342.8c-5.7,0-10.3,4.6-10.3,10.3c0,5.7,4.6,10.3,10.3,10.3s10.3-4.6,10.3-10.3C298.3,347.4,293.7,342.8,288,342.8z"/>
	</g>
	<g>
		<path d="M204.8,575.8c-0.5,0-1-0.2-1.4-0.6c-0.8-0.8-0.8-2,0-2.8l37.3-37.3c0.8-0.8,2-0.8,2.8,0c0.8,0.8,0.8,2,0,2.8l-37.3,37.3
			C205.8,575.6,205.3,575.8,204.8,575.8z"/>
	</g>
	<g>
		<path d="M371.2,575.8c-0.5,0-1-0.2-1.4-0.6l-37.3-37.3c-0.8-0.8-0.8-2,0-2.8c0.8-0.8,2-0.8,2.8,0l37.3,37.3c0.8,0.8,0.8,2,0,2.8
			C372.2,575.6,371.7,575.8,371.2,575.8z"/>
	</g>
	<g>
		<rect x="242.2" y="425.7" class="st0" width="91.6" height="110.8"/>
		<path d="M331.8,427.7v106.8h-87.6V427.7H331.8 M335.8,423.7h-95.6v114.8h95.6V423.7L335.8,423.7z"/>
	</g>
</g>
<g id="guy">
	<path class="st4" d="M1369,783c-1.1-0.9-2.4-1.8-3.7-2.5c-19.8-10.9-193.2-90.2-195-91l-0.3-0.1l17,163.4
		c23.2,25.9,56.4,56,88.6,80.3l0.4,0.1l0.2-0.2c1.9-1.9,19.4-19.9,29.3-44.2c5.2-12.9,9.2-26.9,12.7-39.2
		c4.6-16.2,8.6-30.2,14.1-38.6C1345.6,789.1,1361.1,783,1369,783z"/>
	<path d="M1183.9,837.6L1183.9,837.6l0.1-0.2c7.8-5.2,16.3-9.5,25-12.9c7.7-3,14.7-4.5,20.7-4.5c10.3,0,14.4,4.3,14.5,4.5
		c2,5.5,1.6,11.1-1.2,16.6c-10.9,21.6-55.5,35.6-55.9,35.8l-0.2,0.1C1186.9,877,1184.1,865.1,1183.9,837.6z"/>
	<path d="M1364,844.8c-0.1-0.1-10.3-9.3-32-34l-0.1-0.1l0.1-0.1c0.1-0.1,8.2-13,17-20c9.1-7.3,17.8-7.6,19.5-7.6c0.2,0,0.3,0,0.3,0
		h0.2c20.9,17.1-4.4,61.4-4.6,61.8l-0.1,0.2L1364,844.8z"/>
	<polygon class="st2" points="1024.9,659.7 1074.9,659.7 1087.9,562.7 1011.9,562.7 	"/>
	<ellipse class="st1" cx="1049.9" cy="561.7" rx="38" ry="30"/>
	<g>
		<path d="M1049.9,562.7c-1.1,0-2-0.9-2-2v-53c0-1.1,0.9-2,2-2s2,0.9,2,2v53C1051.9,561.8,1051,562.7,1049.9,562.7z"/>
	</g>
	<g>
		<path class="st0" d="M1074.8,661.1c-2.4,0-4.3-0.9-5.2-2.7c-1-1.9-0.6-4.4,1-6.6l1.2-1.6l-1.7-1.2c0,0-3.4-2.4-3.4-5.6
			c0-2,1.4-4.1,4.1-6.2l2.9-2.1l-3.3-1.3c0,0-3.7-1.5-4.2-4.5c-0.5-2.5,1.3-5.7,5.1-9.2l1.7-1.6l-1.8-1.5c0,0-3.7-3-3.7-6.8
			c0-2.1,1.2-4.2,3.7-6.1c2.2-1.8,10.2-6.4,13.1-8l0.8-0.5l1.2-6.5c3,1.5,4.9,3.9,5.7,7.1c1.2,4.9-0.7,10.2-2.4,12l-1.9,1.9l2.3,1.3
			c0.1,0,2.3,1.4,3,4.3c0.8,3-0.2,6.6-2.8,10.9l-1,1.6l1.5,1.1c0,0,2.3,1.8,2.7,4.9c0.3,2.5-0.7,5.3-3.1,8.2l-1,1.2l1,1.2
			c0.1,0.1,1.8,2.4,1,5.5c-0.9,3.5-4.8,6.7-11.2,9.4C1078.2,660.7,1076.4,661.1,1074.8,661.1z"/>
		<path d="M1087.7,592.7c1.1,1.1,1.9,2.5,2.3,4.1c1,4.3-0.7,8.8-1.9,10.1l-3.7,3.7l4.6,2.6c0,0,1.5,1,2.1,3c0.6,2.4-0.2,5.7-2.5,9.4
			l-2.1,3.1l3.1,2.1c0.2,0.1,1.3,1.1,1.7,2.7c0.7,2.2-0.1,4.8-2.4,7.6l-2.2,2.5l2.2,2.5c0.2,0.3,1.2,1.8,0.7,3.8
			c-0.8,2.8-4.3,5.6-10.1,8c-1.7,0.7-3.3,1.1-4.6,1.1c-1,0-2.7-0.2-3.4-1.6c-0.6-1.2-0.3-2.9,0.8-4.5l2.4-3.3l-3.3-2.3
			c-0.7-0.5-2.6-2.2-2.6-4c0-1.7,1.8-3.4,3.3-4.6l5.7-4.3l-6.7-2.6c-0.4-0.2-2.7-1.4-3-3c-0.3-1.7,1.3-4.4,4.5-7.4l3.4-3.1l-3.6-2.9
			c-0.8-0.7-3-3-3-5.2c0-1.5,1-3,2.9-4.6c1.9-1.5,8.9-5.6,12.8-7.8l1.7-0.9l0.3-1.9L1087.7,592.7 M1084.7,586.5l-1.4,8
			c0,0-10.6,5.9-13.4,8.2c-10,8,0,16,0,16c-13,12-0.3,17-0.3,17c-10.7,8-0.7,15-0.7,15c-4,5.6-1.3,12.4,5.8,12.4
			c1.8,0,3.9-0.4,6.2-1.4c19-8,11-18,11-18c8-10,0-16,0-16c8-13-1-18-1-18C1094.9,605.7,1097.9,590.7,1084.7,586.5L1084.7,586.5z"/>
	</g>
	<g>
		<path d="M1073,620.7c-0.8,0-1.6-0.5-1.9-1.4c-0.3-1,0.2-2.2,1.3-2.5c0.1,0,9.7-3.2,14.7-8.8c0.7-0.8,2-0.9,2.8-0.1
			c0.8,0.7,0.9,2,0.1,2.8c-5.8,6.3-16,9.7-16.5,9.8C1073.4,620.7,1073.2,620.7,1073,620.7z"/>
	</g>
	<g>
		<path d="M1071.9,637.7c-0.9,0-1.7-0.6-1.9-1.5c-0.3-1.1,0.3-2.2,1.4-2.5c3.7-1.1,14-4.6,17-8.3c0.7-0.9,2-1,2.8-0.3
			c0.9,0.7,1,1.9,0.3,2.8c-4.3,5.3-17.5,9.2-19,9.7C1072.3,637.7,1072.1,637.7,1071.9,637.7z"/>
	</g>
	<g>
		<path d="M1071.9,653c-0.9,0-1.7-0.6-1.9-1.5c-0.3-1.1,0.3-2.2,1.4-2.5c0.1,0,11.7-3.2,17.2-7.9c0.8-0.7,2.1-0.6,2.8,0.3
			s0.6,2.1-0.3,2.8c-6.3,5.2-18.2,8.6-18.8,8.7C1072.3,653,1072.1,653,1071.9,653z"/>
	</g>
	<path class="st5" d="M1312,958.6c-12-7.7-24.2-16.3-36.4-25.4l-0.2-0.1l0.3-0.3c2-2,19.4-19.9,29.2-44.1
		c5.2-12.8,9.2-26.8,12.7-39.1c4.7-16.3,8.7-30.5,14.3-38.9l0.1-0.2l0.2,0.2c21.7,24.7,31.9,33.9,32,34c0.3,0.3,26.5,24.9,72.9,24.9
		c21.2,0,33.2,4.4,39.5,8c6.9,4,8.6,7.9,8.7,8.1l0.1,0.1l-78.4,65.5l-0.1-0.1c-12.2-9.8-27.6-15.2-43.3-15.2h-0.2
		c-19.4,0-38.1,8.2-51.1,22.6l-0.1,0.1L1312,958.6z"/>
	<path class="st4" d="M1363.7,987.2c-17.8-8.3-35.2-17.9-51.7-28.6l-0.2-0.1l0.2-0.2c13.2-14.5,32-22.8,51.5-22.8
		c15.8,0,31.3,5.4,43.6,15.3l0.2,0.2l-43.4,36.3L1363.7,987.2z"/>
	<path class="st5" d="M1147.4,987.2L1147.4,987.2c-8.2-30.2-35.7-51.2-66.9-51.3c-2,0-4.1,0.1-6.3,0.3h-0.1l-0.1-0.2
		c-2.6-10.5-4.8-21.4-6.7-32.3v-0.1l0.1-0.1c19.4-11,115.9-66.1,116.7-66.1h0.2v0.2c0,23.8,3,38.9,3,39.1
		c6.6,31.7,17.6,46.5,28.5,57.8c3,3.2,6.1,6.1,9.4,9.1c3.6,3.4,7.4,7,11.1,11c16.9,17.9,16.1,32.3,16.1,32.5v0.2h-105L1147.4,987.2
		L1147.4,987.2z"/>
	<path class="st4" d="M1090.1,987.2L1090.1,987.2c-6.5-16.7-12-33.8-16.1-51.1l-0.1-0.2h0.2c2.2-0.2,4.3-0.3,6.4-0.3
		c31.4,0,59,21.2,67.3,51.4l0.1,0.3h-57.8V987.2z"/>
	
		<rect x="1275.7" y="932.7" transform="matrix(0.7071 -0.7071 0.7071 0.7071 -285.9915 1175.3165)" class="st3" width="0.1" height="0.4"/>
	<g>
		<path class="st0" d="M946.9,810.7c-20.6,0-37.7-12.5-52.1-38.3c-14-25-23.4-59.2-30-86.2c-1.8-7.5-1.4-13.1,1.4-16.6
			c2.6-3.3,7.5-5,14.5-5c25.1,0,67.9,21.6,68.3,21.9l1.7,0.8l1-1.6c13.5-22.6,32.4-48.5,50.5-69.5c20.9-24.1,32.8-32.7,36.7-32.7
			c0.2,0,0.3,0,0.4,0.1c1.1,0.4,1.8,1.1,2.2,2.1c1.1,3.1-0.4,9.2-4.2,17.1c-3,6.4-6.5,11.7-6.5,11.8l-0.4,0.7l0.1,0.8
			c0,0.2,3.2,20.3-8.1,34.4l-0.5,0.7l1.3,10.6h40.9C1056.3,682,1005.1,810.7,946.9,810.7z"/>
		<path d="M1038.8,585.5c0.4,0.2,0.6,0.4,0.8,0.8c1.7,4.8-5.3,19-10.5,27.1l-0.8,1.3l0.2,1.5c0,0.2,3,19.5-7.7,32.8l-1.1,1.3
			l0.2,1.7l1,8l0.4,3.5h3.5h36.2c-4.6,11.8-16.6,41.4-33.4,70.6c-19.4,33.9-49.2,74.4-80.9,74.4c-19.9,0-36.3-12.2-50.3-37.3
			c-13.9-24.8-23.2-58.8-29.8-85.7c-1.7-6.9-1.4-11.9,1-14.9c2.2-2.8,6.6-4.2,12.9-4.2c24.6,0,67,21.4,67.4,21.6l3.3,1.7l1.9-3.2
			c13.5-22.5,32.3-48.4,50.3-69.2C1023.8,594.3,1035.7,585.7,1038.8,585.5 M1038.9,581.5c-12.4,0-59.9,54.6-89,103.2
			c0,0-43.3-22.1-69.2-22.1c-13.5,0-22.2,6-17.8,24.1c15.5,63.1,37,126,84,126c65,0,120-153,120-153h-42l-1-8c12-15,8.5-36,8.5-36
			s19.5-30,7.5-34C1039.6,581.6,1039.3,581.5,1038.9,581.5L1038.9,581.5z"/>
	</g>
	<g>
		<path class="st0" d="M869,609c-12.2,0-22-9.9-22-22c0-12.2,9.9-22,22-22c12.2,0,22,9.9,22,22C891,599.2,881.1,609,869,609z"/>
		<g>
			<path d="M869,567c11.1,0,20,9,20,20s-9,20-20,20s-20-9-20-20S857.9,567,869,567 M869,563c-13.3,0-24,10.8-24,24s10.8,24,24,24
				s24-10.8,24-24S882.3,563,869,563L869,563z"/>
		</g>
	</g>
	<g>
		<path class="st0" d="M912.4,634.3c-14.3,0-25-10.8-29.2-29.7c-11.4-50.7-0.3-67.2,21.2-77.4c0.1,0,13-5.8,28.6-5.8
			c12.1,0,22.4,3.4,30.7,10c13.8,11,10.9,41.4-6.8,70.6C944.9,621.9,927.8,634.3,912.4,634.3L912.4,634.3z"/>
		<g>
			<path d="M933,523.5c11.6,0,21.5,3.2,29.5,9.6c6,4.8,8.7,14,7.7,26c-1.1,12.9-6.4,27.8-14.9,42c-11.6,19.3-28.1,31.2-42.9,31.2
				c-13.5,0-23.2-10-27.2-28.1c-11.1-49.4-0.6-65.4,20.1-75.1C905.8,528.8,918.1,523.5,933,523.5 M933,519.5c-16.2,0-29.4,6-29.4,6
				c-24.1,11.3-33.3,30.7-22.3,79.6c4.8,21.4,17,31.2,31.2,31.2c15.6,0,33.4-11.9,46.3-33.1c18.5-30.6,20.7-61.6,6.3-73.2
				C954.9,521.9,943.3,519.5,933,519.5L933,519.5z"/>
		</g>
	</g>
	<g>
		<path d="M938.9,595.5c-0.9,0-1.7-0.6-1.9-1.5c-0.3-1.1,0.4-2.2,1.5-2.4c1.3-0.3,2.5-1.1,3.4-2.2c1.5-1.8,2.5-6.6,3.4-16.1
			c0.1-1.1,1.1-1.9,2.2-1.8c1.1,0.1,1.9,1.1,1.8,2.2c-1.1,10.8-2.2,15.7-4.3,18.3c-1.5,1.8-3.5,3-5.6,3.5
			C939.2,595.5,939.1,595.5,938.9,595.5z"/>
	</g>
	<g>
		<path d="M930,578c-0.1,0-0.3,0-0.4,0c-1.1-0.2-1.8-1.3-1.5-2.4l0.5-2.4c0.2-1.1,1.3-1.8,2.4-1.6c1.1,0.2,1.8,1.3,1.5,2.4l-0.5,2.4
			C931.8,577.4,930.9,578,930,578z"/>
	</g>
	<g>
		<path d="M958.3,578c-0.2,0-0.3,0-0.5-0.1c-1.1-0.3-1.7-1.3-1.5-2.4l0.6-2.5c0.3-1.1,1.3-1.7,2.4-1.5c1.1,0.3,1.7,1.3,1.5,2.4
			l-0.6,2.5C960,577.4,959.2,578,958.3,578z"/>
	</g>
	<g>
		<path d="M929.9,606.4c-0.6,0-1.2,0-1.9-0.1c-5.5-1-9.2-6.3-8.2-11.8c0.2-1.1,1.2-1.8,2.3-1.6c1.1,0.2,1.8,1.2,1.6,2.3
			c-0.3,1.6,0.1,3.2,1,4.6c1,1.4,2.4,2.3,4,2.6c0.3,0.1,0.7,0.1,1.1,0.1c1.1,0,2,0.9,2,2S931,606.4,929.9,606.4z"/>
	</g>
	<g>
		<path d="M866.6,589.7c-1,0-1.9-0.8-2-1.8c-0.1-1.1,0.7-2.1,1.8-2.2l11.8-1.1c1.1-0.1,2.1,0.7,2.2,1.8c0.1,1.1-0.7,2.1-1.8,2.2
			l-11.8,1.1C866.7,589.7,866.7,589.7,866.6,589.7z"/>
	</g>
	<path d="M998.9,522.7c-8-12.4-33.6-13.8-46.1,0.3c-23.5-9.1-49.3,2.4-49.3,2.4c-22.6,10.7-32.2,28.4-24.1,71.1
		c34.6-14.8,37.6-61.8,37.6-61.8s21,26.7,54.6,26.2l0,0c0.1,0,0.2,0,0.2,0c0.7,0,1.4,0,2.1-0.1v-0.1
		C997.7,558.4,1009.6,539.2,998.9,522.7z"/>
	<path class="st4" d="M893.1,986.9c-11,0-48.9-2.6-72.9-35.8c-12.5-17.2-19.3-40-20.3-67.8c-1.2-32.8,5.9-72.7,21-118.7v-0.1h122
		c1.4-1.8,25.9-34.4,59.6-66.4c31.8-30.4,78.6-66.6,120.5-66.6c22.2,0,43.2,12.9,52.2,32.1c39,83.3,62.2,141.8,69,161
		c0,0-19.3-13.3-60.4,13.4c-14.9,9.5-24.5,17-33.8,24.1c-9.4,7.3-18.2,14.1-31.9,22.8c-26.7,16.8-50.5,19-50.7,19h-0.2v-0.2
		c-5.3-31-6.2-54.6-6.4-59.2c-30.8,61.5-62.2,101.9-95.7,123.4C937.7,985.4,914.5,986.9,893.1,986.9z"/>
	<g>
		<path d="M1061.3,845.7c-1.1,0-1.9-0.8-2-1.9c-2-45.7,5.9-97.6,6-98.1c0.2-1.1,1.2-1.8,2.3-1.7c1.1,0.2,1.8,1.2,1.7,2.3
			c-0.1,0.5-7.9,52-6,97.3C1063.3,844.7,1062.5,845.7,1061.3,845.7C1061.4,845.7,1061.3,845.7,1061.3,845.7z"/>
	</g>
	<g>
		<path d="M912.9,813.7c-0.3,0-0.7-0.1-1-0.3c-0.9-0.6-1.3-1.8-0.7-2.7c9.6-16.1,20.2-32.4,30.5-47.1c0.6-0.9,1.9-1.1,2.8-0.5
			c0.9,0.6,1.1,1.9,0.5,2.8c-10.2,14.6-20.7,30.8-30.3,46.9C914.2,813.4,913.6,813.7,912.9,813.7z"/>
	</g>
	<g>
		<path d="M1243.8,826.4c-0.8,0-1.6-0.5-1.9-1.3c-7.6-21.3-26.7-68.1-52.3-124.7c-0.5-1,0-2.2,1-2.6c1-0.5,2.2,0,2.6,1
			c25.7,56.8,44.9,103.7,52.5,125.1c0.4,1-0.2,2.2-1.2,2.6C1244.2,826.4,1244,826.4,1243.8,826.4z"/>
	</g>
	<g>
		<path d="M922.9,796.7h-111c-1.1,0-2-0.9-2-2s0.9-2,2-2h111c1.1,0,2,0.9,2,2S924,796.7,922.9,796.7z"/>
	</g>
	<g>
		<path d="M909.5,908c-1.4,0-2.7-0.1-4-0.4c-28-5.3-22.7-60-18.8-99.9c0.5-4.7,0.9-9.1,1.2-13.1c0.1-1.1,1-1.9,2.2-1.8
			c1.1,0.1,1.9,1.1,1.8,2.2c-0.3,4-0.8,8.5-1.2,13.2c-3.5,36.2-8.8,91,15.6,95.6c1.1,0.2,2.2,0.3,3.3,0.3
			c29.3,0,71.7-67.6,100.1-112.9c6.4-10.2,12.4-19.8,17.6-27.5c21.8-32.7,49.8-69.9,72.9-67.3c9.9,1.1,17.8,9.4,23.6,24.7
			c7.9,20.8,40.7,129,41,130.1c0.3,1.1-0.3,2.2-1.3,2.5c-1.1,0.3-2.2-0.3-2.5-1.3c-0.3-1.1-33.1-109.2-41-129.9
			c-5.2-13.7-12.1-21.2-20.3-22.1c-21.2-2.4-49.6,36.2-69.1,65.5c-5.1,7.7-11.1,17.3-17.5,27.4C982.5,842,941.1,908,909.5,908z"/>
	</g>
	<g>
		<path d="M1316.9,853.7c-0.4,0-0.8-0.1-1.2-0.4l-85-60c-0.9-0.6-1.1-1.9-0.5-2.8s1.9-1.1,2.8-0.5l85,60c0.9,0.6,1.1,1.9,0.5,2.8
			C1318.1,853.4,1317.5,853.7,1316.9,853.7z"/>
	</g>
	<g>
		<path class="st0" d="M1003.2,817.7c-26.2,0-47.5-14.7-60.7-27c-14.4-13.4-22.7-26.9-22.7-27c-7.1-11-13.1-22.6-18-34.7l-10.2-25.1
			l72.8-28.7l12.8,15.5c11.9,22.1,19,36.8,19.1,37l0.8,1.8l1.8-0.8c0.8-0.4,83.4-37.1,125.7-48.9c16-4.5,31.8-6.8,45.5-6.8
			c20.4,0,33,5.3,33,13.9v1.3l1.2,0.5c0,0,4.2,2,5.3,5.6c0.6,2,0.2,4.2-1.2,6.5l-0.9,1.5l1.4,1.1c0.8,0.6,7.2,6,1.8,13.1l-0.8,1.1
			l0.7,1.2c0,0,2.5,4.3,0.8,7.9c-1.2,2.6-4.5,4.4-9.6,5.2c-4,0.7-7.5,0.9-10.8,1.1c-11.7,0.7-22.8,1.4-54.9,20.2
			c-11.4,6.6-22.3,14.4-33,22c-27.9,19.8-56.8,40.3-95.7,42.6C1006,817.6,1004.6,817.7,1003.2,817.7L1003.2,817.7z"/>
		<g>
			<path d="M1170.1,674.8c18.8,0,31,4.7,31,11.9v2.6l2.3,1.1c1,0.5,3.6,2.1,4.3,4.4c0.4,1.4,0.1,3-1,4.9l-1.8,3l2.8,2.2
				c0,0,1.7,1.4,2.6,3.4c1.1,2.3,0.7,4.5-1.1,6.9l-1.7,2.1l1.4,2.3c0,0,1.9,3.5,0.7,6c-1.2,2.5-5.1,3.6-8.1,4.1
				c-3.9,0.7-7.3,0.9-10.6,1.1c-12,0.7-23.3,1.4-55.7,20.4c-11.4,6.7-22.5,14.5-33.1,22.1c-27.7,19.7-56.3,40-94.6,42.2
				c-1.3,0.1-2.7,0.1-4.1,0.1c-25.5,0-46.2-14.3-59.2-26.3c-14.3-13.2-22.5-26.6-22.5-26.8v-0.1v-0.1c-7-10.8-13-22.4-17.8-34.3
				l-9.5-23.3l69.5-27.5l11.8,14.2c11.8,21.9,18.9,36.6,18.9,36.7l1.7,3.5l3.6-1.6c0.8-0.4,83.2-37,125.4-48.8
				C1141,677.1,1156.5,674.8,1170.1,674.8 M1170.1,670.8c-13.3,0-29.3,2.2-46,6.9c-43,12-126,49-126,49s-7.1-14.8-19.2-37.2
				L965,672.7l-76,30l11,27c4.9,12.2,11,23.9,18.1,35c0,0,33.2,55,85.2,55c1.4,0,2.8,0,4.3-0.1c54.4-3.2,88.6-40.8,129.6-64.8
				s47-18,65-21s10.2-16.1,10.2-16.1c6.8-8.9-2.2-15.9-2.2-15.9c6-10-5-15-5-15C1205.1,676.3,1190.9,670.8,1170.1,670.8
				L1170.1,670.8z"/>
		</g>
	</g>
	<path class="st5" d="M821.1,764.9c-0.3-0.1-23.2-7.4-21.2-35.2c1.2-16.2,19.4-45.1,50.1-79.1c29.1-32.4,43.2-35.1,55.1-35.1
		c24,0,39.2,12.4,60.2,49.1c4.7,8.2,9.3,16.5,13.8,24.8l0.1,0.2l-78.9,40.2c4.9,12.1,10.8,23.8,17.9,34.8l0.2,0.3H821.1z"/>
	<g>
		<path d="M1141.1,691.7c-0.9,0-1.7-0.6-1.9-1.5c-0.3-1.1,0.4-2.2,1.4-2.4c1.4-0.4,35.6-9,63.9-1c1.1,0.3,1.7,1.4,1.4,2.5
			c-0.3,1.1-1.4,1.7-2.5,1.4c-27.2-7.8-61.4,0.9-61.8,1C1141.4,691.7,1141.3,691.7,1141.1,691.7z"/>
	</g>
	<g>
		<path d="M1145.9,706.7c-0.9,0-1.7-0.6-1.9-1.5c-0.3-1.1,0.4-2.2,1.4-2.4c1.2-0.3,30.8-8,62.9-2c1.1,0.2,1.8,1.2,1.6,2.3
			c-0.2,1.1-1.3,1.8-2.3,1.6c-31.2-5.8-60.8,1.9-61.1,2C1146.2,706.7,1146.1,706.7,1145.9,706.7z"/>
	</g>
	<g>
		<path d="M1150.9,721.7c-1,0-1.8-0.7-2-1.7c-0.2-1.1,0.6-2.1,1.6-2.3c31.8-5.3,48.6-3.8,59.7-2c1.1,0.2,1.8,1.2,1.6,2.3
			c-0.2,1.1-1.2,1.8-2.3,1.6c-10.8-1.8-27.2-3.2-58.3,2C1151.1,721.7,1151,721.7,1150.9,721.7z"/>
	</g>
	<g>
		<path d="M1109.6,774.8c-0.8,0-1.5-0.5-1.8-1.2l-32.8-78.8c-0.4-1,0.1-2.2,1.1-2.6c1-0.4,2.2,0.1,2.6,1.1l32.8,78.8
			c0.4,1-0.1,2.2-1.1,2.6C1110.1,774.8,1109.9,774.8,1109.6,774.8z"/>
	</g>
	<g>
		<path d="M902.9,732.8c-0.8,0-1.5-0.4-1.8-1.2c-4.3-9.6-10.1-23.4-13-31.2c-0.4-1,0.1-2.2,1.2-2.6c1-0.4,2.2,0.1,2.6,1.2
			c2.9,7.7,8.7,21.4,13,31c0.4,1,0,2.2-1,2.6C903.4,732.7,903.2,732.8,902.9,732.8z"/>
	</g>
	<g>
		<circle class="st0" cx="1092.9" cy="732.7" r="21"/>
		<path d="M1092.9,755.7c-12.7,0-23-10.3-23-23s10.3-23,23-23s23,10.3,23,23S1105.6,755.7,1092.9,755.7z M1092.9,713.7
			c-10.5,0-19,8.5-19,19s8.5,19,19,19s19-8.5,19-19S1103.4,713.7,1092.9,713.7z"/>
	</g>
</g>
<g id="popcorn">
	<g>
		<path class="st0" d="M756.8,864.7c-0.9,0-1.9-0.1-2.8-0.2c-4.2-0.7-7.9-3.1-10.3-6.6s-3.4-7.7-2.7-11.9c1.3-7.7,8-13.2,15.7-13.2
			c0.9,0,1.9,0.1,2.8,0.2l2.1,0.4l0.2-2.2c0.1-1.2,0.4-2.3,0.7-3.5c2.2-6.6,8.3-11,15.2-11c1.7,0,3.4,0.3,5,0.8l1.6,0.5l0.8-1.5
			c1.6-3.1,4.2-5.7,7.3-7.2c2.2-1.1,4.5-1.6,7-1.6c6.2,0,11.7,3.4,14.4,9l0.8,1.6l1.7-0.6c1.3-0.5,2.7-0.8,4.1-0.9
			c0.5,0,1-0.1,1.5-0.1c8.3,0,15.1,6.2,15.9,14.5l0.2,2.2l2.1-0.4c0.9-0.2,1.8-0.2,2.7-0.3c8.8,0,16,7.2,16,16s-7.2,16-16,16H756.8z
			"/>
		<path d="M799.4,809.7c5.4,0,10.2,3,12.6,7.9l1.6,3.3l3.4-1.3c1.1-0.4,2.3-0.7,3.6-0.8c0.4,0,0.9-0.1,1.3-0.1
			c7.2,0,13.2,5.4,13.9,12.7l0.4,4.3l4.3-0.8c0.8-0.1,1.6-0.2,2.4-0.2c7.7,0,14,6.3,14,14s-6.3,14-14,14h-86c-0.8,0-1.6-0.1-2.4-0.2
			c-3.7-0.6-6.9-2.7-9-5.7c-2.1-3.1-3-6.8-2.3-10.5c1.2-6.7,7-11.6,13.8-11.6c0.8,0,1.6,0.1,2.4,0.2l4.3,0.7l0.4-4.3
			c0.1-1,0.3-2,0.6-3c1.9-5.8,7.2-9.6,13.3-9.6c1.5,0,2.9,0.2,4.3,0.7l3.3,1.1l1.5-3.1c1.4-2.7,3.6-5,6.4-6.3
			C795.2,810.2,797.2,809.7,799.4,809.7L799.4,809.7 M799.4,805.7c-2.6,0-5.3,0.6-7.8,1.8c-3.5,1.7-6.4,4.6-8.2,8.1
			c-1.9-0.6-3.7-0.9-5.6-0.9c-7.6,0-14.6,4.8-17.1,12.4c-0.4,1.3-0.7,2.6-0.8,3.9c-1-0.2-2.1-0.3-3.1-0.3c-8.6,0-16.2,6.2-17.7,14.9
			c-1.7,9.8,4.8,19.1,14.6,20.8c1,0.2,2.1,0.3,3.1,0.3l0,0h86c9.9,0,18-8.1,18-18s-8.1-18-18-18l0,0c-1,0-2.1,0.1-3.1,0.3
			c-0.9-9.3-8.7-16.3-17.9-16.3c-0.6,0-1.1,0-1.7,0.1c-1.6,0.1-3.1,0.5-4.6,1C812.4,809.4,806,805.7,799.4,805.7L799.4,805.7z"/>
	</g>
	<g>
		<polygon class="st0" points="755.9,984.7 726.7,851.4 872.8,851.4 843.6,984.7 		"/>
		<path d="M870.3,853.4L842,982.7h-84.6l-28.3-129.3H870.3 M875.3,849.4h-151l30,137.3h91L875.3,849.4L875.3,849.4z"/>
	</g>
	<g>
		<polygon class="st0" points="784.9,984.7 769.5,851.4 830,851.4 814.6,984.7 		"/>
		<path d="M827.8,853.4l-15,129.3h-26l-15-129.3H827.8 M832.3,849.4h-65l15.9,137.3h33.2L832.3,849.4L832.3,849.4z"/>
	</g>
</g>
</svg>
