<?xml version="1.0" encoding="utf-8"?>
<!-- Generator: Adobe Illustrator 25.1.0, SVG Export Plug-In . SVG Version: 6.00 Build 0)  -->
<svg version="1.1" id="Layer_2_1_" xmlns="http://www.w3.org/2000/svg" xmlns:xlink="http://www.w3.org/1999/xlink" x="0px" y="0px"
	 viewBox="0 0 1600 1200" style="enable-background:new 0 0 1600 1200;" xml:space="preserve">
<style type="text/css">
	.st0{fill:#FFFFFF;}
	.st1{fill:#F696BB;}
	.st2{fill:#6C79D9;}
	.st3{fill:#98D8F4;}
	.st4{fill:#F9494B;}
	.st5{fill:none;stroke:#000000;stroke-width:3.9998;stroke-linecap:round;stroke-linejoin:round;stroke-miterlimit:3.9998;}
</style>
<g id="screen">
	<g>
		<path class="st0" d="M835.8,623.5c-7.4,0-13.9-2.9-18.4-8c-4.5-5.3-6.3-12.4-5.1-19.9L852.1,344c2.5-15.8,17.3-28.6,33.1-28.6
			h382.2c7.4,0,13.9,2.9,18.4,8c4.5,5.3,6.3,12.4,5.1,19.9L1251.1,595c-2.5,15.8-17.3,28.6-33.1,28.6L835.8,623.5L835.8,623.5z"/>
		<path d="M1267.4,317.5c6.8,0,12.8,2.6,16.8,7.3c4.1,4.8,5.8,11.3,4.7,18.3l-39.8,251.5c-2.3,14.8-16.3,26.9-31.1,26.9H835.8
			c-6.8,0-12.8-2.6-16.8-7.3c-4.1-4.8-5.8-11.3-4.7-18.3l39.8-251.5c2.3-14.8,16.3-26.9,31.1-26.9L1267.4,317.5 M1267.4,313.5H885.2
			c-16.7,0-32.4,13.6-35.1,30.3l-39.8,251.5c-2.6,16.7,8.8,30.3,25.5,30.3H1218c16.7,0,32.4-13.6,35.1-30.3l39.8-251.5
			C1295.6,327,1284.2,313.5,1267.4,313.5L1267.4,313.5z"/>
	</g>
	<g>
		<path d="M1248.8,375.7c-0.6,0-1.1-0.2-1.5-0.7l-20.6-25c-0.7-0.9-0.6-2.1,0.3-2.8c0.9-0.7,2.1-0.6,2.8,0.3l20.6,25
			c0.7,0.9,0.6,2.1-0.3,2.8C1249.7,375.6,1249.2,375.7,1248.8,375.7z"/>
	</g>
	<g>
		<path d="M1223.8,375.7c-0.6,0-1.1-0.2-1.5-0.7c-0.7-0.8-0.6-2.1,0.2-2.8l29.4-25c0.8-0.7,2.1-0.6,2.8,0.2c0.7,0.8,0.6,2.1-0.2,2.8
			l-29.4,25C1224.7,375.5,1224.3,375.7,1223.8,375.7z"/>
	</g>
</g>
<g id="table">
	<polygon class="st1" points="915.3,693.5 898.2,1007 915.3,1007 941.2,822.9 1110,822.9 1212.2,1007 1230.6,1007 1091.2,693.5 	"/>
	<g>
		<path d="M1118.5,695.5H883.1c-1.1,0-2-0.9-2-2s0.9-2,2-2h235.4c1.1,0,2,0.9,2,2S1119.6,695.5,1118.5,695.5z"/>
	</g>
	<g>
		<path d="M941.2,824.9h-33c-1.1,0-2-0.9-2-2s0.9-2,2-2h33c1.1,0,2,0.9,2,2S942.3,824.9,941.2,824.9z"/>
	</g>
	<g>
		<path d="M1148.7,824.9h-38.3c-1.1,0-2-0.9-2-2s0.9-2,2-2h38.3c1.1,0,2,0.9,2,2S1149.8,824.9,1148.7,824.9z"/>
	</g>
	<circle cx="1010.1" cy="758.9" r="11.7"/>
</g>
<g id="woman">
	<path d="M466,915.4c-0.4-0.2-40.4-21.4-45.4-43.2c-1.3-5.6-0.2-10.9,3.3-15.7c0.1-0.1,5.7-4.5,19.2-4.5c12.7,0,28.5,3.2,46.1,10.7
		l-0.3,0.7l-0.1,0.2c-10.6,20.3-22.3,51.4-22.5,51.7l-0.1,0.2L466,915.4z"/>
	<path d="M773.5,886.9c0-0.1-1.7-13.3-1.9-46.8V840l0.1-6.5c11.9-6.2,26.2-14.1,48.3-12.5c12.9,0.9,18.2,9.9,18.3,10
		c2.4,6,2.2,12-0.7,17.9c-11.7,23.6-63.3,38-63.8,38.2l-0.2,0.1L773.5,886.9z"/>
	<g>
		<path d="M594.5,957.2c-0.8,0-1.6-0.5-1.9-1.3c-0.3-0.9,0-1.9,0.8-2.4l98-60.7c12.9-7.9,29.9-3.9,37.9,8.9c1,1.7,1.9,3.5,2.6,5.4
			c2.4,6.9,2,14.4-1.2,21c-3.2,6.7-8.8,11.6-15.8,14c-1.7,0.6-3.6,1-5.7,1.4l-114.6,13.6C594.7,957.2,594.6,957.2,594.5,957.2z
			 M705.9,892.7c-4.2,0-8.5,1.1-12.3,3.5l-90.3,55.9l105.5-12.5c1.9-0.3,3.5-0.7,5-1.2c5.9-2,10.7-6.3,13.5-12
			c2.7-5.7,3.1-12,1-17.9c-0.6-1.6-1.3-3.2-2.2-4.6C721.5,896.7,713.8,892.7,705.9,892.7z"/>
	</g>
	<g>
		<path d="M670.2,993.4c-0.6,0-1.1-0.2-1.5-0.7c-15.4-17.4-27.6-19.3-40.5-21.2c-11-1.6-22.3-3.3-35.2-15.1c-0.8-0.7-0.9-2-0.1-2.8
			s2-0.9,2.8-0.1c12,10.9,22.2,12.4,33.1,14.1c13.1,1.9,26.6,4,42.9,22.5c0.7,0.8,0.7,2.1-0.2,2.8
			C671.1,993.2,670.7,993.4,670.2,993.4z"/>
	</g>
	<path class="st2" d="M744.3,1007.2L744.3,1007.2c-25.9-54.5-73.7-67.6-100-70.5h-0.1v-0.1c-2.2-9.9-4.1-19.8-5.7-29.3v-0.1l0.1-0.1
		c5.3-2.7,129-67.1,133.1-67.1c0.2,0,0.3,0.2,0.3,0.3c0.2,33.4,1.9,46.6,1.9,46.7c0,0.5,2.4,45.2,37,73.1
		c26.7,21.5,27.5,33.3,28.4,47v0.2h-95V1007.2z"/>
	<path d="M665.2,1007.2L665.2,1007.2c-8.5-23-15.6-46.8-20.9-70.7l-0.1-0.3h0.3c17.9,2,44,8.5,67.4,27.8l0.1,0.1l-1.5,43.1H665.2z"
		/>
	<path class="st3" d="M423.9,856.5c0.3-0.3,29-30.6,166.1-144.6c23.1-18.7,42.6-28.2,57.9-28.2c21.6,0,27.3,19.3,27.4,19.5
		L646,863.5c-15.6,19.3-26,32.8-33.9,43.8l-0.1,0.1h-0.1c0,0-0.4,0-1.1,0c-5.8,0-36.6-0.9-72.5-19.3c-32-16.4-47.7-23.9-49.4-24.7
		C436.7,846.7,423.9,856.5,423.9,856.5z"/>
	<path class="st2" d="M396.7,575.5l0.1-0.3c2-6.6,4.3-13.7,6.7-21.6c1.7-5.3,3.4-10.9,5.3-16.9v-0.1l131.6-0.5l5.5,39.5H396.7V575.5
		z"/>
	<path class="st3" d="M638.5,907.2c-16.4-97.2-2.6-172.2-1.7-177H473.3c-33,0-58.7-9.3-74.3-27c-14.9-16.9-20.6-40.5-16.9-70.2
		c1.8-14.4,6.4-30.7,14.7-57.7v-0.1h149l1,7.4c3.7,0.3,68.4,6.2,119.4,15.1c25.9,4.5,46.7,9.8,64,20.7
		c17.6,11.1,30.4,27.4,41.6,52.7c15,33.8,40.4,95.1,66.4,160.2c-4.7-3.9-27.5-11.1-66.8,9.3c-13.1,6.9-22,13.3-31.4,20
		c-11.4,8.1-23.2,16.5-43.5,26.6c-18.3,9.3-37.8,16.2-57.9,20.3h-0.2L638.5,907.2z"/>
	<circle cx="429.9" cy="294.5" r="43.9"/>
	<circle cx="350.6" cy="259.8" r="43.9"/>
	<g>
		<path class="st0" d="M464.8,399.2c-12.5,0-22.7-10.2-22.7-22.7s10.2-22.7,22.7-22.7s22.7,10.2,22.7,22.7S477.3,399.2,464.8,399.2z
			"/>
		<path d="M464.8,355.8c11.4,0,20.7,9.3,20.7,20.7s-9.3,20.7-20.7,20.7s-20.7-9.3-20.7-20.7S453.3,355.8,464.8,355.8 M464.8,351.8
			c-13.7,0-24.7,11.1-24.7,24.7s11.1,24.7,24.7,24.7s24.7-11.1,24.7-24.7S478.4,351.8,464.8,351.8L464.8,351.8z"/>
	</g>
	<g>
		<path d="M461.7,382.3c-0.6,0-1.3-0.3-1.7-0.9c-0.6-0.9-0.4-2.2,0.5-2.8l14.6-9.8c0.9-0.6,2.2-0.4,2.8,0.5c0.6,0.9,0.4,2.2-0.5,2.8
			l-14.6,9.8C462.5,382.2,462.1,382.3,461.7,382.3z"/>
	</g>
	<g>
		<path class="st0" d="M509.4,398.7c-10.5,0-20.6-6.6-29-19.1c-29.6-43.7-25.2-63.4-8.6-81c0.2-0.2,19.8-19.9,44.3-19.9
			c4.5,0,9,0.7,13.3,2c17.1,5.3,25.6,35.1,19.8,69.2C544.2,378.6,527.8,398.7,509.4,398.7L509.4,398.7z"/>
		<g>
			<path d="M516.1,280.7c4.3,0,8.6,0.6,12.7,1.9c7.4,2.3,13.4,10,17,21.7c3.8,12.6,4.3,28.6,1.4,45.2c-2.4,14.1-7.6,26.1-14.9,34.7
				c-6.7,8-14.9,12.4-22.9,12.4c-9.8,0-19.3-6.3-27.4-18.2c-28.8-42.5-24.7-61.6-8.8-78.4C473.9,299.3,492.8,280.7,516.1,280.7
				 M516.1,276.7c-25.7,0-45.8,20.6-45.8,20.6c-18.5,19.6-20.1,41.3,8.4,83.4c9.4,13.8,20.2,19.9,30.7,19.9
				c18.9,0,36.5-19.9,41.7-50.4c6.2-35.8-3.2-65.9-21.1-71.4C525.2,277.3,520.6,276.7,516.1,276.7L516.1,276.7z"/>
		</g>
	</g>
	<path d="M470.3,297.3c-16.1,17-19.4,35.7-1.3,67.8c30.7-20,20.4-65.9,20.4-65.9c32.1,16.1,61.5,8.8,61.5,8.8
		c-3.4-15.2-10.8-26.1-20.9-29.2C498.1,268.9,470.3,297.3,470.3,297.3z"/>
	<g>
		<path d="M528.9,350.6c-0.6,0-1.2-0.3-1.6-0.8c-0.7-0.9-0.6-2.1,0.3-2.8c1.2-1,2.1-2.2,2.6-3.5c0.7-2.2-0.1-7-2.7-16.5
			c-0.3-1.1,0.3-2.2,1.4-2.5c1.1-0.3,2.2,0.3,2.5,1.4c3,10.7,3.7,15.6,2.7,18.9c-0.7,2.1-2.1,3.9-3.9,5.3
			C529.8,350.5,529.3,350.6,528.9,350.6z"/>
	</g>
	<g>
		<path d="M514,337.3c-1,0-1.8-0.7-2-1.7l-0.4-2.6c-0.2-1.1,0.6-2.1,1.7-2.3c1.1-0.2,2.1,0.6,2.3,1.7l0.4,2.6
			c0.2,1.1-0.6,2.1-1.7,2.3C514.2,337.3,514.1,337.3,514,337.3z"/>
	</g>
	<g>
		<path d="M540.8,326.7c-1,0-1.8-0.7-2-1.7l-0.4-2.5c-0.2-1.1,0.6-2.1,1.7-2.3c1.1-0.2,2.1,0.6,2.3,1.7l0.4,2.5
			c0.2,1.1-0.6,2.1-1.7,2.3C541,326.7,540.9,326.7,540.8,326.7z"/>
	</g>
	<g>
		<path d="M521.4,364.7c-2,0-3.9-0.6-5.6-1.7c-2.3-1.5-3.9-3.9-4.4-6.6c-0.2-1.1,0.5-2.1,1.6-2.4c1.1-0.2,2.1,0.5,2.4,1.6
			c0.3,1.7,1.3,3.1,2.7,4c1.4,0.9,3,1.3,4.6,0.9c0.3-0.1,0.7-0.2,1.2-0.4c1-0.4,2.2,0.1,2.6,1.1c0.4,1-0.1,2.2-1.1,2.6
			c-0.5,0.2-1.2,0.5-1.9,0.6C522.7,364.6,522,364.7,521.4,364.7z"/>
	</g>
	<g>
		<path class="st0" d="M587.8,611c-22.6,0-38.1-7.2-47.2-13.2c-9.8-6.5-14.4-13.2-14.4-13.3l-0.1-0.1c-0.2-0.3-22.5-28.5-39.4-72.5
			c0,0,0-0.1-0.1-0.1l-16.4-35L553,436l26.4,38.1c4.2,8.9,9.6,20.9,9.7,21c0.3,0.7,0.9,1.1,1.6,1.2c0.1,0,0.1,0,0.2,0
			c0.7,0,1.3-0.3,1.7-0.9c0.6-0.9,62.9-92.1,92.7-120.9c6.4-6.1,10.7-7.4,13.2-7.4c4.1,0,6,3.6,6.9,6.6c0.2,0.6,0.6,1,1.1,1.3
			c0.3,0.1,0.5,0.2,0.8,0.2s0.6-0.1,0.9-0.2c0.1-0.1,13.6-6.8,25.9-9.6c1.4-0.3,2.6-0.5,3.8-0.5c7.5,0,9.3,6.5,9.4,6.8
			c0.2,0.8,0.8,1.3,1.6,1.5c3.3,0.6,5.5,1.9,6.7,3.9c1.8,3.1,0.6,7.1,0.6,7.2c-0.2,0.6-0.1,1.2,0.2,1.7s0.9,0.8,1.4,0.9
			c3,0.4,5.1,1.5,6.2,3.4c1.3,2.1,1.2,5.1,0,8.6c-0.4,1,0.1,2,1,2.5c0,0,3.6,1.9,3.9,5.3c0.3,3.3-2.5,7.4-8.2,11.8
			c-1.7,1.4-3.5,2.7-5.1,3.9c-15.3,11.6-28.5,21.7-47.2,57.3c-2,3.9-4.1,7.9-6.2,11.9c-14,26.9-29.8,57.4-48.5,80.5
			C632.6,598.3,611,611,587.8,611z"/>
		<g>
			<path d="M737.9,366.9c5.7,0,7.2,4.5,7.5,5.3c0.3,1.6,1.6,2.7,3.2,3c2.7,0.5,4.4,1.5,5.3,2.9c1.2,1.9,0.7,4.7,0.4,5.6
				c-0.4,1.1-0.2,2.4,0.4,3.4s1.7,1.7,2.9,1.8c1.6,0.2,3.8,0.8,4.8,2.4c0.9,1.6,0.9,4-0.2,6.8c-0.7,1.9,0.1,4,1.9,5
				c0,0,2.7,1.4,2.9,3.7c0.2,2.6-2.5,6.2-7.4,10.1c-1.7,1.4-3.5,2.7-5.1,3.9c-15.5,11.8-28.9,22-47.7,57.9c-2,3.9-4.1,7.9-6.2,11.9
				c-13.9,26.8-29.7,57.2-48.3,80.2c-20.8,25.7-41.8,38.2-64.4,38.2c-22,0-37.1-6.9-45.9-12.8c-9.6-6.3-14-12.8-14.1-12.8
				c-0.1-0.1-0.1-0.2-0.2-0.3c-0.2-0.3-22.4-28.3-39.1-71.9c0-0.1-0.1-0.2-0.1-0.3l-15.6-33.2l79.5-39.2l25.3,36.6
				c4.2,8.9,9.5,20.7,9.6,20.9c0.6,1.3,1.9,2.2,3.3,2.3c0.1,0,0.2,0,0.4,0c1.3,0,2.6-0.6,3.3-1.7c0.6-0.9,62.8-91.9,92.5-120.6
				c6.2-6,10-6.9,11.8-6.9c0.9,0,3.5,0,5,5.1c0.3,1.1,1.2,2.1,2.2,2.5c0.5,0.2,1,0.3,1.6,0.3s1.2-0.1,1.8-0.4
				c0.1-0.1,13.4-6.7,25.5-9.4C735.8,367,736.9,366.9,737.9,366.9 M737.9,362.9c-1.3,0-2.7,0.2-4.3,0.5c-12.7,2.9-26.4,9.8-26.4,9.8
				c-1.5-5.1-4.6-8-8.9-8c-3.9,0-8.9,2.5-14.6,8c-30.3,29.3-93,121.2-93,121.2s-5.5-12.2-9.8-21.2l-27.5-39.7L467.3,476l17.2,36.7
				c17.2,44.8,39.7,73,39.7,73s18.4,27.4,63.3,27.4c57.5,0,92.6-75.6,122.4-132.4c20.5-39.1,34.2-46.9,51.8-60.6s3.9-20.5,3.9-20.5
				c2.9-7.8,0-13.7-7.8-14.6c0,0,3.8-11.4-8.8-13.7C749.3,371.2,747.2,362.9,737.9,362.9L737.9,362.9z"/>
		</g>
	</g>
	<g>
		<path d="M650.6,417.2c-0.5,0-1-0.2-1.4-0.6c-0.8-0.8-0.8-2-0.1-2.8c23.5-24.5,56-39.4,56.3-39.5c1-0.5,2.2,0,2.6,1
			c0.5,1,0,2.2-1,2.6c-0.3,0.1-32.1,14.7-55.1,38.7C651.7,417,651.1,417.2,650.6,417.2z"/>
	</g>
	<path class="st2" d="M406.5,545.2c-0.3-0.1-20.7-6.2-23.6-28.5c-2.3-17.8,1.8-33.6,30.6-70.8c29.4-37.8,54.3-66.8,85.2-66.8
		c1.1,0,2.2,0,3.3,0.1c22.6,1.6,40.4,15.1,53,40.3c10,19.9,18.8,38,26.4,53.9l0.1,0.2L485,512.8c4.2,10.9,9.1,21.8,14.5,32.2
		l0.2,0.3L406.5,545.2L406.5,545.2z"/>
	<g>
		<path d="M500.2,547h-93.7c-1.1,0-2-0.9-2-2s0.9-2,2-2h93.7c1.1,0,2,0.9,2,2S501.3,547,500.2,547z"/>
	</g>
	<g>
		<path d="M518.8,577.3H396.7c-1.1,0-2-0.9-2-2s0.9-2,2-2h122.1c1.1,0,2,0.9,2,2S519.9,577.3,518.8,577.3z"/>
	</g>
	<g>
		<path d="M488.5,518.7c-0.8,0-1.5-0.4-1.8-1.2c-5.6-13-12.7-32.2-15.7-41.2c-0.3-1,0.2-2.2,1.3-2.5c1-0.3,2.2,0.2,2.5,1.3
			c2.9,8.9,9.9,28,15.5,40.8c0.4,1,0,2.2-1,2.6C489,518.6,488.8,518.7,488.5,518.7z"/>
	</g>
	<g>
		<path d="M420,577.3c-0.1,0-0.2,0-0.3,0c-1.1-0.2-1.8-1.2-1.6-2.3l5-30.3c0.2-1.1,1.2-1.8,2.3-1.6c1.1,0.2,1.8,1.2,1.6,2.3l-5,30.3
			C421.8,576.6,421,577.3,420,577.3z"/>
	</g>
	<g>
		<path d="M451.4,577.3c0,0-0.1,0-0.1,0c-1.1-0.1-1.9-1-1.9-2.1l2.1-30.3c0.1-1.1,1-1.9,2.1-1.9c1.1,0.1,1.9,1,1.9,2.1l-2.1,30.3
			C453.3,576.5,452.4,577.3,451.4,577.3z"/>
	</g>
	<g>
		<path d="M483.9,577.3c-1.1,0-2-0.9-2-2l-0.3-30.3c0-1.1,0.9-2,2-2c1.1,0,2,0.9,2,2l0.3,30.3C485.9,576.4,485,577.3,483.9,577.3
			C483.9,577.3,483.9,577.3,483.9,577.3z"/>
	</g>
	<g>
		<path d="M687.7,406.4c-0.6,0-1.2-0.3-1.6-0.8c-0.6-0.9-0.4-2.1,0.5-2.8c21.3-15.2,42.7-26.7,60.1-32.5c1-0.3,2.2,0.2,2.5,1.3
			s-0.2,2.2-1.3,2.5c-17.1,5.6-38.1,17-59.1,31.9C688.5,406.3,688.1,406.4,687.7,406.4z"/>
	</g>
	<g>
		<path d="M699.5,420c-0.6,0-1.2-0.3-1.6-0.8c-0.6-0.9-0.4-2.1,0.5-2.8c23.6-17.1,43.1-28.3,56.3-32.5c1.1-0.3,2.2,0.2,2.5,1.3
			c0.3,1.1-0.2,2.2-1.3,2.5c-12.8,4.1-31.8,15.1-55.1,31.9C700.3,419.9,699.9,420,699.5,420z"/>
	</g>
	<g>
		<path d="M710,435.5c-0.5,0-1.1-0.2-1.4-0.6c-0.8-0.8-0.7-2.1,0.1-2.8c12.4-11.9,40.4-28.4,54.6-33.4c1-0.4,2.2,0.2,2.6,1.2
			c0.4,1-0.2,2.2-1.2,2.6c-13.8,4.9-41.1,20.9-53.2,32.6C711,435.3,710.5,435.5,710,435.5z"/>
	</g>
	<g>
		<path d="M598.9,518.7c-0.8,0-1.5-0.4-1.8-1.2l-8.8-19.5c-0.5-1,0-2.2,1-2.6c1-0.5,2.2,0,2.6,1l8.8,19.5c0.5,1,0,2.2-1,2.6
			C599.5,518.6,599.2,518.7,598.9,518.7z"/>
	</g>
	<g>
		<path d="M639.1,909c-1,0-1.8-0.7-2-1.7c-17-100.3-1.8-177.2-1.7-177.9c0.2-1.1,1.3-1.8,2.4-1.6c1.1,0.2,1.8,1.3,1.6,2.4
			c-0.2,0.8-15.1,76.9,1.7,176.5c0.2,1.1-0.5,2.1-1.6,2.3C639.3,909,639.2,909,639.1,909z"/>
	</g>
	<g>
		<path d="M670.2,731.9H568.6c-1.1,0-2-0.9-2-2s0.9-2,2-2h101.6c1.1,0,2,0.9,2,2S671.3,731.9,670.2,731.9z"/>
	</g>
	<path d="M439.5,1007.2v-0.2c0.1-0.3,6-30.7,19.1-70.5l0.1-0.2h0.2c21.2,4.3,36,18.4,44.7,29.4l0.1,0.1l-14.9,41.4H439.5z"/>
	<path class="st2" d="M522.1,1007.2v-0.2c-1.8-12.7-9.1-28.5-18.9-41c-8.6-11-23.3-25-44.4-29.3h-0.2l0.1-0.2
		c2.2-6.7,4.7-13.9,7.3-21.3c0.1-0.4,14.7-38.3,22.5-51.8l0.1-0.1L612.2,907l-0.2,0.2c-11,15.4-16.8,26-17.8,32.4
		c-1.9,12.5,1.8,21.5,14.6,36c7.1,8,9.8,16.1,10.7,21.5c1,5.8,0.3,9.9,0.3,9.9v0.2L522.1,1007.2L522.1,1007.2z"/>
	<g>
		<path d="M748.5,856.1c-0.7,0-1.4-0.4-1.8-1.1c-2.3-4.6-5.7-7.5-10.3-8.9c-13.4-3.9-31.9,7.1-32.1,7.2c-0.8,0.5-1.7,0.4-2.4-0.3
			c-0.7-0.6-0.8-1.6-0.4-2.4c0.3-0.5,26-51.6,19.4-71.4c-1-2.9-2.5-4.8-4.8-6c-3.2-1.6-6.5-1.7-10.1-0.2
			c-8.7,3.6-18.6,16.3-28.5,36.8c-7.6,15.7-12.6,30.5-12.7,30.7c-0.3,0.9-1.2,1.5-2.2,1.3c-1-0.1-1.7-0.9-1.7-1.9
			c0-0.5-2-53.6-18.4-67.2c-3-2.5-6.1-3.4-9.7-2.9c-1.1,0.2-2.1-0.6-2.3-1.7c-0.2-1.1,0.6-2.1,1.7-2.3c4.7-0.7,9,0.6,12.8,3.7
			c13.4,11.1,17.8,44.1,19.2,60.6c6.6-17.2,22.4-53.6,40.2-60.9c4.6-1.9,9.2-1.8,13.4,0.3c3.2,1.6,5.5,4.4,6.8,8.3
			c5.8,17.6-10.4,54.9-17,69c7-3.3,19.4-7.8,29.8-4.8c5.7,1.7,10,5.3,12.8,10.9c0.5,1,0.1,2.2-0.9,2.7
			C749.1,856,748.8,856.1,748.5,856.1z"/>
	</g>
	<g>
		<path d="M659.8,903.7c-0.8,0-1.6-0.5-1.9-1.4c-2-6.1-1-13.4,2.4-19c2.8-4.5,6.9-7.4,11.5-8.2c6.3-1.1,10.3,1.5,12.5,3.8
			c3.8,3.9,5.1,9.7,4.3,13.2c-0.2,1.1-1.3,1.8-2.4,1.5c-1.1-0.2-1.8-1.3-1.6-2.4c0.4-2.1-0.5-6.7-3.3-9.6c-2.3-2.4-5.3-3.3-9-2.6
			c-3.5,0.6-6.6,2.8-8.8,6.3c-2.9,4.7-3.7,10.7-2,15.7c0.3,1.1-0.2,2.2-1.3,2.5C660.2,903.7,660,903.7,659.8,903.7z"/>
	</g>
	<g>
		<path d="M825.4,801.6c-0.1,0-0.2,0-0.3,0c-4.8-0.7-21.7-3.3-39.8-9.1c-16.9-5.5-28.1-11.7-33.1-18.5c-2.5-3.4-3.5-6.9-3-10.5
			c0.8-4.9,4.1-9.1,9.8-12.1c12.6-6.6,34-6.3,48.8,0.8c1,0.5,1.4,1.7,0.9,2.7c-0.5,1-1.7,1.4-2.7,0.9c-13.5-6.5-33.8-6.8-45.2-0.8
			c-3.1,1.6-7,4.6-7.7,9.1c-0.4,2.5,0.4,5,2.3,7.5c9.9,13.2,48.4,23,70.2,26c1.1,0.2,1.9,1.2,1.7,2.3
			C827.2,800.9,826.4,801.6,825.4,801.6z"/>
	</g>
	<g>
		<path d="M696.8,718.9c-2.2,0-4.4-0.3-6.6-0.9c-4.8-1.4-8.4-4.4-10.5-9.1c-7.5-16.3,4.4-48.5,9.8-61.4c-14.4,7.7-54,26.9-68.5,12.4
			c-4-4-5.6-9.3-4.5-15.3c1.5-9,10.4-27.1,53-47.8c1-0.5,2.2-0.1,2.7,0.9c0.5,1,0.1,2.2-0.9,2.7c-29.9,14.5-48.4,30.9-50.8,44.8
			c-0.8,4.7,0.4,8.8,3.4,11.9c12.7,12.7,54-7.2,68.9-15.9c0.8-0.4,1.7-0.3,2.4,0.2c0.6,0.6,0.8,1.5,0.5,2.3
			c-0.2,0.4-20.6,45-12.1,63.5c1.7,3.6,4.3,5.9,8,6.9c25.2,7.2,39.4-37.3,39.5-37.8c0.3-0.8,1.1-1.4,1.9-1.4c0.9,0,1.7,0.6,1.9,1.5
			c0,0.2,5.1,17.7,19,23.7c8.2,3.5,17.9,2.4,29-3.4c1-0.5,2.2-0.1,2.7,0.8c0.5,1,0.1,2.2-0.8,2.7c-12.2,6.4-23.1,7.6-32.5,3.5
			c-10.6-4.6-16.5-14.7-19.2-21c-1.8,4.5-4.8,11.3-9.1,17.8C715.7,712.6,706.5,718.9,696.8,718.9z"/>
	</g>
	<g>
		<path d="M600.2,731.7c-0.5,0-1-0.2-1.4-0.6c-0.8-0.8-0.8-2,0-2.8c0.1-0.1,13.1-13.9,5.4-26.2c-12-19.6-56.8,0.7-57.3,0.9
			c-0.8,0.4-1.8,0.2-2.4-0.5c-0.6-0.7-0.6-1.7-0.1-2.4c0.3-0.4,28-42.4,20.9-62.8c-1.6-4.6-4.9-7.7-10-9.4
			c-5.9-1.9-11.4-1.3-16.7,1.8c-21.4,12.5-31.4,60.7-31.5,61.2c-0.2,0.8-0.9,1.5-1.7,1.6c-0.9,0.1-1.7-0.4-2-1.1
			c-0.2-0.4-20.8-44.4-40.2-49.4c-3.9-1-7.3-0.3-10.6,2.1c-4.1,3.1-6.3,6.9-6.5,11.8c-1,20,29.9,48.4,30.2,48.7
			c0.7,0.6,0.8,1.6,0.4,2.4c-0.4,0.8-1.3,1.2-2.1,1.1l-1.7-0.3c-16.7-2.9-42-7.4-50.7,12.1c-0.5,1-1.6,1.5-2.6,1
			c-1-0.5-1.5-1.6-1-2.6c9.1-20.3,33.4-18,50.4-15.2c-9-9.2-27.7-30.3-26.8-47.3c0.3-6.1,3-11.1,8.1-14.8c4.2-3.1,8.9-4.1,14-2.8
			c17.2,4.4,34.1,34.3,40.3,46.5c3.4-13.5,13.5-47.4,32.1-58.3c6.3-3.7,13-4.4,20-2.2c6.3,2,10.6,6,12.6,11.9
			c6.2,17.9-10.5,48.6-18,61c13.3-5.1,45.4-15,56.5,3.1c9.3,14.9-5.3,30.4-6,31C601.2,731.5,600.7,731.7,600.2,731.7z"/>
	</g>
	<g>
		<path d="M491.6,624.9c-3.3,0-6.5-1-9.6-3c-10-6.6-17.7-24.4-19.9-46.4c-0.1-1.1,0.7-2.1,1.8-2.2c1.1-0.1,2.1,0.7,2.2,1.8
			c2.1,20.9,9.1,37.5,18.1,43.5c3.6,2.4,7.5,2.9,11.5,1.7c2.7-0.8,4.6-2.6,6-5.3c6.1-12.3-3.3-38.8-3.3-39c-0.4-1,0.2-2.2,1.2-2.6
			c1-0.4,2.2,0.2,2.6,1.2c0.4,1.1,10,28.3,3.2,42.2c-1.8,3.7-4.6,6.1-8.3,7.3C495.1,624.7,493.3,624.9,491.6,624.9z"/>
	</g>
	<g>
		<path d="M386.2,631.1c-1.1,0-2.3,0-3.4-0.1c-1.1-0.1-1.9-1-1.9-2.1c0.1-1.1,1-1.9,2.1-1.9c16.5,1,40.1-6,41-19.6
			c0.2-3.7-1.1-6.7-4-8.8c-6.1-4.5-18-4.8-28.5-0.9c-1,0.4-2.2-0.1-2.6-1.2c-0.4-1,0.1-2.2,1.2-2.6c11.8-4.5,25.1-3.9,32.2,1.4
			c4,3,6,7.2,5.7,12.3c-0.5,7.9-6.3,14.3-16.9,18.7C403.9,629.3,394.6,631.1,386.2,631.1z"/>
	</g>
	<g>
		<path d="M400.6,683.7c-7.5,0-15.3-2.9-15.8-3.1c-1-0.4-1.6-1.5-1.2-2.6c0.4-1,1.5-1.6,2.6-1.2c3.9,1.5,15.3,4.6,20.9,1.5
			c1.8-1,2.8-2.5,3.2-4.7c1.8-9.9-11.3-21.6-29.7-26.6c-1.1-0.3-1.7-1.4-1.4-2.5c0.3-1.1,1.4-1.7,2.5-1.4
			c20.7,5.6,34.7,19,32.5,31.2c-0.6,3.4-2.3,5.9-5.2,7.5C406.8,683.2,403.7,683.7,400.6,683.7z"/>
	</g>
	<g>
		<path d="M738,638.8c-7.1,0-13.1-3.7-16.7-8.5c-4.6-6.2-4.5-13.3,0.1-17.6c0.8-0.8,2.1-0.7,2.8,0.1c0.8,0.8,0.7,2.1-0.1,2.8
			c-3.6,3.3-2.4,8.6,0.4,12.3c6.2,8.4,16.3,8,23,4.1c1-0.6,2.2-0.2,2.7,0.7s0.2,2.2-0.7,2.7C745.6,637.8,741.7,638.8,738,638.8z"/>
	</g>
	<g>
		<path d="M499.4,731.9c0,0-0.1,0-0.1,0c-1.1-0.1-1.9-1-1.9-2.1c0.6-8.4,8.9-13.4,16.2-13.1c7.3,0.3,12.1,5.4,12.1,13.1
			c0,1.1-0.9,2-2,2s-2-0.9-2-2c0-7.9-5.7-9-8.2-9.1c-5.5-0.2-11.7,3.5-12.1,9.4C501.3,731.1,500.4,731.9,499.4,731.9z"/>
	</g>
	<g>
		<path d="M634,754.1c-0.2,0-0.5,0-0.7-0.1c-14-5.7-39.8-3.8-40.1-3.8c-1,0.1-1.9-0.6-2.1-1.5c-0.2-0.9,0.2-1.9,1.1-2.3
			c0.2-0.1,15.1-6.7,21-16c0.6-0.9,1.8-1.2,2.8-0.6c0.9,0.6,1.2,1.8,0.6,2.8c-3.6,5.7-9.9,10.3-14.9,13.4c9.2-0.1,23.5,0.5,33.1,4.4
			c1,0.4,1.5,1.6,1.1,2.6C635.5,753.6,634.8,754.1,634,754.1z"/>
	</g>
	<g>
		<path d="M569.4,852.5c-5.6,0-10.7-1.7-15.3-5.1c-15-11-20.4-36.7-22-47.4c-3.9,4.6-11.4,12.8-21.1,19.7
			c-19.2,13.7-37.6,15.9-53.3,6.2c-0.9-0.6-1.2-1.8-0.7-2.8c0.6-0.9,1.8-1.2,2.8-0.7c34.6,21.4,71.7-28.1,72-28.6
			c0.5-0.7,1.3-1,2.1-0.7c0.8,0.2,1.4,0.9,1.5,1.7c0,0.4,3.7,36.6,21,49.3c5.4,3.9,11.6,5.2,18.6,3.7c5.1-1.1,8.6-3.7,10.6-8.1
			c8.8-18.5-11.8-59.8-12-60.2c-0.4-0.9-0.2-2,0.6-2.5c0.8-0.6,1.9-0.5,2.6,0.2c0.1,0.1,6.8,7,16.9,13.1c9.1,5.5,23,11.5,37,8.7
			c1.1-0.2,2.1,0.5,2.4,1.6s-0.5,2.1-1.6,2.4c-12.1,2.5-25.9-0.7-39.9-9.2c-4.1-2.5-7.6-5.1-10.4-7.3c5.8,13.7,15.2,40.1,8.1,55.1
			c-2.6,5.4-7.1,8.9-13.4,10.3C573.7,852.2,571.5,852.5,569.4,852.5z"/>
	</g>
	<g>
		<path d="M585.8,900.1c-0.3,0-0.7-0.1-1-0.3c-1-0.6-1.3-1.8-0.7-2.7c0.1-0.1,5.6-9.6,3.2-17c-1-3.1-3.2-5.4-6.7-6.9
			c-15.7-7-34.9,2.3-44.8,8.5c-0.9,0.6-2.2,0.3-2.8-0.7c-0.6-0.9-0.3-2.2,0.7-2.8c10.7-6.6,31.1-16.4,48.6-8.7
			c4.6,2,7.6,5.2,8.9,9.4c2.9,9.1-3.3,19.8-3.5,20.3C587.2,899.7,586.5,900.1,585.8,900.1z"/>
	</g>
	<g>
		<path d="M534.2,771.2c-3.1,0-6.1-1.2-8.4-3.9c-0.7-0.9-0.6-2.1,0.3-2.8c0.9-0.7,2.1-0.6,2.8,0.3c2.9,3.5,7.5,2.9,10.6,0.8
			c3.3-2.2,6-6.9,2.9-12.8c-0.5-1-0.1-2.2,0.8-2.7c1-0.5,2.2-0.1,2.7,0.8c4.1,7.8,0.8,14.7-4.3,18
			C539.5,770.3,536.9,771.2,534.2,771.2z"/>
	</g>
	<g>
		<path d="M595,938.5h-28.4c-1.1,0-2-0.9-2-2s0.9-2,2-2H595c1.1,0,2,0.9,2,2S596.1,938.5,595,938.5z"/>
	</g>
	<g>
		<path d="M570.6,969c-0.7,0-1.4-0.4-1.8-1.1c-0.5-1-0.1-2.2,0.9-2.7l24.4-12.1c1-0.5,2.2-0.1,2.7,0.9c0.5,1,0.1,2.2-0.9,2.7
			l-24.4,12.1C571.2,968.9,570.9,969,570.6,969z"/>
	</g>
	<g>
		<path d="M753.7,919c-0.9,0-1.8-0.7-2-1.6c-0.2-1.1,0.5-2.1,1.6-2.3l25.5-4.7c1.1-0.2,2.1,0.5,2.3,1.6c0.2,1.1-0.5,2.1-1.6,2.3
			l-25.5,4.7C753.9,919,753.8,919,753.7,919z"/>
	</g>
	<g>
		<path d="M765.9,948.4c-0.7,0-1.4-0.4-1.8-1.1c-0.5-1-0.1-2.2,0.9-2.7l23.4-11.7c1-0.5,2.2-0.1,2.7,0.9c0.5,1,0.1,2.2-0.9,2.7
			l-23.4,11.7C766.5,948.3,766.2,948.4,765.9,948.4z"/>
	</g>
	<g>
		<path d="M788.9,937.2c-0.7,0-1.4-0.4-1.7-1c-0.5-0.8-0.3-1.8,0.4-2.5l85-77.8c1.5-1.4,3.1-2.6,4.9-3.6c6.3-3.7,13.7-4.7,20.9-2.8
			c7.1,1.9,13,6.4,16.7,12.8c0.9,1.6,1.7,3.4,2.4,5.5c2.2,7,1.5,14.5-1.9,21c-3.4,6.5-9.1,11.3-16.1,13.5l-109.9,34.7
			C789.3,937.2,789.1,937.2,788.9,937.2z M891.2,852.6c-4.1,0-8.1,1.1-11.7,3.2c-1.5,0.8-2.9,1.9-4.1,3l-78.3,71.7l101.3-32
			c6-1.9,10.9-6,13.8-11.6c2.9-5.6,3.5-12,1.6-17.9c-0.6-1.8-1.3-3.4-2-4.7c-3.2-5.4-8.2-9.3-14.3-10.9
			C895.2,852.9,893.2,852.6,891.2,852.6z"/>
	</g>
	<g>
		<path d="M857.2,963.1c-2.1,0-4.2-0.4-6.2-1.2l-62.9-24.7c-0.9-0.3-1.4-1.2-1.2-2.2c0.1-0.9,0.9-1.6,1.9-1.7l67.4-4.2
			c0,0,0.1,0,0.1,0c1.2,0,2.4,0,3.7,0.2c4.5,0.7,8.4,3.1,11.1,6.7c2.7,3.7,3.8,8.1,3,12.6c-0.2,0.9-0.5,2.2-1,3.5
			c-1.6,4.2-4.8,7.5-9,9.4C861.9,962.7,859.6,963.1,857.2,963.1z M798,936.8l54.5,21.4c3.2,1.3,6.8,1.2,9.9-0.2
			c3.2-1.4,5.6-3.9,6.9-7.2c0.4-1,0.7-2.1,0.8-2.8c0.5-3.4-0.3-6.8-2.3-9.6c-2-2.8-5.1-4.6-8.5-5.2c-0.9-0.2-1.9-0.2-2.9-0.2
			L798,936.8z"/>
	</g>
	<g>
		<path d="M788.9,937.4c-1,0-1.9-0.8-2-1.9c-1.1-16.2,4.3-28.5,9.5-40.4c6.1-14,11.9-27.2,6.7-45.8c-0.3-1.1,0.3-2.2,1.4-2.5
			c1.1-0.3,2.2,0.3,2.5,1.4c5.5,19.9-0.8,34.4-6.9,48.4c-5,11.5-10.2,23.4-9.1,38.6c0.1,1.1-0.8,2.1-1.9,2.1
			C789,937.4,788.9,937.4,788.9,937.4z"/>
	</g>
</g>
<g id="granny">
	<g>
		<path d="M800.3,441.9c-5.2,0-7.2-3.1-7.2-3.2l0,0v-0.1c-5.8-21.3,27.1-57.4,27.4-57.8l0.3-0.3l0.1,0.4c0.1,0.3,7.4,30.1,12.6,47.5
			v0.1l-0.1,0.1c-6.7,5-14.5,10.5-22.7,12.3c-4.3,0.9-4.8,1-7.9,1C802.8,441.9,800.3,441.9,800.3,441.9z"/>
		<g>
			<path class="st0" d="M835.1,427.8c-5.2-17.3-12.5-47-12.6-47.3c-5.9-24.6-21.1-90.7-19.5-100.8c0.9-5.5,3.3-8.4,7.4-8.4
				c1.1,0,1.8,0.2,1.8,0.2c0.2,0.1,0.4,0.1,0.6,0.1c0.5,0,0.9-0.2,1.3-0.5c0.5-0.4,0.8-1.1,0.7-1.8c-1.3-9.4,0.4-13.6,2-15.4
				c1.4-1.6,3.1-1.9,4.1-1.9c0.2,0,0.4,0,0.4,0c0.1,0,0.2,0,0.3,0c1,0,1.8-0.7,2-1.7c1.1-6.8,4.6-8.2,7.4-8.2c0.6,0,1,0.1,1,0.1
				c0.1,0,0.3,0,0.4,0c0.9,0,1.7-0.6,1.9-1.4c1-3.3,2.9-5,5.5-5s5.3,1.8,6.4,4.2c2.9,6.7,12.6,33.8,12.7,34.1
				c0.3,0.8,1.1,1.3,1.9,1.3c0.1,0,0.3,0,0.4,0c0.6-0.1,1.2-0.2,1.8-0.2c6.4,0,11.4,8.6,17.5,22.5c2.6,5.8,11,25.7,25.1,58.9
				l13.5,40.2l-72,65.4L835.1,427.8z"/>
			<path d="M839.7,237.9L839.7,237.9c1.8,0,3.8,1.3,4.5,3c2.8,6.6,12.5,33.7,12.6,34c0.6,1.6,2.1,2.7,3.8,2.7c0.3,0,0.6,0,0.9-0.1
				c0.5-0.1,0.9-0.2,1.3-0.2c5.6,0,10.8,10.2,15.6,21.3c2.5,5.8,11,25.6,25.1,58.9l13.1,38.9l-68.8,62.5L837,427.2
				c-5.2-17.3-12.5-46.9-12.5-47.2c-8.2-34.1-20.8-91.3-19.5-100c1-6.6,4.3-6.7,5.4-6.7l0,0c0.6,0,1.1,0.1,1.2,0.1
				c0.4,0.1,0.8,0.2,1.2,0.2c0.9,0,1.8-0.3,2.5-0.9c1.1-0.9,1.5-2.3,1.4-3.6c-1.2-9.1,0.4-12.6,1.5-13.9c0.9-1,1.9-1.2,2.5-1.2
				c0.1,0,0.1,0,0.1,0c0.3,0.1,0.5,0.1,0.8,0.1c0.8,0,1.5-0.2,2.2-0.7c0.9-0.6,1.4-1.6,1.6-2.7c0.7-4.3,2.5-6.5,5.4-6.5
				c0.3,0,0.5,0,0.6,0c0.3,0.1,0.6,0.1,1,0.1c1.7,0,3.2-1.2,3.7-2.9C836.9,239.1,838.1,237.9,839.7,237.9 M839.7,233.9
				c-3,0-6,1.8-7.4,6.4c0,0-0.5-0.1-1.4-0.1c-2.6,0-7.9,1.1-9.3,9.9c0,0-0.3,0-0.7,0c-2.5,0-10.5,1.4-8.1,19.6c0,0-1-0.3-2.4-0.3
				c-3,0-8,1.4-9.4,10.1c-2,12.7,19.5,101.6,19.5,101.6s7.3,29.9,12.6,47.5l12.8,37.5l75.2-68.4L907.3,356
				c-11.3-26.6-22.1-52.2-25.1-59c-6.3-14.3-11.7-23.7-19.3-23.7c-0.7,0-1.4,0.1-2.2,0.2c0,0-9.8-27.3-12.7-34.2
				C846.6,236.2,843.1,233.9,839.7,233.9L839.7,233.9z"/>
		</g>
		<path class="st1" d="M909.6,553.1c-17.7,0-45.3-7.5-76.1-43.1c-21.3-24.6-35.7-53.6-40.5-71.3c0,0,16.1,8.2,40.2-10.5
			c10.3-8.9,16.6-17,23.9-26.4c5.1-6.6,10.9-14,18.9-22.8c19.1-21,31-23,31.1-23.1h0.2l0.1,0.1c13.8,32.6,28.3,66.8,29.5,69.7
			l132.3-67.5l9.9,11.3l-68.9,146.4c-0.3,0.4-30.2,34.3-97.8,37.2C911.5,553.1,910.6,553.1,909.6,553.1z"/>
		<g>
			<path d="M841,363.4c-1,0-1.9-0.8-2-1.9c-1.7-25.8,14.3-41.3,18.4-44.8c-0.2-1.1-0.4-2.2-0.6-3.4c-2.6-15-6.3-35.5,3-39.6
				c1-0.4,2.2,0,2.6,1c0.4,1,0,2.2-1,2.6c-6.3,2.8-2.5,24.7-0.6,35.2c0.3,1.7,0.6,3.3,0.8,4.6c0.1,0.7-0.2,1.5-0.8,1.9
				c-0.2,0.1-19.6,15.3-17.8,42.2c0.1,1.1-0.8,2.1-1.9,2.1C841.1,363.4,841,363.4,841,363.4z"/>
		</g>
		<g>
			<path d="M846,299c-0.8,0-1.6-0.5-1.9-1.4c-1.5-4.8-14.8-46.8-11.7-56.9c0.3-1.1,1.4-1.6,2.5-1.3c1.1,0.3,1.7,1.4,1.3,2.5
				c-2.1,6.7,5.9,36.3,11.7,54.5c0.3,1.1-0.2,2.2-1.3,2.5C846.4,299,846.2,299,846,299z"/>
		</g>
		<g>
			<path d="M835.2,306.8c-0.9,0-1.6-0.5-1.9-1.4c-10.7-34-11.7-53.4-11.8-54.2c-0.1-1.1,0.8-2,1.9-2.1c1.1,0,2,0.8,2.1,1.9
				c0,0.2,1.1,19.7,11.6,53.2c0.3,1.1-0.3,2.2-1.3,2.5C835.6,306.8,835.4,306.8,835.2,306.8z"/>
		</g>
		<g>
			<path d="M824.5,316.5c-0.9,0-1.7-0.6-1.9-1.5c-5.9-21.2-9.8-43.9-9.8-44.1c-0.2-1.1,0.5-2.1,1.6-2.3c1.1-0.2,2.1,0.5,2.3,1.6
				c0,0.2,4,22.7,9.8,43.7c0.3,1.1-0.3,2.2-1.4,2.5C824.9,316.5,824.7,316.5,824.5,316.5z"/>
		</g>
		<g>
			<path d="M818.6,321.4c-0.6,0-1.2-0.3-1.6-0.8c-0.7-0.9-0.5-2.1,0.4-2.8l30.3-23.4c0.9-0.7,2.1-0.5,2.8,0.4
				c0.7,0.9,0.5,2.1-0.4,2.8L819.8,321C819.5,321.3,819,321.4,818.6,321.4z"/>
		</g>
		<g>
			<path d="M945.6,449.4c-0.8,0-1.5-0.5-1.9-1.2l-8.8-21.5c-0.4-1,0.1-2.2,1.1-2.6c1-0.4,2.2,0.1,2.6,1.1l8.8,21.5
				c0.4,1-0.1,2.2-1.1,2.6C946.1,449.4,945.9,449.4,945.6,449.4z"/>
		</g>
		<g>
			<path d="M825.5,490.9c-3.1,0-6-0.3-8.6-0.9c-1.1-0.2-1.8-1.3-1.5-2.4c0.2-1.1,1.3-1.8,2.4-1.5c13.6,2.9,34.7-0.6,57.4-34
				c17.2-25.1,38.5-44.9,53-49.2c1.1-0.3,2.2,0.3,2.5,1.4c0.3,1.1-0.3,2.2-1.4,2.5c-13.7,4-34.1,23.2-50.8,47.6
				C858.7,483.3,839.8,490.9,825.5,490.9z"/>
		</g>
		<polygon class="st1" points="946.3,625.3 1078.3,357.3 1136.3,354 1221.3,625.3 		"/>
		<g>
			<path d="M1064.8,562.7c-0.1,0-0.2,0-0.4,0c-1.1-0.2-1.8-1.3-1.6-2.3l30.2-160.2c0.2-1.1,1.3-1.8,2.3-1.6c1.1,0.2,1.8,1.3,1.6,2.3
				l-30.2,160.2C1066.6,562,1065.7,562.7,1064.8,562.7z"/>
		</g>
		<g>
			<path d="M994,530.9c-0.3,0-0.6-0.1-0.9-0.2c-1-0.5-1.4-1.7-0.9-2.7l75.6-152.8c0.5-1,1.7-1.4,2.7-0.9c1,0.5,1.4,1.7,0.9,2.7
				l-75.6,152.8C995.4,530.5,994.7,530.9,994,530.9z"/>
		</g>
		<g>
			<path d="M904.6,420.1c-0.8,0-1.5-0.4-1.8-1.2l-20.5-47.1c-0.4-1,0-2.2,1-2.6c1-0.4,2.2,0,2.6,1l20.5,47.1c0.4,1,0,2.2-1,2.6
				C905.1,420,904.9,420.1,904.6,420.1z"/>
		</g>
		<g>
			<path d="M874.6,458.1c-0.7,0-1.4-0.4-1.8-1.1l-23.1-46.9c-0.5-1-0.1-2.2,0.9-2.7c1-0.5,2.2-0.1,2.7,0.9l23.1,46.9
				c0.5,1,0.1,2.2-0.9,2.7C875.2,458,874.9,458.1,874.6,458.1z"/>
		</g>
		<g>
			<path d="M841.1,486.5c-0.7,0-1.3-0.3-1.7-1l-0.3-0.5c-7.7-12.6-17.4-28.3-25.2-47.7c-0.4-1,0.1-2.2,1.1-2.6
				c1-0.4,2.2,0.1,2.6,1.1c7.7,19.1,17.3,34.6,24.9,47.1l0.3,0.5c0.6,0.9,0.3,2.2-0.7,2.8C841.8,486.4,841.5,486.5,841.1,486.5z"/>
		</g>
	</g>
	<g>
		<path d="M1157.5,736.9c-6.8,0-15.1-7-20.9-12.9c-6.4-6.6-13.2-15.4-17.3-22.6l-0.1-0.2l0.2-0.1c0.2-0.1,19.2-7.4,38.2-16.2
			l0.2-0.1l0.1,0.2c0.1,0.2,12.4,17.3,11.4,33.8c-0.9,14.6-9.5,17.9-9.8,17.9C1158.9,736.8,1158.2,736.9,1157.5,736.9L1157.5,736.9z
			"/>
		<g>
			<path class="st4" d="M1090.1,556.2c-76.6-7.9-182.6,38.5-202.1,49.2c-8.1,4.4-13.7,10.3-12.1,20.1h89.5
				c-11.4,24.2-14.7,44.3,1.2,45.4c20.8,1.4,42.1-27.8,53-45.4h133C1152.7,625.5,1166.3,564,1090.1,556.2z"/>
			<path class="st4" d="M973.8,518.9h35.6c0,0,29.4-28.4,36.6-22.4c12.2,10.2-11.2,106.9-81.4,99.8c-64.8-6.6-21.4-108.8-4.1-106.8
				C968.7,490.4,973.8,518.9,973.8,518.9z"/>
			<g>
				<g>
					<path d="M971.7,598.6c-2.4,0-4.8-0.1-7.3-0.4c-12-1.2-21.1-5.6-27.3-13.2c-0.7-0.9-0.6-2.1,0.3-2.8c0.9-0.7,2.1-0.6,2.8,0.3
						c5.4,6.7,13.7,10.7,24.5,11.8c18.9,1.9,45.7-2.9,66.5-36.9c0.6-0.9,1.8-1.2,2.8-0.7c0.9,0.6,1.2,1.8,0.7,2.8
						C1019.1,584.9,997,598.6,971.7,598.6z"/>
				</g>
				<g>
					<path d="M980.4,555.5h-11.7c-1.1,0-2-0.9-2-2s0.9-2,2-2h11.7c1.1,0,2,0.9,2,2S981.5,555.5,980.4,555.5z"/>
				</g>
				<g>
					<path d="M971.7,569.7c-0.1,0-0.3,0-0.4,0c-1.1-0.2-1.8-1.3-1.6-2.3l2.8-14.2c0.2-1.1,1.3-1.8,2.3-1.6c1.1,0.2,1.8,1.3,1.6,2.3
						l-2.8,14.2C973.5,569,972.6,569.7,971.7,569.7z"/>
				</g>
				<g>
					<path d="M972.6,570.7c-5.3,0-10.4-2-13.6-5.8c-0.7-0.8-0.6-2.1,0.3-2.8c0.8-0.7,2.1-0.6,2.8,0.3c4.1,4.9,14,6.4,21.7,0.7
						c0.9-0.7,2.1-0.5,2.8,0.4c0.7,0.9,0.5,2.1-0.4,2.8C982.1,569.2,977.2,570.7,972.6,570.7z"/>
				</g>
				<g>
					<path d="M1003.3,550.4c-0.3,0-0.6-0.1-0.9-0.2c-1-0.5-1.4-1.7-0.9-2.7l1-2.1c0.5-1,1.7-1.4,2.7-0.9c1,0.5,1.4,1.7,0.9,2.7
						l-1,2.1C1004.8,550,1004,550.4,1003.3,550.4z"/>
				</g>
				<g>
					<path d="M1028.7,527c-0.3,0-0.7-0.1-1-0.3c-1-0.5-1.3-1.8-0.8-2.7l5.1-9.2c0.5-1,1.8-1.3,2.7-0.8c1,0.5,1.3,1.8,0.8,2.7
						l-5.1,9.2C1030.1,526.6,1029.4,527,1028.7,527z"/>
				</g>
				<g>
					<path d="M956.5,524.9c-1.1,0-2-0.9-2-2v-10.1c0-1.1,0.9-2,2-2s2,0.9,2,2v10.1C958.5,524,957.6,524.9,956.5,524.9z"/>
				</g>
				<g>
					<path d="M953.4,550.4c-0.3,0-0.6-0.1-0.9-0.2c-1-0.5-1.4-1.7-0.9-2.7l1-2.1c0.5-1,1.7-1.4,2.7-0.9c1,0.5,1.4,1.7,0.9,2.7
						l-1,2.1C954.9,550,954.1,550.4,953.4,550.4z"/>
				</g>
				<g>
					<path d="M1019.7,627.5c-0.3,0-0.6-0.1-1-0.2c-1-0.5-1.3-1.7-0.8-2.7l5-9.2c0.5-1,1.7-1.3,2.7-0.8c1,0.5,1.3,1.7,0.8,2.7l-5,9.2
						C1021.1,627.1,1020.4,627.5,1019.7,627.5z"/>
				</g>
				<g>
					<path d="M965.4,627.5c-0.3,0-0.6-0.1-0.9-0.2c-1-0.5-1.3-1.7-0.8-2.7l8.5-16c0.5-1,1.7-1.3,2.7-0.8c1,0.5,1.3,1.7,0.8,2.7
						l-8.5,16C966.8,627.1,966.1,627.5,965.4,627.5z"/>
				</g>
				<g>
					<path d="M961.2,670.1c-1.1,0-2-0.9-2-2c0-3.3,0.7-6.5,2.2-9.6c0.5-1,1.7-1.4,2.7-1c1,0.5,1.4,1.7,1,2.7c-1.2,2.6-1.8,5.3-1.8,8
						C963.2,669.2,962.3,670.1,961.2,670.1z"/>
				</g>
				<g>
					<path d="M971,672.1c-1.1,0-2-0.9-2-2c0-3.3,0.7-6.5,2.2-9.6c0.5-1,1.7-1.4,2.7-1c1,0.5,1.4,1.7,1,2.7c-1.2,2.6-1.8,5.3-1.8,8
						C973,671.2,972.1,672.1,971,672.1z"/>
				</g>
				<g>
					<path d="M886.3,627.5c-1,0-1.9-0.8-2-1.9c0-0.2-0.3-5,1.9-8.4c0.6-0.9,1.8-1.2,2.8-0.6c0.9,0.6,1.2,1.8,0.6,2.8
						c-1.2,1.9-1.3,5-1.3,6c0.1,1.1-0.8,2.1-1.9,2.1C886.4,627.5,886.3,627.5,886.3,627.5z"/>
				</g>
				<g>
					<path d="M896.1,627.5c-1,0-1.9-0.8-2-1.9c0-0.2-0.3-5,1.9-8.4c0.6-0.9,1.8-1.2,2.8-0.6c0.9,0.6,1.2,1.8,0.6,2.8
						c-1.2,1.9-1.3,5-1.3,6c0.1,1.1-0.8,2.1-1.9,2.1C896.2,627.5,896.1,627.5,896.1,627.5z"/>
				</g>
			</g>
		</g>
		<g>
			<path class="st0" d="M1054,715.2c-14.5,0-16.6-5.7-16.6-5.7c-0.2-0.9-1-1.4-1.9-1.4c-0.1,0-7.1-0.1-10.6-3.9
				c-1.6-1.7-2.2-3.9-2-6.6c0.1-0.8-0.4-1.6-1.1-1.9c0,0-4.2-2.2-5-5.9c-0.5-2.3,0.4-4.9,2.7-7.7c0.3-0.4,0.5-1,0.4-1.5
				s-0.3-1-0.8-1.4c0,0-3.3-2.6-3.3-6.4c0.1-3.2,2.5-6.5,7.1-9.9c6.6-4.7,29.8-16.3,30-16.4c0.7-0.3,1.1-1.1,1.1-1.9
				c0-0.8-0.5-1.5-1.2-1.8c0,0-4.2-1.8-5.2-5.3c-0.6-2.1,0.1-4.6,2.1-7.3c4.1-5.7,18-13.2,37.2-23.6c4.7-2.6,9.7-5.3,15-8.2
				l53.6-24.3l36.6,86.4l-35.4,22.8c-19,8.8-37.8,16.1-38,16.1c-0.3,0.1-26.4,10.4-51.4,14.5C1062.4,714.8,1057.9,715.2,1054,715.2
				L1054,715.2z"/>
			<path d="M1154.5,576.7l35.2,83l-33.9,21.8c-18.9,8.7-37.6,15.9-37.8,16c-0.3,0.1-26.2,10.3-50.9,14.4c-4.9,0.8-9.2,1.2-13.1,1.2
				c-11.5,0-14.3-3.6-14.7-4.3c-0.3-1.9-1.9-2.8-3.8-2.8c-1.7,0-6.8-0.6-9.2-3.3c-1.2-1.3-1.6-2.9-1.5-5.1c0.1-1.6-0.7-3.1-2.2-3.9
				c-0.9-0.5-3.5-2.2-3.9-4.5c-0.3-1.7,0.4-3.7,2.3-6c0.7-0.8,1-1.9,0.9-3s-0.7-2-1.5-2.7c0,0-2.6-2.1-2.5-4.8
				c0.1-2.5,2.2-5.4,6.3-8.3c6.5-4.6,29.5-16.2,29.7-16.3c1.4-0.7,2.3-2.1,2.2-3.7c-0.1-1.6-1-2.9-2.4-3.5c-0.9-0.4-3.5-1.9-4-4
				c-0.4-1.5,0.2-3.4,1.8-5.6c3.9-5.3,18.3-13.1,36.5-23c4.8-2.6,9.7-5.3,15-8.2L1154.5,576.7 M1156.6,571.4l-55.5,25.2
				c-27.3,15.1-47.4,24.9-52.9,32.4c-7.8,10.7,3.9,15.6,3.9,15.6s-23.4,11.7-30.3,16.6c-15.3,10.9-3.9,19.5-3.9,19.5
				c-8.8,10.7,2.9,16.6,2.9,16.6c-1,12.7,14.6,12.7,14.6,12.7s1.9,7.1,18.5,7.1c3.8,0,8.3-0.4,13.7-1.3
				c25.5-4.3,51.8-14.6,51.8-14.6s18.9-7.3,38.2-16.2l37-23.8L1156.6,571.4L1156.6,571.4z"/>
		</g>
		<path class="st1" d="M1286.7,539.1c-3.6-22.3-13.6-46.3-29.9-71.2c-13-19.9-30-40.5-50.4-61.2c-34.9-35.2-68.2-58.8-68.6-59.1
			l-0.2-0.1l-21.3,27.5l68.4,168.9c-30.4,22.2-59.4,39-83.7,52.4l-0.1,0.1v0.1c0,0.2,3.9,16,13.6,29.6c6.1,8.5,11.7,15.4,17.1,22
			c8.9,11,17.3,21.3,25.9,36.7c15.1,29.1,9.9,48.8,2.1,51.7c5.9-1.5,41.4-26.2,73.8-63.2c18.4-21,32.4-42.1,41.7-62.6
			C1286.3,585.7,1290.2,561.6,1286.7,539.1z"/>
		<g>
			<path d="M1184.9,546.1c-0.8,0-1.5-0.5-1.9-1.3l-40.3-99.7c-0.4-1,0.1-2.2,1.1-2.6c1-0.4,2.2,0.1,2.6,1.1l40.3,99.7
				c0.4,1-0.1,2.2-1.1,2.6C1185.4,546.1,1185.2,546.1,1184.9,546.1z"/>
		</g>
		<g>
			<path d="M1137.9,577.3c-0.7,0-1.3-0.3-1.7-1c-0.6-0.9-0.3-2.2,0.7-2.7c17.4-10.6,32.7-20.8,46.8-31.1l12.7-9.8
				c0.9-0.7,2.1-0.5,2.8,0.4c0.7,0.9,0.5,2.1-0.4,2.8l-12.7,9.8c-14.2,10.4-29.6,20.6-47.1,31.3
				C1138.6,577.2,1138.3,577.3,1137.9,577.3z"/>
		</g>
		<g>
			<path d="M1216.2,693C1216.2,693,1216.1,693,1216.2,693c-1.2-0.1-2.1-1-2-2.1c0.3-7.1-1.2-15.2-4.7-24
				c-4.5-11.5-15.3-25.4-26.8-40.1c-14.9-19.2-30.4-39-34.8-57.1c-0.3-1.1,0.4-2.2,1.5-2.4c1.1-0.3,2.2,0.4,2.4,1.5
				c4.2,17.2,19.4,36.7,34.1,55.6c11.6,14.9,22.7,29.1,27.3,41.1c3.6,9.4,5.3,18,4.9,25.6C1218.1,692.2,1217.3,693,1216.2,693z"/>
		</g>
		<g>
			<circle cx="1042.6" cy="427.7" r="10.8"/>
			<circle cx="1054.3" cy="445.3" r="10.8"/>
			<circle cx="1070.5" cy="458.6" r="10.8"/>
			<circle cx="1091" cy="462.8" r="10.8"/>
			<circle cx="1111.6" cy="459.7" r="10.8"/>
			<circle cx="1130.3" cy="452.3" r="10.8"/>
			<circle cx="1148.6" cy="442.5" r="10.8"/>
			<circle cx="1164.8" cy="429.1" r="10.8"/>
			<circle cx="1178.6" cy="413.8" r="10.8"/>
			<circle cx="1192.9" cy="399.4" r="10.8"/>
		</g>
		<g>
			<path d="M1114.6,628.1c-0.7,0-1.4-0.4-1.7-1c-0.6-1-0.2-2.2,0.7-2.7l48.8-28.3c1-0.6,2.2-0.2,2.7,0.7c0.6,1,0.2,2.2-0.7,2.7
				l-48.8,28.3C1115.3,628,1114.9,628.1,1114.6,628.1z"/>
		</g>
		<g>
			<path d="M1143.7,666c-0.7,0-1.3-0.3-1.7-0.9c-0.6-0.9-0.3-2.2,0.6-2.8l47.2-29.6c0.9-0.6,2.2-0.3,2.8,0.6
				c0.6,0.9,0.3,2.2-0.6,2.8l-47.2,29.6C1144.4,665.9,1144.1,666,1143.7,666z"/>
		</g>
		<g>
			<path d="M1164.4,708.2c-0.7,0-1.3-0.3-1.7-0.9c-0.6-0.9-0.3-2.2,0.6-2.8c18.8-11.8,44.9-32.3,47.5-34.9c0.8-0.8,2-0.8,2.8,0
				s0.8,2,0,2.8c-3.3,3.3-29.7,23.8-48.2,35.5C1165.1,708.1,1164.8,708.2,1164.4,708.2z"/>
		</g>
		<g>
			<path d="M1054,647.6c-0.8,0-1.5-0.4-1.8-1.1c-0.5-1,0-2.2,1-2.7l33.2-15.6c1-0.5,2.2,0,2.7,1s0,2.2-1,2.7l-33.2,15.6
				C1054.6,647.5,1054.3,647.6,1054,647.6z"/>
		</g>
		<g>
			<path d="M1019.7,682.4c-0.9,0-1.7-0.6-1.9-1.5c-0.3-1.1,0.4-2.2,1.4-2.4c0.2-0.1,24.9-6.6,65.3-24.9c1-0.5,2.2,0,2.6,1
				c0.5,1,0,2.2-1,2.6c-40.7,18.5-65.7,25-65.9,25.1C1020,682.4,1019.9,682.4,1019.7,682.4z"/>
		</g>
		<g>
			<path d="M1023.7,698.4c-0.9,0-1.8-0.7-2-1.6c-0.2-1.1,0.5-2.1,1.6-2.4c32.6-6.7,70.5-24.1,70.9-24.3c1-0.5,2.2,0,2.7,1
				s0,2.2-1,2.7c-0.4,0.2-38.7,17.8-71.7,24.5C1024,698.4,1023.8,698.4,1023.7,698.4z"/>
		</g>
		<g>
			<path d="M1038.4,710.1c-1,0-1.8-0.7-2-1.7c-0.2-1.1,0.6-2.1,1.7-2.3c0.2,0,24.7-4.1,65.4-19.9c1-0.4,2.2,0.1,2.6,1.1
				c0.4,1-0.1,2.2-1.1,2.6c-41.1,16-66,20.1-66.2,20.1C1038.6,710.1,1038.5,710.1,1038.4,710.1z"/>
		</g>
	</g>
	<g>
		<g>
			<path d="M1171.2,299.3c-5,0-9.5-0.4-13.2-0.9c-12.3-1.8-23.3-6-30-11.5c-1.2-1-2.4-1.9-3.7-2.9c-11.4-8.8-25.7-19.8-28.3-53.2
				c-0.1-1.1,0.7-2.1,1.8-2.2c1.1-0.1,2.1,0.7,2.2,1.8c2.5,31.6,15.4,41.6,26.8,50.4c1.3,1,2.5,2,3.8,3
				c12.3,10.2,41.2,15.9,66.5,7.5c1.1-0.3,2.2,0.2,2.5,1.3c0.3,1-0.2,2.2-1.3,2.5C1188.6,298.2,1179.2,299.3,1171.2,299.3z"/>
		</g>
		<g>
			<circle class="st0" cx="1156.7" cy="361.1" r="24.1"/>
			<path d="M1156.7,339c12.2,0,22.1,9.9,22.1,22.1s-9.9,22.1-22.1,22.1s-22.1-9.9-22.1-22.1S1144.5,339,1156.7,339 M1156.7,335
				c-14.4,0-26.1,11.7-26.1,26.1s11.7,26.1,26.1,26.1s26.1-11.7,26.1-26.1C1182.8,346.7,1171.2,335,1156.7,335L1156.7,335z"/>
		</g>
		<g>
			<path class="st0" d="M1104,400c-0.5,0-1,0-1.5,0c-18.6-1-36-20.7-43.1-48.9c-9.1-36-2.5-68.5,15.5-75.7
				c5.7-2.3,11.7-3.4,17.9-3.4c24.5,0,45,17.6,45.2,17.8c11.2,10.1,16.3,20.3,16.4,33c0.2,14.1-5.8,31.4-18.9,54.3
				C1127.1,392.1,1116.2,400,1104,400z"/>
			<path d="M1092.9,274c23.4,0,43.2,16.7,43.9,17.3c18.5,16.8,24.4,36.8-2.9,84.8c-8.2,14.3-18.5,21.9-29.8,21.9c-0.4,0-0.9,0-1.3,0
				c-17.8-1-34.3-20-41.3-47.4c-4.4-17.5-5.2-34.7-2.2-48.5c2.8-12.9,8.7-21.7,16.5-24.8C1081.1,275.1,1086.9,274,1092.9,274
				L1092.9,274 M1092.9,270c-6,0-12.3,1-18.7,3.5c-18.7,7.4-26.2,40.3-16.7,78c7.6,30.1,26,49.4,44.9,50.4c0.5,0,1,0,1.6,0
				c11.9,0,23.9-7.3,33.3-23.9c26.9-47.3,23.5-70.4,2.1-89.8C1139.4,288.3,1118.5,270,1092.9,270L1092.9,270z"/>
		</g>
		<path d="M1139.4,288.3c19.7,17.8,24.2,38.7,3.9,78.7c-28.8-31.9-19-75.9-19-75.9s-36.1,30.3-69.6,13.1
			c2.7-15.4,9.5-26.7,19.5-30.7C1107.4,260.3,1139.4,288.3,1139.4,288.3z"/>
		<g>
			<path d="M1081.1,349.8c-0.4,0-0.7-0.1-1.1-0.3c-2-1.3-3.6-3.1-4.5-5.3c-0.6-1.5-0.9-3.6-0.8-6.5c0-1.1,1-2,2.1-1.9
				c1.1,0,2,1,1.9,2.1c-0.1,2.2,0.1,3.8,0.4,4.8c0.6,1.4,1.7,2.6,3,3.5c0.9,0.6,1.2,1.8,0.6,2.8
				C1082.4,349.5,1081.8,349.8,1081.1,349.8z"/>
		</g>
		<g>
			<path d="M1097.9,332.5c0,0-0.1,0-0.1,0c-1.1-0.1-1.9-1-1.8-2.1l0.2-2.7c0.1-1.1,1-1.9,2.1-1.8c1.1,0.1,1.9,1,1.8,2.1l-0.2,2.7
				C1099.8,331.7,1098.9,332.5,1097.9,332.5z"/>
		</g>
		<g>
			<path d="M1064.5,327.4c0,0-0.1,0-0.1,0c-1.1-0.1-1.9-1-1.8-2.1l0.2-2.7c0.1-1.1,1-1.9,2.1-1.8c1.1,0.1,1.9,1,1.8,2.1l-0.2,2.7
				C1066.4,326.6,1065.5,327.4,1064.5,327.4z"/>
		</g>
		<g>
			<path d="M1091.1,371.4c-3.5,0-7.6-2.1-9.7-8.4c-0.2-0.5-0.1-1.1,0.1-1.5c0.2-0.5,0.7-0.8,1.2-1l15.6-4.9c0.6-0.2,1.2-0.1,1.7,0.3
				s0.8,0.9,0.9,1.5c0.7,8.3-3.8,13-8.2,13.9C1092.2,371.3,1091.6,371.4,1091.1,371.4z M1086,363.7c1.4,2.7,3.6,4.1,5.9,3.7
				c2.3-0.5,4.6-2.9,5-7.1L1086,363.7z"/>
		</g>
		<g>
			<path d="M1160.8,366.3c-0.3,0-0.5-0.1-0.8-0.2l-14.1-6c-1-0.4-1.5-1.6-1.1-2.6c0.4-1,1.6-1.5,2.6-1.1l14.1,6
				c1,0.4,1.5,1.6,1.1,2.6C1162.3,365.8,1161.6,366.3,1160.8,366.3z"/>
		</g>
		<circle cx="1151.2" cy="252.3" r="40.3"/>
		
			<ellipse transform="matrix(6.409308e-02 -0.9979 0.9979 6.409308e-02 668.6617 1351.257)" class="st5" cx="1054.7" cy="319.1" rx="27.2" ry="21.6"/>
		
			<ellipse transform="matrix(6.409246e-02 -0.9979 0.9979 6.409246e-02 710.9929 1404.9166)" class="st5" cx="1104.5" cy="323.4" rx="27.2" ry="21.6"/>
	</g>
</g>
</svg>
