<?xml version="1.0" encoding="utf-8"?>
<!-- Generator: Adobe Illustrator 25.1.0, SVG Export Plug-In . SVG Version: 6.00 Build 0)  -->
<svg version="1.1" id="Layer_2_1_" xmlns="http://www.w3.org/2000/svg" xmlns:xlink="http://www.w3.org/1999/xlink" x="0px" y="0px"
	 viewBox="0 0 1600 1200" style="enable-background:new 0 0 1600 1200;" xml:space="preserve">
<style type="text/css">
	.st0{fill:#FFFFFF;}
	.st1{fill:#98D8F4;}
	.st2{fill:#6C79D9;}
	.st3{fill:none;stroke:#000000;stroke-width:4.0001;stroke-linecap:round;stroke-linejoin:round;stroke-miterlimit:4.0001;}
	.st4{fill:#F9494B;}
	.st5{fill:#F696BB;}
</style>
<g id="woman_x27_s_arm">
	<path d="M823,751.8c-1.8,0-3.6-0.2-5.3-0.6h-0.1v-0.1c-0.1-0.2-5.5-7.9,1-20.9c4.1-7.8,11.1-13.1,17.2-19.5l0.1-0.1l0.1,0.1
		c6.5,5.9,23.8,16.9,24,17l0.2,0.1l-0.1,0.2C860,728.2,842.6,751.8,823,751.8L823,751.8z"/>
	<g>
		<path class="st0" d="M922.6,754.9c-13.7,0-37.7-13.7-61.7-28.6c-0.2-0.1-17.5-11.1-23.8-16.8l-0.1-0.1l-40.3-30.2l40.6-57.3
			l52.8,32.3c9.1,6.7,33.2,24.5,36.2,27.9c2.1,2.3,2.9,4.4,2.5,6.1c-0.7,2.6-4.4,4-5.1,4.3l-3.9,1.4l3.6,2.2
			c1.6,1,7.8,4.8,20.5,12.7c4.5,2.8,6.8,5.7,6.9,8.4c0.1,3.2-2.8,5.6-3.4,6l-1.5,1.1l1,1.5c1.5,2.5,2,4.8,1.5,6.8
			c-1,3.5-4.6,5.5-5,5.7l-0.9,0.5l-0.1,1.1c-0.9,7.5-5.4,8.7-8,8.7c-0.4,0-0.7,0-0.9,0l-1.6-0.2l-0.5,1.5
			C930,753.3,927.2,754.9,922.6,754.9z"/>
		<path d="M837.9,624.6l51.1,31.3c12.5,9.2,33.2,24.7,35.9,27.6c1.6,1.7,2.3,3.3,2,4.2c-0.3,1.2-2.2,2.4-3.8,2.9l-7.9,2.8l7.1,4.3
			c1.6,1,7.8,4.8,20.5,12.7c3.8,2.4,5.9,4.8,5.9,6.8c0.1,2.3-2.5,4.3-2.6,4.4l-2.9,2.2l1.9,3.1c1.2,2,1.6,3.7,1.2,5.2
			c-0.8,2.7-3.9,4.4-4,4.5l-1.9,1l-0.2,2.1c-0.5,4.6-2.5,6.9-6.1,6.9c-0.3,0-0.5,0-0.6,0l-3.2-0.4l-1.1,3c-0.6,1.7-1.9,3.7-6.7,3.7
			c-13.2,0-38.1-14.3-60.6-28.3c-0.2-0.1-17.3-11-23.5-16.6l-0.1-0.1l-0.2-0.1l-38.7-29L837.9,624.6 M836.8,619.2L794,679.7
			l41.8,31.3c6.5,5.9,23.9,16.9,24.1,17c24.2,15,48.5,28.9,62.7,28.9c5.4,0,9-2.1,10.5-6.4c0.2,0,0.6,0.1,1.1,0.1c2.7,0,9-1,10-10.4
			c0.7-0.4,4.8-2.7,6-6.9c0.7-2.6,0.2-5.5-1.7-8.4c0.8-0.6,4.3-3.5,4.2-7.6c-0.1-3.5-2.7-6.9-7.8-10.1c-12.8-8-19-11.8-20.5-12.8
			c1.3-0.5,5.4-2.2,6.3-5.6c0.7-2.4-0.3-5-2.9-7.9c-3.8-4.3-35.3-27.3-36.6-28.3L836.8,619.2L836.8,619.2z"/>
	</g>
	<path class="st1" d="M817.7,751.2L817.7,751.2L817.7,751.2c-50.5-48.4-101-115.3-142.2-188.5c-18.1-32.2-13.5-61.6-6.5-80.5
		c7.7-20.5,19.8-33.6,19.9-33.7l0.2-0.2l0.1,0.2c0.7,0.9,68.3,87.6,126.4,140.3c26.4,23.9,51.1,44.8,75.5,63.8l0.1,0.1v0.1
		c0,0.2-4.2,17.3-29.6,36.6c-15.4,11.7-24.2,20.3-25.4,21.5C836.2,710.8,811.2,735.5,817.7,751.2z"/>
	<g>
		<path d="M919.8,696.2c-0.4,0-0.7-0.1-1-0.3l-18.9-11.6c-0.9-0.6-1.2-1.8-0.7-2.8c0.6-0.9,1.8-1.2,2.8-0.7l18.9,11.6
			c0.9,0.6,1.2,1.8,0.7,2.8C921.1,695.9,920.5,696.2,919.8,696.2z"/>
	</g>
	<g>
		<path d="M946.1,727.2c-0.3,0-0.6-0.1-0.9-0.2c-0.2-0.1-24.5-13.1-42.5-25.3c-0.9-0.6-1.2-1.9-0.5-2.8c0.6-0.9,1.9-1.1,2.8-0.5
			c17.8,12.1,41.9,25,42.1,25.1c1,0.5,1.3,1.7,0.8,2.7C947.5,726.8,946.8,727.2,946.1,727.2z"/>
	</g>
	<g>
		<path d="M942.2,741.4c-0.3,0-0.7-0.1-1-0.3c-0.3-0.2-29.3-17.4-45.7-28.1c-0.9-0.6-1.2-1.8-0.6-2.8c0.6-0.9,1.8-1.2,2.8-0.6
			c16.3,10.7,45.2,27.9,45.5,28.1c0.9,0.6,1.3,1.8,0.7,2.7C943.5,741.1,942.9,741.4,942.2,741.4z"/>
	</g>
	<g>
		<path d="M931.6,749.9c-0.3,0-0.6-0.1-0.9-0.2c-0.3-0.1-29.4-14.5-44.7-24.9c-0.9-0.6-1.1-1.9-0.5-2.8c0.6-0.9,1.9-1.1,2.8-0.5
			c15.1,10.3,44,24.5,44.3,24.7c1,0.5,1.4,1.7,0.9,2.7C933,749.5,932.3,749.9,931.6,749.9z"/>
	</g>
	<g>
		<path d="M883.5,730.2c-0.4,0-0.8-0.1-1.2-0.4c-0.9-0.6-1.1-1.9-0.5-2.8l22.9-32.1c0.6-0.9,1.9-1.1,2.8-0.5
			c0.9,0.6,1.1,1.9,0.5,2.8l-22.9,32.1C884.7,729.9,884.1,730.2,883.5,730.2z"/>
	</g>
</g>
<g id="grandad">
	<path class="st1" d="M1246.2,1035.2v-0.2c-1.6-16.1,7.7-27.5,20.6-43.2c1.7-2.1,3.5-4.3,5.4-6.7c17.6-22.1,3.9-54,3.8-54.3
		c-0.1-0.2-8.8-21.4-22.9-50.7l-17.5-33l151.7,56.6l15.8,26.3c10.2,31.4,15.6,63.8,17.7,104.9v0.2h-174.6V1035.2z"/>
	<g>
		<path d="M1304,977c-0.2,0-0.4,0-0.5-0.1l-23.9-6.7c-1.1-0.3-1.7-1.4-1.4-2.5s1.4-1.7,2.5-1.4l23.9,6.7c1.1,0.3,1.7,1.4,1.4,2.5
			C1305.7,976.4,1304.9,977,1304,977z"/>
	</g>
	<g>
		<path d="M1292.5,999.9c-0.4,0-0.8-0.1-1.2-0.4l-19.3-14c-0.9-0.6-1.1-1.9-0.4-2.8c0.6-0.9,1.9-1.1,2.8-0.4l19.3,14
			c0.9,0.6,1.1,1.9,0.4,2.8C1293.7,999.6,1293.1,999.9,1292.5,999.9z"/>
	</g>
	<path class="st2" d="M1358,1035.2l0.1-0.3c7.3-27.6,28.9-49.8,56.3-58l0.2-0.1v0.2c3.2,19.1,5.3,38.5,6.2,57.8v0.2H1358V1035.2z"/>
	<path d="M1276.1,931c-0.6-0.1-55.8-6.2-71.9-43.2c0-0.2-1.8-12.7,14.5-15.6c1.9-0.3,3.9-0.5,5.9-0.5c14.3,0,28.5,8.1,28.6,8.2h0.1
		v0.1c14.2,29.3,22.9,50.5,23,50.7l0.1,0.3H1276.1z"/>
	<path class="st2" d="M1381,933.1c14.5,0,21.8-2.7,21.9-2.7l0.2-0.1l-0.1-0.2c-12.2-37.6-30.4-72.3-56.9-121
		c-40.6-74.7-61-112.2-80.7-203.6l-2.5-11.6l-108.4-7.7v0.2c0.1,0.9,8.3,87.7,20.1,166.4c14.2,94.6,29.5,134.5,29.7,134.9
		c0.5-20.4,28.2-18.7,49.4-7.3c3.2,1.7,20.1,10.8,40.6,23.6c21.8,13.6,46.2,24.1,62.2,26.8C1365.1,932.4,1373.4,933.1,1381,933.1
		L1381,933.1z"/>
	<path class="st1" d="M988.7,1035.2v-0.2c0.9-18.5,7.4-25.4,17.2-35.8c5.5-5.8,11.7-12.4,18.6-22.7c15.8-23.8,13.4-60.7,13.4-61.1
		c0-0.2-1-18.4-3.8-42.1l-3-13.8l114.3,64.3l2.2,15.6c-1.3,31.9-4.6,64.1-9.9,95.5v0.2L988.7,1035.2L988.7,1035.2z"/>
	<path class="st2" d="M1147.3,939.7c-0.2,0-21-0.6-36.7-6.9c-17.4-6.9-30.8-17-45-33.5c-15.6-18.2-29-24.6-31.2-25.6
		c2.8,23.5,3.8,41.6,3.8,41.7v0.3l-0.3-0.1c-0.5-0.1-45.1-10.8-44.1-35.6c15.1-126.7,62.8-273,63.3-274.5l6.6-13.5h118l-0.1,0.3
		c-0.3,1-32.4,101.5-38.2,162.5c-3.6,37.9-1,68.4,1.6,97.8c1.6,18.8,3.2,36.6,3.2,56.1c0,10-0.2,20.3-0.7,30.8v0.2H1147.3z"/>
	<path d="M1038,915.7c-0.5-0.1-45.1-10.8-44.1-35.6c0-0.1,1.2-9.6,16.4-10.7c1.2-0.1,2.4-0.1,3.6-0.1c7,0,13.9,1.3,20.4,4h0.1v0.1
		c2.8,23.6,3.8,41.9,3.8,42.1v0.3L1038,915.7z"/>
	<g>
		<path d="M1054.3,975.8c-0.2,0-0.4,0-0.5-0.1l-23.9-6.7c-1.1-0.3-1.7-1.4-1.4-2.5c0.3-1.1,1.4-1.7,2.5-1.4l23.9,6.7
			c1.1,0.3,1.7,1.4,1.4,2.5C1056,975.2,1055.2,975.8,1054.3,975.8z"/>
	</g>
	<g>
		<path d="M1040,998.7c-0.4,0-0.8-0.1-1.2-0.4l-19.3-13.9c-0.9-0.6-1.1-1.9-0.5-2.8s1.9-1.1,2.8-0.5l19.3,13.9
			c0.9,0.6,1.1,1.9,0.5,2.8C1041.2,998.4,1040.6,998.7,1040,998.7z"/>
	</g>
	<g>
		<path d="M1162.4,660.6c-1,0-1.9-0.8-2-1.8c-4.7-41-7.7-71.8-7.7-72.1c-0.1-1.1,0.7-2.1,1.8-2.2c1.1-0.1,2.1,0.7,2.2,1.8
			c0,0.3,3,31.1,7.7,72.1c0.1,1.1-0.7,2.1-1.8,2.2C1162.6,660.6,1162.5,660.6,1162.4,660.6z"/>
	</g>
	<g>
		<path class="st0" d="M924.9,684.8c-3.7,0-6.4-1.7-8.5-5.2l-0.8-1.3l-1.5,0.4c-0.6,0.2-1.3,0.3-2,0.3c-2.9,0-5.8-1.4-7.2-3.6
			c-1.4-2.1-1.5-4.7-0.2-7.7l0.9-2.2l-2.3-0.5c-2.9-0.7-5.2-2.6-6.3-5.4c-1.3-3.3-0.7-7.4,1.6-10.8c5.7-8.4,14.6-19.2,14.7-19.3
			l2.5-3l-3.8-0.3c-1.6-0.1-6.2-1.1-7.8-3.9c-1-1.8-0.8-4.2,0.7-7.2c2.1-4.4,21.4-27.4,38.4-47.9l9.8-5.1l62,63.8l-5,7.6
			C978,665.6,952.7,684,940.6,684l0,0c-2,0-3.5-0.5-4.7-1.5l-1.1-1l-1.2,0.8C933.5,682.2,929.3,684.8,924.9,684.8z"/>
		<path d="M952.6,564.5l59.9,61.5l-4,6.1c-31.2,31.2-56.6,49.8-67.9,49.8c-1.5,0-2.6-0.3-3.4-1l-2.3-1.9l-2.5,1.6
			c0,0-3.7,2.3-7.6,2.3c-2.9,0-5.1-1.3-6.7-4.2l-1.5-2.6l-2.9,0.8c-0.5,0.1-1,0.2-1.5,0.2c-2.2,0-4.5-1.1-5.6-2.7
			c-1-1.5-1-3.5,0-5.8l1.8-4.4l-4.6-1.1c-2.3-0.5-4-2-4.9-4.2c-1.1-2.7-0.5-6.1,1.4-9c5.6-8.3,14.5-19,14.6-19.2l4.8-5.9l-7.6-0.7
			c-1.6-0.1-5.2-1-6.2-2.9c-0.8-1.4-0.1-3.7,0.7-5.4c2-4.1,21.8-27.8,37.9-47.1L952.6,564.5 M953.4,559.5l-11.4,6
			c-19.7,23.5-36.8,44.1-39,48.6c-6.1,12.8,8.8,14,8.8,14s-9,10.9-14.8,19.5c-5.4,7.9-2.2,17.4,5.8,19.3c-3.7,8.8,3.1,14.1,9.3,14.1
			c0.9,0,1.7-0.1,2.5-0.3c2.8,4.8,6.6,6.2,10.2,6.2c5.1,0,9.7-2.9,9.7-2.9c1.6,1.3,3.6,2,6,2c15.3,0,45.7-25.9,71.1-51.2l6-9.1
			L953.4,559.5L953.4,559.5z"/>
	</g>
	<path class="st1" d="M941.7,565.6L941.7,565.6c20.4-24.4,43-52.8,58.5-72.4c17.7-22.5,90.4-112.1,122.2-139.5l0.1-0.1l0.1,0.1
		c25,26.1,30.4,53.3,30.5,53.6c-0.2,0.9-17,81.4-78.5,157.4c-16.5,20.4-45.4,52.5-62.9,70.1l-0.1,0.1L941.7,565.6z"/>
	<g>
		<path d="M912.9,632c-0.4,0-0.9-0.1-1.3-0.4c-0.9-0.7-1-2-0.3-2.8l10.4-12.8c0.7-0.9,2-1,2.8-0.3c0.9,0.7,1,2,0.3,2.8l-10.4,12.8
			C914.1,631.7,913.5,632,912.9,632z"/>
	</g>
	<g>
		<path d="M905.1,667.9c-0.5,0-0.9-0.2-1.3-0.5c-0.8-0.7-0.9-2-0.2-2.8c13.3-15.2,31.4-36.4,39.4-45.9c0.7-0.8,2-0.9,2.8-0.2
			c0.8,0.7,0.9,2,0.2,2.8c-8,9.5-26.1,30.7-39.4,45.9C906.2,667.7,905.7,667.9,905.1,667.9z"/>
	</g>
	<g>
		<path d="M915.9,681c-0.5,0-0.9-0.2-1.3-0.5c-0.8-0.7-0.9-2-0.2-2.8l41-46.5c0.7-0.8,2-0.9,2.8-0.2c0.8,0.7,0.9,2,0.2,2.8l-41,46.5
			C917,680.8,916.5,681,915.9,681z"/>
	</g>
	<g>
		<path d="M933.9,684c-0.5,0-1-0.2-1.4-0.5c-0.8-0.8-0.9-2-0.1-2.8l34.7-37.3c0.8-0.8,2-0.9,2.8-0.1c0.8,0.8,0.9,2,0.1,2.8
			l-34.7,37.3C935,683.8,934.4,684,933.9,684z"/>
	</g>
	<g>
		<path d="M976.5,652.1c-0.5,0-1-0.2-1.4-0.5l-38.7-36.4c-0.8-0.8-0.8-2-0.1-2.8c0.8-0.8,2-0.8,2.8-0.1l38.7,36.4
			c0.8,0.8,0.8,2,0.1,2.8C977.6,651.9,977,652.1,976.5,652.1z"/>
	</g>
	<path class="st1" d="M1057.1,605.8l0.1-0.3c19.2-68.8,68-247.8,64.3-250.3V355v-0.2l63.2,0.1l0.1,0.1
		c0.6,1.1,60.5,112.5,80.7,250.5v0.2L1057.1,605.8L1057.1,605.8z"/>
	<g>
		<path d="M1075.7,607.6c-0.2,0-0.3,0-0.5-0.1c-1.1-0.3-1.7-1.3-1.5-2.4l13.2-54.5c0.3-1.1,1.3-1.7,2.4-1.5c1.1,0.3,1.7,1.3,1.5,2.4
			l-13.2,54.5C1077.4,607,1076.6,607.6,1075.7,607.6z"/>
	</g>
	<g>
		<path d="M1106.8,607.6c-0.1,0-0.3,0-0.4,0c-1.1-0.2-1.8-1.3-1.6-2.4l11.3-54.5c0.2-1.1,1.3-1.8,2.4-1.6c1.1,0.2,1.8,1.3,1.6,2.4
			l-11.3,54.5C1108.6,607,1107.7,607.6,1106.8,607.6z"/>
	</g>
	<g>
		<path d="M1146.4,607.6c-0.1,0-0.2,0-0.3,0c-1.1-0.1-1.9-1.1-1.7-2.2l6.8-54.5c0.1-1.1,1.1-1.9,2.2-1.7c1.1,0.1,1.9,1.1,1.7,2.2
			l-6.8,54.5C1148.3,606.9,1147.4,607.6,1146.4,607.6z"/>
	</g>
	<g>
		<path class="st0" d="M1133.7,680c-8.9,0-11.4-4-11.7-4.4l-0.6-1.1l-1.2,0.1c-0.5,0-0.9,0-1.3,0c-8.5,0-9.9-6.6-10-8l-0.2-1.2
			l-1.1-0.4c-0.4-0.2-3.9-1.6-5.2-4.8c-0.8-2-0.7-4.3,0.5-7l0.6-1.4l-1.2-1c-0.9-0.7-5-4.6-1.3-12.1c3.4-7.7,19.7-21.1,21.5-22.6
			l2.4-2l-2.8-1.4c-0.8-0.4-4.8-2.6-5.3-6.1c-0.4-3.2,2.2-7.1,7.6-11.3c9.3-7.2,24.3-18,44.5-32.1l23.1,0.3l36,72.1l-8.2,12.1
			c-5.5,3-11.2,5.9-16.9,8.6c-26.5,12.5-47.6,20.1-62.7,22.8C1137.9,679.8,1135.7,680,1133.7,680z"/>
		<path d="M1169.5,565.5l21.2,0.2l34.9,70l-7.3,10.8c-5.4,2.9-10.9,5.7-16.4,8.3c-26.3,12.4-47.3,20-62.2,22.6
			c-2.2,0.4-4.3,0.6-6.1,0.6c-7.8,0-9.8-3.3-9.9-3.4l-1.2-2.2l-2.5,0.2c-0.4,0-0.8,0-1.2,0c-6.7,0-7.9-4.8-8.1-6.2l-0.3-2.3
			l-2.2-0.9c-0.1,0-3.1-1.2-4.1-3.7c-0.6-1.5-0.5-3.2,0.5-5.4l1.2-2.8l-2.4-1.9c-0.9-0.8-3.7-3.7-0.8-9.6v-0.1v-0.1
			c2.6-5.8,14.4-16.4,20.9-21.8l4.8-3.9l-5.5-2.8c-1.4-0.7-3.9-2.5-4.2-4.6c-0.3-2.5,2.1-5.8,6.8-9.5
			C1134.8,590,1149.6,579.4,1169.5,565.5 M1168.3,561.5c-20.5,14.3-35.7,25.2-45.1,32.5c-6,4.7-8.8,9.1-8.3,13.1
			c0.6,4.5,5.2,7.1,6.4,7.7c-2.2,1.8-18.5,15.2-22,23.2c-4.4,8.9,0.9,13.7,1.8,14.5c-1.4,3.2-1.6,6-0.5,8.5c1.6,3.9,5.6,5.6,6.3,5.9
			c0.2,1.1,1.7,9.7,12,9.7l0,0c0.5,0,0.9,0,1.4-0.1c0.5,0.8,3.6,5.4,13.4,5.4c2.1,0,4.4-0.2,6.8-0.6c15.2-2.7,36.5-10.4,63.2-23
			c5.9-2.8,11.7-5.7,17.5-8.9l9.2-13.5l-37.1-74.3L1168.3,561.5L1168.3,561.5z"/>
	</g>
	<path class="st1" d="M1168.1,561.6l0.2-0.1c28.3-19.6,57.6-39.5,60-41l-73.6-152l28.1-19.3l0.1,0.1c10.6,5.3,50.2,36.5,84.9,74.6
		c31,34,66.4,82.5,59.5,120.7c-6.4,35.3-41.1,69.7-106.1,105.1l-0.2,0.1L1168.1,561.6z"/>
	<g>
		<path d="M1167,566.8c-0.6,0-1.3-0.3-1.6-0.9c-0.6-0.9-0.4-2.2,0.5-2.8c0.6-0.4,63.5-44.4,77.6-55.7c0.9-0.7,2.1-0.6,2.8,0.3
			c0.7,0.9,0.6,2.1-0.3,2.8c-14.2,11.4-77.2,55.4-77.8,55.9C1167.8,566.7,1167.4,566.8,1167,566.8z"/>
	</g>
	<g>
		<path d="M1228.5,522.5c-0.7,0-1.5-0.4-1.8-1.1l-43.7-89.8c-0.5-1-0.1-2.2,0.9-2.7c1-0.5,2.2-0.1,2.7,0.9l43.7,89.8
			c0.5,1,0.1,2.2-0.9,2.7C1229.1,522.4,1228.8,522.5,1228.5,522.5z"/>
	</g>
	<g>
		<path d="M1366.7,870.5c-18.3,0-40.9-7.1-67.4-21.1c-2.2-1.2-4.6-2.4-7-3.7c-31.8-17.1-80-42.9-104.3-23.3
			c-0.9,0.7-2.1,0.6-2.8-0.3c-0.7-0.9-0.6-2.1,0.3-2.8c26.4-21.3,75.9,5.3,108.7,22.9c2.4,1.3,4.8,2.5,7,3.7
			c30.5,16.2,56.4,23,75.1,19.9c1.1-0.2,2.1,0.6,2.3,1.6c0.2,1.1-0.6,2.1-1.6,2.3C1373.8,870.2,1370.3,870.5,1366.7,870.5z"/>
	</g>
	<g>
		<path d="M1065.9,577c-0.2,0-0.3,0-0.5-0.1c-1.1-0.3-1.7-1.4-1.4-2.5l34.4-128.1c0.3-1.1,1.4-1.7,2.5-1.4c1.1,0.3,1.7,1.4,1.4,2.5
			l-34.4,128.1C1067.6,576.4,1066.8,577,1065.9,577z"/>
	</g>
	<g>
		<path d="M1147.1,894.5c-0.1,0-0.2,0-0.3,0c-21.8-3-34.7-14.9-54.3-33c-17.9-16.6-51.3-47.5-89.1-38.7c-1.1,0.2-2.2-0.4-2.4-1.5
			c-0.2-1.1,0.4-2.2,1.5-2.4c39.8-9.2,74.2,22.6,92.7,39.7c19,17.6,31.5,29.1,52.1,32c1.1,0.2,1.9,1.2,1.7,2.3
			C1148.9,893.8,1148.1,894.5,1147.1,894.5z"/>
	</g>
	<g>
		<path d="M1124.3,617.2c-0.6,0-1.2-0.3-1.6-0.7c-0.7-0.9-0.6-2.1,0.3-2.8l14.3-11.5c0.9-0.7,2.1-0.6,2.8,0.3
			c0.7,0.9,0.6,2.1-0.3,2.8l-14.3,11.5C1125.2,617.1,1124.7,617.2,1124.3,617.2z"/>
	</g>
	<g>
		<path d="M1121.3,676.1c-0.9,0-1.7-0.6-2-1.6c-0.2-1.1,0.4-2.1,1.5-2.4c25.3-5.6,62.2-24.5,62.6-24.7c1-0.5,2.2-0.1,2.7,0.9
			c0.5,1,0.1,2.2-0.9,2.7c-1.5,0.8-37.8,19.4-63.6,25.1C1121.6,676.1,1121.4,676.1,1121.3,676.1z"/>
	</g>
	<g>
		<path d="M1108.8,667.5c-0.8,0-1.6-0.5-1.9-1.3c-0.4-1,0.2-2.2,1.2-2.5c21.6-7.5,64.2-32.1,64.7-32.3c1-0.6,2.2-0.2,2.7,0.7
			c0.6,1,0.2,2.2-0.7,2.7c-1.8,1-43.4,25-65.3,32.7C1109.2,667.5,1109,667.5,1108.8,667.5z"/>
	</g>
	<g>
		<path d="M1103.1,654.1c-0.7,0-1.4-0.4-1.8-1c-0.5-1-0.2-2.2,0.8-2.7c0.3-0.2,29.9-16.5,58.2-35.3c0.9-0.6,2.2-0.4,2.8,0.6
			c0.6,0.9,0.4,2.2-0.6,2.8c-28.4,18.9-58.1,35.3-58.4,35.5C1103.8,654,1103.4,654.1,1103.1,654.1z"/>
	</g>
	<g>
		<g>
			<circle class="st0" cx="1179.3" cy="339.3" r="20"/>
			<path d="M1179.3,321.3c9.9,0,18,8.1,18,18s-8.1,18-18,18s-18-8.1-18-18S1169.4,321.3,1179.3,321.3 M1179.3,317.3
				c-12.1,0-22,9.8-22,22c0,12.1,9.8,22,22,22s22-9.8,22-22C1201.2,327.2,1191.4,317.3,1179.3,317.3L1179.3,317.3z"/>
		</g>
		<g>
			<path class="st0" d="M1137.1,374.2c-15.3,0-30.8-15.2-38.5-37.9c-10-29.4-6.7-57,7.7-64.1c5.6-2.8,11.8-4.2,18.3-4.2
				c18.9,0,35.2,11.8,35.3,12c10,7.7,14.9,15.8,15.9,26.3c1.1,11.8-2.8,26.6-12.1,46.6C1157.2,366.7,1147.8,374.2,1137.1,374.2z"/>
			<path d="M1124.5,266.1v4c17.9,0,33.4,11.1,34.1,11.5c16.4,12.6,22.6,28.8,3.1,70.5c-6.1,12.9-14.8,20.1-24.7,20.1
				c-14.5,0-29.2-14.7-36.6-36.5c-4.9-14.3-6.7-28.6-5.1-40.2c1.5-10.8,5.6-18.4,11.8-21.4c5.3-2.6,11.2-4,17.4-4L1124.5,266.1
				 M1124.5,266.1c-6.2,0-12.7,1.2-19.2,4.4c-15.1,7.5-19.2,35.6-8.7,66.5c8.3,24.4,24.7,39.2,40.4,39.2c10.7,0,21-6.9,28.3-22.4
				c19.4-41.5,14.9-60.6-4.3-75.4C1161,278.5,1144.4,266.1,1124.5,266.1L1124.5,266.1z"/>
		</g>
		<path d="M1150.1,312c1,21.1,19.2,32.9,19.2,32.9c13.1-31.5,10.5-48.7-2.8-61.8C1155.8,288.7,1149.3,300,1150.1,312z"/>
		<path d="M1105.4,270.5c-9,4.4-14,16.1-14.5,31.2c0,0,6.9,0.2,15.2-8.8c12.4-13.4,14.4-26.7,14.4-26.7
			C1115.3,266.7,1110.1,268.1,1105.4,270.5z"/>
		<g>
			<path d="M1116.2,334.3c-0.3,0-0.6-0.1-0.9-0.2c-1.9-1-3.4-2.4-4.3-4.2c-1.4-2.7-1.5-7.4-0.3-17.3c0.1-1.1,1.1-1.9,2.2-1.7
				c1.1,0.1,1.9,1.1,1.7,2.2c-0.7,6.1-1.3,12.6-0.1,14.9c0.6,1.1,1.4,1.9,2.7,2.6c1,0.5,1.3,1.7,0.8,2.7
				C1117.6,333.9,1116.9,334.3,1116.2,334.3z"/>
		</g>
		<g>
			<path d="M1127.6,320.4c-1.1,0-2-0.9-2-2v-2.3c0-1.1,0.9-2,2-2s2,0.9,2,2v2.3C1129.6,319.5,1128.7,320.4,1127.6,320.4z"/>
		</g>
		<g>
			<path d="M1102.3,314.8c-1.1,0-2-0.9-2-2v-2.3c0-1.1,0.9-2,2-2s2,0.9,2,2v2.3C1104.3,313.9,1103.4,314.8,1102.3,314.8z"/>
		</g>
		<g>
			<path d="M1123.7,345.9c-0.2,0-0.3,0-0.5,0c-0.6,0-1-0.1-1.5-0.2l-0.2,0c-1.1-0.2-1.8-1.3-1.6-2.4c0.2-1.1,1.3-1.8,2.4-1.6l0.2,0
				c0.4,0.1,0.6,0.1,0.8,0.1c3.1,0.1,5.7-2.1,5.8-5.2c0.1-1.1,1-2,2.1-1.9c1.1,0.1,2,1,1.9,2.1
				C1132.8,342,1128.8,345.9,1123.7,345.9z"/>
		</g>
		<g>
			<path d="M1182.7,344c-0.3,0-0.5-0.1-0.8-0.2l-11.9-5c-1-0.4-1.5-1.6-1.1-2.6c0.4-1,1.6-1.5,2.6-1.1l11.9,5c1,0.4,1.5,1.6,1.1,2.6
				C1184.2,343.5,1183.5,344,1182.7,344z"/>
		</g>
		
			<ellipse transform="matrix(0.1369 -0.9906 0.9906 0.1369 637.8918 1351.1722)" class="st3" cx="1094.3" cy="309.5" rx="15.8" ry="13.2"/>
		
			<ellipse transform="matrix(0.1369 -0.9906 0.9906 0.1369 668.3749 1390.5093)" class="st3" cx="1132.1" cy="311.7" rx="15.8" ry="13.2"/>
		<g>
			<path d="M1146.2,312.1c-0.8,0-1.6-0.5-1.9-1.3c-0.4-1,0.1-2.2,1.2-2.6l33.4-12.5c3.1-1.2,6.6-1.1,9.7,0.3c3.1,1.4,5.5,4,6.7,7.2
				c0.6,1.7,0.8,3.1,0.8,4.4v1.5c0,1.1-0.9,2-2,2s-2-0.9-2-2v-1.5c0-0.8-0.2-1.9-0.6-3.1c-0.8-2.1-2.4-3.9-4.6-4.9
				c-2.1-1-4.5-1-6.6-0.2l-33.4,12.5C1146.7,312.1,1146.4,312.1,1146.2,312.1z"/>
		</g>
	</g>
	<g>
		<path d="M1186.4,553.1h-113.8c-1.1,0-2-0.9-2-2s0.9-2,2-2h113.8c1.1,0,2,0.9,2,2S1187.5,553.1,1186.4,553.1z"/>
	</g>
	<path class="st2" d="M1085.1,1035.2v-0.2c5.7-29.4,29.6-51.2,59.3-54.3h0.2v0.2c-3,32.2-7,53.9-7,54.2v0.2L1085.1,1035.2
		L1085.1,1035.2z"/>
	<g>
		<path d="M1122,418.3c-0.1,0-0.1,0-0.2,0c-0.6-0.1-1.2-0.4-1.5-1l-23.6-39.2c-0.6-0.9-0.3-2.2,0.7-2.7c0.9-0.6,2.2-0.3,2.7,0.7
			l22.2,36.9l19.6-21.1c0.4-0.4,0.9-0.7,1.5-0.6c0.6,0,1.1,0.3,1.5,0.8l16.7,21.1l41.4-49.8c0.7-0.9,2-1,2.8-0.3
			c0.8,0.7,1,2,0.3,2.8l-43,51.7c-0.4,0.5-1,0.7-1.6,0.7c-0.6,0-1.2-0.3-1.5-0.8l-16.8-21.2l-19.8,21.3
			C1123.1,418.1,1122.6,418.3,1122,418.3z"/>
	</g>
</g>
<g id="grandmom">
	<path d="M1037.8,936.7c-5.9,0-10.1-2-12.3-5.8l0,0v-0.1c0-0.1,0.2-12.7,19.2-26.9l0.2-0.1l17.5,26.2l-0.2,0.1
		C1062.1,930.1,1048.7,936.7,1037.8,936.7L1037.8,936.7z"/>
	<path d="M961.1,931.8c0-0.1-1.5-11.8-4.4-29.7v-0.2h0.2c3.3-0.3,6.7-0.4,10.1-0.4s6.7,0.1,10.1,0.4c14.4,1.4,14.5,4.8,14.5,5
		c2.9,18.1-29.9,25.1-30.2,25.1h-0.2L961.1,931.8z"/>
	<g>
		<path class="st0" d="M1084.6,966.9l-4.9-9.4c-3.2-7.7-8.5-17.1-16.1-28.7l-17.2-25.8l-7.9-11l120.3-18l4.8,7.1
			c25.3,46.5,37.4,85.6,43,110.3l-0.8,9.9l-56.3,20.3L1084.6,966.9z"/>
		<path d="M1157.9,876.1l4,6c25.1,46.1,37,84.9,42.7,109.4l-0.7,8.3l-54,19.5l-63.7-53.5l-4.7-9c-3.3-7.8-8.6-17.3-16.3-29L1048,902
			v-0.1v-0.1l-6-8.3L1157.9,876.1 M1159.8,871.7L1035,890.5l9.7,13.6l17.2,25.8c7.5,11.5,12.8,20.8,16,28.5l5.1,9.8l66.1,55.5
			l58.6-21.1l0.9-11.4c-5.6-24.8-17.7-64.3-43.3-111.2L1159.8,871.7L1159.8,871.7z"/>
	</g>
	<path class="st4" d="M1055.6,1035.2v-0.2c-1-13.1,6-23.2,12.9-33c6.1-8.8,12.5-17.9,12.9-29.2c0.1-3.6-1.1-8.5-3.6-14.5l-0.1-0.3
		h0.3c33.5,4.4,61.6,26.8,73.3,58.4c15.3-15,35.6-24.1,57-25.5h0.2v0.2c6.2,27.4,6.2,43.7,6.2,43.8v0.2L1055.6,1035.2L1055.6,1035.2
		z"/>
	<g>
		<path class="st0" d="M845.8,963.4l-1.4-8.2c1.4-8.6,3.2-21.8,5.5-39.3l4.3-20.9l98.3-13l2.6,20.2c2.9,18.1,4.4,29.6,4.4,29.7
			c2.4,19.5,4,39.3,4.7,59l-1.3,11.1l-63.8,19.4L845.8,963.4z"/>
		<path d="M950.8,884.3l2.4,18.2v0.1v0.1c2.8,17.8,4.3,29.5,4.4,29.6c2.4,19.4,4,39.1,4.7,58.6l-1.1,9.6l-61.3,18.7l-52.1-56.7
			l-1.2-7.3c1.4-8.6,3.2-21.7,5.4-38.9l4-19.4L950.8,884.3 M954.2,879.9l-101.7,13.4l-4.6,22.3c-2.3,17.8-4.2,31.1-5.5,39.6l1.5,9.1
			l54.6,59.4l66.2-20.2l1.5-12.5c-0.7-19.7-2.3-39.7-4.8-59.3c0-0.1-1.5-11.8-4.4-29.7L954.2,879.9L954.2,879.9z"/>
	</g>
	<path class="st4" d="M802.2,1035.2v-0.2c1-16.4,8.3-24.4,16.8-33.8c7.7-8.5,16.4-18.1,21.5-36.1c0.5-1.6,1.1-5,1.9-10v-0.2l0.2,0.1
		c28.3,9.1,50.3,31.5,59,59.9c16.7-15.6,38.5-24.1,61.4-24.1h0.1c1,0,1.9,0,2.9,0.1h0.2v0.2c1,26.8-0.1,43.8-0.1,44v0.2H802.2
		V1035.2z"/>
	<path class="st5" d="M1025.6,930.9c-11.9-27.6-25.8-61.7-26.7-64L983,866c3.8,18.1,8.6,40.9,8.6,40.9c-7.3-7.7-34.8-4.5-34.8-4.5
		c-8.5,1-18.8,3.4-29.7,6.1c-11.5,2.8-23.4,5.6-35.2,7.3c-7.5,1-15.1,1.5-22.6,1.5c-7,0-14-0.4-20.9-1.3l-0.5-0.1v-0.2
		c15.9-122.8,49.6-430.3,49.9-433.4v-0.2l44.8-2.9l0.1,0.1c0.2,0.5,20.8,53.5,51.2,118.3c28,59.7,70.2,141.9,112.3,194.4
		c22.2,27.4,42.1,57.1,59.1,88l0.1,0.2l-6.3,3c-10.3,4-25.8,8.7-54.3,8.7c-2.4,0-4.9,0-7.4-0.1c-1.2,0-2.4,0-3.6,0
		c-25.8,0-43,8-48.7,12.3C1045.2,904,1027.7,916.2,1025.6,930.9z"/>
	<path class="st4" d="M1003.3,884.7c-3.4,0-6.8-0.2-10.1-0.6c-15.7-1.9-29-5.8-41.9-9.6c-15.2-4.4-29.5-8.6-45.1-8.6
		c-34,0-53.1,12.3-53.3,12.4l-0.4,0.2l0.1-0.4C865,778,882.8,618.7,892.3,532.6v-0.2h39.9l131.1,331.5l-0.1,0.1
		C1062.9,864.2,1037.3,884.7,1003.3,884.7C1003.3,884.7,1003.4,884.7,1003.3,884.7z"/>
	<g>
		<path d="M950.1,580.3h-63c-1.1,0-2-0.9-2-2s0.9-2,2-2h63c1.1,0,2,0.9,2,2S951.2,580.3,950.1,580.3z"/>
	</g>
	<g>
		<path d="M975.7,646.1H880c-1.1,0-2-0.9-2-2s0.9-2,2-2h95.7c1.1,0,2,0.9,2,2S976.8,646.1,975.7,646.1z"/>
	</g>
	<g>
		<path d="M1002.2,712H872.6c-1.1,0-2-0.9-2-2s0.9-2,2-2h129.6c1.1,0,2,0.9,2,2S1003.3,712,1002.2,712z"/>
	</g>
	<g>
		<path d="M1028.2,777.8H865c-1.1,0-2-0.9-2-2s0.9-2,2-2h163.2c1.1,0,2,0.9,2,2S1029.3,777.8,1028.2,777.8z"/>
	</g>
	<g>
		<path d="M1054.3,843.7H857.2c-1.1,0-2-0.9-2-2s0.9-2,2-2h197.1c1.1,0,2,0.9,2,2S1055.4,843.7,1054.3,843.7z"/>
	</g>
	<g>
		<path d="M914.4,868.1c-1.1,0-2-0.9-2-2V532.9c0-1.1,0.9-2,2-2s2,0.9,2,2v333.2C916.4,867.2,915.5,868.1,914.4,868.1z"/>
	</g>
	<g>
		<path d="M980.2,885c-1.1,0-2-0.9-2-2V649.6c0-1.1,0.9-2,2-2s2,0.9,2,2V883C982.2,884.1,981.3,885,980.2,885z"/>
	</g>
	<g>
		<path d="M1046.1,876.1c-1.1,0-2-0.9-2-2v-53.3c0-1.1,0.9-2,2-2s2,0.9,2,2v53.3C1048.1,875.2,1047.2,876.1,1046.1,876.1z"/>
	</g>
	<path class="st5" d="M780,640.3v-0.2c0-50.7,30.3-92,67.6-92s67.6,41.3,67.6,92v0.2H780z"/>
	<path class="st4" d="M844.9,610.9c-3.3,0-6.3-1.5-8.7-4.3c-3.1-3.7-7.9-12.8-4.8-32.8c-12.8,14.7-23.4,17.8-30,17.8
		c-6.1,0-9.6-2.6-9.8-2.7l-0.1-0.1l0.1-0.1c12.6-25.4,33.6-40.6,56.1-40.6c20.3,0,39.3,12.2,52.2,33.5l0.1,0.1l-0.1,0.1
		c0,0.1-5.1,6.2-14.6,6.2l0,0c-5.9,0-12.3-2.3-18.9-6.9C863.8,595.5,856.2,610.9,844.9,610.9z"/>
	<circle cx="847.6" cy="536.3" r="12"/>
	<g>
		<path d="M932,640.1H763.1c-1.1,0-2-0.9-2-2s0.9-2,2-2H932c1.1,0,2,0.9,2,2S933.1,640.1,932,640.1z"/>
	</g>
	<g>
		<path class="st0" d="M932,699.5c-18.7-0.9-36.8-3.8-37-3.8c-0.6-0.1-14.5-2.2-28.3-6.7c-17.7-5.8-26.9-12.7-26.6-20v-1l-0.7-0.6
			c-0.9-0.7-8.3-7.3-5.2-16l0.4-1.1l-0.8-0.9c-0.3-0.3-3.1-3.4-2.9-7.3c0.1-2.8,1.7-5.5,4.7-8.1l1-0.9l-0.4-1.3
			c-0.2-0.6-1.7-5.8,0.7-9.1c1.4-2,4.1-3,7.9-3c0.9,0,1.9,0.1,2.9,0.2c14.5,1.6,20.9,2.2,22.6,2.3l3.8,0.3l-1.9-3.3
			c-0.7-1.2-4-7.5-0.1-11.1c1.4-1.2,3.1-1.9,5-1.9l47.9-0.7l18.9,2.6l7.4,91.3L932,699.5L932,699.5z"/>
		<path d="M924.7,607.5l17.2,2.4l7.1,87.5h-16.8c-18.5-0.9-36.6-3.7-36.8-3.8c-0.1,0-14.3-2.2-28-6.7c-16.5-5.4-25.5-11.8-25.2-18
			l0.1-1.9l-1.5-1.3c-0.2-0.2-2.2-1.9-3.6-4.5c-1.7-3.1-2-6.2-0.9-9.3l0.8-2.3l-1.7-1.8c-0.1-0.1-2.5-2.7-2.4-5.8
			c0.1-2.2,1.4-4.5,4-6.7l2-1.7l-0.8-2.5c-0.5-1.6-1.1-5.3,0.4-7.4c1-1.4,3.1-2.1,6.2-2.1c0.8,0,1.7,0.1,2.7,0.2
			c14.5,1.6,21,2.2,22.6,2.3l7.6,0.6l-3.8-6.6c-0.6-1-3.3-6-0.5-8.6c1-0.9,2.3-1.4,3.7-1.4l0,0l0,0L924.7,607.5 M925,603.5l-48,0.7
			c-2.3,0-4.6,0.9-6.3,2.4c-5,4.6-1.2,11.9-0.2,13.5c-1.5-0.1-7.9-0.7-22.5-2.3c-1.1-0.1-2.2-0.2-3.1-0.2c-4.5,0-7.7,1.3-9.5,3.8
			c-2.9,4.1-1.3,9.9-1,10.9c-3.4,2.9-5.2,6.2-5.4,9.6c-0.2,4.6,2.9,8.1,3.5,8.7c-3.5,10,4.8,17.4,5.8,18.2c-0.3,8.4,9.1,15.8,28,22
			c14.1,4.6,28.5,6.8,28.6,6.8c0.2,0,18.4,2.9,37.3,3.8h21.3l-7.7-95L925,603.5L925,603.5z"/>
	</g>
	<path class="st5" d="M923.6,735c-1.1,0-2.1,0-3.1-0.1c-8-1.6-12.8-9.7-15.5-16.2c-3.1-7.5-4.5-16-4.4-20.5V698h0.2
		c7.6,1,19.1,2.3,31,2.9c0.1-1.8,0.5-16.2-4.8-42.8c-7.3-36.6-2.3-54.4-2.3-54.6v-0.1l68.1-1l-53.5-116.5l13.5-29.9l0.2,0.1
		c59.1,32.5,112.2,93.9,126.1,146.1c6.7,25.2,4.5,47.3-6.5,65.5c-7.9,13-27,32.1-73.1,49.5C969.1,729,938.3,735,923.6,735L923.6,735
		z"/>
	<g>
		<path d="M1004.3,717.4c-0.8,0-1.6-0.5-1.9-1.3c-0.4-1,0.1-2.2,1.1-2.6c13.5-5.2,26.5-11.8,38.8-19.5c0.9-0.6,2.2-0.3,2.8,0.6
			c0.6,0.9,0.3,2.2-0.6,2.8c-12.5,7.8-25.7,14.5-39.4,19.9C1004.8,717.4,1004.5,717.4,1004.3,717.4z"/>
	</g>
	<path d="M920.5,734.9c-14.9-3-20.2-28.8-19.9-36.6v-0.2h0.2c7.6,1,19.2,2.4,31.2,3h0.2v0.2c0,0.1,0,13.5-3.8,23
		C924.7,733.5,920.8,734.9,920.5,734.9L920.5,734.9L920.5,734.9z"/>
	<g>
		<path d="M889,625.8c-0.1,0-0.1,0-0.2,0l-22-1.9c-1.1-0.1-1.9-1.1-1.8-2.2c0.1-1.1,1.1-1.9,2.2-1.8l22,1.9c1.1,0.1,1.9,1.1,1.8,2.2
			C890.9,625,890,625.8,889,625.8z"/>
	</g>
	<g>
		<path d="M900.5,645c-12.9,0-58.6-6.5-65-9.8c-1-0.5-1.4-1.7-0.9-2.7c0.5-1,1.7-1.4,2.7-0.9c5.3,2.7,50.2,9.4,63.2,9.4
			c1.1,0,2,0.9,2,2S901.6,645,900.5,645z"/>
	</g>
	<g>
		<path d="M900.5,664.1C900.5,664.1,900.4,664.1,900.5,664.1c-22.9-1-60.4-9.5-66.6-11.6c-1-0.3-1.6-1.5-1.3-2.5
			c0.3-1,1.5-1.6,2.5-1.3c6.1,2,43,10.4,65.5,11.4c1.1,0,2,1,1.9,2.1C902.5,663.3,901.6,664.1,900.5,664.1z"/>
	</g>
	<g>
		<path d="M901.4,681.3c-0.1,0-0.1,0-0.2,0c-19.4-1.9-53.9-8.7-61.7-11.6c-1-0.4-1.6-1.5-1.2-2.6c0.4-1,1.5-1.6,2.6-1.2
			c7.4,2.8,41.9,9.5,60.7,11.4c1.1,0.1,1.9,1.1,1.8,2.2C903.3,680.5,902.4,681.3,901.4,681.3z"/>
	</g>
	<g>
		<path d="M932,534.6c-0.6,0-1.1-0.2-1.5-0.7c-0.7-0.8-0.6-2.1,0.2-2.8l58.4-50.3c0.8-0.7,2.1-0.6,2.8,0.2c0.7,0.8,0.6,2.1-0.2,2.8
			l-58.4,50.3C932.9,534.4,932.5,534.6,932,534.6z"/>
	</g>
	<g>
		<path d="M922.4,607.6c-1.1,0-2-0.9-2-2s0.9-2,2-2c41.5,0,92.1-4.7,92.6-4.8c1.1-0.1,2.1,0.7,2.2,1.8c0.1,1.1-0.7,2.1-1.8,2.2
			C1014.9,602.8,964.1,607.6,922.4,607.6z"/>
	</g>
	<g>
		<path d="M993.2,603.8c-0.7,0-1.5-0.4-1.8-1.1l-21.5-45.5c-0.5-1,0-2.2,1-2.7c1-0.5,2.2,0,2.7,1l21.5,45.5c0.5,1,0,2.2-1,2.7
			C993.8,603.7,993.5,603.8,993.2,603.8z"/>
	</g>
	<g>
		<path class="st0" d="M961.8,477c-11,0-20-9-20-20s9-20,20-20s20,9,20,20C981.8,468.1,972.8,477,961.8,477z"/>
		<path d="M961.8,439.1c9.9,0,18,8.1,18,18s-8.1,18-18,18s-18-8.1-18-18C943.9,447.2,951.9,439.1,961.8,439.1 M961.8,435.1
			c-12.1,0-22,9.8-22,22c0,12.1,9.8,22,22,22s22-9.8,22-22S973.9,435.1,961.8,435.1L961.8,435.1z"/>
	</g>
	<g>
		<path class="st0" d="M920.7,495.4c-14.9,0-30.4-13.6-39.6-34.7c-12.4-28.5-11.3-56.2,2.4-64.5c6.4-3.9,13.7-5.8,21.8-5.8
			c17.3,0,32.1,9.1,32.3,9.2c10.6,6.8,16.1,14.5,18,24.9c2.1,11.6-0.6,26.7-8.3,47.5C941.7,487.1,932.2,495.4,920.7,495.4z"/>
		<path d="M905.3,392.4c16.4,0,30.6,8.5,31.2,8.9c17.4,11.2,24.9,26.9,8.9,70c-5.3,14.2-14.1,22.1-24.7,22.1
			c-14.1,0-28.9-13.1-37.7-33.5c-6-13.8-9-27.9-8.4-39.7c0.6-10.9,4.1-18.8,10-22.3C890.7,394.3,897.7,392.4,905.3,392.4
			L905.3,392.4 M905.3,388.4c-7.4,0-15.3,1.6-22.8,6.1c-14.5,8.7-16.3,37-3.2,67c9.8,22.6,26.3,35.9,41.4,35.9
			c11.4,0,22.1-7.6,28.4-24.7c15.9-42.9,9.9-61.6-10.5-74.8C938.7,397.9,923.4,388.4,905.3,388.4L905.3,388.4z"/>
	</g>
	<path d="M938.7,397.9c19.1,12.4,25.6,29.6,13.2,67c0,0-23.4-15-23.4-59.7c-14,12.7-44.3,20-57.6,11.2c1.2-10.2,5.1-18,11.6-21.9
		C908.3,379,938.7,397.9,938.7,397.9z"/>
	<g>
		<path d="M898.3,457.2c-0.2,0-0.5,0-0.7-0.1c-1.9-0.7-3.5-2.1-4.6-3.9c-1.6-2.7-2-7.3-1.7-17.1c0-1.1,0.9-2,2.1-1.9
			c1.1,0,2,1,1.9,2.1c-0.3,8.7,0.1,13.1,1.1,14.9c0.6,1,1.6,1.8,2.7,2.3c1,0.4,1.5,1.6,1.1,2.6C899.8,456.7,899.1,457.2,898.3,457.2
			z"/>
	</g>
	<g>
		<path d="M908.6,442.5c-1,0-1.9-0.8-2-1.8l-0.2-2.3c-0.1-1.1,0.7-2.1,1.8-2.2c1.1-0.1,2.1,0.7,2.2,1.8l0.2,2.3
			c0.1,1.1-0.7,2.1-1.8,2.2C908.7,442.5,908.7,442.5,908.6,442.5z"/>
	</g>
	<g>
		<path d="M882.9,439c-1,0-1.9-0.8-2-1.8l-0.2-2.3c-0.1-1.1,0.7-2.1,1.8-2.2c1.1-0.1,2.1,0.7,2.2,1.8l0.2,2.3
			c0.1,1.1-0.7,2.1-1.8,2.2C883,439,883,439,882.9,439z"/>
	</g>
	<g>
		<path d="M906.4,468.2c-0.5,0-1.1,0-1.7-0.1c-1.1-0.2-1.8-1.3-1.6-2.4s1.3-1.8,2.4-1.6c0.3,0.1,0.5,0.1,1,0.1
			c1.4,0,2.7-0.6,3.7-1.7c1-1.1,1.5-2.5,1.4-3.9c-0.1-1.1,0.8-2,1.9-2.1c1.1-0.1,2,0.8,2.1,1.9c0.1,2.5-0.8,5-2.5,6.8
			c-1.7,1.8-4,2.9-6.6,3C906.5,468.2,906.5,468.2,906.4,468.2z"/>
	</g>
	<g>
		<path d="M965.6,461.2c-0.2,0-0.3,0-0.5-0.1l-12.5-3.1c-1.1-0.3-1.7-1.4-1.5-2.4c0.3-1.1,1.4-1.7,2.4-1.5l12.5,3.1
			c1.1,0.3,1.7,1.4,1.5,2.4C967.3,460.6,966.5,461.2,965.6,461.2z"/>
	</g>
	<circle cx="955" cy="349.3" r="51.6"/>
	<g>
		<path d="M904.3,1037c-1.1,0-2-0.9-2-2c-0.1-6.3-1-12.7-2.7-19.2c-0.3-1.1,0.4-2.2,1.4-2.4c1.1-0.3,2.2,0.4,2.4,1.4
			c1.8,6.8,2.8,13.6,2.9,20.2C906.3,1036.1,905.4,1037,904.3,1037C904.3,1037,904.3,1037,904.3,1037z"/>
	</g>
	<g>
		<path d="M1154.8,1037c-1,0-1.9-0.8-2-1.8c-0.7-5.9-1.8-11.9-3.4-17.8c-0.3-1.1,0.3-2.2,1.4-2.5c1.1-0.3,2.2,0.3,2.5,1.4
			c1.7,6.1,2.9,12.3,3.6,18.4c0.1,1.1-0.7,2.1-1.8,2.2C1155,1037,1154.9,1037,1154.8,1037z"/>
	</g>
	<g>
		<path d="M1090.8,1005.4c-0.2,0-0.5,0-0.7-0.1l-18.4-6.7c-1-0.4-1.6-1.5-1.2-2.6c0.4-1,1.5-1.6,2.6-1.2l18.4,6.7
			c1,0.4,1.6,1.5,1.2,2.6C1092.4,1004.9,1091.6,1005.4,1090.8,1005.4z"/>
	</g>
	<g>
		<path d="M848.1,1005.4c-0.4,0-0.8-0.1-1.1-0.3l-19.5-13.3c-0.9-0.6-1.1-1.9-0.5-2.8c0.6-0.9,1.9-1.1,2.8-0.5l19.5,13.3
			c0.9,0.6,1.1,1.9,0.5,2.8C849.4,1005.1,848.7,1005.4,848.1,1005.4z"/>
	</g>
	<g>
		<path d="M991.1,483.6c-0.2,0-0.3,0-0.5-0.1c-0.9-0.2-1.5-1.1-1.5-2l3.1-66.4c0,0,0-0.1,0-0.1l0-0.1c0.1-1,0.2-2.2,0.6-3.4
			c1.1-4.2,3.9-7.7,7.7-9.9c3.8-2.2,8.3-2.8,12.5-1.6l0.4,0.1c1.3,0.4,2.4,0.8,3.4,1.4c3.9,2,6.7,5.5,8,9.7
			c1.3,4.2,0.9,8.7-1.1,12.6l-30.8,58.8C992.5,483.2,991.8,483.6,991.1,483.6z M996.2,415.3l-2.7,57.3l26.6-50.8
			c1.5-3,1.9-6.4,0.9-9.6c-1-3.2-3.2-5.8-6.1-7.3c-0.8-0.4-1.6-0.8-2.5-1.1l-0.3-0.1c-3.2-0.9-6.6-0.4-9.5,1.2
			c-2.9,1.7-5,4.4-5.9,7.6C996.4,413.4,996.3,414.4,996.2,415.3L996.2,415.3z"/>
	</g>
	<g>
		<path d="M991.2,483.7c-0.8,0-1.5-0.5-1.9-1.2c-0.4-0.9-0.1-1.9,0.7-2.4l43.3-29.8c0.9-0.6,1.7-1.1,2.6-1.4
			c6.9-2.7,14.8,0.7,17.6,7.5c0,0,0,0.1,0,0.1l0.1,0.3c0.3,0.8,0.6,1.7,0.8,2.7c0.6,3.5-0.2,7.1-2.3,10c-2.1,2.9-5.2,4.9-8.8,5.4
			l-51.9,8.7C991.4,483.7,991.3,483.7,991.2,483.7z M1040.9,451.9c-1.2,0-2.3,0.2-3.5,0.7c-0.6,0.2-1.2,0.5-1.8,1l-35.9,24.7l43-7.2
			c2.5-0.4,4.7-1.8,6.2-3.8c1.5-2.1,2-4.6,1.6-7.1c0,0,0-0.1,0-0.1c-0.1-0.6-0.3-1.2-0.6-1.9l-0.1-0.3
			C1048.3,454.1,1044.7,451.9,1040.9,451.9z"/>
	</g>
</g>
<g id="man">
	<path d="M323.7,930.7c0.1-0.2,8.8-21.4,23-50.7v-0.1h0.1c0.1-0.1,14.3-8.2,28.6-8.2c2.1,0,4.1,0.2,5.9,0.5
		c16.3,2.9,14.5,15.4,14.5,15.5c-16.1,37-71.3,43.1-71.9,43.2h-0.3L323.7,930.7z"/>
	<g>
		<path d="M404.9,975.2c-0.4,0-0.9,0-1.3,0l-82.6-5.4c-0.9-0.1-1.6-0.7-1.8-1.5c-0.2-0.9,0.2-1.7,1-2.2l71.7-41.1
			c6.2-3.6,13.5-4.5,20.4-2.6c7,1.9,12.8,6.3,16.3,12.6c1.2,1.9,2.1,4.2,2.8,7c3.4,14.4-5.4,29-19.8,32.5
			C409.6,975,407.3,975.2,404.9,975.2z M327.9,966.2l75.9,5c2.4,0.1,4.8-0.1,6.9-0.6c12.2-3,19.8-15.5,16.8-27.7
			c-0.6-2.4-1.4-4.3-2.4-5.9c-3-5.3-8-9.1-13.9-10.7c-5.9-1.6-12.1-0.8-17.4,2.2L327.9,966.2z"/>
	</g>
	<g>
		<path d="M377.4,997.6c-16.9,0-24.6-7.8-31.6-14.9c-6.3-6.4-12.2-12.4-24.4-12.6c-1.1,0-2-0.9-2-2c0-1.1,0.9-2,2-2c0,0,0,0,0,0
			c13.8,0.2,20.6,7.1,27.2,13.8c8.4,8.5,16.3,16.5,38.8,12.9c1.1-0.2,2.1,0.6,2.3,1.7c0.2,1.1-0.6,2.1-1.7,2.3
			C384.2,997.3,380.6,997.6,377.4,997.6z"/>
	</g>
	<path class="st5" d="M462.3,1035.2v-0.2c-5.3-31.5-8.6-63.6-9.9-95.5l2.2-15.6l114.3-64.3l-3,13.8c-2.8,23.6-3.8,41.9-3.8,42
		c0,0.4-2.5,37.3,13.4,61.1c6.8,10.3,13.1,16.9,18.6,22.7c9.8,10.4,16.4,17.3,17.2,35.8v0.2H462.3z"/>
	<path class="st4" d="M452.5,939.5c-0.4-10.4-0.7-20.8-0.7-30.8c0-19.5,1.6-37.3,3.2-56.1c2.6-29.4,5.2-59.9,1.6-97.8
		c-5.9-61-37.9-161.5-38.2-162.5l-0.1-0.3h118l6.6,13.5c0.5,1.5,48.2,147.8,63.3,274.5c1,24.8-43.7,35.5-44.1,35.6l-0.3,0.1v-0.3
		c0-0.2,1-18.3,3.8-41.7c-2.2,1-15.6,7.4-31.2,25.6c-14.2,16.6-27.7,26.6-45,33.5c-15.7,6.3-36.5,6.9-36.7,6.9h-0.2L452.5,939.5z"/>
	<path d="M561.8,915.5c0-0.2,1-18.4,3.8-42.1v-0.1h0.1c6.5-2.6,13.4-4,20.4-4c1.2,0,2.4,0,3.6,0.1c15.3,1.1,16.4,10.6,16.4,10.7
		c1,24.8-43.7,35.5-44.1,35.6l-0.3,0.1L561.8,915.5z"/>
	<g>
		<path d="M565.2,950h-24.3c-1.1,0-2-0.9-2-2s0.9-2,2-2h24.3c1.1,0,2,0.9,2,2S566.3,950,565.2,950z"/>
	</g>
	<g>
		<path d="M545.7,975.8c-0.9,0-1.7-0.6-1.9-1.5c-0.3-1.1,0.3-2.2,1.4-2.5l23.9-6.7c1.1-0.3,2.2,0.3,2.5,1.4s-0.3,2.2-1.4,2.5
			l-23.9,6.7C546.1,975.8,545.9,975.8,545.7,975.8z"/>
	</g>
	<g>
		<path d="M560,998.7c-0.6,0-1.2-0.3-1.6-0.8c-0.6-0.9-0.4-2.1,0.5-2.8l19.3-13.9c0.9-0.6,2.1-0.4,2.8,0.5c0.6,0.9,0.4,2.1-0.5,2.8
			l-19.3,13.9C560.8,998.6,560.4,998.7,560,998.7z"/>
	</g>
	<path class="st4" d="M462.3,1035.2v-0.2c0-0.2-4.2-23.2-7.3-57v-0.2h0.2c31.4,3.3,56.8,26.3,63.3,57.1l0.1,0.2L462.3,1035.2
		L462.3,1035.2z"/>
	<g>
		<path d="M570.1,968.6c-0.6,0-1.3-0.3-1.6-0.8c-0.5-0.7-0.5-1.7,0.1-2.4l50.9-65.2c9.2-11.7,26.1-13.7,37.8-4.6
			c2,1.5,3.7,3.3,5.3,5.5c8.6,12,5.9,28.8-6.1,37.6c-2,1.5-4.5,2.8-7.2,3.7l-78.5,26.2C570.5,968.6,570.3,968.6,570.1,968.6z
			 M640.7,893.9c-6.8,0-13.6,3-18.1,8.8l-46.8,60l72.2-24.1c2.4-0.8,4.4-1.8,6.1-3.1c10.2-7.5,12.6-21.8,5.2-32
			c-1.3-1.9-2.8-3.4-4.5-4.7C650.6,895.4,645.6,893.9,640.7,893.9z"/>
	</g>
	<g>
		<path d="M630.2,998.9c-1.2,0-2.3-0.1-3.5-0.3c-1.8-0.3-3.7-1-5.5-1.9l-51.8-27.2c-0.8-0.4-1.2-1.3-1-2.1c0.2-0.9,0.9-1.5,1.8-1.6
			l58.1-6c10.7-1.1,20.4,6.7,21.5,17.5c0.2,1.8,0.1,3.5-0.2,5.6c-0.9,5.1-3.8,9.6-8,12.6C638.1,997.7,634.2,998.9,630.2,998.9z
			 M577.1,969l45.9,24.1c1.5,0.7,3,1.2,4.4,1.5c4.1,0.7,8.3-0.2,11.7-2.6c3.4-2.4,5.7-5.9,6.4-10c0.3-1.6,0.3-3,0.2-4.4
			c-0.9-8.6-8.6-14.8-17.1-13.9L577.1,969z"/>
	</g>
	<path class="st5" d="M179.2,1035.2v-0.2c2.1-41.1,7.6-73.4,17.7-104.8l15.8-26.3l151.7-56.6l-17.5,33
		C332.7,909.6,324,930.8,324,931c-0.1,0.3-13.8,32.3,3.8,54.3c1.8,2.3,3.7,4.5,5.4,6.7c12.9,15.8,22.2,27.2,20.6,43.2v0.2H179.2
		V1035.2z"/>
	<path class="st4" d="M219,933.1c-14.5,0-21.8-2.7-21.9-2.7l-0.2-0.1l0.1-0.2c12.2-37.6,30.4-72.3,56.9-121
		c40.6-74.7,61-112.2,80.7-203.6l2.5-11.6l108.4-7.7v0.2c-0.1,0.9-8.3,87.7-20.1,166.4c-14.2,94.6-29.5,134.5-29.7,134.9
		c-0.5-20.4-28.2-18.7-49.4-7.3c-3.2,1.7-20.1,10.8-40.6,23.6c-21.8,13.6-46.2,24.1-62.2,26.8C234.9,932.4,226.6,933.1,219,933.1
		L219,933.1z"/>
	<g>
		<path d="M437.6,660.6c-0.1,0-0.2,0-0.2,0c-1.1-0.1-1.9-1.1-1.8-2.2c4.7-41,7.7-71.8,7.7-72.1c0.1-1.1,1.1-1.9,2.2-1.8
			c1.1,0.1,1.9,1.1,1.8,2.2c0,0.3-3,31.1-7.7,72.1C439.5,659.8,438.6,660.6,437.6,660.6z"/>
	</g>
	<g>
		<path d="M264.5,926.7c-0.2,0-0.4,0-0.6-0.1c-1.1-0.3-1.6-1.5-1.3-2.5c16.9-52,34-91,50.5-128.7c25.4-58,49.4-112.7,68-205.5
			c0.2-1.1,1.3-1.8,2.4-1.6c1.1,0.2,1.8,1.3,1.6,2.4c-18.7,93.2-42.8,148.2-68.3,206.3c-16.5,37.6-33.6,76.5-50.4,128.3
			C266.1,926.2,265.3,926.7,264.5,926.7z"/>
	</g>
	<path class="st4" d="M179.2,1035.2v-0.2c0.9-19.3,2.9-38.8,6.2-57.8V977l0.2,0.1c27.4,8.1,49,30.3,56.3,58l0.1,0.3h-62.8V1035.2z"
		/>
	<g>
		<path d="M662.4,695.2c-4.4,0-8.4-2-10.3-3.2c-8.6,4.6-28.8-2-75.6-54.6l-0.2-0.3l-6.3-10.8l70.2-64.3l12.7,7.7l0.2,0.3
			c19.4,26.1,34.4,46.4,36.3,51.1c1.8,4.4,1.8,8.1-0.1,10.9c-1.9,2.9-5.2,4.2-7.8,4.8c2.8,3.9,8,11.5,11.8,17.8l0,0
			c2.8,4.8,3.3,10.3,1.2,14.8c-1.5,3.1-4,5.4-7.2,6.5c1.1,5.3-1.1,8.7-2.7,10.4c-2.9,2.9-7.4,4.3-11.5,3.5c-2.2,2.8-5,4.6-8.2,5.2
			C664,695.2,663.2,695.2,662.4,695.2z M652.1,687.2l1.2,0.9c0.1,0,5.5,4,10.9,3c2.6-0.5,4.7-2,6.4-4.6l0.8-1.3l1.4,0.5
			c3,1,6.7,0,8.9-2.2c2-2.1,2.4-5,1.2-8.4l-0.8-2.3l2.4-0.4c2.9-0.5,5.1-2.2,6.4-4.8c1.5-3.3,1.2-7.4-1-11.1
			c-5.2-8.7-13.4-20-13.5-20.1l-2.3-3.1l3.8-0.1c1.6,0,6.3-0.7,8-3.4c1.1-1.7,1-4.1-0.2-7.2c-1.9-4.6-20.5-29.7-35.6-50l-9.5-5.7
			L575,627.1l4.6,7.8c35.1,39.4,62.4,59.8,71.3,53.2L652.1,687.2z"/>
	</g>
	<path class="st4" d="M577.8,636.2c-16.8-18.9-31.1-37.3-36.4-45.7c-52.6-82.4-67.4-163.8-67.6-164.6c0-0.5,4.1-43.4,30.7-68.1
		l0.1-0.1l0.1,0.1c22.5,17.7,64.1,88.8,84.1,122.9c3.8,6.5,6.8,11.7,8.8,14.8c9.4,15.4,32.4,46.3,52.6,73.6l1.6,2.1L578,636.4
		L577.8,636.2z"/>
	<g>
		<path d="M676.7,639.2c-0.6,0-1.2-0.3-1.6-0.8l-9.6-13.4c-0.6-0.9-0.4-2.1,0.5-2.8c0.9-0.6,2.1-0.4,2.8,0.5l9.6,13.4
			c0.6,0.9,0.4,2.1-0.5,2.8C677.5,639.1,677.1,639.2,676.7,639.2z"/>
	</g>
	<g>
		<path d="M682.4,675.5c-0.6,0-1.2-0.3-1.6-0.8c-12.1-15.6-28.2-36.9-36.7-48.1c-0.7-0.9-0.5-2.1,0.4-2.8c0.9-0.7,2.1-0.5,2.8,0.4
			c8.5,11.2,24.6,32.5,36.7,48.1c0.7,0.9,0.5,2.1-0.4,2.8C683.3,675.4,682.8,675.5,682.4,675.5z"/>
	</g>
	<g>
		<path d="M671,688c-0.6,0-1.2-0.3-1.6-0.8l-38.3-48.8c-0.7-0.9-0.5-2.1,0.3-2.8s2.1-0.5,2.8,0.3l38.3,48.8c0.7,0.9,0.5,2.1-0.3,2.8
			C671.9,687.9,671.4,688,671,688z"/>
	</g>
	<g>
		<path d="M652.8,689.9c-0.6,0-1.1-0.2-1.5-0.7L618.8,650c-0.7-0.9-0.6-2.1,0.3-2.8c0.9-0.7,2.1-0.6,2.8,0.3l32.5,39.2
			c0.7,0.9,0.6,2.1-0.3,2.8C653.7,689.8,653.3,689.9,652.8,689.9z"/>
	</g>
	<g>
		<path d="M612.1,655.6c-0.6,0-1.1-0.2-1.5-0.7c-0.7-0.8-0.6-2.1,0.3-2.8l40.8-34.1c0.8-0.7,2.1-0.6,2.8,0.3
			c0.7,0.8,0.6,2.1-0.3,2.8l-40.8,34.1C613,655.4,612.6,655.6,612.1,655.6z"/>
	</g>
	<g>
		<path d="M577.7,638.4c-0.6,0-1.1-0.2-1.5-0.7c-0.7-0.8-0.6-2.1,0.2-2.8l74.1-65.2c0.8-0.7,2.1-0.6,2.8,0.2
			c0.7,0.8,0.6,2.1-0.2,2.8L579,637.9C578.6,638.2,578.2,638.4,577.7,638.4z"/>
	</g>
	<g>
		<path d="M548.6,603.8c-0.6,0-1.1-0.2-1.5-0.7c-0.7-0.9-0.6-2.1,0.3-2.8l78.4-65c0.9-0.7,2.1-0.6,2.8,0.3c0.7,0.9,0.6,2.1-0.3,2.8
			l-78.4,65C549.5,603.6,549.1,603.8,548.6,603.8z"/>
	</g>
	<g>
		<path d="M641.3,582.8c-0.6,0-1.2-0.3-1.6-0.8l-25.8-33.5c-0.7-0.9-0.5-2.1,0.4-2.8c0.9-0.7,2.1-0.5,2.8,0.4l25.8,33.5
			c0.7,0.9,0.5,2.1-0.4,2.8C642.2,582.7,641.7,582.8,641.3,582.8z"/>
	</g>
	<g>
		<path d="M589.7,627.7c-0.6,0-1.1-0.2-1.5-0.7l-27.7-33.5c-0.7-0.9-0.6-2.1,0.3-2.8c0.9-0.7,2.1-0.6,2.8,0.3l27.7,33.5
			c0.7,0.9,0.6,2.1-0.3,2.8C590.6,627.5,590.2,627.7,589.7,627.7z"/>
	</g>
	<g>
		<path d="M614.8,604.6c-0.6,0-1.2-0.3-1.6-0.7l-27-33.3c-0.7-0.9-0.6-2.1,0.3-2.8c0.9-0.7,2.1-0.6,2.8,0.3l27,33.3
			c0.7,0.9,0.6,2.1-0.3,2.8C615.7,604.5,615.2,604.6,614.8,604.6z"/>
	</g>
	<path class="st5" d="M334.7,605.8L334.7,605.8c-0.1-0.2-7.6-11.3-9.5-26.1c-1.7-13.7,1.1-33.4,24.2-49.7c-0.7-1.2-5-9.5-5.6-20.6
		c-0.5-11.1,2.6-27.2,20.9-41.7c-0.8-1.8-8.3-18.8-2.3-35.5c3.9-10.6,12.4-18.9,25.3-24.7c-0.3-3.2-4.7-44-0.9-46.9
		c16.5-8.7,26.5-12.7,62.2-25.8h0.1l0.1,0.1c0.2,0.1,16.8,10.6,34,10.6c7.4,0,20.9,11.8,21.5,12.3c0.2,0.3,15.2,26.1,0.1,49.8
		c2.3,1.9,31.4,27.3,10.8,60.1c2.5,1.6,31.5,21.3,17.9,62.3c1,0.9,9.4,8.5,14.8,20.9c5.2,12.1,8.5,31.5-5.4,54.8l-0.1,0.1H334.7z"/>
	<g>
		<path d="M504.6,409.7H389.8c-1.1,0-2-0.9-2-2s0.9-2,2-2h114.8c1.1,0,2,0.9,2,2S505.7,409.7,504.6,409.7z"/>
	</g>
	<g>
		<path d="M515.1,469.9H365c-1.1,0-2-0.9-2-2s0.9-2,2-2h150.1c1.1,0,2,0.9,2,2S516.2,469.9,515.1,469.9z"/>
	</g>
	<g>
		<path d="M533.3,532.1H349.7c-1.1,0-2-0.9-2-2s0.9-2,2-2h183.6c1.1,0,2,0.9,2,2S534.4,532.1,533.3,532.1z"/>
	</g>
	<g>
		<circle class="st0" cx="420.7" cy="339.3" r="20"/>
		<path d="M420.7,321.3c9.9,0,18,8.1,18,18s-8.1,18-18,18s-18-8.1-18-18C402.8,329.4,410.8,321.3,420.7,321.3 M420.7,317.3
			c-12.1,0-22,9.8-22,22c0,12.1,9.8,22,22,22s22-9.8,22-22C442.7,327.2,432.8,317.3,420.7,317.3L420.7,317.3z"/>
	</g>
	<g>
		<path class="st0" d="M462.9,374.2c-10.7,0-20.1-7.5-26.5-21.2c-20.1-42.9-13.4-59.7,3.8-73c0.1-0.1,16.4-11.9,35.3-11.9
			c6.5,0,12.7,1.4,18.3,4.2c14.4,7.1,17.7,34.7,7.7,64.1C493.7,359,478.2,374.2,462.9,374.2L462.9,374.2z"/>
		<path d="M475.5,270.1c6.2,0,12.1,1.3,17.4,4c6.1,3,10.3,10.6,11.8,21.4c1.6,11.7-0.2,25.9-5.1,40.2c-7.4,21.8-22.2,36.5-36.6,36.5
			c-9.9,0-18.6-7.1-24.7-20.1c-19.5-41.7-13.3-57.9,3.1-70.5C442,281.2,457.5,270.1,475.5,270.1 M475.5,266.1
			c-19.9,0-36.5,12.4-36.5,12.4c-19.3,14.8-23.7,33.9-4.3,75.4c7.2,15.5,17.6,22.4,28.3,22.4c15.7,0,32.1-14.9,40.4-39.2
			c10.5-30.9,6.4-59-8.7-66.5C488.2,267.3,481.7,266.1,475.5,266.1L475.5,266.1z"/>
	</g>
	<path d="M494.6,270.5c-27-13.3-55.7,8-55.7,8c-13.1,10.1-19.3,22.1-15.9,41.7l85.6-25.2C507,283.1,502.2,274.2,494.6,270.5z"/>
	<g>
		<path d="M483.8,334.3c-0.7,0-1.4-0.4-1.8-1.1c-0.5-1-0.2-2.2,0.8-2.7c1.2-0.7,2.1-1.5,2.7-2.6c1.2-2.3,0.6-8.8-0.1-14.9
			c-0.1-1.1,0.7-2.1,1.7-2.2c1.1-0.1,2.1,0.7,2.2,1.7c1.2,9.9,1.1,14.6-0.3,17.3c-1,1.8-2.4,3.2-4.3,4.2
			C484.4,334.2,484.1,334.3,483.8,334.3z"/>
	</g>
	<g>
		<path d="M472.4,320.4c-1.1,0-2-0.9-2-2v-2.3c0-1.1,0.9-2,2-2s2,0.9,2,2v2.3C474.4,319.5,473.5,320.4,472.4,320.4z"/>
	</g>
	<g>
		<path d="M497.7,314.8c-1.1,0-2-0.9-2-2v-2.3c0-1.1,0.9-2,2-2s2,0.9,2,2v2.3C499.7,313.9,498.8,314.8,497.7,314.8z"/>
	</g>
	<g>
		<path d="M476.2,345.9c-5,0-9.1-3.9-9.3-9c-0.1-1.1,0.8-2,1.9-2.1c1.1,0,2,0.8,2.1,1.9c0.1,3.1,2.7,5.4,5.7,5.2
			c0.3,0,0.5,0,0.9-0.1l0.2,0c1.1-0.2,2.1,0.5,2.4,1.6c0.2,1.1-0.5,2.1-1.6,2.4l-0.2,0c-0.4,0.1-1,0.2-1.6,0.2
			C476.5,345.9,476.4,345.9,476.2,345.9z"/>
	</g>
	<g>
		<path d="M417.3,344c-0.8,0-1.5-0.5-1.8-1.2c-0.4-1,0.1-2.2,1.1-2.6l11.9-5c1-0.4,2.2,0.1,2.6,1.1c0.4,1-0.1,2.2-1.1,2.6l-11.9,5
			C417.8,344,417.6,344,417.3,344z"/>
	</g>
	<circle cx="446.3" cy="250.7" r="21.5"/>
	<g>
		<path d="M318.4,950h-24.2c-1.1,0-2-0.9-2-2s0.9-2,2-2h24.2c1.1,0,2,0.9,2,2S319.5,950,318.4,950z"/>
	</g>
	<g>
		<path d="M293.2,977.7c-0.9,0-1.7-0.6-1.9-1.5c-0.3-1.1,0.3-2.2,1.4-2.5l26.8-7.6c1.1-0.3,2.2,0.3,2.5,1.4s-0.3,2.2-1.4,2.5
			l-26.8,7.6C293.6,977.7,293.4,977.7,293.2,977.7z"/>
	</g>
	<g>
		<path d="M308.5,1001.6c-0.6,0-1.2-0.3-1.6-0.8c-0.6-0.9-0.4-2.1,0.4-2.8l19.3-14c0.9-0.6,2.1-0.5,2.8,0.4c0.6,0.9,0.4,2.1-0.4,2.8
			l-19.3,14C309.3,1001.5,308.9,1001.6,308.5,1001.6z"/>
	</g>
</g>
<g id="woman">
	<g>
		<path d="M632.6,930.4c-65.7,0-111.6-16-138.5-29.4c-29.2-14.5-43-29.3-43.2-29.4c-0.3-0.3-31.5-32.9-22-57.6
			c0.1-0.2,3.1-4.9,19.3-4.9c16.1,0,40,8.5,40.2,8.6c78.8,21.4,152.8,53.3,179.8,77.5c15.1,13.5,27,28,26.3,30.5
			c-0.1,0.3-0.3,0.4-0.6,0.5C672.9,929,652.3,930.4,632.6,930.4L632.6,930.4z"/>
		<path d="M389.6,1035.2v-0.2c0-0.4,3.1-44.5,21.1-88.7l0.1-0.2l0.2,0.2c15.1,11.1,27.9,27.5,37.1,47.4v0.1l-17,41.5h-41.5V1035.2z"
			/>
		<g>
			<path class="st0" d="M433.9,910.3l3.5-13.4c4.5-7.9,9.7-16.1,15.2-24.4c0.8-1.3,20.4-31,37.2-53.4l10.6-11.5l92.3,35.1
				l-14.9,21.1c-0.8,1.2-8,11.8-16.8,25.8L495,988L433.9,910.3z"/>
			<path d="M500.8,810l88.6,33.7L576,862.6v0.1l0,0c-0.8,1.2-7.9,11.7-16.8,25.8l-64.5,96.1L436,909.9l3.1-12.2
				c4.5-7.8,9.5-15.8,15-24.1c0.8-1.3,20.3-30.9,37-53.2L500.8,810 M499.7,805.3l-11.6,12.5c-17,22.7-37.1,53.3-37.3,53.6
				c-5.6,8.4-10.8,16.7-15.4,24.7l-3.8,14.6l63.3,80.6l67.6-100.7c9.3-14.8,16.7-25.6,16.8-25.7l16.4-23.2L499.7,805.3L499.7,805.3z
				"/>
		</g>
		<path class="st2" d="M460.5,1035.2v-0.2c-7.2-38.8-24.8-70.2-49.8-88.5l-0.1-0.1l0.1-0.1c7.1-17.2,15.4-34.1,24.8-50.2l0.1-0.2
			l0.2,0.1c0.2,0.1,16.5,8.3,37.3,45.9c30.8-44.9,57.7-54.3,74.9-54.3c9.1,0,14.5,2.8,14.6,2.8l0.2,0.1l-0.1,0.2
			c-33.4,53-40,74-39.6,82.2c0.5,11.3,6.8,20.4,12.9,29.2c6.8,9.8,13.9,19.9,12.9,33v0.2h-88.4V1035.2z"/>
		<path class="st2" d="M713.3,1035.2L713.3,1035.2c-11.8-36.5-38.1-67.2-72.3-84.5l-0.1-0.1v-0.1c1.7-17.4,4-34.6,7-51.3l2.9-17.4
			l97.9-3.8l7.3,33.2c4,31.2,6.7,49.3,8,53.9c5.1,18,13.8,27.6,21.5,36.1c8.5,9.3,15.8,17.4,16.8,33.8v0.2H713.3z"/>
		<g>
			<path class="st0" d="M715.7,942.3c-0.2-0.3-17.5-31.6-45.8-43.9l-0.5-0.2l0.5-0.2c0.3-0.1,28-9.2,42.4-9.2c4.1,0,6.8,0.8,8,2.3
				c0.7,0.9,0.9,2,0.6,3.4c-4.7,19.8-4.8,47.5-4.8,47.8L715.7,942.3z"/>
			<path d="M716.1,944.3h-0.4c-0.7,0-1.3-0.3-1.7-0.9c0,0-0.1-0.1-0.2-0.3c-3-5.2-19.4-31.9-44.8-42.9l-0.4-0.2
				c-0.8-0.3-1.3-1-1.3-1.9s0.5-1.6,1.3-1.9l0.5-0.2c0,0,0.1,0,0.1,0c0.3-0.1,28.2-9.3,43-9.3c4.8,0,7.9,1,9.6,3.1
				c1.1,1.4,1.4,3.1,1,5.1c-4.7,19.8-4.8,47.1-4.8,47.4C718.1,943.4,717.2,944.3,716.1,944.3z M674.9,898.5
				c19.5,10,33.2,28.2,39.4,37.6c0.3-9.4,1.3-27.7,4.7-42.1c0.2-1,0-1.4-0.2-1.7c-0.3-0.3-1.6-1.5-6.4-1.5
				C701.7,890.8,683.2,896,674.9,898.5z"/>
		</g>
		<path d="M638.3,1035.2v-0.2c0-0.3-2.1-35.3,2.6-84.5v-0.3l0.3,0.1c18.6,9.4,34.6,22.3,47.6,38.5l0.1,0.1l-6.1,46.3H638.3z"/>
		<path class="st1" d="M725.8,914.3c-17.6,0-45.3-2.6-77.9-14.9c-36.5-13.8-52.6-22.5-69.8-32.5c-2.6-1.5-6.3-3.7-10.9-6.5
			c-13.3-7.9-33.4-19.9-50.3-28.9c-9.3-5-18.9-9.5-28.7-13.4c-0.2-0.1-24.1-8.6-40.1-8.6c-15.9,0-18.9,4.6-19,4.7l-0.4-0.2
			c8.5-19.9,238.7-331.6,241-334.7l0.1-0.1l36.6,2.9v0.2c0.3,3,33.2,303.5,49.4,429v0.2h-0.2C755.7,911.5,744.5,914.3,725.8,914.3
			L725.8,914.3z"/>
		<g>
			<path d="M525.6,963.4h-23.7c-1.1,0-2-0.9-2-2s0.9-2,2-2h23.7c1.1,0,2,0.9,2,2S526.7,963.4,525.6,963.4z"/>
		</g>
		<g>
			<path d="M499.8,992.1c-0.8,0-1.6-0.5-1.9-1.4c-0.3-1,0.2-2.2,1.3-2.5l25.6-8.4c1-0.3,2.2,0.2,2.5,1.3c0.3,1-0.2,2.2-1.3,2.5
				l-25.6,8.4C500.2,992.1,500,992.1,499.8,992.1z"/>
		</g>
		<g>
			<path d="M763.7,963.4H740c-1.1,0-2-0.9-2-2s0.9-2,2-2h23.7c1.1,0,2,0.9,2,2S764.8,963.4,763.7,963.4z"/>
		</g>
		<g>
			<path d="M745.6,992.1c-0.8,0-1.6-0.5-1.9-1.4c-0.3-1,0.2-2.2,1.3-2.5l25.5-8.4c1-0.3,2.2,0.2,2.5,1.3c0.3,1-0.2,2.2-1.3,2.5
				l-25.5,8.4C746,992.1,745.8,992.1,745.6,992.1z"/>
		</g>
		<g>
			<path d="M733.8,860.3c-22.3,0-57.8-4.8-104.8-26.2c-20.9-9.5-40.1-19.9-58.7-30c-38.1-20.6-70.9-38.3-104.8-41.9
				c-1.1-0.1-1.9-1.1-1.8-2.2c0.1-1.1,1.1-1.9,2.2-1.8c34.6,3.6,67.8,21.5,106.2,42.3c18.6,10,37.7,20.4,58.5,29.9
				c59.1,26.9,99.4,27.2,118.1,25c1.1-0.1,2.1,0.7,2.2,1.8c0.1,1.1-0.7,2.1-1.8,2.2C745.1,860,739.9,860.3,733.8,860.3z"/>
		</g>
	</g>
	<g>
		<path d="M723.8,641.2c-1,0-1.9-0.8-2-1.8l-17.4-156.9c-0.1-1.1,0.7-2.1,1.8-2.2c1.1-0.1,2.1,0.7,2.2,1.8L725.8,639
			c0.1,1.1-0.7,2.1-1.8,2.2C723.9,641.2,723.9,641.2,723.8,641.2z"/>
	</g>
	<g>
		<polygon class="st2" points="622.3,743.2 565.2,694.8 640.6,592 711.4,652.1 		"/>
		<g>
			<path d="M696.6,668.8c-0.5,0-0.9-0.2-1.3-0.5l-68-57.8c-0.8-0.7-0.9-2-0.2-2.8c0.7-0.8,2-0.9,2.8-0.2l68,57.8
				c0.8,0.7,0.9,2,0.2,2.8C697.7,668.6,697.2,668.8,696.6,668.8z"/>
		</g>
		<g>
			<path d="M593.7,721c-0.5,0-0.9-0.2-1.3-0.5c-0.8-0.7-0.9-2-0.2-2.8l68.9-81.1c0.7-0.8,2-0.9,2.8-0.2c0.8,0.7,0.9,2,0.2,2.8
				l-68.9,81.1C594.8,720.8,594.3,721,593.7,721z"/>
		</g>
		<g>
			<path d="M663.1,640c-0.8,0-1.5-0.5-1.8-1.2c-0.4-0.8-0.1-1.8,0.5-2.3l48.9-41.2c8.9-7.6,22.4-6.4,30,2.5c1.2,1.4,2.2,3,3.2,5
				c4.8,10.8-0.1,23.3-10.8,28.1c-2,0.9-4.1,1.4-6.2,1.7l-63.6,7.4C663.3,640,663.2,640,663.1,640z M724.4,594.3
				c-3.9,0-7.9,1.3-11.1,4.1l-43.8,36.9l57-6.6c1.7-0.2,3.4-0.6,5-1.3c8.7-3.9,12.6-14.1,8.8-22.8c-0.8-1.6-1.6-3-2.6-4.1
				C734.2,596.3,729.3,594.3,724.4,594.3z"/>
		</g>
		<g>
			<path d="M662.6,639.7c-0.2,0-0.3,0-0.5-0.1c-0.8-0.2-1.4-0.9-1.5-1.8l-4.3-49.4c-0.9-10.2,6.7-19.2,16.9-20.1
				c2-0.1,3.6-0.1,5.1,0.2c4.9,0.9,9.1,3.7,11.9,7.8c2.8,4.1,3.8,9.1,2.9,13.9c-0.5,2.4-1.3,4.4-2.5,6.4l-26.3,42
				C663.9,639.4,663.3,639.7,662.6,639.7z M675,572.3c-0.5,0-1,0-1.5,0.1c-8,0.7-13.9,7.8-13.2,15.7l3.8,43.5l23.1-36.9
				c0.9-1.5,1.6-3.2,1.9-5c0.7-3.8-0.1-7.7-2.3-10.9c-2.2-3.2-5.5-5.4-9.3-6.1C676.8,572.4,676,572.3,675,572.3z"/>
		</g>
	</g>
	<g>
		<g>
			<path class="st0" d="M635.6,782.4c-21,0-47.2-26.6-47.5-26.9c-0.1-0.1-9.7-9.7-18.1-19.1l-16.1-17l61.6-66.2l11,11
				c6.7,8.1,13.6,15.9,19.7,22.7c9,10.1,16.8,18.9,18.2,22.6c1,2.7,1,4.9-0.1,6.6c-1.9,3.2-6.8,4.2-7.7,4.3L653,721l2.4,2.7
				c1.4,1.5,8.6,9.7,18.9,20.8c4,4.3,5.7,8.2,5.1,11.7c-0.6,4-4.2,6.3-4.6,6.5l-1,0.6v1.1c0,4.2-1.4,7.1-4.1,8.9
				c-2.4,1.5-5.3,1.7-6.8,1.7c-0.7,0-1.1,0-1.3-0.1l-1.4-0.1l-0.6,1.3c-1.7,3.8-4.9,5.7-9.2,5.7c-2.9,0-5.3-0.9-5.6-1l-0.7-0.3
				l-0.7,0.3C641.1,781.9,638.4,782.4,635.6,782.4z"/>
			<path d="M615.6,656l9.5,9.5c6.7,8.1,13.6,15.9,19.7,22.7c8.5,9.5,16.5,18.6,17.8,22c1.2,3.1,0.4,4.4,0.1,4.9
				c-1.2,1.9-4.1,3-6.4,3.4l-7.1,1.2l4.8,5.4c1.4,1.5,8.6,9.7,18.9,20.8c2.4,2.6,5.2,6.5,4.6,10c-0.5,3.2-3.6,5-3.7,5.1l-1.9,1.2
				v2.2c0,5.2-2.4,6.7-3.2,7.2c-2,1.3-4.7,1.4-5.7,1.4c-0.6,0-1,0-1.1,0l-2.8-0.3l-1.2,2.6c-1.4,3-3.8,4.5-7.4,4.5
				c-2.5,0-4.7-0.7-4.9-0.8l-1.4-0.5l-1.4,0.6c-2.1,0.9-4.5,1.3-7.1,1.3c-8.1,0-18.5-4.4-30.1-12.8c-9.2-6.7-15.9-13.4-15.9-13.5
				l0,0l0,0c-0.1-0.1-9.6-9.6-18-19l0,0l0,0l-14.8-15.6L615.6,656 M615.5,650.3l-64.3,69.1l17.3,18.3c8.5,9.5,18.1,19,18.2,19.1
				c0.3,0.3,27,27.5,48.9,27.5c3.1,0,6-0.5,8.6-1.6c0.5,0.2,3.1,1.1,6.3,1.1c3.6,0,8.4-1.2,11-6.8c0.2,0,0.8,0.1,1.5,0.1l0,0
				c1.7,0,5.1-0.3,7.9-2c3.3-2.1,5-5.7,5-10.6c0.7-0.4,4.8-3.1,5.6-7.9c0.7-4.1-1.2-8.6-5.6-13.4c-10.2-11.1-17.5-19.2-18.9-20.8
				c1.5-0.2,6.8-1.4,9.1-5.3c1.4-2.3,1.5-5.1,0.2-8.3c-1.5-4.1-9.1-12.6-18.6-23.2c-6.1-6.8-13-14.6-19.7-22.7L615.5,650.3
				L615.5,650.3z"/>
		</g>
		<path d="M558.6,775.1c-0.5,0-1,0-1.5,0H557l0,0c-0.2-0.1-3.9-3.1-1-14.6c2.8-11.4,12.4-22.9,12.5-23l0.1-0.2l0.2,0.2
			c8.5,9.4,18.1,19,18.2,19.1l0.1,0.1l-0.1,0.1C586.9,757,577.6,775.1,558.6,775.1L558.6,775.1z"/>
		<path class="st1" d="M557.2,775.1L557.2,775.1L557,775c-15.2-14.2-33.2-45.1-46-78.6c-20-52.9-17.6-85-14.4-99.4
			c14.4-64,113.8-125.4,173.2-137.9h0.2l2.9,20.4l-86,126.2c1.1,1.8,15.5,26.2,41,57.2l0.1,0.1v0.1c-0.1,0.2-6.1,21.4-33.5,47.9
			c-15.5,14.9-24.6,25.3-25.7,26.6C568.9,737.6,549.1,760.9,557.2,775.1z"/>
		<g>
			<path d="M654.7,725.3c-0.5,0-1-0.2-1.4-0.6c-3.2-3.2-6.6-6.8-9.3-9.8c-0.7-0.8-0.7-2.1,0.2-2.8c0.8-0.7,2.1-0.7,2.8,0.2
				c2.6,2.9,6,6.5,9.1,9.6c0.8,0.8,0.8,2,0,2.8C655.7,725.1,655.2,725.3,654.7,725.3z"/>
		</g>
		<g>
			<path d="M673.8,765.4c-0.2,0-0.4,0-0.7-0.1c-8.1-2.9-24.1-17.4-47.7-43c-0.7-0.8-0.7-2.1,0.1-2.8c0.8-0.7,2.1-0.7,2.8,0.1
				c28.8,31.4,41,40.1,46.1,42c1,0.4,1.6,1.5,1.2,2.6C675.4,764.9,674.6,765.4,673.8,765.4z"/>
		</g>
		<g>
			<path d="M660.5,776.9c-0.3,0-0.5,0-0.8-0.2c-10-4.2-34.6-27.2-48.1-41.5c-0.8-0.8-0.7-2.1,0.1-2.8s2.1-0.7,2.8,0.1
				c13.4,14.2,37.8,36.8,46.7,40.5c1,0.4,1.5,1.6,1.1,2.6C662,776.4,661.3,776.9,660.5,776.9z"/>
		</g>
		<g>
			<path d="M645.2,782.6c-0.2,0-0.5,0-0.7-0.1c-9.8-3.7-29.6-20.2-44.8-34.3c-0.8-0.8-0.9-2-0.1-2.8c0.8-0.8,2-0.9,2.8-0.1
				c14.3,13.3,34.3,30,43.6,33.5c1,0.4,1.6,1.5,1.2,2.6C646.8,782.1,646,782.6,645.2,782.6z"/>
		</g>
		<g>
			<path d="M556.8,777c-0.5,0-1-0.2-1.4-0.5C540,762.1,521.8,731,509,697.2c-0.4-1,0.1-2.2,1.2-2.6c1-0.4,2.2,0.1,2.6,1.2
				c12.6,33.2,30.4,63.8,45.4,77.7c0.8,0.8,0.9,2,0.1,2.8C557.9,776.8,557.3,777,556.8,777z"/>
		</g>
		<g>
			<path d="M628.1,668c-0.6,0-1.1-0.2-1.5-0.7c-26.6-32.3-50.9-76.5-51.1-76.9c-0.5-1-0.2-2.2,0.8-2.7c1-0.5,2.2-0.2,2.7,0.8
				c0.2,0.4,24.3,44.3,50.7,76.3c0.7,0.9,0.6,2.1-0.3,2.8C629,667.9,628.5,668,628.1,668z"/>
		</g>
		<g>
			<path d="M586.8,607.6c-0.4,0-0.8-0.1-1.1-0.3c-0.9-0.6-1.1-1.9-0.5-2.8l43.7-64.1c0.6-0.9,1.9-1.1,2.8-0.5
				c0.9,0.6,1.1,1.9,0.5,2.8l-43.7,64.1C588.1,607.3,587.4,607.6,586.8,607.6z"/>
		</g>
		<g>
			<path d="M680.1,539c-8.2,0-16.4-1.6-24-4.9c-13.9-6-32.5-20.2-42.5-54.1c-0.3-1.1,0.3-2.2,1.4-2.5c1.1-0.3,2.2,0.3,2.5,1.4
				c9.5,32.4,27.1,45.9,40.2,51.5c16.4,7,35,5.9,52.5-3c1-0.5,2.2-0.1,2.7,0.9c0.5,1,0.1,2.2-0.9,2.7
				C701.6,536.3,690.7,539,680.1,539z"/>
		</g>
		<g>
			<path d="M526.9,733.4c-0.1,0-0.2,0-0.3,0c-1.1-0.1-1.9-1.1-1.7-2.2c1.3-10.4,7.5-21.9,18.4-34.1c4.2-4.7,9.5-9.9,15.1-15.4
				c15.5-15.3,34.7-34.2,40.9-53.7c0.3-1.1,1.5-1.6,2.5-1.3c1.1,0.3,1.6,1.5,1.3,2.5c-6.5,20.3-26.2,39.7-41.9,55.3
				c-5.5,5.4-10.7,10.6-14.9,15.2c-10.4,11.6-16.2,22.3-17.4,31.9C528.8,732.7,527.9,733.4,526.9,733.4z"/>
		</g>
		<g>
			<path d="M678.5,409.8l-30-102.1c-3.5-11.8-15.8-18.5-27.6-15.1c-1.5,0.4-2.9,1-4.3,1.8l-0.5,0.3c-10.8,5.8-14.9,19.3-9,30.1
				c0.7,1.4,1.6,2.6,2.6,3.8L678.5,409.8z"/>
			<g>
				<path class="st0" d="M642.6,477c-11,0-20-9-20-20s9-20,20-20s20,9,20,20C662.5,468.1,653.6,477,642.6,477z"/>
				<path d="M642.6,439.1c9.9,0,18,8.1,18,18s-8.1,18-18,18s-18-8.1-18-18S632.7,439.1,642.6,439.1 M642.6,435.1
					c-12.1,0-22,9.8-22,22c0,12.1,9.8,22,22,22s22-9.8,22-22C664.5,444.9,654.7,435.1,642.6,435.1L642.6,435.1z"/>
			</g>
			<g>
				<path class="st0" d="M683.7,495.4c-11.5,0-21-8.3-26.6-23.4c-16.5-44.4-8.5-60.6,9.7-72.4c0.1-0.1,15-9.2,32.3-9.2
					c8,0,15.3,2,21.8,5.8c13.8,8.3,14.8,36,2.4,64.5C714.1,481.8,698.6,495.4,683.7,495.4L683.7,495.4z"/>
				<path d="M699.1,392.4c7.6,0,14.6,1.9,20.7,5.5c5.9,3.5,9.4,11.4,10,22.3c0.6,11.7-2.4,25.8-8.4,39.7
					c-8.8,20.3-23.7,33.5-37.7,33.5c-10.6,0-19.4-7.8-24.7-22.1c-16-43.1-8.5-58.8,8.9-70C668.5,400.9,682.7,392.4,699.1,392.4
					 M699.1,388.4c-18.1,0-33.3,9.5-33.3,9.5c-20.4,13.2-26.4,31.9-10.5,74.8c6.3,17,17,24.7,28.4,24.7c15.1,0,31.6-13.3,41.4-35.9
					c13-30,11.2-58.3-3.2-67C714.4,390,706.5,388.4,699.1,388.4L699.1,388.4z"/>
			</g>
			<g>
				<path d="M706.1,457.2c-0.8,0-1.5-0.5-1.9-1.3c-0.4-1,0.1-2.2,1.1-2.6c1.1-0.4,2.1-1.3,2.8-2.3c1-1.7,1.4-6.2,1.1-14.9
					c0-1.1,0.8-2,1.9-2.1c1.1,0,2,0.8,2.1,1.9c0.3,9.8-0.1,14.5-1.7,17.1c-1.2,1.8-2.8,3.2-4.7,3.9
					C706.6,457.2,706.3,457.2,706.1,457.2z"/>
			</g>
			<g>
				<path d="M695.8,442.5c-0.1,0-0.1,0-0.2,0c-1.1-0.1-1.9-1.1-1.8-2.2l0.2-2.3c0.1-1.1,1.1-1.9,2.2-1.8c1.1,0.1,1.9,1.1,1.8,2.2
					l-0.2,2.3C697.7,441.7,696.8,442.5,695.8,442.5z"/>
			</g>
			<g>
				<path d="M721.5,439c-0.1,0-0.1,0-0.2,0c-1.1-0.1-1.9-1.1-1.8-2.2l0.2-2.3c0.1-1.1,1.1-1.9,2.2-1.8c1.1,0.1,1.9,1.1,1.8,2.2
					l-0.2,2.3C723.4,438.2,722.5,439,721.5,439z"/>
			</g>
			<g>
				<path d="M697.9,468.2c-2.6-0.1-4.9-1.1-6.6-3c-1.7-1.9-2.6-4.3-2.5-6.8c0.1-1.1,1-1.9,2.1-1.9c1.1,0.1,2,1,1.9,2.1
					c-0.1,1.5,0.4,2.9,1.4,3.9c1,1.1,2.3,1.6,3.7,1.7c0.4,0,0.7,0,1-0.1c1.1-0.2,2.1,0.5,2.4,1.6c0.2,1.1-0.5,2.1-1.6,2.4
					C699,468.2,698.4,468.2,697.9,468.2z"/>
			</g>
			<g>
				<path d="M638.8,461.2c-0.9,0-1.7-0.6-1.9-1.5c-0.3-1.1,0.4-2.2,1.5-2.4l12.5-3.1c1.1-0.3,2.2,0.4,2.4,1.5
					c0.3,1.1-0.4,2.2-1.5,2.4l-12.5,3.1C639.1,461.2,639,461.2,638.8,461.2z"/>
			</g>
			<path d="M721.8,394.5c6.5,3.9,10.4,11.7,11.6,21.9c-13.3,8.9-43.6,1.6-57.6-11.2c0.1,44.6-23.4,59.7-23.4,59.7
				c-12.4-37.5-5.9-54.6,13.2-67C665.7,397.9,696.1,379,721.8,394.5z"/>
		</g>
	</g>
</g>
<g id="man_x27_s_arm">
	<g>
		<path class="st0" d="M483.8,632.3c-21,0-58.5-14.7-79.2-23.6l-9.7-9.3l31.5-85.2l14.3,5.3c45,24.6,56.9,32,58.9,33.9
			c2.5,2.3,3.7,4.5,3.4,6.6c-0.5,3.5-4.8,6.1-5.6,6.5l-3.2,1.8l3.2,1.7c2.1,1.1,12.9,7.1,20.6,12.2c3.5,2.3,5.6,5.9,5.7,9.6
			c0,3-1.3,5.7-3.7,7.4l-1.7,1.3l1.4,1.6c2.3,2.7,3,5.7,1.9,8.6c-1,2.8-3.7,5-6.6,5.5l-1.4,0.2l-0.2,1.4c-1.1,7.5-7.2,9.1-12.1,9.1
			c-1.5,0-2.6-0.2-2.9-0.2l-1.4-0.2l-0.7,1.2C494.6,630.8,490.4,632.3,483.8,632.3z"/>
		<path d="M427.5,516.8l12.3,4.5c47.1,25.8,56.8,32.1,58.4,33.5c1.4,1.3,3,3.1,2.8,4.9c-0.3,2.2-3,4.2-4.6,5.1l-6.4,3.5l6.4,3.5
			c2.1,1.1,12.8,7,20.4,12.1c3,2,4.8,4.9,4.8,7.9c0,2.3-1,4.4-2.9,5.8l-3.4,2.5l2.8,3.3c1.9,2.2,2.4,4.4,1.6,6.6
			c-0.8,2.1-2.9,3.9-5,4.2l-2.9,0.5l-0.4,2.9c-0.3,1.8-1.1,7.4-10.1,7.4c-1.4,0-2.3-0.1-2.6-0.2l-2.8-0.5l-1.4,2.5
			c-1.2,2.2-5,3.4-10.7,3.4c-20.6,0-57.5-14.5-78.1-23.3l-8.5-8.1L427.5,516.8 M425.1,511.7L392.5,600l10.9,10.4
			c20.8,8.9,58.9,23.9,80.4,23.9c7.4,0,12.2-1.9,14.2-5.5c0.4,0.1,1.6,0.2,3.2,0.2l0,0c4.6,0,12.6-1.4,14-10.8
			c3.6-0.6,6.8-3.3,8.1-6.8s0.5-7.3-2.3-10.6c2.9-2.2,4.5-5.5,4.5-9.1c-0.1-4.3-2.5-8.5-6.6-11.2c-7.7-5.2-18.7-11.2-20.7-12.3
			c1.3-0.7,6-3.6,6.6-8c0.4-2.8-1-5.6-4-8.4c-3.1-2.8-23.1-14.3-59.4-34.2L425.1,511.7L425.1,511.7z"/>
	</g>
	<path class="st4" d="M403.4,610.4c-18.5-8-43.2-19.2-51.9-24.7c-1.3-0.8-2.7-1.7-4.1-2.6c-26-16.1-69.6-43-69.6-87.5
		c0-20.8,11.1-45.2,32-70.5c19.9-24,47.3-46.9,77.2-64.5l0.2-0.1l0.1,0.3c15.7,59-9.8,117.8-11.4,121.4c2.6,1.4,34.8,18.6,65.7,35.5
		l0.2,0.1l-38,92.7L403.4,610.4z"/>
	<g>
		<path d="M375.5,484.3c-0.3,0-0.6-0.1-0.9-0.2l-24.6-12c-1-0.5-1.4-1.7-0.9-2.7c0.5-1,1.7-1.4,2.7-0.9l24.6,12
			c1,0.5,1.4,1.7,0.9,2.7C377,483.9,376.2,484.3,375.5,484.3z"/>
	</g>
	<g>
		<path d="M494.7,570.5c-0.3,0-0.6-0.1-0.9-0.2l-15.1-7.8c-1-0.5-1.4-1.7-0.9-2.7c0.5-1,1.7-1.4,2.7-0.9l15.1,7.8
			c1,0.5,1.4,1.7,0.9,2.7C496.1,570.1,495.4,570.5,494.7,570.5z"/>
	</g>
	<g>
		<path d="M518,602.8c-0.2,0-0.4,0-0.6-0.1c-15.3-4.8-63.3-28.7-65.3-29.7c-1-0.5-1.4-1.7-0.9-2.7c0.5-1,1.7-1.4,2.7-0.9
			c0.5,0.2,49.7,24.8,64.7,29.5c1.1,0.3,1.6,1.5,1.3,2.5C519.6,602.3,518.9,602.8,518,602.8z"/>
	</g>
	<g>
		<path d="M513.2,619.1c-0.2,0-0.3,0-0.5-0.1c-0.3-0.1-29.4-8-68.3-27.8c-1-0.5-1.4-1.7-0.9-2.7c0.5-1,1.7-1.4,2.7-0.9
			c38.5,19.7,67.2,27.5,67.5,27.5c1.1,0.3,1.7,1.4,1.4,2.5C514.9,618.5,514.1,619.1,513.2,619.1z"/>
	</g>
	<g>
		<path d="M496.9,628.7c-0.2,0-0.4,0-0.6-0.1c-20.1-6-39.8-13.9-58.5-23.5c-1-0.5-1.4-1.7-0.9-2.7c0.5-1,1.7-1.4,2.7-0.9
			c18.5,9.5,38,17.3,57.9,23.3c1.1,0.3,1.7,1.4,1.3,2.5C498.6,628.1,497.8,628.7,496.9,628.7z"/>
	</g>
	<g>
		<path d="M363.2,593.8c-0.3,0-0.5-0.1-0.8-0.2c-1-0.4-1.5-1.6-1.1-2.6l40.3-94.8c0.4-1,1.6-1.5,2.6-1.1c1,0.4,1.5,1.6,1.1,2.6
			L365,592.6C364.7,593.3,364,593.8,363.2,593.8z"/>
	</g>
	<g>
		<path d="M435.9,531.2c-0.3,0-0.6-0.1-0.9-0.2l-37.3-20.1c-1-0.5-1.3-1.7-0.8-2.7c0.5-1,1.7-1.3,2.7-0.8l37.3,20.1
			c1,0.5,1.3,1.7,0.8,2.7C437.3,530.8,436.6,531.2,435.9,531.2z"/>
	</g>
	<g>
		<path d="M408,600c-0.3,0-0.6-0.1-0.9-0.2l-38.3-19.1c-1-0.5-1.4-1.7-0.9-2.7c0.5-1,1.7-1.4,2.7-0.9l38.3,19.1
			c1,0.5,1.4,1.7,0.9,2.7C409.4,599.6,408.7,600,408,600z"/>
	</g>
	<g>
		<path d="M426.5,553.7c-0.3,0-0.6-0.1-0.9-0.2l-37.3-20.1c-1-0.5-1.3-1.7-0.8-2.7s1.7-1.3,2.7-0.8l37.3,20.1c1,0.5,1.3,1.7,0.8,2.7
			C427.9,553.3,427.2,553.7,426.5,553.7z"/>
	</g>
	<g>
		<path d="M416.5,579c-0.3,0-0.6-0.1-0.9-0.2l-37.3-20c-1-0.5-1.3-1.7-0.8-2.7c0.5-1,1.7-1.3,2.7-0.8l37.3,20c1,0.5,1.3,1.7,0.8,2.7
			C417.9,578.6,417.2,579,416.5,579z"/>
	</g>
	<g>
		<path d="M403.5,612.2c-0.3,0-0.5,0-0.8-0.2c-1-0.4-1.5-1.6-1.1-2.6l37.9-92.3c0.4-1,1.6-1.5,2.6-1.1s1.5,1.6,1.1,2.6L405.4,611
			C405,611.7,404.3,612.2,403.5,612.2z"/>
	</g>
</g>
</svg>
