<?xml version="1.0" encoding="utf-8"?>
<!-- Generator: Adobe Illustrator 25.1.0, SVG Export Plug-In . SVG Version: 6.00 Build 0)  -->
<svg version="1.1" id="Layer_2_1_" xmlns="http://www.w3.org/2000/svg" xmlns:xlink="http://www.w3.org/1999/xlink" x="0px" y="0px"
	 viewBox="0 0 1600 1200" style="enable-background:new 0 0 1600 1200;" xml:space="preserve">
<style type="text/css">
	.st0{fill:#98D8F4;}
	.st1{fill:#6C79D9;}
	.st2{fill:#FFFFFF;}
	.st3{fill:#F9494B;}
	.st4{fill:#F696BB;}
</style>
<g id="fiance">
	<path d="M695.9,706.7c-1.1,0-2.2-0.1-3.2-0.2h-0.1l-0.1-0.1c0,0-4.5-4.9-3.3-14.3c1.3-9.4,7.5-18.3,7.6-18.4l0.1-0.2l0.2,0.1
		c7.7,5.2,27.7,14.3,27.9,14.4l0.2,0.1l-0.1,0.2C725,688.5,713,706.7,695.9,706.7L695.9,706.7z"/>
	<path d="M622.3,943.1c-2.1-15-3.5-30.3-4-45.5v-0.1l0.1-0.1c0.1-0.1,13.7-8.7,27.7-9.7c1.2-0.1,2.4-0.1,3.4-0.1
		c9.4,0,12.4,4.7,12.5,4.8c0.1,0.4,5.6,28.8-39.5,50.8l-0.2,0.1V943.1z"/>
	<path d="M241.4,937.1c-0.3-0.4-33.3-43.8-25.3-70.9v-0.1h0.1c0.1-0.1,3.7-2.3,10.3-2.3c2.9,0,5.9,0.4,9,1.3
		c18,5,32.3,18.1,32.4,18.2l0.1,0.1l-0.1,0.1c-14,32-26.2,53.4-26.3,53.6l-0.1,0.3L241.4,937.1z"/>
	<path class="st0" d="M153.6,1035.2v-0.2c0-0.1,0.5-5.2,4.9-12.7c4-6.9,12.2-17.4,28.4-27.9c30.3-19.5,41.7-36.2,54.5-57.5
		c0.1-0.2,12.3-21.6,26.3-53.5l0.1-0.2l102,88.2l-26,63.8H153.6z"/>
	<path class="st0" d="M500.1,1035.2L500.1,1035.2c-0.1-0.3-7.6-22-11.6-65.1l0.5-16l129.7-75v18.5c0.5,15.1,1.9,30.4,4,45.4
		c0,0.2,2.1,22.4,12.1,37.3c5.6,8.4,12.3,14.6,18.1,20.1c10.3,9.6,19.3,17.9,19.3,34.6v0.2H500.1z"/>
	<path class="st1" d="M369.4,971.6c-0.2,0-17.1-3.3-41.1-21.3c-11.2-8.4-23.6-23.9-34.5-37.6c-2.8-3.5-5.4-6.8-8-10
		c-5.5-6.7-11.6-13.1-18-19c0,0-27.3-26.7-51.8-17.6c3.8-13,159.1-186.7,165.7-194.1l138.6-76.9l79.3,76.9v0.1
		c36.5,128.4,57.4,202.5,62.2,220.3c0.1,0.3-11.2-11.7-43.8,5.4c-9.4,5.3-18.5,11.4-27,18l-1.8,1.4c-17.9,14.1-33.4,26.3-59.8,39
		c-13,6.2-26.8,10.8-40.9,13.8h-0.2v-0.2c-3.2-34.4-3.4-72.7-0.5-113.9c6.6-95.2-1.9-160.4-2.9-168L369.6,971.7L369.4,971.6z"/>
	<g>
		<path d="M342.4,961.2c-0.3,0-0.6-0.1-0.9-0.2c-1-0.5-1.4-1.7-1-2.7L495.4,630c0.5-1,1.7-1.4,2.7-1c1,0.5,1.4,1.7,1,2.7
			L344.2,960.1C343.9,960.8,343.1,961.2,342.4,961.2z"/>
	</g>
	<g>
		<path d="M297.4,918.2c-0.3,0-0.7-0.1-1-0.3c-1-0.5-1.3-1.8-0.8-2.7L449,639c0.5-1,1.8-1.3,2.7-0.8c1,0.5,1.3,1.8,0.8,2.7
			L299.1,917.2C298.8,917.8,298.1,918.2,297.4,918.2z"/>
	</g>
	<g>
		<path d="M250.7,873.2c-0.4,0-0.8-0.1-1.2-0.4c-0.9-0.7-1.1-1.9-0.4-2.8l173.7-229.2c0.7-0.9,1.9-1.1,2.8-0.4
			c0.9,0.7,1.1,1.9,0.4,2.8L252.3,872.4C251.9,872.9,251.3,873.2,250.7,873.2z"/>
	</g>
	<g>
		<path d="M631.5,894.5c-0.9,0-1.7-0.6-2-1.6L577,652.5c-0.2-1.1,0.4-2.1,1.5-2.4c1.1-0.2,2.1,0.4,2.4,1.5l52.5,240.4
			c0.2,1.1-0.4,2.1-1.5,2.4C631.8,894.5,631.6,894.5,631.5,894.5z"/>
	</g>
	<g>
		<path d="M580,925.9c-1,0-1.9-0.8-2-1.8l-29.3-293c-0.1-1.1,0.7-2.1,1.8-2.2c1.1-0.1,2.1,0.7,2.2,1.8l29.3,293
			c0.1,1.1-0.7,2.1-1.8,2.2C580.1,925.9,580.1,925.9,580,925.9z"/>
	</g>
	<g>
		<path d="M529.5,958.2c-1.1,0-2-0.9-2-1.9L516.6,611c0-1.1,0.8-2,1.9-2.1c1.1-0.1,2,0.8,2.1,1.9l10.9,345.3
			C531.5,957.2,530.7,958.2,529.5,958.2C529.5,958.2,529.5,958.2,529.5,958.2z"/>
	</g>
	<g>
		<path class="st2" d="M791.6,707.8c-15.5,0-40.8-10.2-65.9-21.3c-0.2-0.1-20.1-9.1-27.7-14.2l-0.1-0.1l-47.2-26l34.4-66.8
			l60.7,26.3c10.6,5.7,38.7,21,42.5,24.1c2.6,2.2,3.8,4.3,3.6,6.1c-0.4,2.9-4.1,5-4.8,5.4l-3.7,2l3.8,1.7c1.9,0.8,9,3.9,23.6,10.4
			c5.2,2.3,8.1,5,8.6,8c0.6,3.4-2.2,6.4-2.7,7l-1.3,1.3l1.2,1.4c2,2.4,2.9,4.8,2.6,7.1c-0.5,3.8-4.1,6.6-4.5,6.9l-0.9,0.6v1.1
			c0.1,3.6-0.7,6.3-2.5,8.1c-2.2,2.3-5.2,2.4-5.8,2.4h-1.6l-0.3,1.6C803.3,702.6,802.2,707.8,791.6,707.8z"/>
		<path d="M686.1,582l58.9,25.5c14.6,7.8,38.8,21.2,42.1,23.9c2,1.7,3,3.2,2.9,4.3c-0.2,1.4-2.1,3-3.8,3.9l-7.4,3.9l7.7,3.3
			c1.9,0.8,9,3.9,23.6,10.4c4.4,2,7.1,4.3,7.4,6.5c0.4,2.5-2.1,5.1-2.2,5.2l-2.5,2.6l2.3,2.8c1.7,2,2.4,3.8,2.1,5.5
			c-0.4,3.1-3.6,5.4-3.7,5.5l-1.7,1.2l0.1,2.1c0.1,3-0.6,5.3-1.9,6.7c-1.7,1.7-4.1,1.8-4.4,1.8h-3.2l-0.6,3.2
			c-0.3,1.5-1.1,5.3-10.1,5.3c-15.1,0-40.2-10.1-65-21.1c-0.2-0.1-20-9.1-27.4-14.1l-0.2-0.1l-0.2-0.1l-45.4-25L686.1,582
			 M684.2,576.9L648,647.1l48.9,26.9c7.8,5.3,27.8,14.3,28,14.4c25.3,11.1,50.8,21.4,66.7,21.4c8.2,0,12.9-2.9,14-8.6
			c0.9,0,4.5-0.2,7.2-3c2.1-2.2,3.1-5.4,3-9.6c0.7-0.5,4.7-3.6,5.3-8.2c0.4-2.9-0.6-5.8-3-8.7c0.7-0.7,4-4.4,3.3-8.7
			c-0.6-3.7-3.9-6.9-9.7-9.5c-14.8-6.6-22-9.7-23.6-10.4c1.3-0.7,5.4-3.1,5.9-6.9c0.3-2.6-1.1-5.3-4.3-7.9
			c-4.7-3.9-41.3-23.6-42.9-24.4L684.2,576.9L684.2,576.9z"/>
	</g>
	<path class="st0" d="M692.7,706.5c-16.2-2.2-139-84.5-185.6-145.4c-25.7-33.6-24.1-73.9-18.2-101.7v-0.1l54.3-3.6l0.1,0.1
		c30.2,27.1,74.5,65.1,114.2,92.1c31.4,21.3,60.6,39.7,89.3,56.2l0.1,0.1v0.1c-0.4,4.6-7.6,26.3-25.8,43.1
		c-15.3,14-22.7,25-23.7,26.5C684.3,695.9,692.7,706.5,692.7,706.5z"/>
	<g>
		<path d="M783.2,645.7c-0.3,0-0.5-0.1-0.8-0.2l-25.2-10.9c-1-0.4-1.5-1.6-1-2.6c0.4-1,1.6-1.5,2.6-1l25.2,10.9c1,0.4,1.5,1.6,1,2.6
			C784.7,645.2,784,645.7,783.2,645.7z"/>
	</g>
	<g>
		<path d="M815.6,674.5c-0.2,0-0.5,0-0.7-0.1c-0.3-0.1-27.8-10.3-48.7-20.4c-1-0.5-1.4-1.7-0.9-2.7c0.5-1,1.7-1.4,2.7-0.9
			c20.7,10,48,20.1,48.3,20.2c1,0.4,1.6,1.5,1.2,2.6C817.2,674,816.4,674.5,815.6,674.5z"/>
	</g>
	<g>
		<path d="M813.5,690.2c-0.3,0-0.5-0.1-0.8-0.2c-0.3-0.1-33.6-14.1-52.5-22.9c-1-0.5-1.4-1.7-1-2.7c0.5-1,1.7-1.4,2.7-1
			c18.8,8.8,52,22.7,52.3,22.9c1,0.4,1.5,1.6,1.1,2.6C815,689.7,814.3,690.2,813.5,690.2z"/>
	</g>
	<g>
		<path d="M803.6,700.7c-0.2,0-0.4,0-0.6-0.1c-0.3-0.1-33.2-10.9-51-19.7c-1-0.5-1.4-1.7-0.9-2.7c0.5-1,1.7-1.4,2.7-0.9
			c17.5,8.6,50.1,19.4,50.4,19.5c1,0.3,1.6,1.5,1.3,2.5C805.2,700.2,804.4,700.7,803.6,700.7z"/>
	</g>
	<g>
		<path d="M749.8,687.1c-0.3,0-0.6-0.1-0.9-0.2c-1-0.5-1.4-1.7-0.8-2.7l19.5-37.4c0.5-1,1.7-1.4,2.7-0.8c1,0.5,1.4,1.7,0.8,2.7
			L751.6,686C751.2,686.7,750.5,687.1,749.8,687.1z"/>
	</g>
	<path class="st0" d="M525.4,625l-143.8,47.6l91.2-208l65.5-8.5v0.2c0,0,27.4,96.2,56.5,198.7l5,17.7L525.4,625z"/>
	<polygon points="520.4,589.4 544.7,566.5 527,490.5 513.7,490.5 496.1,566.5 	"/>
	<polygon points="509,477.3 513.7,490.5 527,490.5 531.7,477.3 	"/>
	<path class="st0" d="M525.4,625l-143.8,47.6L462,489.4l58.4,57.3l30-48.5l0.1,0.4c10.7,37.6,27.3,95.9,44.5,156.4l5,17.7L525.4,625
		z"/>
	<g>
		<path d="M381.9,674.4c-0.8,0-1.6-0.5-1.9-1.4c-0.3-1,0.2-2.2,1.3-2.5L524.8,623c0.6-0.2,1.2-0.1,1.7,0.2l74.2,47.5
			c0.9,0.6,1.2,1.8,0.6,2.8c-0.6,0.9-1.8,1.2-2.8,0.6l-73.4-47l-142.6,47.2C382.3,674.4,382.1,674.4,381.9,674.4z"/>
	</g>
	<g>
		<path d="M590.4,641.7c-0.9,0-1.7-0.6-1.9-1.5L565,557.7c-0.3-1.1,0.3-2.2,1.4-2.5c1.1-0.3,2.2,0.3,2.5,1.4l23.5,82.5
			c0.3,1.1-0.3,2.2-1.4,2.5C590.8,641.7,590.6,641.7,590.4,641.7z"/>
	</g>
	<g>
		<path class="st2" d="M508.9,768c-14.3,0-38.1-9-72.8-27.4c-0.2-0.1-20.7-10.7-31-16.9l-33.3-18l33.9-79.7l62.3,31.6
			c7.5,5.2,14.4,9.7,20.5,13.7l0.1,0.1c13.4,8.8,24,15.7,24.9,19.3c0.6,2.3,0.7,6.3-4.6,8.2l-4.5,1.6l29,14.4
			c4.9,2.4,10.5,6.4,9.3,11.7c-0.6,2.6-2.6,4.7-3.1,5.1l-1.4,1.2l1.1,1.5c2.1,3,2.9,5.7,2.2,8c-1,3.6-5.2,5.7-5.6,5.9l-1.4,0.6
			l0.2,1.5c0.5,2.8,0,5.1-1.4,6.7c-2.8,3.4-8.6,3.6-9.3,3.7h-1.2l-0.5,1.1C520.1,766,515.7,768,508.9,768z"/>
		<path d="M406.7,628.8l60.3,30.6c7.4,5.1,14.4,9.7,20.5,13.7l0.1,0.1c7.1,4.7,13.3,8.7,17.6,12c5.6,4.2,6.3,5.8,6.4,6.1
			c1.1,4.3-2.3,5.5-3.4,5.8l-8.9,3.2l8.5,4.2l24.8,12.3c4.3,2.1,9.1,5.5,8.2,9.5c-0.4,1.9-1.9,3.6-2.4,4l-2.9,2.4l2.2,3
			c1.8,2.4,2.4,4.6,1.9,6.3c-0.6,2.2-3.2,4-4.6,4.6l-2.7,1.3l0.5,3c0.4,2.2,0,3.9-1,5.1c-1.8,2.2-5.9,2.9-7.8,3l-2.4,0.1l-1.1,2.1
			c-2.6,5.1-9.3,5.1-11.5,5.1c-14,0-37.5-8.9-71.9-27.2c-0.2-0.1-20.6-10.7-30.9-16.8h-0.1H406l-31.6-17.1L406.7,628.8 M404.7,623.2
			l-35.5,83.4l34.8,18.8c10.4,6.2,30.9,16.8,31.1,16.9c35,18.6,59.1,27.7,73.8,27.7l0,0c7.5,0,12.6-2.5,15.1-7.3
			c1,0,7.4-0.4,10.8-4.4c1.8-2.1,2.4-4.9,1.9-8.3c0.9-0.4,5.5-2.8,6.7-7.2c0.8-3,0-6.2-2.6-9.7c0.8-0.7,3.1-3.1,3.8-6.2
			c0.8-3.6-0.3-9-10.3-13.9l-24.8-12.3c1.8-0.6,7.8-3.3,5.9-10.6c-1.1-4.3-10.9-10.7-25.7-20.4c-6.2-4.1-13.2-8.6-20.7-13.8
			L404.7,623.2L404.7,623.2z"/>
	</g>
	<path d="M403,760.9c-2.1,0-4.1-0.3-6-0.8h-0.1V760c-0.3-0.4-6.2-9.8,7.2-34.9l0.1-0.2l31.5,17.1l-0.1,0.2
		C435.3,742.5,420.3,760.9,403,760.9L403,760.9z"/>
	<path class="st0" d="M396.9,760.1c-25.3-16.2-48.4-38.5-65.2-62.9c-17.5-25.5-26.7-51.5-25.8-73.3c0.7-17.8,7.7-45.6,36.8-77
		c29.2-31.5,74.4-60.2,134.4-85.3h0.1l10.4,7.2l-78.4,146.3c19.4,14.7,42.9,30.7,59.8,40.8l0.2,0.1l-0.1,0.2
		c-0.1,0.1-7.9,13.1-25.1,27.2c-2.4,2-4.7,3.8-6.8,5.5c-12.8,10.2-22.1,17.6-32.7,36.4C391.1,749.7,396.9,760.1,396.9,760.1z"/>
	<g>
		<path d="M501.8,701.4c-0.3,0-0.6-0.1-0.9-0.2l-18.1-9.1c-1-0.5-1.4-1.7-0.9-2.7c0.5-1,1.7-1.4,2.7-0.9l18.1,9.1
			c1,0.5,1.4,1.7,0.9,2.7C503.2,701,502.5,701.4,501.8,701.4z"/>
	</g>
	<g>
		<path d="M537.4,735.1c-0.2,0-0.4,0-0.6-0.1c-18-5.4-39.6-15.4-50.8-20.9c-1-0.5-1.4-1.7-0.9-2.7c0.5-1,1.7-1.4,2.7-0.9
			c11.1,5.4,32.4,15.4,50.2,20.7c1.1,0.3,1.7,1.4,1.3,2.5C539.1,734.5,538.3,735.1,537.4,735.1z"/>
	</g>
	<g>
		<path d="M534.3,750.9c-0.2,0-0.4,0-0.6-0.1c-0.3-0.1-30.8-9.3-55.2-20.6c-1-0.5-1.4-1.7-1-2.7c0.5-1,1.7-1.4,2.7-1
			c24.1,11.2,54.3,20.3,54.6,20.4c1.1,0.3,1.7,1.4,1.3,2.5C536,750.3,535.2,750.9,534.3,750.9z"/>
	</g>
	<g>
		<path d="M521.8,762.5c-0.1,0-0.2,0-0.4,0c-0.8-0.1-20-3.8-49.1-18c-1-0.5-1.4-1.7-0.9-2.7c0.5-1,1.7-1.4,2.7-0.9
			c28.6,13.9,47.9,17.6,48.1,17.6c1.1,0.2,1.8,1.2,1.6,2.3C523.6,761.8,522.7,762.5,521.8,762.5z"/>
	</g>
	<g>
		<path d="M408.9,617.1c-0.3,0-0.6-0.1-0.9-0.2c-1-0.5-1.3-1.7-0.8-2.7l31.1-57.9c0.5-1,1.7-1.3,2.7-0.8c1,0.5,1.3,1.7,0.8,2.7
			L410.7,616C410.3,616.7,409.6,617.1,408.9,617.1z"/>
	</g>
	<g>
		<path d="M469.9,661.1c-0.4,0-0.8-0.1-1.2-0.4l-80.8-57.5c-0.9-0.6-1.1-1.9-0.5-2.8c0.6-0.9,1.9-1.1,2.8-0.5l80.8,57.5
			c0.9,0.6,1.1,1.9,0.5,2.8C471.1,660.8,470.5,661.1,469.9,661.1z"/>
	</g>
	<g>
		<path d="M525.5,626.8c-1,0-1.9-0.8-2-1.9l-5.1-78.2c-0.1-1.1,0.8-2.1,1.9-2.1c1.1-0.1,2.1,0.8,2.1,1.9l5.1,78.2
			c0.1,1.1-0.8,2.1-1.9,2.1C525.6,626.8,525.5,626.8,525.5,626.8z"/>
	</g>
	<g>
		<path d="M520.8,549.8l-75-73c-0.8-0.8-0.8-2,0-2.8c0.8-0.8,2-0.8,2.8,0l71.4,69.6l43.2-69.2c0.6-0.9,1.8-1.2,2.8-0.6
			s1.2,1.8,0.6,2.8L520.8,549.8z"/>
	</g>
	<circle cx="497.2" cy="568.2" r="8.1"/>
	<circle cx="497.2" cy="600.5" r="8.1"/>
	<g>
		<path class="st2" d="M476.5,473.1c-12.1,0-22-9.9-22-22s9.9-22,22-22s22,9.9,22,22S488.7,473.1,476.5,473.1z"/>
		<path d="M476.5,431c11,0,20,9,20,20s-9,20-20,20s-20-9-20-20S465.5,431,476.5,431 M476.5,427c-13.3,0-24,10.8-24,24s10.8,24,24,24
			s24-10.8,24-24S489.8,427,476.5,427L476.5,427z"/>
	</g>
	<g>
		<path d="M472.8,456c-0.8,0-1.5-0.5-1.9-1.2c-0.4-1,0.1-2.2,1.1-2.6l15.8-6.5c1-0.4,2.2,0.1,2.6,1.1c0.4,1-0.1,2.2-1.1,2.6
			l-15.8,6.5C473.3,456,473.1,456,472.8,456z"/>
	</g>
	<g>
		<path class="st2" d="M519.8,478c-12,0-22.2-8.6-28.8-24.1c-19.9-47.2-12-65.1,7.1-78.7c0.1-0.1,17-11.5,36.7-11.5
			c7.8,0,15,1.8,21.5,5.3c15.3,8.3,17.7,38.2,5.7,69.6C553,462.2,536,478,519.8,478L519.8,478z"/>
		<path d="M534.8,365.8c7.5,0,14.4,1.7,20.6,5.1c6.6,3.6,10.8,12,12,23.8c1.2,12.7-1.3,28-7.2,43.3c-8.7,22.8-25,38.1-40.4,38.1
			c-11.1,0-20.7-8.1-26.9-22.9c-19.3-45.9-11.9-63.2,6.4-76.2C500,376.4,516.1,365.8,534.8,365.8 M534.8,361.8
			c-20.5,0-37.8,11.8-37.8,11.8c-21.4,15.2-27,35.6-7.8,81.1c7.4,17.5,18.7,25.3,30.6,25.3c16.6,0,34.4-15.2,44.1-40.6
			c12.6-32.9,9.4-63.4-6.6-72.1C549.8,363.3,542.1,361.8,534.8,361.8L534.8,361.8z"/>
	</g>
	<path d="M497,373.6c-18.6,13.2-25.2,30.3-14.1,64.4c33.1-13.2,31.9-58.9,31.9-58.9c27.6,21.4,56.9,20.1,56.9,20.1
		c-0.4-15.2-5.4-26.9-14.3-31.8C528.8,351.9,497,373.6,497,373.6z"/>
	<g>
		<path d="M543.1,435.4c-0.8,0-1.5-0.4-1.8-1.2c-0.4-1,0-2.2,1-2.6c1.2-0.5,2.3-1.5,3-2.7c1.1-1.9,1.3-6.7,0.5-16.1
			c-0.1-1.1,0.7-2.1,1.8-2.2c1.1-0.1,2.1,0.7,2.2,1.8c0.9,10.8,0.6,15.6-1.1,18.5c-1.1,1.9-2.9,3.5-4.8,4.3
			C543.6,435.3,543.4,435.4,543.1,435.4z"/>
	</g>
	<g>
		<path d="M531.4,420.1C531.4,420.1,531.3,420.1,531.4,420.1c-1.2,0-2-1-2-2.1l0.1-2.5c0-1.1,1-2,2.1-1.9c1.1,0,2,1,1.9,2.1
			l-0.1,2.5C533.4,419.3,532.5,420.1,531.4,420.1z"/>
	</g>
	<g>
		<path d="M558.9,415.1C558.9,415.1,558.8,415.1,558.9,415.1c-1.2,0-2-1-2-2.1l0.1-2.4c0-1.1,1-2,2.1-1.9c1.1,0,2,1,1.9,2.1
			l-0.1,2.4C560.9,414.3,560,415.1,558.9,415.1z"/>
	</g>
	<g>
		<path d="M534.9,447.7c-5.6,0-10.1-4.5-10.1-10c0-1.1,0.9-2,2-2s2,0.9,2,2c0,3.3,2.7,6,6.1,6c0.2,0,0.4,0,0.6,0
			c0.3,0,0.6-0.1,0.9-0.1c1.1,0,2,0.9,2,2s-0.9,2-2,2c-0.2,0-0.4,0-0.6,0C535.5,447.7,535.2,447.7,534.9,447.7z"/>
	</g>
	<g>
		<path d="M630.9,977.1c-0.7,0-1.4-0.4-1.8-1c-0.4-0.8-0.3-1.8,0.4-2.5l87.6-76.5c1.6-1.5,3.4-2.6,4.9-3.4
			c6.4-3.5,13.7-4.2,20.7-2.1c7,2.1,12.7,6.7,16.1,13.1l1,1.9c1,1.9,1.7,3.7,2.3,5.6c2,7,1.1,14.3-2.4,20.6
			c-3.5,6.3-9.3,10.9-16.3,12.8l-112,31.4C631.3,977.1,631.1,977.1,630.9,977.1z M735,894.4c-3.8,0-7.5,0.9-10.9,2.8
			c-1.3,0.7-2.9,1.7-4.2,2.9l-81,70.7l103.5-29c6-1.7,10.9-5.6,13.9-11c3-5.4,3.8-11.6,2.1-17.6c-0.4-1.6-1.1-3.2-1.9-4.8l-1-1.9
			c-2.9-5.4-7.8-9.4-13.8-11.2C739.5,894.7,737.2,894.4,735,894.4z"/>
	</g>
	<g>
		<path d="M724.1,1014.4c-0.8,0-1.6-0.5-1.9-1.4c-7-20.4-24.3-32.7-51.4-36.4c-19.7-2.7-37.7,0.4-39.3,0.7l-25.6,8.1
			c-1.1,0.3-2.2-0.3-2.5-1.3s0.3-2.2,1.3-2.5l25.7-8.1c0.1,0,0.2,0,0.2-0.1c0.8-0.1,19.4-3.6,40.6-0.7c28.4,3.8,47.3,17.3,54.8,39
			c0.4,1-0.2,2.2-1.2,2.5C724.5,1014.4,724.3,1014.4,724.1,1014.4z"/>
	</g>
	<g>
		<path d="M218.1,968.5c-0.3,0-0.7-0.1-1-0.3l-91.7-51.9c-7.5-4.2-12.9-11.1-15.2-19.4s-1.2-17,3-24.4c1.4-2.5,3.3-5,5.8-7.4l2-1.9
			c6.2-5.9,14.3-9.1,22.9-8.9c8.6,0.2,16.6,3.7,22.5,9.9c2.1,2.2,3.9,4.7,5.4,7.5l48,93.8c0.4,0.8,0.2,1.7-0.4,2.4
			C219.1,968.3,218.6,968.5,218.1,968.5z M143.2,858.3c-7,0-14,2.6-19.5,7.8l-2,1.9c-2.1,2-3.8,4.2-5,6.4
			c-3.7,6.6-4.7,14.2-2.6,21.4c2,7.2,6.7,13.3,13.3,17l85.9,48.6l-45-87.9c-1.3-2.5-2.9-4.7-4.8-6.6
			C158,861.2,150.7,858.3,143.2,858.3z"/>
	</g>
	<g>
		<path d="M213.3,1010.7c-0.6,0-1.1-0.2-1.5-0.7l-18.5-21.1c-0.7-0.8-0.6-2.1,0.2-2.8c0.8-0.7,2.1-0.6,2.8,0.2l18.5,21.1
			c0.7,0.8,0.6,2.1-0.2,2.8C214.2,1010.5,213.8,1010.7,213.3,1010.7z"/>
	</g>
	<g>
		<path d="M625.5,1012.8c-0.5,0-1.1-0.2-1.5-0.7c-0.7-0.8-0.7-2.1,0.1-2.8l19.7-17.9c0.8-0.7,2.1-0.7,2.8,0.1
			c0.7,0.8,0.7,2.1-0.1,2.8l-19.7,17.9C626.5,1012.6,626,1012.8,625.5,1012.8z"/>
	</g>
	<g>
		<path d="M240.5,986.5c-0.4,0-0.9-0.1-1.2-0.4l-21.5-16.8c-17,5.2-32.3,2.5-45.9,0c-17.3-3.1-32.3-5.8-47.3,7.6
			c-0.8,0.7-2.1,0.7-2.8-0.2c-0.7-0.8-0.7-2.1,0.2-2.8c16.5-14.7,33.1-11.7,50.7-8.6c14,2.5,28.4,5.1,45-0.2
			c0.6-0.2,1.3-0.1,1.9,0.3l22.3,17.5c0.9,0.7,1,1.9,0.3,2.8C241.7,986.2,241.1,986.5,240.5,986.5z"/>
	</g>
	<g>
		<path d="M287.7,1037c-0.2,0-0.5,0-0.7-0.1c-1-0.4-1.6-1.5-1.2-2.6c9.2-25.9,39.9-49.1,75.2-43.3c1.1,0.2,1.8,1.2,1.6,2.3
			s-1.2,1.8-2.3,1.6c-33.2-5.5-62.1,16.4-70.8,40.7C289.3,1036.5,288.5,1037,287.7,1037z"/>
	</g>
	<g>
		<path d="M560.8,1037c-0.9,0-1.7-0.6-2-1.6c-4.1-18.4-15.9-28.8-25.2-34.4c-13.2-8-29.7-10.9-42.1-7.5c-1.1,0.3-2.2-0.3-2.5-1.4
			c-0.3-1.1,0.3-2.2,1.4-2.5c13.3-3.7,31.1-0.5,45.2,8c9.9,5.9,22.6,17.2,27,36.9c0.2,1.1-0.4,2.1-1.5,2.4
			C561.1,1037,560.9,1037,560.8,1037z"/>
	</g>
</g>
<g id="bride">
	<path d="M1358.3,937.1c-0.1-0.2-12.3-21.6-26.3-53.6v-0.1l0.1-0.1c0.2-0.2,16-19.1,32-22.3c2.3-0.5,4.4-0.7,6.4-0.7
		c10.1,0,13.4,5.8,13.4,5.8c8,27.1-24.9,70.5-25.3,70.9l-0.2,0.2L1358.3,937.1z"/>
	<path d="M977.5,943.2c-45.1-22-39.6-50.5-39.5-50.7s2.5-4.6,11.8-4.6c1.1,0,2.2,0,3.4,0.1c14,1,28.3,9.3,28.4,9.4l0.1,0.1v0.1
		c-0.5,15.2-1.9,30.5-4,45.5v0.3L977.5,943.2z"/>
	<path class="st3" d="M927.8,1035.2v-0.2c0-16.7,8.9-25,19.3-34.6c5.9-5.4,12.5-11.6,18.2-20.1c10-14.9,12.1-37.1,12.1-37.3
		c2.1-15,3.5-30.3,4-45.5V879l129.7,75l0.5,16c-0.7,7.5-1.5,14.8-2.5,21.8v0.2h-0.2c-2.4-0.2-4.7-0.2-7-0.2
		c-34.4,0-67.3,16.2-88.2,43.4l-0.1,0.1h-85.8V1035.2z"/>
	<path d="M1043.6,1035.2l-5.1-24.2l0.1-0.1c18.6-12.8,40.4-19.6,63.1-19.6h0.2c2.3,0,4.6,0.1,7,0.2h0.2v0.2c-4,28.7-9,43.1-9.1,43.3
		v0.1L1043.6,1035.2L1043.6,1035.2z"/>
	<path class="st3" d="M1347.8,1035.2L1347.8,1035.2c-21-27.2-54-43.4-88.4-43.4c-6.7,0-13.4,0.6-20,1.8h-0.2l-14.9-36.4l29.4-82.1
		l78.5,8.1v0.1c14,32,26.1,53.3,26.3,53.5c12.8,21.4,24.2,38,54.5,57.5c16.2,10.5,24.4,20.9,28.4,27.9c4.4,7.5,4.9,12.7,4.9,12.7
		v0.2h-98.5V1035.2z"/>
	<path d="M1256.3,1035.2l-17.2-42h0.2c6.6-1.2,13.4-1.8,20.1-1.8h0.2c19.4,0,38.6,5.1,55.4,14.8l0.1,0.1l-2.5,29L1256.3,1035.2
		L1256.3,1035.2z"/>
	<g>
		<path class="st2" d="M809.9,707.3c-10.2,0-12.6-3.8-13.5-6.7l-0.4-1.4h-1.4c-0.8,0-3.7-0.2-5.8-2.4c-1.7-1.8-2.6-4.5-2.5-8.1v-1.1
			l-0.9-0.6c-0.4-0.3-4-3-4.5-6.9c-0.3-2.3,0.6-4.7,2.6-7.1l1.2-1.4l-1.3-1.3c-0.3-0.3-3.3-3.5-2.7-7c0.5-3,3.4-5.7,8.6-8
			c14.5-6.5,21.7-9.6,23.6-10.4l3.8-1.7l-3.7-2c-0.7-0.4-4.4-2.5-4.8-5.4c-0.2-1.9,0.9-3.9,3.6-6.1c3.5-3,28.4-16.6,42.5-24.2
			c28.8-16.6,58.1-35,89.5-56.3c39.3-26.7,83.1-64.2,113.3-91.3l35.3,24.9c5.4,26.7,3.5,69.2,3.2,75.2
			c-40.8,37.2-102.8,77-139.4,94.2C885.7,685.4,833.9,707.3,809.9,707.3L809.9,707.3z"/>
		<path d="M1057.2,460.7l33.4,23.5c5,25.4,3.4,64.8,3,73.1c-40.6,36.9-102,76.3-138.3,93.3c-70.1,32.8-121.7,54.7-145.4,54.7
			c-9.9,0-11.1-3.9-11.6-5.3l-0.9-2.7l-2.9-0.1c-0.5,0-2.8-0.1-4.4-1.8c-1.3-1.4-2-3.6-1.9-6.7l0.1-2.1l-1.7-1.2
			c-0.1-0.1-3.3-2.4-3.7-5.5c-0.2-1.8,0.5-3.6,2.1-5.5l2.3-2.8l-2.5-2.6c-0.1-0.1-2.6-2.7-2.2-5.2c0.4-2.2,3-4.5,7.4-6.5
			c14.5-6.5,21.7-9.6,23.6-10.4l7.7-3.3l-7.4-3.9c-1.7-0.9-3.6-2.5-3.8-3.9c-0.1-1.1,0.9-2.7,2.9-4.3c3-2.5,24-14.2,42.2-23.9h0.1
			h0.1c28.8-16.5,58.1-35,89.6-56.4C983.7,524.7,1027,487.7,1057.2,460.7 M1056.9,455.6l-0.1,0.1c-30.2,27.1-74.5,65.1-114.2,92.1
			c-31.4,21.3-60.6,39.7-89.3,56.2c-1.6,0.8-38.2,20.5-42.9,24.4c-3.2,2.7-4.6,5.3-4.2,7.9c0.5,3.8,4.6,6.2,5.9,6.9
			c-1.7,0.7-8.8,3.8-23.6,10.4c-5.8,2.6-9.1,5.8-9.7,9.5c-0.7,4.3,2.5,8,3.3,8.7c-2.4,2.8-3.4,5.8-3,8.7c0.6,4.6,4.7,7.7,5.3,8.2
			c-0.1,4.2,0.9,7.4,3,9.6c2.7,2.7,6.2,3,7.2,3c1.7,5.4,6.8,8.1,15.4,8.1l0,0c24.4,0,76.5-22,147.1-55.1c37-17.3,99.7-57.6,140.5-95
			l0.1-0.1v-0.1c0-0.5,2.7-48.5-3.3-77.2v-0.1L1056.9,455.6L1056.9,455.6z"/>
	</g>
	<g>
		<path d="M816.8,645.7c-0.8,0-1.5-0.5-1.8-1.2c-0.4-1,0-2.2,1-2.6l25.2-10.9c1-0.4,2.2,0,2.6,1c0.4,1,0,2.2-1,2.6l-25.2,10.9
			C817.3,645.6,817.1,645.7,816.8,645.7z"/>
	</g>
	<g>
		<path d="M784.4,674.5c-0.8,0-1.6-0.5-1.9-1.3c-0.4-1,0.2-2.2,1.2-2.6c0.3-0.1,27.6-10.2,48.3-20.2c1-0.5,2.2-0.1,2.7,0.9
			c0.5,1,0.1,2.2-0.9,2.7c-20.8,10.1-48.4,20.3-48.7,20.4C784.9,674.5,784.6,674.5,784.4,674.5z"/>
	</g>
	<g>
		<path d="M786.5,690.2c-0.8,0-1.5-0.5-1.8-1.2c-0.4-1,0.1-2.2,1.1-2.6c0.3-0.1,33.5-14.1,52.3-22.9c1-0.5,2.2,0,2.7,1
			c0.5,1,0,2.2-1,2.7c-18.9,8.8-52.1,22.8-52.5,22.9C787,690.2,786.8,690.2,786.5,690.2z"/>
	</g>
	<g>
		<path d="M796.4,700.7c-0.8,0-1.6-0.5-1.9-1.4c-0.3-1,0.2-2.2,1.3-2.5c0.3-0.1,33-10.9,50.4-19.5c1-0.5,2.2-0.1,2.7,0.9
			c0.5,1,0.1,2.2-0.9,2.7c-17.7,8.8-50.6,19.6-51,19.7C796.8,700.7,796.6,700.7,796.4,700.7z"/>
	</g>
	<g>
		<path d="M850.2,687.1c-0.7,0-1.4-0.4-1.8-1.1l-19.5-37.4c-0.5-1-0.1-2.2,0.8-2.7c1-0.5,2.2-0.1,2.7,0.8l19.5,37.4
			c0.5,1,0.1,2.2-0.8,2.7C850.8,687,850.5,687.1,850.2,687.1z"/>
	</g>
	<path class="st3" d="M1049.8,416.7L962,492.4c1.8,8.6,7.4,16,15.2,20.2c9.9,5.4,14.1,8.1,17.2,15.2L984.3,545
		c0,0,9.1,30.3,47.5,26.3l33-113.9L1049.8,416.7z"/>
	<g>
		<path d="M994.3,529.8c-0.4,0-0.7-0.1-1.1-0.3c-0.9-0.6-1.2-1.8-0.6-2.8l36.3-57.6c0.6-0.9,1.8-1.2,2.8-0.6
			c0.9,0.6,1.2,1.8,0.6,2.8L996,528.9C995.6,529.5,995,529.8,994.3,529.8z"/>
	</g>
	<path class="st2" d="M1127.2,464.7L1127.2,464.7l-65.6-8.5v0.2c0,0-10.9,38.2-26.2,92l52.5,34.1l102.7-20.2
		C1154.7,507,1128,466,1127.2,464.7z"/>
	<path class="st4" d="M1167.9,978.9c-46.7,0-96.9-19.9-153.6-61c-10.4-7.4-21.3-14.1-32.6-20c-33-15.6-43.9-5.1-43.8-5.4
		c4.8-17.8,25.8-91.9,62.3-220.3l4.9-17.2c13.7-48.4,27.1-95.4,37.4-131.5v-0.1h0.3c2.9,0,28.9,1,43.4,35.3
		c16.3-33.7,49.4-38.7,67.8-38.7c5.7,0,9.3,0.5,9.4,0.5h0.1v0.1c65.3,100.6,217.4,335.6,220.4,345.7c-8.6-8.5-28.7-5.9-51.8,17.6
		c-1.3,1.4-8.8,9.3-18,19C1280.5,938.2,1233.5,978.9,1167.9,978.9z"/>
	<g>
		<path d="M1085.7,561C1085.7,561,1085.7,561,1085.7,561c-0.8,0-1.5-0.5-1.8-1.2c-14.5-34.6-40.5-34.4-41.6-34.4c-1.1,0-2-0.8-2-1.9
			s0.8-2,1.9-2.1c1.2,0,27.8-0.4,43.7,33c12.1-21.9,31.6-30.6,46.3-34c16.7-3.9,30.4-1.9,31-1.8c1.1,0.2,1.8,1.2,1.7,2.3
			c-0.2,1.1-1.2,1.8-2.3,1.7c-0.1,0-13.7-1.9-29.6,1.8c-21.2,4.9-36.5,16.9-45.4,35.6C1087.2,560.6,1086.5,561,1085.7,561z"/>
	</g>
	<g>
		<path class="st2" d="M1093,767.3c-7.6,0-12.8-1.9-15.3-5.7l-0.6-0.9h-1c-2.4-0.1-7-0.9-9.3-3.7c-1.4-1.7-1.9-3.9-1.4-6.7l0.2-1.5
			l-1.4-0.6c-0.5-0.2-4.6-2.3-5.6-5.9c-0.7-2.4,0.1-5.1,2.2-8l1-1.4l-1.3-1.2c-0.4-0.4-3.8-3.6-3.3-7.4c0.4-3.4,3.6-6.6,9.4-9.4
			l29-14.4l-4.5-1.6c-2.3-0.8-6-3-4.6-8.2c0.9-3.5,11.5-10.5,24.8-19.3c6.2-4.1,13.2-8.6,20.7-13.8c17.8-10.6,54-34.6,72.3-48.4
			l1.5-1.1l-89-141.6l8.2-8.2c57.1,24,102,53.3,133.6,87.2c32.2,34.5,38,60.4,39,67.5c3.3,22.8,0.2,53.5-52.8,88.2
			C1210.2,724.2,1130.1,767.3,1093,767.3z"/>
		<path d="M1125.5,460.6c56.2,23.8,100.5,52.7,131.7,86.2c31.8,34.1,37.5,59.5,38.5,66.5c1.4,9.8,2.1,23.1-5,38.4
			c-7.7,16.4-23.4,32.5-46.9,47.9c-15.1,10.1-43.8,27-74.9,41.7c-33.6,15.8-59.9,24.2-75.8,24.2c-6.9,0-11.5-1.6-13.6-4.8l-1.1-1.7
			l-2-0.1c-1.9-0.1-6-0.7-7.8-3c-1-1.2-1.3-2.9-1-5.1l0.5-3l-2.7-1.3c-1.4-0.7-3.9-2.4-4.6-4.6c-0.5-1.7,0.2-3.9,1.9-6.3l2.1-2.9
			l-2.6-2.4c-0.1-0.1-3-2.8-2.7-5.7c0.4-3.3,4.7-6.1,8.3-7.9l24.8-12.3l8.5-4.2l-8.9-3.2c-1.1-0.4-4.5-1.6-3.4-5.8
			c0.1-0.3,0.8-1.9,6.4-6.1c4.3-3.3,10.5-7.3,17.6-12c6.2-4,13.1-8.6,20.6-13.8c17.9-10.7,54.1-34.6,72.4-48.5l2.9-2.2l-2-3.1
			l-87.2-138.7L1125.5,460.6 M1124.5,455.8l-10.3,10.3l88.9,141.4c-18.2,13.8-54.3,37.7-72.2,48.3c-7.5,5.2-14.5,9.8-20.7,13.8
			c-14.8,9.7-24.6,16.1-25.7,20.4c-1.9,7.3,4.1,10,5.9,10.6l-24.8,12.3c-6.5,3.2-10,6.9-10.5,11c-0.6,4.7,3.2,8.4,3.9,9.1
			c-2.5,3.5-3.4,6.7-2.5,9.7c1.2,4.4,5.8,6.8,6.7,7.2c-0.5,3.4,0.1,6.2,1.9,8.3c3.4,4,9.9,4.3,10.8,4.4c2.9,4.3,8.6,6.5,17,6.5l0,0
			l0,0l0,0c37.6,0,118.2-43.3,153-66.5c53.9-35.3,57-66.7,53.6-90.1c-1-7.3-7-33.7-39.5-68.6c-32-34.3-77.5-64-135.4-88.1
			L1124.5,455.8L1124.5,455.8z"/>
	</g>
	<g>
		<path d="M1098.2,701.4c-0.7,0-1.4-0.4-1.8-1.1c-0.5-1-0.1-2.2,0.9-2.7l18.1-9.1c1-0.5,2.2-0.1,2.7,0.9c0.5,1,0.1,2.2-0.9,2.7
			l-18.1,9.1C1098.8,701.3,1098.5,701.4,1098.2,701.4z"/>
	</g>
	<g>
		<path d="M1062.6,735.1c-0.9,0-1.7-0.6-1.9-1.4c-0.3-1.1,0.3-2.2,1.3-2.5c17.8-5.3,39.1-15.2,50.2-20.7c1-0.5,2.2-0.1,2.7,0.9
			c0.5,1,0.1,2.2-0.9,2.7c-11.2,5.5-32.8,15.5-50.8,20.9C1063,735.1,1062.8,735.1,1062.6,735.1z"/>
	</g>
	<g>
		<path d="M1065.7,750.9c-0.9,0-1.7-0.6-1.9-1.4c-0.3-1.1,0.3-2.2,1.3-2.5c0.3-0.1,30.5-9.2,54.6-20.4c1-0.5,2.2,0,2.7,1
			c0.5,1,0,2.2-1,2.7c-24.3,11.3-54.9,20.5-55.2,20.6C1066.1,750.9,1065.9,750.9,1065.7,750.9z"/>
	</g>
	<g>
		<path d="M1078.2,762.5c-0.9,0-1.8-0.7-2-1.6c-0.2-1.1,0.5-2.1,1.6-2.3c0.2,0,19.5-3.7,48.1-17.6c1-0.5,2.2-0.1,2.7,0.9
			c0.5,1,0.1,2.2-0.9,2.7c-29.1,14.2-48.3,17.8-49.1,18C1078.4,762.5,1078.3,762.5,1078.2,762.5z"/>
	</g>
	<g>
		<path d="M1074.1,711.7c-0.7,0-1.4-0.4-1.8-1l-24.1-43.7c-0.5-1-0.2-2.2,0.8-2.7c1-0.5,2.2-0.2,2.7,0.8l24.1,43.7
			c0.5,1,0.2,2.2-0.8,2.7C1074.8,711.6,1074.4,711.7,1074.1,711.7z"/>
	</g>
	<g>
		<path d="M1042.7,694.2c-0.2,0-0.4,0-0.6-0.1c-1.1-0.3-1.6-1.5-1.3-2.5l8.2-26c0.2-0.5,0.5-0.9,1-1.2c0.5-0.2,1-0.3,1.5-0.1
			l25.4,8.7c1,0.4,1.6,1.5,1.2,2.5c-0.4,1-1.5,1.6-2.5,1.2l-23.5-8l-7.6,24C1044.3,693.7,1043.5,694.2,1042.7,694.2z"/>
	</g>
	
		<ellipse transform="matrix(0.9029 -0.4299 0.4299 0.9029 -172.42 504.6698)" class="st3" cx="1030.7" cy="633.9" rx="39.4" ry="38.1"/>
	<circle cx="1030.7" cy="633.9" r="3.5"/>
	<path class="st3" d="M1116.5,408.6l134.4,60.6c-7.4,8.8-12.6,19.1-15.2,30.3c-5.7,25.7-13.1,31.3-25.2,35.3l-15.2-14.1
		c-22.2,9.1-20.2,38.4-58.6,35.4L1105.3,440L1116.5,408.6z"/>
	<g>
		<path d="M969.1,977.1c-0.2,0-0.4,0-0.5-0.1l-112-31.4c-14.4-4.1-22.9-19.1-18.8-33.5c0.5-1.9,1.3-3.7,2.3-5.6l1-1.9
			c7.1-13.2,23.7-18.1,36.8-11c1.6,0.9,3.4,2,5,3.5l87.6,76.5c0.7,0.6,0.9,1.6,0.4,2.5C970.5,976.7,969.8,977.1,969.1,977.1z
			 M865,894.4c-8.2,0-16.2,4.4-20.4,12.2l-1,1.9c-0.9,1.6-1.5,3.2-1.9,4.8c-3.5,12.3,3.7,25.1,16,28.5l103.5,29l-80.9-70.7
			c-1.4-1.3-2.9-2.2-4.3-3C872.5,895.3,868.7,894.4,865,894.4z"/>
	</g>
	<g>
		<path d="M875.9,1014.4c-0.2,0-0.4,0-0.7-0.1c-1-0.4-1.6-1.5-1.2-2.5c7.5-21.7,26.4-35.2,54.8-39c21.2-2.9,39.8,0.6,40.6,0.7
			c0.1,0,0.2,0,0.2,0.1l25.7,8.1c1.1,0.3,1.6,1.5,1.3,2.5c-0.3,1.1-1.5,1.6-2.5,1.3l-25.6-8.1c-1.6-0.3-19.6-3.3-39.3-0.7
			c-27.1,3.7-44.4,15.9-51.4,36.4C877.5,1013.9,876.7,1014.4,875.9,1014.4z"/>
	</g>
	<g>
		<path d="M1381.9,968.5c-0.5,0-1-0.2-1.4-0.6c-0.6-0.6-0.8-1.6-0.4-2.4l48-93.8c1.5-2.9,3.4-5.4,5.4-7.6
			c12.3-12.8,32.6-13.2,45.4-1l2,1.9c2.4,2.3,4.4,4.8,5.8,7.4c4.2,7.4,5.3,16.1,3,24.4c-2.3,8.3-7.7,15.2-15.2,19.4l-91.7,51.9
			C1382.6,968.4,1382.2,968.5,1381.9,968.5z M1456.8,858.3c-7.4,0-14.8,2.9-20.3,8.6c-1.8,1.9-3.4,4.2-4.8,6.7l-44.9,87.8l85.9-48.6
			c6.5-3.7,11.3-9.7,13.3-17c2-7.2,1.1-14.8-2.6-21.4c-1.2-2.2-2.9-4.4-5-6.4l-2-1.9C1470.8,860.9,1463.8,858.3,1456.8,858.3z"/>
	</g>
	<g>
		<path d="M1386.7,1010.7c-0.5,0-0.9-0.2-1.3-0.5c-0.8-0.7-0.9-2-0.2-2.8l18.5-21.1c0.7-0.8,2-0.9,2.8-0.2c0.8,0.7,0.9,2,0.2,2.8
			l-18.5,21.1C1387.8,1010.5,1387.3,1010.7,1386.7,1010.7z"/>
	</g>
	<g>
		<path d="M974.5,1012.8c-0.5,0-1-0.2-1.3-0.5l-19.7-17.9c-0.8-0.7-0.9-2-0.1-2.8c0.7-0.8,2-0.9,2.8-0.1l19.7,17.9
			c0.8,0.7,0.9,2,0.1,2.8C975.6,1012.6,975,1012.8,974.5,1012.8z"/>
	</g>
	<g>
		<path d="M1359.5,986.5c-0.6,0-1.2-0.3-1.6-0.8c-0.7-0.9-0.5-2.1,0.3-2.8l22.3-17.5c0.5-0.4,1.2-0.5,1.9-0.3
			c16.5,5.3,31,2.7,45,0.2c17.6-3.2,34.2-6.1,50.7,8.6c0.8,0.7,0.9,2,0.2,2.8c-0.7,0.8-2,0.9-2.8,0.2c-15-13.4-30-10.7-47.3-7.6
			c-13.5,2.4-28.8,5.2-45.9,0l-21.5,16.8C1360.4,986.4,1359.9,986.5,1359.5,986.5z"/>
	</g>
	<circle cx="1101.9" cy="333.3" r="37.9"/>
	<g>
		<path class="st2" d="M1123.5,473.1c-12.1,0-22-9.9-22-22s9.9-22,22-22s22,9.9,22,22S1135.6,473.1,1123.5,473.1z"/>
		<path d="M1123.5,431c11,0,20,9,20,20s-9,20-20,20s-20-9-20-20S1112.5,431,1123.5,431 M1123.5,427c-13.3,0-24,10.8-24,24
			s10.8,24,24,24s24-10.8,24-24S1136.8,427,1123.5,427L1123.5,427z"/>
	</g>
	<g>
		<path d="M1127.2,456c-0.3,0-0.5,0-0.8-0.2l-15.8-6.5c-1-0.4-1.5-1.6-1.1-2.6c0.4-1,1.6-1.5,2.6-1.1l15.8,6.5
			c1,0.4,1.5,1.6,1.1,2.6C1128.7,455.5,1128,456,1127.2,456z"/>
	</g>
	<g>
		<path class="st2" d="M1080.2,478c-16.2,0-33.2-15.8-42.3-39.3c-12-31.4-9.6-61.3,5.7-69.6c6.5-3.5,13.7-5.3,21.5-5.3
			c19.7,0,36.5,11.4,36.7,11.5c11.1,7.9,16.8,16.5,18.3,27.8c1.7,12.7-1.9,28.8-11.2,50.9C1102.4,469.5,1092.2,478,1080.2,478z"/>
		<path d="M1065.2,361.8v4l0,0c18.7,0,34.9,10.7,35.6,11.1c18.3,13,25.8,30.3,6.4,76.2c-6.2,14.7-15.8,22.9-26.9,22.9
			c-15.4,0-31.7-15.3-40.4-38.1c-5.9-15.2-8.4-30.6-7.2-43.3c1.1-11.8,5.4-20.2,12-23.8c6.2-3.4,13.1-5.1,20.6-5.1L1065.2,361.8
			 M1065.2,361.8c-7.3,0-15,1.5-22.5,5.6c-16,8.7-19.2,39.1-6.6,72.1c9.8,25.4,27.5,40.6,44.1,40.6c11.9,0,23.2-7.8,30.6-25.3
			c19.2-45.5,13.6-65.9-7.8-81.1C1103,373.6,1085.7,361.8,1065.2,361.8L1065.2,361.8z"/>
	</g>
	<path d="M1103,373.6c18.6,13.2,25.2,30.3,14.1,64.4c-33.1-13.2-31.9-58.9-31.9-58.9c-27.6,21.4-56.9,20.1-56.9,20.1
		c0.4-15.2,5.4-26.9,14.3-31.8C1071.2,351.9,1103,373.6,1103,373.6z"/>
	<g>
		<path d="M1056.9,435.4c-0.3,0-0.5-0.1-0.8-0.2c-1.9-0.8-3.7-2.4-4.8-4.3c-1.7-2.9-1.9-7.7-1.1-18.5c0.1-1.1,1.1-1.9,2.2-1.8
			c1.1,0.1,1.9,1.1,1.8,2.2c-0.8,9.4-0.6,14.2,0.5,16.1c0.7,1.2,1.8,2.2,3,2.7c1,0.4,1.5,1.6,1,2.6
			C1058.4,435,1057.7,435.4,1056.9,435.4z"/>
	</g>
	<g>
		<path d="M1068.6,420.1c-1.1,0-2-0.8-2-1.9l-0.1-2.5c0-1.1,0.8-2,1.9-2.1c1.1,0,2,0.8,2.1,1.9l0.1,2.5
			C1070.6,419.1,1069.8,420.1,1068.6,420.1C1068.7,420.1,1068.6,420.1,1068.6,420.1z"/>
	</g>
	<g>
		<path d="M1041.1,415.1c-1.1,0-2-0.8-2-1.9l-0.1-2.4c0-1.1,0.8-2,1.9-2.1c1.1-0.1,2,0.8,2.1,1.9l0.1,2.4
			C1043.1,414.1,1042.3,415.1,1041.1,415.1C1041.2,415.1,1041.1,415.1,1041.1,415.1z"/>
	</g>
	<g>
		<path d="M1065.1,447.7c-0.3,0-0.6,0-0.9-0.1c-0.2,0-0.4,0-0.6,0c-1.1,0-2-0.9-2-2s0.9-2,2-2c0.3,0,0.6,0,0.9,0.1
			c0.2,0,0.4,0,0.6,0c3.4,0,6.1-2.7,6.1-6c0-1.1,0.9-2,2-2s2,0.9,2,2C1075.2,443.2,1070.7,447.7,1065.1,447.7z"/>
	</g>
	<g>
		<path d="M1194.4,523.2c-0.5,0-1-0.2-1.4-0.6l-41.7-39.8c-0.8-0.8-0.8-2-0.1-2.8c0.8-0.8,2-0.8,2.8-0.1l41.7,39.8
			c0.8,0.8,0.8,2,0.1,2.8C1195.4,523,1194.9,523.2,1194.4,523.2z"/>
	</g>
	<g>
		<path d="M1205.1,487.7c-0.3,0-0.6-0.1-0.9-0.2l-59.6-31.3c-1-0.5-1.4-1.7-0.8-2.7s1.7-1.4,2.7-0.8l59.6,31.3
			c1,0.5,1.4,1.7,0.8,2.7C1206.5,487.3,1205.8,487.7,1205.1,487.7z"/>
	</g>
	<g>
		<path d="M1114.6,375.2c-6.5,0-14-1.4-23.1-5.1c-1-0.4-1.5-1.6-1.1-2.6c0.4-1,1.6-1.5,2.6-1.1c19.3,8,30.4,4.5,42,0.7
			c9-2.9,18.4-6,31.8-4c1.1,0.2,1.9,1.2,1.7,2.3c-0.2,1.1-1.2,1.9-2.3,1.7c-12.5-1.8-21.4,1.1-30,3.9
			C1129.7,373,1122.9,375.2,1114.6,375.2z"/>
	</g>
	<g>
		<path d="M1190.4,405.4c-0.4,0-0.9-0.1-1.3-0.4c-14.8-12.1-26.8-12.4-39.6-12.8c-15.3-0.4-32.6-1-56.7-21.7c-0.8-0.7-0.9-2-0.2-2.8
			s2-0.9,2.8-0.2c23,19.9,38.9,20.3,54.2,20.8c13.4,0.4,26.1,0.8,42,13.7c0.9,0.7,1,2,0.3,2.8C1191.6,405.1,1191,405.4,1190.4,405.4
			z"/>
	</g>
	<g>
		<path d="M1216.2,973.4c-0.7,0-1.3-0.3-1.7-1c-8-13.3-35.8-19.7-36.1-19.8c-1-0.2-1.6-1.1-1.6-2.1c0.1-1,0.8-1.8,1.8-1.9
			c0.4,0,41-3.9,51.9-20.6c2.9-4.4,3.4-9.2,1.5-14.7c-1.1-3.3-3.3-5.6-6.7-7.2c-17.3-8-57.1,7.5-57.5,7.6c-0.8,0.3-1.7,0.1-2.3-0.6
			c-0.5-0.7-0.6-1.6-0.1-2.4c0.3-0.4,29.3-43.5,22.2-64.8c-1.6-4.9-5-8.1-10.3-9.9c-6.1-2-11.8-1.5-17.4,1.7
			c-22.3,12.7-33,62.5-33.2,63c-0.2,0.9-0.9,1.5-1.8,1.6c-0.9,0.1-1.7-0.4-2-1.2c-0.2-0.4-17.2-40-35.8-45.7
			c-4.1-1.3-7.8-0.8-11.5,1.6c-4.8,3-7.3,6.9-7.8,11.9c-1.8,18.9,26.5,45.7,26.8,45.9c0.6,0.6,0.8,1.6,0.4,2.4
			c-0.4,0.8-1.3,1.2-2.2,1.1c-30.2-5.7-48.3-1-55.3,14.4c-0.5,1-1.6,1.4-2.7,1c-1-0.5-1.4-1.6-1-2.7c10.1-22,38.3-20.1,53.5-17.7
			c-8.3-8.8-25.1-28.7-23.6-44.7c0.6-6.2,3.8-11.3,9.7-14.9c4.6-2.9,9.6-3.6,14.8-2c16.2,5,30.3,31.2,35.9,42.7
			c3.6-13.9,14.4-48.9,33.7-60c6.5-3.7,13.5-4.4,20.6-2c6.5,2.2,10.8,6.4,12.9,12.4c6.3,18.8-11.7,50.9-19.4,63.3
			c12-4.1,40.2-12.4,55.1-5.5c4.4,2,7.4,5.3,8.8,9.6c2.2,6.6,1.6,12.7-2,18.1c-8.5,13.1-32.1,18.8-45.4,21.1
			c9.5,3.2,23.7,9.3,29.5,19c0.6,0.9,0.3,2.2-0.7,2.7C1216.9,973.3,1216.6,973.4,1216.2,973.4z"/>
	</g>
	<g>
		<path d="M1008.4,915.7c-0.2,0-0.4,0-0.6-0.1c-1.1-0.3-1.6-1.5-1.3-2.5c6.4-20.2-34.8-37.8-35.3-38c-0.9-0.4-1.4-1.4-1.2-2.4
			c0.3-1,1.2-1.6,2.2-1.5c0.4,0,39.2,4.7,53.4-9c3.8-3.7,5.5-8.3,4.9-14.2c-0.5-5.6-2.8-10-7.1-13.3c-13.6-10.6-41.8-6.1-42.1-6.1
			c-0.9,0.1-1.8-0.3-2.1-1.1c-0.4-0.8-0.1-1.8,0.5-2.4c0.3-0.2,27.8-23.1,29.8-44.1c0.6-5.9-1-11.2-4.7-15.7
			c-3.8-4.6-8.9-5.4-12.6-5.3c-6.8,0.2-14.3,3.8-17.9,8.6c-0.7,0.9-1.9,1.1-2.8,0.4c-0.9-0.7-1.1-1.9-0.4-2.8
			c4.3-5.8,12.9-10,21-10.3c6.5-0.2,12,2.2,15.8,6.8c4.4,5.3,6.3,11.6,5.6,18.6c-1.6,17.2-18.1,34.7-26.5,42.6
			c9.6-0.8,27.9-0.9,38.8,7.6c5.1,4,8.1,9.4,8.7,16.1c0.6,7-1.4,12.9-6.1,17.4c-10.8,10.4-33.1,11.3-46.3,10.8
			c12.8,7,33.5,21.3,28.1,38.2C1010,915.2,1009.3,915.7,1008.4,915.7z"/>
	</g>
	<g>
		<path d="M1274.1,941c-0.5,0-1-0.2-1.4-0.6c-8.5-8.2-12.1-17.2-10.9-26.8c2.5-19.3,24.1-35.4,33.4-41.5
			c-15.7-3.9-63.7-18.1-59.6-44.4c1.1-6.8,4.5-12,10.2-15.6c14.7-9.2,41-4.8,54.6-1.7c-14-12.5-43.4-42.6-30-65.5
			c2.3-3.9,11.4-16,34.2-7.8c1,0.4,1.6,1.5,1.2,2.6c-0.4,1-1.5,1.6-2.6,1.2c-13.4-4.9-24.4-2.6-29.4,6
			c-15.1,26.1,35.4,65.7,35.9,66.1c0.8,0.6,1,1.6,0.5,2.5c-0.4,0.9-1.4,1.3-2.4,1c-0.4-0.1-41.6-12.6-60-1c-4.7,3-7.4,7.2-8.3,12.8
			c-2.1,13.8,14.3,24.1,28.5,30.4c15.9,7,32.6,10.5,32.7,10.6c0.8,0.2,1.4,0.8,1.6,1.6c0.1,0.8-0.3,1.6-1,2
			c-0.3,0.2-32.8,18.9-35.6,41.1c-1.1,8.3,2.2,16.2,9.7,23.4c0.8,0.8,0.8,2,0,2.8C1275.1,940.8,1274.6,941,1274.1,941z"/>
	</g>
	<g>
		<path d="M1201.4,613.7c-0.6,0-1.2-0.3-1.6-0.8c-0.7-0.9-0.5-2.1,0.4-2.8l23.2-17.2c0.9-0.7,2.1-0.5,2.8,0.4
			c0.7,0.9,0.5,2.1-0.4,2.8l-23.2,17.2C1202.2,613.6,1201.8,613.7,1201.4,613.7z"/>
	</g>
</g>
<g id="birds_and_heart">
	<path class="st4" d="M799.9,311.3c-11.6-53.4-87.3-39.8-61.2,22.8c24.1,50.3,54.8,108,60.7,119c0.2,0.4,0.4,0.7,0.5,0.9
		c0.1-0.3,0.3-0.6,0.5-0.9c5.9-11,36.6-68.7,60.7-119C887.1,271.5,811.5,257.9,799.9,311.3z"/>
	<g>
		<path class="st1" d="M904.9,280l-53.5-78.1c-4.6-6.7,1-15.9,9-14.5c3.2,0.5,6.7,2.3,10.3,6.2c0,0,11.4-10.6,24.7,5.6
			c0,0,12.9-5.9,25.5,10.8c11.6,15.3,16.6,23,16.6,23L904.9,280z"/>
		<g>
			<path d="M916.4,261.7c-0.6,0-1.3-0.3-1.6-0.9l-45.7-66.3c-0.6-0.9-0.4-2.2,0.5-2.8c0.9-0.6,2.2-0.4,2.8,0.5l45.7,66.3
				c0.6,0.9,0.4,2.2-0.5,2.8C917.2,261.6,916.8,261.7,916.4,261.7z"/>
		</g>
		<g>
			<path d="M925.4,244.6c-0.6,0-1.3-0.3-1.6-0.9L893.7,200c-0.6-0.9-0.4-2.2,0.5-2.8c0.9-0.6,2.2-0.4,2.8,0.5l30.1,43.7
				c0.6,0.9,0.4,2.2-0.5,2.8C926.2,244.5,925.8,244.6,925.4,244.6z"/>
		</g>
		<g>
			<path class="st2" d="M888.1,299.3c-5.4,0-10.3-3.2-12.4-8.2c-2.7-6.5-0.2-13.8,6-17.2l26.3-14.2l8.7-94c0.4-4.4,4.2-6.8,7.5-6.8
				c1.4,0,3.5,0.4,5.2,2.4c2.1,2.4,3.3,5.8,3.5,10.1l0.1,2l2-0.1h0.2c2.2,0,13.2,0.9,13.2,18.1v1.5l1.5,0.4
				c0.5,0.1,12.1,3.6,11.3,22.6c-0.2,4.1-0.4,8.1-0.6,11.9l-0.2,3.6l49.5-26.6c1.5-0.8,3.2-1.2,4.9-1.2c2.8,0,5.4,1.1,7.3,3
				l10.7,10.7c1,1,1.7,2.2,1.9,3.6c0.8,3.8-1.7,7.5-5.5,8.3l-32.9,6.5c-5,1-8.9,4.7-10.2,9.6c-0.5,1.9-1,4-1.5,6.3
				c-2.9,13.1-6.9,31.2-25.1,41.1c-6.3,3.5-14.1,5.2-23.1,5.2l0,0c-8.1,0-15.4-1.4-20.2-2.6c-2.2-0.6-4.4-0.8-6.7-0.8
				c-2.7,0-5.3,0.4-7.9,1.2l-9.6,2.9C890.8,299.1,889.5,299.3,888.1,299.3z"/>
			<path d="M924.3,161c1,0,2.5,0.3,3.7,1.7c1.8,2.1,2.8,5.1,3,8.9l0.1,4l4-0.2h0.1c0.5,0,3.4,0.1,6,2c3.4,2.5,5.2,7.3,5.2,14v3.1
				l3,0.8c0.1,0,10.6,3,9.8,20.6c-0.2,4.1-0.4,8.1-0.6,11.9l-0.4,7.1l6.3-3.4l46.3-24.9c1.2-0.7,2.6-1,3.9-1c2.2,0,4.3,0.9,5.9,2.4
				l10.7,10.7c0.7,0.7,1.2,1.6,1.4,2.6c0.3,1.3,0,2.7-0.8,3.8s-1.9,1.9-3.2,2.1l-32.9,6.5c-5.7,1.1-10.2,5.4-11.8,11
				c-0.5,1.9-1,4.1-1.5,6.4c-2.8,12.8-6.7,30.3-24.1,39.8c-6.1,3.3-13.5,5-22.1,5c-7.8,0-15.1-1.4-19.7-2.6
				c-2.4-0.6-4.8-0.9-7.2-0.9c-2.9,0-5.7,0.4-8.5,1.3l-9.6,2.9c-1.1,0.3-2.2,0.5-3.3,0.5c-4.6,0-8.7-2.7-10.6-7
				c-2.3-5.5-0.1-11.8,5.1-14.6l25.4-13.7l1.9-1l0.2-2.1l8.6-92.9C919.1,162.7,921.9,161,924.3,161L924.3,161 M924.3,157
				c-4.5,0-9,3.3-9.5,8.6l-8.6,92.9l-25.4,13.7c-7,3.8-10,12.3-6.9,19.7l0,0c2.5,5.8,8.2,9.4,14.2,9.4c1.5,0,3-0.2,4.5-0.7l9.6-2.9
				c2.4-0.7,4.9-1.1,7.3-1.1c2.1,0,4.2,0.3,6.2,0.8c5,1.3,12.5,2.7,20.7,2.7c7.9,0,16.5-1.3,24-5.5c22.2-12.2,24.2-36.2,27.5-48.6
				c1.1-4.1,4.5-7.3,8.7-8.1l32.9-6.5c4.9-1,8.1-5.7,7.1-10.6c-0.3-1.8-1.2-3.4-2.5-4.6l-10.7-10.7c-2.4-2.4-5.5-3.6-8.7-3.6
				c-2,0-4,0.5-5.8,1.5l-46.3,24.9c0.2-3.4,0.4-7.4,0.6-12c0.9-21-12.8-24.6-12.8-24.6c0-19.3-13.1-20.1-15.2-20.1
				c-0.2,0-0.3,0-0.3,0c-0.3-5.3-1.8-8.9-3.9-11.3C929.2,158,926.7,157,924.3,157L924.3,157z"/>
		</g>
		<g>
			<path d="M928.4,232.6c-0.1,0-0.1,0-0.2,0c-1.1-0.1-1.9-1.1-1.8-2.2l4.9-57.8c0.1-1.1,1.1-1.9,2.2-1.8c1.1,0.1,1.9,1.1,1.8,2.2
				l-4.9,57.8C930.3,231.8,929.4,232.6,928.4,232.6z"/>
		</g>
		<g>
			<path d="M945.8,224.7c-0.1,0-0.1,0-0.2,0c-1.1-0.1-1.9-1.1-1.8-2.2l2.7-30.4c0.1-1.1,1.1-1.9,2.2-1.8c1.1,0.1,1.9,1.1,1.8,2.2
				l-2.7,30.4C947.7,223.9,946.8,224.7,945.8,224.7z"/>
		</g>
		<g>
			<path d="M866.6,308.4c-0.4,0-0.7-0.1-1.1-0.3c-0.9-0.6-1.2-1.8-0.6-2.8l5.5-8.5l-13.4,3.3c-1.1,0.3-2.2-0.4-2.4-1.5
				c-0.3-1.1,0.4-2.2,1.5-2.4l18.3-4.5c0.8-0.2,1.6,0.1,2.1,0.8c0.5,0.7,0.5,1.6,0.1,2.2l-8.2,12.7
				C867.9,308.1,867.3,308.4,866.6,308.4z"/>
		</g>
		<g>
			<path d="M888.2,285.3c-0.8,0-1.5-0.5-1.9-1.3l-0.6-1.5c-0.4-1,0.1-2.2,1.1-2.6c1-0.4,2.2,0.1,2.6,1.1l0.6,1.5
				c0.4,1-0.1,2.2-1.1,2.6C888.7,285.3,888.4,285.3,888.2,285.3z"/>
		</g>
		<g>
			<path d="M959.2,251.5c0,0-0.1,0-0.1,0c-1.1-0.1-1.9-1-1.9-2.1l1.3-19.3c0.1-1.1,1-1.9,2.1-1.9c1.1,0.1,1.9,1,1.9,2.1l-1.3,19.3
				C961.1,250.7,960.2,251.5,959.2,251.5z"/>
		</g>
		<g>
			<path d="M1009.8,220c-0.8,0-1.6-0.5-1.9-1.3c-0.4-1,0.1-2.2,1.2-2.6l16.8-6.4c1-0.4,2.2,0.1,2.6,1.2c0.4,1-0.1,2.2-1.2,2.6
				l-16.8,6.4C1010.3,220,1010,220,1009.8,220z"/>
		</g>
	</g>
	<g>
		<path class="st1" d="M694.9,280l53.5-78.1c4.6-6.7-1-15.9-9-14.5c-3.2,0.5-6.7,2.3-10.3,6.2c0,0-11.4-10.6-24.7,5.6
			c0,0-12.9-5.9-25.5,10.8c-11.6,15.3-16.6,23-16.6,23L694.9,280z"/>
		<g>
			<path d="M683.4,261.7c-0.4,0-0.8-0.1-1.1-0.4c-0.9-0.6-1.1-1.9-0.5-2.8l45.6-66.3c0.6-0.9,1.9-1.1,2.8-0.5
				c0.9,0.6,1.1,1.9,0.5,2.8L685,260.8C684.7,261.4,684,261.7,683.4,261.7z"/>
		</g>
		<g>
			<path d="M674.3,244.6c-0.4,0-0.8-0.1-1.1-0.4c-0.9-0.6-1.1-1.9-0.5-2.8l30.1-43.7c0.6-0.9,1.9-1.1,2.8-0.5
				c0.9,0.6,1.1,1.9,0.5,2.8l-30.1,43.7C675.6,244.3,674.9,244.6,674.3,244.6z"/>
		</g>
		<g>
			<path class="st2" d="M711.6,299.3c-1.3,0-2.6-0.2-3.9-0.6l-9.6-2.9c-2.6-0.8-5.2-1.2-7.9-1.2c-2.3,0-4.5,0.3-6.7,0.8
				c-4.8,1.2-12.2,2.6-20.2,2.6c-9,0-16.7-1.8-23.1-5.2c-18.1-9.9-22.1-28-25.1-41.1c-0.5-2.3-1-4.4-1.5-6.3
				c-1.3-4.9-5.2-8.6-10.2-9.6l-32.9-6.5c-3.8-0.8-6.3-4.5-5.5-8.3c0.3-1.4,0.9-2.6,1.9-3.6l10.7-10.7c2-1.9,4.5-3,7.3-3
				c1.7,0,3.4,0.4,4.9,1.2l49.5,26.6l-0.2-3.6c-0.2-3.8-0.4-7.8-0.6-11.9c-0.8-19,10.8-22.5,11.3-22.6l1.5-0.4v-1.5
				c0-17.2,11-18.1,13.2-18.1h0.2l2,0.1l0.1-2c0.2-4.3,1.4-7.7,3.5-10.1c1.7-2,3.8-2.4,5.2-2.4c3.3,0,7.1,2.4,7.5,6.8l8.7,94
				L718,274c6.2,3.3,8.8,10.7,6,17.1C721.9,296,717,299.3,711.6,299.3z"/>
			<path d="M675.4,161c2.4,0,5.2,1.7,5.5,4.9l8.6,92.9l0.2,2.1l1.9,1l25.4,13.7c5.3,2.8,7.5,9.1,5.1,14.6c-1.8,4.2-6,7-10.6,7
				c-1.1,0-2.2-0.2-3.3-0.5l-9.6-2.9c-2.8-0.8-5.6-1.3-8.5-1.3c-2.4,0-4.8,0.3-7.2,0.9c-4.7,1.2-11.9,2.6-19.7,2.6
				c-8.6,0-16.1-1.7-22.1-5c-17.3-9.5-21.2-27-24.1-39.8c-0.5-2.3-1-4.5-1.5-6.4c-1.5-5.7-6-9.9-11.8-11l-32.9-6.5
				c-1.3-0.3-2.5-1-3.2-2.1s-1-2.5-0.8-3.8c0.2-1,0.7-1.9,1.4-2.6l10.7-10.7c1.6-1.6,3.7-2.4,5.9-2.4c1.4,0,2.7,0.3,3.9,1l46.3,24.9
				l6.3,3.4l-0.4-7.1c-0.2-3.8-0.4-7.8-0.6-11.9c-0.3-7.4,1.3-13.1,4.7-17c2.4-2.7,4.8-3.5,5.2-3.6l2.9-0.7v-3.2
				c0-14.9,8.6-16.1,11.2-16.1l0,0l4,0.2l0.2-4c0.2-3.8,1.2-6.8,3-8.9C673,161.3,674.4,161,675.4,161 M675.4,157
				c-2.4,0-4.9,1-6.7,3.1c-2.1,2.5-3.7,6.1-3.9,11.3c0,0-0.1,0-0.3,0c-2.1,0-15.2,0.8-15.2,20.1c0,0-13.7,3.6-12.8,24.6
				c0.2,4.6,0.4,8.5,0.6,12l-46.3-24.9c-1.8-1-3.8-1.5-5.8-1.5c-3.2,0-6.3,1.2-8.7,3.6L565.5,216c-1.3,1.3-2.1,2.9-2.5,4.6
				c-1,4.9,2.2,9.6,7.1,10.6l32.9,6.5c4.2,0.8,7.6,4,8.7,8.1c3.4,12.4,5.3,36.5,27.5,48.6c7.6,4.1,16.1,5.5,24,5.5
				c8.2,0,15.7-1.4,20.7-2.7c2-0.5,4.1-0.8,6.2-0.8c2.5,0,4.9,0.4,7.3,1.1l9.6,2.9c1.5,0.5,3,0.7,4.5,0.7c6.1,0,11.8-3.6,14.2-9.4
				l0,0c3.1-7.4,0.1-15.9-6.9-19.7l-25.4-13.7l-8.6-92.9C684.4,160.3,679.9,157,675.4,157L675.4,157z"/>
		</g>
		<g>
			<path d="M671.3,232.6c-1,0-1.9-0.8-2-1.8l-4.8-57.8c-0.1-1.1,0.7-2.1,1.8-2.2c1.1-0.1,2.1,0.7,2.2,1.8l4.8,57.8
				c0.1,1.1-0.7,2.1-1.8,2.2C671.4,232.6,671.4,232.6,671.3,232.6z"/>
		</g>
		<g>
			<path d="M654,224.7c-1,0-1.9-0.8-2-1.8l-2.8-30.4c-0.1-1.1,0.7-2.1,1.8-2.2c1.1-0.1,2.1,0.7,2.2,1.8l2.8,30.4
				c0.1,1.1-0.7,2.1-1.8,2.2C654.1,224.7,654.1,224.7,654,224.7z"/>
		</g>
		<g>
			<path d="M733.2,308.4c-0.7,0-1.3-0.3-1.7-0.9l-8.2-12.7c-0.4-0.7-0.4-1.6,0.1-2.2c0.5-0.7,1.3-1,2.1-0.8l18.2,4.5
				c1.1,0.3,1.7,1.3,1.5,2.4s-1.3,1.7-2.4,1.5l-13.3-3.3l5.5,8.5c0.6,0.9,0.3,2.2-0.6,2.8C733.9,308.3,733.6,308.4,733.2,308.4z"/>
		</g>
		<g>
			<path d="M711.6,285.3c-0.2,0-0.5,0-0.7-0.1c-1-0.4-1.5-1.6-1.1-2.6l0.6-1.5c0.4-1,1.6-1.5,2.6-1.1c1,0.4,1.5,1.6,1.1,2.6
				l-0.6,1.5C713.1,284.8,712.4,285.3,711.6,285.3z"/>
		</g>
		<g>
			<path d="M640.5,251.5c-1,0-1.9-0.8-2-1.9l-1.3-19.3c-0.1-1.1,0.8-2.1,1.9-2.1c1.1-0.1,2.1,0.8,2.1,1.9l1.3,19.3
				c0.1,1.1-0.8,2.1-1.9,2.1C640.6,251.5,640.5,251.5,640.5,251.5z"/>
		</g>
		<g>
			<path d="M590,220c-0.2,0-0.5,0-0.7-0.1l-16.8-6.4c-1-0.4-1.6-1.5-1.2-2.6c0.4-1,1.5-1.6,2.6-1.2l16.8,6.4c1,0.4,1.6,1.5,1.2,2.6
				C591.6,219.5,590.8,220,590,220z"/>
		</g>
	</g>
</g>
</svg>
