<?xml version="1.0" encoding="utf-8"?>
<!-- Generator: Adobe Illustrator 25.1.0, SVG Export Plug-In . SVG Version: 6.00 Build 0)  -->
<svg version="1.1" id="Layer_2_1_" xmlns="http://www.w3.org/2000/svg" xmlns:xlink="http://www.w3.org/1999/xlink" x="0px" y="0px"
	 viewBox="0 0 1600 1200" style="enable-background:new 0 0 1600 1200;" xml:space="preserve">
<style type="text/css">
	.st0{fill:#F696BB;}
	.st1{fill:#F9494B;}
	.st2{fill:#6C79D9;}
	.st3{fill:#98D8F4;}
	.st4{fill:none;}
	.st5{fill:#FFFFFF;}
</style>
<g id="man">
	<g id="bucket">
		<polygon class="st0" points="229,631 303.6,556.6 374.8,657.7 279.7,703 		"/>
		<ellipse class="st1" cx="347.4" cy="601.3" rx="62.7" ry="62.7"/>
		<path d="M334.1,662.6c-15.4-3.3-28.9-12.3-37.9-25.1c-9.1-12.9-13-28.6-10.9-44.2v-0.1h0.1c6.1-3.1,12.6-4.7,19.4-4.7
			c16.3,0,30.9,9,38.3,23.5c8.5,16.8,4.9,37.6-8.8,50.6l-0.1,0.1L334.1,662.6z"/>
		<g>
			<path d="M359.4,666.7c-0.7,0-1.4-0.4-1.8-1.1c-0.5-1-0.1-2.2,0.8-2.7l54.1-28.7c15.3-8.1,26.6-21.7,31.7-38.3s3.5-34.2-4.7-49.5
				c-1.2-2.3-2.6-4.6-4.3-7c-10-14.2-24.9-23.6-42-26.6s-34.3,0.9-48.5,10.9c-2.1,1.5-4.2,3.1-6.4,5.1l-45.2,41.3
				c-0.8,0.7-2.1,0.7-2.8-0.1c-0.7-0.8-0.7-2.1,0.1-2.8l45.2-41.3c2.4-2.1,4.6-3.9,6.8-5.5c15-10.6,33.3-14.7,51.5-11.5
				s34,13.2,44.6,28.2c1.8,2.6,3.3,5,4.5,7.4c8.6,16.3,10.4,34.9,4.9,52.5c-5.4,17.6-17.4,32-33.7,40.7l-54.1,28.7
				C360,666.6,359.7,666.7,359.4,666.7z"/>
		</g>
	</g>
	<path d="M591.5,936.6c-21.5,0-44.9-11.4-45.2-11.5l-0.2-0.1l0.1-0.2c8.7-12,16.5-24.7,23.2-37.9l0.1-0.2l0.2,0.1
		c0.3,0.1,28.2-4.1,42.1,12.6l6,19.7l-2.2,8C612,935.7,600.1,936.6,591.5,936.6z"/>
	<path d="M962.6,808.3c-0.2-0.2-22.7-19.8-41.2-30.9l-0.1-0.1v-0.1c0-0.3,3-29.3,17.9-44.2c6.2-6.2,11.4-8.1,15.5-8.1
		c3.2,0,6.2,1.4,6.3,1.5l0,0l0,0c22.3,27.9,2.1,81.3,1.9,81.8l-0.1,0.3L962.6,808.3z"/>
	<path d="M786.8,589.9c-4.8-13.1-11.4-25.5-19.4-36.8l-0.1-0.2l0.2-0.1c0.3-0.1,26.7-16.7,49.9-17.6c1.2,0,2.4-0.1,3.6-0.1
		c20.3,0,26.4,12.8,26.6,13.1c0.9,2.8,0.5,5.9-1.3,9c-8.2,14.7-43.1,28.9-59.2,32.9h-0.2L786.8,589.9z"/>
	<path class="st2" d="M341.4,886l0.1-0.1c15.2-14.6,31.9-15.1,49.5-15.6c10-0.3,20.3-0.6,31.2-3.2c8.4-2,18.6-12,31.4-30.6l0.1-0.2
		l0.2,0.2c0.1,0.1,12.9,13.7,40.6,26c9.7,4.3,22.6,7.6,35,10.8c15.8,4.1,30.7,7.9,40.1,13.6l0.2,0.1l-0.1,0.2
		c-15,29.4-34.8,55.8-58.9,78.4c-28.6,27-54.9,41.6-55.2,41.8l-0.1,0.1L341.4,886z"/>
	<path class="st3" d="M569.4,887c-9.2-3.2-21.2-6-34-8.9c-17.2-4-35-8.1-47.4-13.5c-27.9-12.3-34.2-27.8-34.2-28v-0.1l0.1-0.1
		c3-4.4,6.2-9.3,9.5-14.6c15.7-25.6,32.3-58.3,46.9-87.1c8.6-17,16.8-33.1,23.7-45.8c7.3-13.2,30.9-54,70.2-121.4l0.1-0.1L719,556.5
		v0.2c11.4,52.2-7,80.7-34.8,124c-4.2,6.6-8.6,13.3-13.1,20.6c-34.3,55.2-40.8,121.3-45.6,169.5c-2.5,25.1-4.5,45.7-9.9,56.3
		C617.3,912.3,595.3,895.5,569.4,887z"/>
	<g>
		<path d="M452.4,884.2c-0.6,0-1.2-0.3-1.6-0.8L433.1,859c-0.6-0.9-0.4-2.1,0.4-2.8c0.9-0.6,2.1-0.5,2.8,0.4L454,881
			c0.6,0.9,0.4,2.1-0.4,2.8C453.2,884.1,452.8,884.2,452.4,884.2z"/>
	</g>
	<g>
		<path d="M420.5,897.4c-1,0-1.9-0.8-2-1.8l-2.8-29.1c-0.1-1.1,0.7-2.1,1.8-2.2c1.1-0.1,2.1,0.7,2.2,1.8l2.8,29.1
			c0.1,1.1-0.7,2.1-1.8,2.2C420.6,897.4,420.6,897.4,420.5,897.4z"/>
	</g>
	<g>
		<path d="M510.1,967.9c-0.6,0-1.1-0.2-1.5-0.7c-12.2-14.7-29.4-24-48.4-26.2c-19-2.1-37.9,3.1-53,14.8c-0.9,0.7-2.1,0.5-2.8-0.4
			c-0.7-0.9-0.5-2.1,0.4-2.8c16-12.3,35.8-17.8,55.9-15.6c20.1,2.3,38.2,12.1,51.1,27.6c0.7,0.9,0.6,2.1-0.3,2.8
			C511,967.8,510.6,967.9,510.1,967.9z"/>
	</g>
	<polygon class="st4" points="687.7,579 688.3,578.9 688.4,579.3 688,579.4 687.9,579 688,579.4 687.7,579.4 	"/>
	<path class="st2" d="M944.2,1007.2c-0.2-0.1-15.4-6.8-22-26.4c-1.7-5.1-2.9-11.4-4.4-18.8c-4-20.5-9.4-48.5-30.3-69.3l-7.6-11.4
		l25.4-113.9l16.2,9.5c10.1,5.9,19.8,12.7,28.8,20.2c29.2,24.4,50.9,47,72.6,75.5l0.1,0.1l-78.7,134.4L944.2,1007.2z"/>
	<path class="st3" d="M887.5,892.7c-14.4-14.4-37.4-31-61.8-48.5c-22.6-16.2-45.9-33-62-48.1c-15.4-14.4-35.7-35.5-55.8-70.8
		c-21.2-37.2-39.4-84.4-55.4-144.4l-0.1-0.2h0.2c0.9-0.2,91.5-21.8,115-27.9h0.1l0.1,0.1c8,11.4,14.6,23.8,19.4,36.9
		c3.2,8.7,6,17.7,8.7,26.5c6.5,21.3,13.3,43.3,27.2,62.3c17,23.2,64.3,32.1,99,38c16.8,2.8,36.4,8.4,38.9,9.8
		c-23.6-8.7-37.8,36.6-39.5,50.7c-1.5,9.2-2.9,19.4-4.6,34.9c-1.7,15.7-3.7,28.9-7.5,42.2c-7.8,27.1-21.5,38.5-21.6,38.6l-0.1,0.1
		L887.5,892.7z"/>
	<g>
		<path d="M685.7,681.6c-0.8,0-1.5-0.5-1.8-1.2c-8.6-20.6-16.3-41.8-22.9-63.2c-0.3-1.1,0.3-2.2,1.3-2.5c1.1-0.3,2.2,0.3,2.5,1.3
			c6.6,21.2,14.2,42.4,22.7,62.8c0.4,1-0.1,2.2-1.1,2.6C686.2,681.6,686,681.6,685.7,681.6z"/>
	</g>
	<g>
		<path d="M576.3,770.4c-0.8,0-1.5-0.5-1.8-1.2l-25.3-57.5l-39.3,27.7c-0.9,0.6-2.2,0.4-2.8-0.5c-0.6-0.9-0.4-2.2,0.5-2.8l41.3-29.1
			c0.5-0.3,1.1-0.5,1.7-0.3c0.6,0.2,1.1,0.6,1.3,1.1l22.7,51.6l1.6-54.9c0-0.6,0.3-1.1,0.7-1.4s1-0.5,1.5-0.5l50.9,4.8l-43.7-27.1
			c-0.6-0.4-0.9-1-0.9-1.6c0-0.7,0.3-1.3,0.8-1.7l50.6-36.6l-52.1,7.3c-0.6,0.1-1.2-0.1-1.7-0.5c-0.4-0.4-0.7-1-0.6-1.7l5.7-52.5
			c0.1-1.1,1.1-1.9,2.2-1.8c1.1,0.1,1.9,1.1,1.8,2.2l-5.4,49.9l57.6-8c0.9-0.1,1.8,0.4,2.1,1.2c0.3,0.9,0.1,1.8-0.7,2.4l-54.7,39.6
			l48.4,30c0.8,0.5,1.1,1.5,0.8,2.3s-1.2,1.4-2.1,1.4l-57.3-5.4l-1.8,61.6c0,0.9-0.7,1.7-1.6,1.9
			C576.6,770.4,576.4,770.4,576.3,770.4z"/>
	</g>
	<g>
		<path d="M843.6,858.9c-0.9,0-1.7-0.6-1.9-1.4l-9.4-31c-0.2-0.5-0.1-1.1,0.2-1.6s0.7-0.8,1.3-0.9l58.1-13.3L836.5,795
			c-0.5-0.1-1-0.5-1.2-1c-0.3-0.5-0.3-1-0.2-1.5l17.8-58.4l-46.5,38c-0.5,0.4-1.1,0.5-1.8,0.4c-0.6-0.2-1.1-0.6-1.4-1.2l-24.5-60.8
			l-9.2,59.4c-0.1,0.6-0.5,1.2-1.1,1.5s-1.3,0.3-1.8,0L719.7,747c-1-0.5-1.4-1.7-0.9-2.7s1.7-1.4,2.7-0.9l44.4,23.1l9.9-63.8
			c0.1-0.9,0.9-1.6,1.7-1.7c0.9-0.1,1.7,0.4,2.1,1.2l26.2,65l49.5-40.5c0.7-0.6,1.7-0.6,2.4-0.1s1.1,1.4,0.8,2.2l-19.1,62.7
			l60.9,17.2c0.9,0.2,1.5,1.1,1.5,2s-0.7,1.7-1.6,1.9l-63.6,14.5l8.8,28.9c0.3,1.1-0.3,2.2-1.3,2.5
			C844,858.9,843.8,858.9,843.6,858.9z"/>
	</g>
	<g>
		<path d="M818.3,709.8c-0.6,0-1.3-0.3-1.6-0.9L782,658.8l-54.4,45.8c-0.7,0.6-1.7,0.6-2.4,0.1s-1.1-1.4-0.8-2.3l22-70.4l-61.5-5.8
			c-0.9-0.1-1.6-0.7-1.8-1.6c-0.2-0.9,0.2-1.7,1-2.2l50-28.8l-34.7-15.5c-1-0.5-1.5-1.6-1-2.6s1.6-1.5,2.6-1l38.3,17.1
			c0.7,0.3,1.1,1,1.2,1.7c0,0.8-0.3,1.5-1,1.8l-48,27.7l57.7,5.4c0.6,0.1,1.1,0.4,1.5,0.9s0.4,1.1,0.2,1.7l-20.7,66.3l50.9-42.8
			c0.4-0.4,1-0.5,1.6-0.5c0.6,0.1,1.1,0.4,1.4,0.8l31.9,46.1l-1.6-32.4c-0.1-1.1,0.8-2,1.9-2.1c1.1-0.1,2,0.8,2.1,1.9l2,39.4
			c0,0.9-0.5,1.7-1.4,2C818.7,709.8,818.5,709.8,818.3,709.8z"/>
	</g>
	<g>
		<path d="M484.3,864.5c-0.9,0-1.7-0.6-1.9-1.4c-0.3-1.1,0.3-2.2,1.3-2.5l44-13.4L504,779.7c-0.3-0.8,0-1.8,0.7-2.3s1.7-0.5,2.4,0.1
			l54.8,44.8l54.9-64.2c0.6-0.7,1.6-0.9,2.4-0.5c0.8,0.4,1.3,1.3,1.1,2.2L603,840.1l25,2.6c1.1,0.1,1.9,1.1,1.8,2.2
			c-0.1,1.1-1.1,1.9-2.2,1.8l-27.2-2.8c-0.6-0.1-1.1-0.4-1.4-0.8c-0.3-0.5-0.5-1-0.3-1.6l16.1-74.9l-51.1,59.7
			c-0.7,0.8-1.9,0.9-2.8,0.2L510.1,785l22,62.8c0.2,0.5,0.1,1.1-0.1,1.6c-0.2,0.5-0.7,0.9-1.2,1l-46,14
			C484.7,864.5,484.5,864.5,484.3,864.5z"/>
	</g>
	<g>
		<path d="M601.9,907.7c-1,0-1.9-0.7-2-1.7l-3.2-25.3c-0.1-1,0.5-1.9,1.4-2.2l26.3-7.5c1.1-0.3,2.2,0.3,2.5,1.4
			c0.3,1.1-0.3,2.2-1.4,2.5l-24.6,7l3,23.6c0.1,1.1-0.6,2.1-1.7,2.2C602.1,907.7,602,907.7,601.9,907.7z"/>
	</g>
	<g>
		<path d="M619.4,607.5c-0.4,0-0.7-0.1-1-0.3c-0.7-0.4-1.1-1.2-0.9-2l4.5-29.1c0.2-1.1,1.2-1.8,2.3-1.7c1.1,0.2,1.8,1.2,1.7,2.3
			l-3.8,24.3l29.3-21.7c0.9-0.7,2.1-0.5,2.8,0.4s0.5,2.1-0.4,2.8l-33.2,24.6C620.2,607.4,619.8,607.5,619.4,607.5z"/>
	</g>
	<g>
		<path d="M889.5,767.9c-0.1,0-0.3,0-0.4,0c-0.8-0.2-1.4-0.8-1.6-1.6l-9.3-58.1c-0.2-1.1,0.6-2.1,1.7-2.3c1.1-0.2,2.1,0.6,2.3,1.7
			l8.5,52.9l29.1-45.3c0.6-0.9,1.8-1.2,2.8-0.6c0.9,0.6,1.2,1.8,0.6,2.8l-32,49.6C890.8,767.6,890.2,767.9,889.5,767.9z"/>
	</g>
	<path class="st2" d="M767.5,553.2c-44,18.7-79.9,28.4-107,29h-0.9c-1.1,0-2.2,0-3.2,0c-34.2,0-52.3-14.4-52.4-14.5l-0.1-0.1
		l0.1-0.1c50-85.7,108.4-185.2,109-186.2v-0.1l41-11l0.1,0.1c24.1,37,86.2,155.1,93.5,177.9C847.7,548.2,834.4,525.2,767.5,553.2z"
		/>
	<g>
		<path d="M998.4,916.1c-0.4,0-0.8-0.1-1.2-0.4c-9.7-7.1-23.1-16.8-28-47.3c-0.9-6-3.2-27.2,6.7-47.4c0.5-1,1.7-1.4,2.7-0.9
			s1.4,1.7,0.9,2.7c-9.4,19.2-7.2,39.3-6.3,45c4.7,28.9,16.7,37.6,26.4,44.7c0.9,0.7,1.1,1.9,0.4,2.8
			C999.6,915.8,999,916.1,998.4,916.1z"/>
	</g>
	<g>
		<path d="M902.8,915.8c-0.7,0-1.4-0.4-1.7-1c-0.5-1-0.2-2.2,0.8-2.7l24.3-13.7c1-0.5,2.2-0.2,2.7,0.8s0.2,2.2-0.8,2.7l-24.3,13.7
			C903.5,915.7,903.1,915.8,902.8,915.8z"/>
	</g>
	<g>
		<path d="M911.3,941.2c-0.9,0-1.8-0.6-2-1.6c-0.2-1.1,0.5-2.1,1.6-2.4l26.1-5.4c1.1-0.2,2.1,0.5,2.4,1.6c0.2,1.1-0.5,2.1-1.6,2.4
			l-26.1,5.4C911.6,941.2,911.4,941.2,911.3,941.2z"/>
	</g>
	<g>
		<path class="st5" d="M429,575.2c-4.1,0-5.2-4.7-5.4-5.6c-0.2-0.9-1-1.6-1.9-1.6c-3.9-0.1-6.7-1.3-8.4-3.3c-2.2-2.6-2.1-6.1-2-6.8
			c0.1-0.9-0.4-1.7-1.3-2c-3.2-1.3-5.2-3.1-5.9-5.4c-1.2-3.9,1.4-8.3,1.9-9.2c0.3-0.5,0.4-1.2,0.2-1.8c-0.2-0.6-0.7-1-1.3-1.2
			c-0.8-0.2-3.6-1.2-4.4-3.9c-0.9-2.9,0.2-8.7,10.4-19.2c19.9-20.6,48.7-28.4,90.3-38.1l34.8-1.8l10.7,59.8l-40.3,10.4l-4.3,0.5
			c-9.6,1.2-17.1,2.1-21.4,3.1c-19.5,4.4-27.7,10.7-37.1,18c-1.7,1.3-3.5,2.7-5.4,4.1C434.6,573.8,431.4,575.2,429,575.2z"/>
		<path d="M534.4,477.4l10,56.2l-38.3,9.9l-4.2,0.5c-9.6,1.2-17.2,2.1-21.6,3.1c-20,4.5-28.7,11.2-37.9,18.3
			c-1.7,1.3-3.5,2.7-5.3,4.1c-4.3,3.2-6.9,3.7-8,3.7c-2.5,0-3.2-3-3.4-4c-0.3-1.8-1.9-3.2-3.8-3.3c-3.3-0.1-5.6-1-7-2.6
			c-1.8-2.1-1.6-5-1.5-5.3c0.2-1.8-0.9-3.4-2.5-4.1c-2.6-1-4.2-2.4-4.7-4.1c-0.8-2.5,0.7-5.9,1.7-7.5c0.7-1.1,0.8-2.4,0.3-3.5
			c-0.4-1.2-1.4-2.1-2.6-2.4c-0.4-0.1-2.5-0.8-3-2.6c-0.5-1.6-0.5-6.5,9.9-17.3c19.5-20.2,47.9-27.9,89.1-37.5L534.4,477.4
			 M537.7,473.3l-36.7,1.9c-42.1,9.7-71.2,17.6-91.5,38.7c-8.7,9-12.4,16.2-10.9,21.2c1.1,3.7,4.7,5,5.7,5.3
			c-0.7,1.1-3.5,6.2-2.1,10.8c0.9,2.9,3.3,5.1,7,6.6c-0.1,0.9-0.3,5,2.5,8.3c2.1,2.5,5.4,3.8,9.9,4c0.2,1.1,1.6,7.2,7.3,7.2
			c2.8,0,6.3-1.5,10.3-4.5c1.9-1.4,3.7-2.8,5.4-4.1c9.2-7.1,17.2-13.3,36.3-17.6c4.2-0.9,11.7-1.9,21.2-3l4.5-0.6l42.2-10.9
			L537.7,473.3L537.7,473.3z"/>
	</g>
	<path class="st2" d="M500.8,475.2h0.2c2.2-0.5,4.5-1,6.8-1.6c6.3-1.5,12.8-3,19.7-4.5c66.6-14.3,138.8-57.2,172.9-90.3l0.1-0.1
		l14.8,5.6l28,57.2l-0.1,0.1c-0.2,0.3-20.8,32.4-78.4,64.8c-18.7,10.5-46.2,19.9-81.6,27.9c-31.5,7.1-61.4,11.3-76.4,13.1h-0.2
		L500.8,475.2z"/>
	<g>
		<path d="M631.6,522.7c-0.8,0-1.6-0.5-1.9-1.4c-0.3-1,0.2-2.2,1.3-2.5c10.8-3.6,21.7-8.4,32.7-14.3c10.8-6,21.1-12.6,30.7-19.5
			c0.9-0.6,2.1-0.4,2.8,0.5c0.6,0.9,0.4,2.1-0.5,2.8c-9.7,7-20.2,13.6-31.1,19.7c-11.2,6-22.4,10.9-33.3,14.6
			C632,522.7,631.8,522.7,631.6,522.7z"/>
	</g>
	<g>
		<path d="M423.7,570c-0.3,0-0.7-0.1-1-0.3c-1-0.6-1.3-1.8-0.7-2.7c13.7-23.3,38.6-34.5,39.6-35c1-0.4,2.2,0,2.6,1s0,2.2-1,2.6
			c-0.2,0.1-24.8,11.2-37.8,33.4C425.1,569.6,424.4,570,423.7,570z"/>
	</g>
	<g>
		<path d="M411.6,559c-0.3,0-0.7-0.1-1-0.3c-1-0.5-1.3-1.8-0.7-2.7c13.4-23.5,43.9-37.1,45.2-37.6c1-0.4,2.2,0,2.6,1s0,2.2-1,2.6
			c-0.3,0.1-30.7,13.6-43.4,36C413,558.6,412.3,559,411.6,559z"/>
	</g>
	<g>
		<path d="M406.5,542.4c-0.4,0-0.9-0.1-1.2-0.4c-0.9-0.7-1-1.9-0.3-2.8c19.8-25.3,42.4-34.4,43.3-34.7c1-0.4,2.2,0.1,2.6,1.1
			s-0.1,2.2-1.1,2.6c-0.2,0.1-22.6,9-41.7,33.5C407.7,542.1,407.1,542.4,406.5,542.4z"/>
	</g>
	<g>
		<path class="st5" d="M770.5,395.9c-11.6,0-21-9.4-21-21s9.4-21,21-21s21,9.4,21,21S782.1,395.9,770.5,395.9z"/>
		<path d="M770.5,355.8c10.5,0,19,8.5,19,19s-8.5,19-19,19s-19-8.5-19-19S760,355.8,770.5,355.8 M770.5,351.8c-12.7,0-23,10.3-23,23
			s10.3,23,23,23s23-10.3,23-23S783.2,351.8,770.5,351.8L770.5,351.8z"/>
	</g>
	<g>
		<path class="st5" d="M724.9,405.1c-17.2,0-32.7-18.7-37.7-45.4c-6-32.1,1.6-60.2,17.6-65.4c4.2-1.4,8.6-2.1,13.1-2.1
			c22.8,0,41.2,18,41.4,18.2c9.2,9.5,13.1,18.7,12.5,29.7c-0.6,12.4-6.9,27.2-19.6,46.6C744.3,398.7,734.9,405.1,724.9,405.1z"/>
		<path d="M717.9,290.2v4c21.6,0,39.3,17,40,17.6c15.2,15.6,19.2,33.4-7.3,73.8c-7.5,11.4-16.4,17.4-25.7,17.4
			c-7.5,0-15.1-4.1-21.5-11.4c-6.9-8-11.9-19.2-14.3-32.3c-2.9-15.6-2.6-30.7,0.7-42.6c3.1-11,8.7-18.3,15.6-20.6
			c4-1.3,8.2-2,12.5-2V290.2 M717.9,290.2c-4.4,0-9,0.6-13.7,2.2c-16.8,5.5-25.3,34-19,67.7c5.3,28.5,22,47,39.7,47
			c10,0,20.3-5.9,29-19.2c26.3-40.1,24.6-60.6,6.8-78.9C760.7,309,741.8,290.2,717.9,290.2L717.9,290.2z"/>
	</g>
	<path d="M704.2,292.4c30-9.8,56.5,16.6,56.5,16.6c11.5,11.8,16.3,24.5,11.1,42.8L686.7,313C690.4,302.4,696.4,294.9,704.2,292.4z"
		/>
	<g>
		<path d="M706.1,360.1c-0.4,0-0.9-0.1-1.2-0.4c-1.7-1.4-3-3.1-3.7-5c-1.1-3.1-0.5-7.7,2.2-17.9c0.3-1.1,1.4-1.7,2.4-1.4
			c1.1,0.3,1.7,1.4,1.4,2.4c-2.4,9-3.1,13.5-2.3,15.5c0.4,1.2,1.3,2.3,2.4,3.2c0.9,0.7,1,1.9,0.3,2.8
			C707.3,359.8,706.7,360.1,706.1,360.1z"/>
	</g>
	<g>
		<path d="M720,347.4c-0.1,0-0.2,0-0.3,0c-1.1-0.1-1.9-1.1-1.7-2.2l0.3-2.4c0.1-1.1,1.1-1.9,2.2-1.7c1.1,0.1,1.9,1.1,1.7,2.2
			l-0.3,2.4C721.9,346.7,721,347.4,720,347.4z"/>
	</g>
	<g>
		<path d="M694.6,337.8c-0.1,0-0.2,0-0.3,0c-1.1-0.1-1.9-1.1-1.7-2.2l0.3-2.3c0.1-1.1,1.1-1.9,2.2-1.7c1.1,0.1,1.9,1.1,1.7,2.2
			l-0.3,2.3C696.5,337.1,695.6,337.8,694.6,337.8z"/>
	</g>
	<g>
		<path d="M713.3,373.3c-0.6,0-1.2-0.1-1.8-0.2s-1.3-0.3-1.9-0.6c-1-0.5-1.4-1.7-0.9-2.7s1.7-1.4,2.7-0.9c0.2,0.1,0.6,0.2,0.9,0.2
			c3.1,0.6,6.1-1.5,6.7-4.6c0.2-1.1,1.3-1.8,2.3-1.6c1.1,0.2,1.8,1.3,1.6,2.3c-0.5,2.6-1.9,4.8-4.1,6.3
			C717.1,372.8,715.2,373.3,713.3,373.3z"/>
	</g>
	<g>
		<path d="M773.9,379.9c-0.3,0-0.6-0.1-0.9-0.2l-12.1-6.1c-1-0.5-1.4-1.7-0.9-2.7s1.7-1.4,2.7-0.9l12.1,6.1c1,0.5,1.4,1.7,0.9,2.7
			C775.3,379.5,774.6,379.9,773.9,379.9z"/>
	</g>
	<circle cx="761.5" cy="284.2" r="21.1"/>
	<g>
		<path d="M506.7,549.3c-1,0-1.9-0.8-2-1.8l-5.7-72c-0.1-1.1,0.7-2.1,1.8-2.2c1.1-0.1,2.1,0.7,2.2,1.8l5.7,72
			c0.1,1.1-0.7,2.1-1.8,2.2C506.8,549.3,506.8,549.3,506.7,549.3z"/>
	</g>
	<g>
		<path d="M565.8,539.9c-1,0-1.9-0.8-2-1.8l-6.5-77.8c-0.1-1.1,0.7-2.1,1.8-2.2s2.1,0.7,2.2,1.8l6.5,77.8c0.1,1.1-0.7,2.1-1.8,2.2
			C565.9,539.9,565.9,539.9,565.8,539.9z"/>
	</g>
	<path d="M532.8,507.1c6.7-1.1,12.4,4.6,11.3,11.3c-0.7,4.1-3.9,7.3-8,8c-6.7,1.1-12.4-4.6-11.3-11.3
		C525.5,511.1,528.8,507.8,532.8,507.1z"/>
	<g>
		<path d="M773.9,492.7c-0.8,0-1.5-0.5-1.9-1.2c-0.4-1,0.1-2.2,1.1-2.6c0.9-0.4,22.7-9.2,45.7-4.1c1.1,0.2,1.8,1.3,1.5,2.4
			c-0.2,1.1-1.3,1.8-2.4,1.5c-21.7-4.8-43.1,3.8-43.3,3.9C774.4,492.7,774.2,492.7,773.9,492.7z"/>
	</g>
	<g>
		<path d="M763.8,465.9c-0.8,0-1.5-0.4-1.8-1.2c-0.5-1,0-2.2,1-2.6c0.9-0.4,21.6-9.6,42.7-4.5c1.1,0.3,1.7,1.3,1.5,2.4
			c-0.3,1.1-1.3,1.7-2.4,1.5c-19.8-4.8-39.9,4.2-40.1,4.3C764.4,465.8,764.1,465.9,763.8,465.9z"/>
	</g>
</g>
<g id="girl">
	<path class="st5" d="M1035.3,828.6l-11.8,15.7c-4.6,8-8.5,14.8-11.3,19.8l-2.9,5.2c-8.9,15.7-14.1,24.8-18.6,30.5l65.1,71.1
		c17.8-21.6,39.1-51.9,53.9-86.9L1035.3,828.6z"/>
	<path d="M1326.5,861.7c-0.1-0.1-11.4-13.3-24.4-25.3l-0.2-0.2l0.2-0.1c0.2-0.1,10.1-17.3,27.8-21.1c3.3-0.7,6.4-1.1,9.2-1.1
		c7.9,0,16.5,6.8,16.8,7.1c2.3,2.4,3.2,6.9,2,11.6c-2.9,10.7-14.6,22.3-30,30.3l-0.1,0.1L1326.5,861.7z"/>
	<g>
		<path class="st5" d="M969.6,659.5c-14.2-12.5-24-24.2-30.5-32.1l-0.6-0.7l14.6-39.3c0.2-0.5,0.2-1,0-1.4c-2-5.3-3.6-12.7-1.4-16.1
			c0.8-1.2,2-1.9,3.7-2c1.9,0.1,11.1,5.9,20.8,12.1c8.5,5.4,18.9,12,30.2,18.6l7.4,5.6l-33.1,62.6L969.6,659.5z"/>
		<path d="M955.3,569.9c2.4,0.7,11.3,6.3,19.9,11.8c8.4,5.4,18.9,12,30.2,18.6l6,4.5l-31.3,59.1l-9.2-5.9
			c-13.9-12.2-23.6-23.8-30-31.6l14.2-38.2c0.3-0.9,0.3-1.9,0-2.8c-2-5.2-3.2-11.8-1.6-14.3C953.6,570.5,954.1,570.1,955.3,569.9
			 M955.3,565.9C955.2,565.9,955.2,565.9,955.3,565.9c-2.5,0.2-4.2,1.2-5.3,3c-3.3,5.2,0.4,15.6,1.3,17.9l-15,40.4l1.3,1.6
			c6.5,7.9,16.4,19.8,30.8,32.4l13.2,8.5l34.9-66l-8.9-6.7c-11.3-6.6-21.8-13.3-30.3-18.6C965.5,570.8,957.8,565.9,955.3,565.9
			L955.3,565.9z"/>
	</g>
	<path class="st0" d="M1111,712.9c-55.4,0-103.4-17.4-142.7-51.8l-0.1-0.1l39.1-64.2l0.2,0.1c17.7,10.3,32.8,17.6,46.2,22.5
		c12.8,4.6,28.6,7.1,45.8,7.1c29.1,0,60-6.8,82.5-18.3l0.2-0.1l13,62.6v0.1c-0.3,0.4-26,40.1-73.1,42
		C1118.5,712.8,1114.7,712.9,1111,712.9z"/>
	<path d="M1035.7,831.3l71.5,53.2c-13.5,31.4-32.2,59-48.7,79.7l-57.5-76.5c2.8-4.7,6-10.4,10-17.4l2.9-5.2
		c2.8-5,6.6-11.7,11.3-19.7L1035.7,831.3 M1034.9,825.7l-13.1,17.3c-4.7,8.1-8.5,14.9-11.4,20l-2.9,5.2c-5.2,9.2-9.1,16.1-12.3,21.3
		l62.9,81.3c17.9-21.9,39.1-52.4,53.7-87.5l0.1-0.1L1034.9,825.7L1034.9,825.7z"/>
	<path class="st3" d="M1225.6,399.2l-209.3,9.9l34.2-135.6l179.6,107.9c4.5,2.7,6,8.6,3.3,13.2
		C1231.7,397.3,1228.8,399.1,1225.6,399.2z"/>
	<g>
		<ellipse transform="matrix(0.7071 -0.7071 0.7071 0.7071 58.8936 814.2045)" class="st5" cx="1012.3" cy="336" rx="71" ry="71"/>
		<path d="M1012.3,267c38.1,0,69,31,69,69s-31,69-69,69s-69-31-69-69S974.3,267,1012.3,267 M1012.3,263c-40.3,0-73,32.7-73,73
			s32.7,73,73,73s73-32.7,73-73S1052.6,263,1012.3,263L1012.3,263z"/>
	</g>
	<g>
		<path d="M933.1,676.9c-0.2,0-0.3,0-0.5-0.1c-1.1-0.3-1.7-1.3-1.5-2.4l65.7-267.6c0.3-1.1,1.3-1.7,2.4-1.5c1.1,0.3,1.7,1.3,1.5,2.4
			L935,675.4C934.8,676.3,934,676.9,933.1,676.9z"/>
	</g>
	<g>
		<path class="st5" d="M944.9,634.7c-3,0-7.2-1.8-12.3-5.1c-2.7-1.7-4.5-4.4-5-7.4c-0.4-2.5,0.1-4.9,1.5-6.8
			c0.4-0.6,0.5-1.3,0.3-1.9c-0.9-2.2-0.9-4.8,0.1-7c0.7-1.7,2-3,3.6-3.6c0.5-0.2,0.9-0.6,1.1-1.1s0.2-1.1,0-1.6
			c-0.6-1.4-0.8-3.7,0.3-5.8c1.1-2,3.1-3.3,5.9-3.6c1-0.1,1.7-0.9,1.7-1.9c0.3-5.4,3.9-7.2,5.7-7.5c0.5-0.1,1-0.1,1.5-0.1
			c7.6,0,18.8,5.4,20.5,11.1c0.8,2.7-0.8,5.2-4.6,7.6c-0.8,0.5-1.1,1.4-0.8,2.2c0.1,0.4,1.1,4-0.5,6.7c-0.9,1.6-2.6,2.7-5,3.3
			c-0.5,0.1-1,0.5-1.3,0.9s-0.3,1-0.2,1.6c0.2,0.6,1,4-0.5,6.7c-0.9,1.6-2.6,2.7-5,3.3c-0.9,0.2-1.6,1.1-1.5,2
			c0,0.4,0.1,4.4-1.9,6.5C947.6,634.3,946.4,634.7,944.9,634.7z"/>
		<path d="M949.5,583.4c7.4,0,17.3,5.2,18.6,9.7c0.5,1.7-0.8,3.5-3.8,5.4c-1.5,1-2.2,2.8-1.7,4.5c0.3,1.1,0.6,3.5-0.3,5.2
			c-0.6,1.1-1.9,1.9-3.7,2.3c-1.1,0.3-2,0.9-2.5,1.9c-0.6,0.9-0.7,2.1-0.4,3.1c0.1,0.3,0.8,3.1-0.3,5.1c-0.6,1.1-1.9,1.9-3.7,2.3
			c-1.9,0.4-3.2,2.1-3.1,4c0,1.2-0.2,3.8-1.4,5.1c-0.3,0.4-0.9,0.8-2.2,0.8c-1.5,0-4.9-0.6-11.2-4.7c-2.2-1.4-3.7-3.7-4.1-6.1
			c-0.3-1.9,0.1-3.8,1.2-5.3c0.8-1.1,1-2.6,0.5-3.9c-0.7-1.7-0.7-3.8,0-5.5c0.5-1.2,1.4-2.1,2.6-2.6c1-0.4,1.8-1.2,2.2-2.2
			s0.4-2.2-0.1-3.1c-0.3-0.7-0.6-2.4,0.3-4c0.8-1.4,2.2-2.3,4.4-2.6c1.9-0.2,3.4-1.8,3.5-3.7c0.3-5.1,3.9-5.6,4-5.6
			C948.5,583.4,949,583.4,949.5,583.4 M949.5,579.4c-0.6,0-1.2,0-1.8,0.1c-2.4,0.3-7.1,2.6-7.5,9.3c-4.4,0.6-6.4,2.9-7.4,4.7
			c-1.4,2.7-1.2,5.7-0.4,7.5c-2.1,0.9-3.8,2.5-4.7,4.7c-1.1,2.6-1.2,5.8-0.1,8.5c-1.8,2.4-2.4,5.3-1.9,8.4c0.6,3.5,2.7,6.7,5.8,8.7
			c5.4,3.6,9.9,5.4,13.4,5.4c2.1,0,3.8-0.7,5.1-2c2.5-2.7,2.5-7,2.5-7.9c3-0.7,5.1-2.1,6.3-4.2c1.9-3.3,1-7.3,0.7-8.2
			c3-0.7,5.1-2.1,6.3-4.2c1.9-3.4,0.9-7.4,0.7-8.3c5.8-3.7,6.2-7.4,5.5-9.9C969.9,585.2,957.9,579.4,949.5,579.4L949.5,579.4z"/>
	</g>
	<g>
		<path d="M950.9,626.7c-0.5,0-1.1-0.2-1.5-0.7c-7.3-8.1-18.8-9.6-19-9.7c-1.1-0.1-1.9-1.1-1.7-2.2c0.1-1.1,1.1-1.9,2.2-1.7
			c0.5,0.1,13.1,1.7,21.4,10.9c0.7,0.8,0.7,2.1-0.2,2.8C951.9,626.5,951.4,626.7,950.9,626.7z"/>
	</g>
	<g>
		<path d="M957.9,614.2c-0.5,0-1-0.2-1.3-0.5l0,0c-0.1-0.1-8.1-7.2-21.7-9.5c-1.1-0.2-1.8-1.2-1.6-2.3s1.2-1.8,2.3-1.6
			c14.8,2.6,23.3,10.2,23.7,10.5c0.8,0.7,0.9,2,0.1,2.8C959,614,958.4,614.2,957.9,614.2z"/>
	</g>
	<g>
		<path d="M963.8,601.9c-0.4,0-0.9-0.1-1.2-0.4c-3.2-2.6-8.7-6.9-20.2-8.7c-1.1-0.2-1.8-1.2-1.7-2.3c0.2-1.1,1.2-1.8,2.3-1.7
			c12.5,1.9,18.7,6.9,22,9.5c0.9,0.7,1,1.9,0.3,2.8C965,601.6,964.4,601.9,963.8,601.9z"/>
	</g>
	<path class="st0" d="M1091.9,732.3l0.2-0.3c9.7-14.7,18.9-28.7,27.8-42.3c16.9-25.8,31.5-48.1,44.7-66.9l0.1-0.1l35.5-3.4l87.2,113
		H1091.9z"/>
	<g>
		<path class="st5" d="M1265.3,925.8c-2.7-3.3-5.9-6.7-9.7-10.1l-0.4-0.3c-6.1-5.5-26.7-24-36.4-32.8c-3.6-4.6-4.6-9-3-13.5
			c6.5-19,57.1-35.1,77.4-40.1l7.7,8.6l0.1,0.1c12.8,11.8,23.8,24.6,24.2,25.2l1.1,1.2c3.1,3.5,14.4,16.4,25.4,31.9
			C1357.9,904.7,1278.7,942.3,1265.3,925.8z"/>
		<path d="M1292.6,831.1l6.9,7.7c0.1,0.1,0.2,0.2,0.3,0.3c12.7,11.8,23.6,24.5,24.1,25c0,0,0,0,0.1,0.1l1.1,1.2
			c4.8,5.3,28.5,32.6,41.2,57.4l-89.2,17.7c-3.8-8.3-10-17.2-20-26.3l-0.4-0.3c-6.1-5.5-26.5-23.9-36.3-32.7
			c-3.1-3.9-3.9-7.7-2.6-11.5c3-8.7,17.3-18.4,40.4-27.4C1273.1,836.4,1287.3,832.5,1292.6,831.1 M1293.9,826.7L1293.9,826.7
			c-0.8,0.2-71.6,17.3-80,41.6c-1.8,5.2-0.6,10.4,3.5,15.5c11.2,10,36.7,33,36.9,33.2c5.8,5.3,10.3,10.6,13.7,15.6
			c2.1,3.2,3.9,6.3,5.2,9.3l97.6-18.6c-4.6-9.4-10.8-19.2-17.2-28.2c-11.2-15.8-22.7-29-25.8-32.6l-1.1-1.2
			c-0.1-0.1-11.4-13.3-24.4-25.3L1293.9,826.7L1293.9,826.7z"/>
	</g>
	<path class="st1" d="M1148,902.4c-3,0-6-0.1-8.9-0.2c-74.2-4.1-116.8-58.4-117.2-58.9l-0.1-0.1l0.1-0.1c2.8-4.9,6.1-10.5,9.6-16.4
		c15.7-26.7,35.1-57,57.6-90.1c1-1.5,3.1-4.6,3.1-4.6h164.3l99.5,89.1c-14.6-10.8-35-0.8-53.4,15.2c-0.6,0.5-1.6,1.5-3,2.6
		c-7.3,6.1-26.9,22.2-53.5,36.5C1212.6,893.3,1179.6,902.4,1148,902.4z"/>
	<g>
		<path d="M1053.9,873.6c-0.3,0-0.6-0.1-0.9-0.2c-1-0.5-1.4-1.7-0.9-2.7l68.5-138.8c0.5-1,1.7-1.4,2.7-0.9s1.4,1.7,0.9,2.7
			l-68.5,138.8C1055.3,873.2,1054.6,873.6,1053.9,873.6z"/>
	</g>
	<g>
		<path d="M1127.1,902.7c-0.1,0-0.2,0-0.4,0c-1.1-0.2-1.8-1.2-1.6-2.3l30.4-167.9c0.2-1.1,1.2-1.8,2.3-1.6c1.1,0.2,1.8,1.2,1.6,2.3
			L1129,901.1C1128.9,902,1128.1,902.7,1127.1,902.7z"/>
	</g>
	<g>
		<path d="M1196.5,898c-1.1,0-1.9-0.8-2-1.9l-9.4-163c-0.1-1.1,0.8-2,1.9-2.1s2,0.8,2.1,1.9l9.4,163
			C1198.6,897,1197.7,897.9,1196.5,898L1196.5,898z"/>
	</g>
	<g>
		<path d="M1267.8,865.2c-0.8,0-1.6-0.5-1.9-1.3l-49.7-130.4c-0.4-1,0.1-2.2,1.2-2.6c1-0.4,2.2,0.1,2.6,1.2l49.7,130.4
			c0.4,1-0.1,2.2-1.2,2.6C1268.3,865.2,1268,865.2,1267.8,865.2z"/>
	</g>
	<g>
		<path d="M1324.4,826.3c-0.5,0-1.1-0.2-1.5-0.6l-83.7-91.3c-0.7-0.8-0.7-2.1,0.1-2.8c0.8-0.7,2.1-0.7,2.8,0.1l83.7,91.3
			c0.7,0.8,0.7,2.1-0.1,2.8C1325.4,826.1,1324.9,826.3,1324.4,826.3z"/>
	</g>
	<g>
		<path class="st5" d="M1165.9,771.1c-12.2,0-16.2-2.8-17.5-4.5c-0.9-1.2-0.9-2.2-0.8-2.5c0.1-1-0.5-1.9-1.5-2.2
			c-0.6-0.2-3.6-1.1-4.9-3.3c-0.7-1.3-0.7-2.8,0-4.6c0.3-0.8,0-1.8-0.7-2.3c-1.6-1.2-2.5-2.5-2.7-4c-0.3-2.8,1.8-5.5,2-5.8
			c0.5-0.6,0.6-1.4,0.2-2.1c-0.1-0.3-0.8-1.9,0-4.1c1.4-3.5,6-6.6,13.3-8.9c0.6-0.2,1.1-0.7,1.3-1.4c0.2-0.6,0-1.3-0.4-1.8
			c-0.3-0.4-1.3-1.7-1-3.3c0.3-1.8,2.4-3.7,5.8-5.2c3.1-1.4,18.5-6,43.4-12.9l8-0.5l20,58.9l-10.8,3.9c-14.8,2.8-28.7,4.5-41.6,5.9
			C1173.6,770.9,1169.5,771.1,1165.9,771.1L1165.9,771.1z"/>
		<path d="M1209.2,703.8l18.8,55.6l-8.8,3.2c-14.7,2.8-28.5,4.5-41.3,5.8c-4.4,0.5-8.5,0.7-12,0.7c-12.1,0-15.3-2.8-15.9-3.7
			c-0.4-0.5-0.4-0.9-0.4-0.9c0.3-2-1-3.9-3-4.4c-0.9-0.2-2.9-1.1-3.6-2.4c-0.1-0.3-0.6-1.1,0.1-3c0.6-1.7,0-3.5-1.4-4.6
			c-1.7-1.2-1.8-2.3-1.9-2.6c-0.2-1.6,0.9-3.5,1.6-4.3c1-1.2,1.1-2.9,0.5-4.2c-0.1-0.1-0.5-1.1,0.1-2.5c1.1-2.9,5.4-5.6,12.1-7.8
			c1.3-0.4,2.3-1.4,2.6-2.7c0.4-1.3,0.1-2.7-0.8-3.7c-0.1-0.1-0.7-0.9-0.6-1.6c0.2-0.9,1.5-2.3,4.7-3.8c1.8-0.8,9.7-3.5,42.9-12.8
			L1209.2,703.8 M1212,699.7l-9.8,0.6c-17.7,4.9-39.8,11.2-43.9,13.1c-4.2,1.9-6.5,4.2-7,6.7c-0.4,2.4,0.9,4.3,1.5,4.9
			c-8,2.6-12.9,6-14.6,10.1c-1.2,2.9-0.2,5.2,0,5.7c-0.5,0.6-2.9,3.7-2.4,7.3c0.3,2.1,1.4,3.9,3.5,5.4c-0.9,2.4-0.8,4.5,0.2,6.2
			c1.6,3,5.3,4.1,6.1,4.3c-0.1,0.6-0.1,2.2,1.2,4c1.9,2.4,6.7,5.2,19.1,5.2l0,0c3.7,0,7.8-0.3,12.4-0.7c12.9-1.4,27-3.1,41.9-5.9
			l12.8-4.6L1212,699.7L1212,699.7z"/>
	</g>
	<path class="st0" d="M1202.1,700.3l0.2-0.1c15.8-4.4,30.4-8.3,32.4-8.9l-34.8-71.7l-0.8-13.4l35.9,18c20.5,13.6,68.2,49.1,68.2,84
		c0,28.1-27.9,47.9-83,58.4h-0.2L1202.1,700.3z"/>
	<g>
		<path d="M1154.7,728.5c-0.9,0-1.7-0.6-1.9-1.5c-0.3-1.1,0.4-2.2,1.4-2.4l12.6-3.2c1.1-0.3,2.2,0.4,2.4,1.4
			c0.3,1.1-0.4,2.2-1.4,2.4l-12.6,3.2C1155,728.5,1154.9,728.5,1154.7,728.5z"/>
	</g>
	<g>
		<path d="M1141.1,743.2c-1,0-1.9-0.8-2-1.8c-0.1-1.1,0.7-2.1,1.8-2.2c0.1,0,9.9-1.1,44.9-9.4c1.1-0.3,2.2,0.4,2.4,1.5
			c0.3,1.1-0.4,2.2-1.5,2.4c-35.3,8.3-45,9.4-45.4,9.4C1141.2,743.2,1141.2,743.2,1141.1,743.2z"/>
	</g>
	<g>
		<path d="M1141.7,754.3c-1.1,0-2-0.9-2-2s0.9-2,2-2c6.5,0,33.5-3.2,46.6-7.2c1.1-0.3,2.2,0.3,2.5,1.3c0.3,1.1-0.3,2.2-1.3,2.5
			C1175.8,751.1,1148.6,754.3,1141.7,754.3z"/>
	</g>
	<g>
		<path d="M1147.2,764.3c-1.1,0-2-0.9-2-2s0.9-2,2-2c10.1,0,30-2.1,43.6-5.2c1.1-0.2,2.1,0.4,2.4,1.5c0.2,1.1-0.4,2.1-1.5,2.4
			C1177.4,762.3,1157.5,764.3,1147.2,764.3z"/>
	</g>
	<g>
		<path d="M1200.4,705c-0.9,0-1.7-0.6-1.9-1.5c-0.3-1.1,0.3-2.2,1.4-2.5l49.2-13.6c1.1-0.3,2.2,0.3,2.5,1.4c0.3,1.1-0.3,2.2-1.4,2.5
			l-49.2,13.6C1200.8,705,1200.6,705,1200.4,705z"/>
	</g>
	<g>
		<path d="M1234.9,693.5c-0.7,0-1.5-0.4-1.8-1.1l-12.3-26c-0.5-1,0-2.2,1-2.7s2.2,0,2.7,1l12.3,26c0.5,1,0,2.2-1,2.7
			C1235.5,693.4,1235.2,693.5,1234.9,693.5z"/>
	</g>
	<g>
		<path class="st5" d="M1224.5,629.4c-11.6,0-21-9.4-21-21s9.4-21,21-21s21,9.4,21,21S1236.1,629.4,1224.5,629.4z"/>
		<path d="M1224.5,589.4c10.5,0,19,8.5,19,19s-8.5,19-19,19s-19-8.5-19-19S1214.1,589.4,1224.5,589.4 M1224.5,585.4
			c-12.7,0-23,10.3-23,23s10.3,23,23,23s23-10.3,23-23S1237.2,585.4,1224.5,585.4L1224.5,585.4z"/>
	</g>
	<g>
		<path class="st5" d="M1178.9,638.7c-17.2,0-32.7-18.7-37.7-45.4c-6-32.1,1.6-60.2,17.6-65.4c4.2-1.4,8.6-2.1,13.1-2.1
			c22.8,0,41.2,18,41.4,18.2c9.2,9.5,13.1,18.7,12.5,29.7c-0.6,12.4-6.9,27.2-19.6,46.6C1198.4,632.3,1188.9,638.7,1178.9,638.7z"/>
		<path d="M1171.9,523.8v4c21.6,0,39.3,17,40,17.6c15.2,15.6,19.2,33.4-7.3,73.8c-7.5,11.4-16.4,17.4-25.7,17.4
			c-7.5,0-15.1-4.1-21.5-11.4c-6.9-8-11.9-19.2-14.3-32.3c-2.9-15.6-2.6-30.7,0.7-42.6c3.1-11,8.7-18.3,15.6-20.6
			c4-1.3,8.2-2,12.5-2L1171.9,523.8 M1171.9,523.8c-4.4,0-9,0.6-13.7,2.2c-16.8,5.5-25.3,34-19,67.7c5.3,28.5,22,47,39.7,47
			c10,0,20.3-5.9,29-19.2c26.3-40.1,24.6-60.6,6.8-78.9C1214.7,542.6,1195.8,523.8,1171.9,523.8L1171.9,523.8z"/>
	</g>
	<path d="M1214.7,542.6c13.6,14,17.8,29.3,7.2,53.8c-21.6-14.2-22.6-52.7-22.6-52.7c-31.8,16.3-59.3,5.5-59.3,5.5
		c3.4-12,9.8-20.5,18.2-23.3C1188.2,516.2,1214.7,542.6,1214.7,542.6z"/>
	<g>
		<path d="M1160.1,593.7c-0.4,0-0.9-0.1-1.2-0.4c-1.7-1.4-3-3.1-3.7-5c-1.1-3.1-0.5-7.7,2.2-17.9c0.3-1.1,1.4-1.7,2.4-1.4
			c1.1,0.3,1.7,1.4,1.4,2.4c-2.4,9-3.1,13.5-2.3,15.5c0.4,1.2,1.3,2.3,2.4,3.2c0.9,0.7,1,1.9,0.3,2.8
			C1161.3,593.4,1160.7,593.7,1160.1,593.7z"/>
	</g>
	<g>
		<path d="M1174,581c-0.1,0-0.2,0-0.3,0c-1.1-0.2-1.8-1.2-1.6-2.3l0.4-2.4c0.2-1.1,1.2-1.8,2.3-1.6c1.1,0.2,1.8,1.2,1.6,2.3
			l-0.4,2.4C1175.8,580.3,1175,581,1174,581z"/>
	</g>
	<g>
		<path d="M1148.6,571.4c-0.1,0-0.2,0-0.3,0c-1.1-0.1-1.9-1.1-1.7-2.2l0.3-2.4c0.1-1.1,1.1-1.9,2.2-1.7c1.1,0.1,1.9,1.1,1.7,2.2
			l-0.3,2.4C1150.5,570.7,1149.6,571.4,1148.6,571.4z"/>
	</g>
	<g>
		<path d="M1167.4,606.9c-0.6,0-1.2-0.1-1.8-0.2c-0.6-0.1-1.3-0.3-1.9-0.6c-1-0.5-1.4-1.7-0.9-2.7s1.7-1.4,2.7-0.9
			c0.2,0.1,0.6,0.2,0.9,0.2c1.5,0.3,3,0,4.3-0.9s2.1-2.2,2.4-3.7c0.2-1.1,1.3-1.8,2.3-1.6c1.1,0.2,1.8,1.3,1.6,2.3
			c-0.5,2.6-1.9,4.8-4.1,6.3C1171.2,606.4,1169.3,606.9,1167.4,606.9z"/>
	</g>
	<g>
		<path d="M1227.9,613.5c-0.3,0-0.6-0.1-0.9-0.2l-12-6.1c-1-0.5-1.4-1.7-0.9-2.7s1.7-1.4,2.7-0.9l12,6.1c1,0.5,1.4,1.7,0.9,2.7
			C1229.3,613.1,1228.6,613.5,1227.9,613.5z"/>
	</g>
	<circle cx="1228.7" cy="511.2" r="35.2"/>
	<g>
		<path d="M1105.3,714.4c-0.4,0-0.8-0.1-1.1-0.3c-0.9-0.6-1.2-1.9-0.6-2.8l31.9-47.8c0.6-0.9,1.9-1.2,2.8-0.6
			c0.9,0.6,1.2,1.9,0.6,2.8l-31.9,47.8C1106.6,714.1,1105.9,714.4,1105.3,714.4z"/>
	</g>
	<g>
		<path d="M1170,673.9c-0.1,0-0.3,0-0.4,0c-1.1-0.2-1.8-1.3-1.6-2.4l6.6-32.6c0.2-1.1,1.3-1.8,2.4-1.6s1.8,1.3,1.6,2.4l-6.6,32.6
			C1171.8,673.2,1170.9,673.9,1170,673.9z"/>
	</g>
	<path class="st0" d="M1288.3,1007.2c-0.4-0.3-9.6-6.7-9.6-37.9c0-11.7-1.9-27.4-16.9-44.5l-0.1-0.1v-0.1c0-0.1,4-10.7,22.6-20
		c21.9-11,64.8-14.9,65.3-15h0.1l0.1,0.1c9.2,12.5,16.4,23.9,21.1,33.7l0.1,0.1l-82.5,83.7H1288.3z"/>
	<path class="st0" d="M929.7,926.4L929.7,926.4c4.5-9.9,12.4-11.6,26.6-14.5c3.5-0.7,7.5-1.6,12-2.6c15.2-3.6,18-4.3,30.5-25.8
		l0.1-0.1h0.1c0,0,0.1,0,0.3,0c2.4,0,15.4,1.4,36.8,29.7c14.5,19.1,27,51.3,27.1,51.6v0.1l-0.1,0.1c-20.5,26.1-38.2,42.1-38.3,42.2
		l-0.1,0.1L929.7,926.4z"/>
	<g>
		<path d="M976.8,931.1c-0.9,0-1.7-0.6-1.9-1.5l-5.4-20.4c-0.3-1.1,0.4-2.2,1.4-2.4c1.1-0.3,2.2,0.4,2.4,1.4l5.4,20.4
			c0.3,1.1-0.4,2.2-1.4,2.4C977.1,931.1,977,931.1,976.8,931.1z"/>
	</g>
	<g>
		<path d="M1277.1,954.5c-0.8,0-1.5-0.4-1.8-1.2c-0.5-1,0-2.2,1-2.6l20.5-9.3c1-0.5,2.2,0,2.6,1c0.5,1,0,2.2-1,2.6l-20.5,9.3
			C1277.7,954.4,1277.4,954.5,1277.1,954.5z"/>
	</g>
</g>
</svg>
