<?xml version="1.0" encoding="utf-8"?>
<!-- Generator: Adobe Illustrator 25.1.0, SVG Export Plug-In . SVG Version: 6.00 Build 0)  -->
<svg version="1.1" id="Layer_2_1_" xmlns="http://www.w3.org/2000/svg" xmlns:xlink="http://www.w3.org/1999/xlink" x="0px" y="0px"
	 viewBox="0 0 1600 1200" style="enable-background:new 0 0 1600 1200;" xml:space="preserve">
<style type="text/css">
	.st0{fill:#F696BB;}
	.st1{fill:#F9494B;}
	.st2{fill:#FFFFFF;}
	.st3{fill:#98D8F4;}
	.st4{fill:#6C79D9;}
</style>
<g id="woman">
	<path d="M1060,534.2l-0.2-0.1l0.1-0.2c0,0-2.5-3.9,1.3-18.1c1.6-6.5,3.7-16.6,7.5-22.1c7-9.8,16.4-8.8,19.5-8.8
		c1.1,0,2.7,0.4,3.4,0.6c0.2,0.1,0.5,0.1,0.7,0.3c4.9,2.7,7.6,9.6,7.1,22.9c-0.6,15.5-6.8,37.9-11.7,47.8
		C1087.8,556.4,1068.7,538.3,1060,534.2z"/>
	<path d="M1070.4,406.6H927.2l122.5-74.2c22.4-13.6,51.6-2.3,59,22.8l0,0C1116.4,380.9,1097.2,406.6,1070.4,406.6z"/>
	<path class="st0" d="M1176.7,719.2c-0.6,0-1.2,0-1.7,0c-40.4-0.5-89.4-34.9-123.4-63.6c-36.8-31.1-64.5-62.5-64.8-62.8l-0.1-0.1
		l69.1-60.8h0.1c15.1,5,35.6,19.2,62.8,43.2c6.3,5.6,11.7,10.5,16.6,14.8c21.4,19.2,29.3,26.3,36.5,26.3c0.4,0,0.8,0,1.2-0.1
		c8.2-0.9,31.1-25.3,51.3-46.9c15.2-16.2,29.5-31.6,36.9-36.4c2.1-1.3,4.6-2,7.3-2c18.6,0,46.8,31,47.1,31.3l50,63.3l-22.9,36.7
		h-0.1c-14.3,5-29.9,12.4-46.5,20.2C1259.6,699.7,1218.2,719.2,1176.7,719.2z"/>
	<path class="st0" d="M1098,915.4c-0.1-2-0.2-3.2-0.2-3.2c0-0.2-2-21.4-4.1-33.6c-7.3,3.2-13.9,7.6-20.8,12.3
		c-8.3,5.6-17.8,12-30.4,17.4c-6.6,2.8-14.5,4.3-23.5,4.3c-14.4,0-26.7-3.7-26.8-3.7h-0.1v-0.1c-0.2-30.8-9.2-74-17.1-112.2
		c-2.9-13.7-5.5-26.6-7.7-38.3c-17.3-93.5-30.7-181-30.8-181.9v-0.2l87.8-21.7v0.3c0,1.2-0.4,121.1,55.5,202.3
		c46.4,67.5,70.6,107.9,72,120.3c0.1,0.2,1.4,5.4-4.5,12.7c-9.8,12.2-32,20.7-48.9,25.6l-0.2,0.1L1098,915.4z"/>
	<path d="M1098,915.4c-0.1-2-0.2-3.2-0.2-3.2l-4.1-34l0.1-0.1c11.3-5.3,22.3-8.1,32.5-8.1c16.3,0,25.2,7,25.3,7.1l0,0v0.1
		c0.1,0.2,1.4,5.4-4.5,12.7c-9.8,12.2-32,20.7-48.9,25.6l-0.2,0.1L1098,915.4z"/>
	<g>
		<path d="M1033,641.1c-0.5,0-1-0.2-1.4-0.6l-22.4-21.5c-0.8-0.8-0.8-2-0.1-2.8c0.8-0.8,2-0.8,2.8-0.1l22.4,21.5
			c0.8,0.8,0.8,2,0.1,2.8C1034,640.9,1033.5,641.1,1033,641.1z"/>
	</g>
	<path d="M1279.4,579.2c-12.3-13.9-17.3-25.6-18.9-33.1c-1.7-8.2,0.2-13.1,0.2-13.1v-0.1h0.1c2.1-1.3,4.5-2,7.3-2
		c18.6,0,46.8,31,47.1,31.3l-5.5,18.2C1309.8,580.4,1310.3,583.9,1279.4,579.2z"/>
	<g>
		<path d="M1502.2,712.3c-0.6,0-1.2-0.3-1.6-0.8c-0.6-0.9-0.4-2.1,0.5-2.8c7.8-5.5,13-13.8,14.6-23.2c1.6-9.4-0.6-18.9-6.1-26.7
			l-120.6-170c-0.6-0.9-0.4-2.1,0.5-2.8c0.9-0.6,2.2-0.4,2.8,0.5l120.6,170c6.2,8.7,8.6,19.2,6.8,29.7c-1.8,10.5-7.5,19.6-16.2,25.8
			C1503,712.2,1502.6,712.3,1502.2,712.3z"/>
	</g>
	<g>
		<path d="M1408,571c-0.6,0-1.2-0.3-1.6-0.8c-0.6-0.9-0.4-2.1,0.5-2.8l26.8-19c0.9-0.6,2.1-0.4,2.8,0.5c0.6,0.9,0.4,2.1-0.5,2.8
			l-26.8,19C1408.8,570.9,1408.4,571,1408,571z"/>
	</g>
	<g>
		<path d="M1453.8,635.6c-0.6,0-1.2-0.3-1.6-0.8c-0.6-0.9-0.4-2.1,0.5-2.8l26.8-19.1c0.9-0.6,2.1-0.4,2.8,0.5
			c0.6,0.9,0.4,2.1-0.5,2.8l-26.8,19.1C1454.6,635.5,1454.2,635.6,1453.8,635.6z"/>
	</g>
	<g>
		<path d="M1374.6,787.9c-6.7-0.1-13-2.7-17.7-7.6c-4.7-4.8-7.2-11.1-7.1-17.8c0-1.9,0.2-3.8,0.7-5.6l24.4-100.5
			c0.2-0.9,1.1-1.5,2-1.5c0.9,0,1.7,0.7,1.9,1.6l20.7,101.3c2.7,13.6-6.1,26.9-19.6,29.6C1377.9,787.7,1376.2,787.9,1374.6,787.9z
			 M1376.6,666.1l-22.3,91.8c-0.4,1.5-0.5,3.1-0.5,4.7c-0.1,5.6,2,10.9,6,15c4,4,9.2,6.3,14.8,6.3c1.4,0,2.8-0.1,4.5-0.5
			c11.3-2.3,18.7-13.4,16.4-24.8L1376.6,666.1z"/>
	</g>
	<g>
		<path d="M1433.7,730c-4.4,0-8.5-1.6-11.7-4.6c-0.9-0.9-1.8-1.8-2.5-3l-44-64.4c-0.5-0.8-0.4-1.9,0.2-2.5c0.7-0.7,1.7-0.8,2.5-0.3
			l65,43.2c7.9,5.3,10,16,4.8,23.9c-0.6,0.8-1.1,1.4-1.6,2.1c-3.2,3.4-7.4,5.4-12,5.6C1434.2,730,1434,730,1433.7,730z
			 M1384.6,664.2l38.2,55.9c0,0,0,0.1,0.1,0.1c0.5,0.8,1.2,1.5,1.9,2.2c2.5,2.4,5.9,3.6,9.5,3.5c3.5-0.1,6.8-1.6,9.2-4.2
			c0.4-0.5,0.9-1.1,1.3-1.7c4-6,2.4-14.2-3.7-18.3L1384.6,664.2z"/>
	</g>
	<g>
		<path d="M1327.8,714.8c-4.6,0-8.7-0.9-11.4-1.8c-1.1-0.3-1.6-1.4-1.3-2.5c0.3-1.1,1.4-1.6,2.5-1.3c4.8,1.5,14.1,3.3,22.7-1.5
			c7.1-4,12.2-11.7,15.1-23c6.5-25.5,20.5-29.6,21.1-29.7c1.1-0.3,2.2,0.3,2.5,1.4c0.3,1.1-0.3,2.2-1.4,2.4
			c-0.2,0.1-12.4,3.9-18.3,26.9c-3.2,12.4-8.9,21-17,25.5C1337.4,713.9,1332.3,714.8,1327.8,714.8z"/>
	</g>
	<g>
		<path d="M1137.9,1037H929.4c-21.9,0-39.8-17.9-39.8-39.8c0-1.1,0.9-2,2-2s2,0.9,2,2c0,19.7,16.1,35.8,35.8,35.8h208.5
			c1.1,0,2,0.9,2,2S1139,1037,1137.9,1037z"/>
	</g>
	<g>
		<path d="M1061.4,1037c-1.1,0-2-0.9-2-2v-32.9c0-1.1,0.9-2,2-2s2,0.9,2,2v32.9C1063.4,1036.1,1062.5,1037,1061.4,1037z"/>
	</g>
	<g>
		<path d="M982.2,1037c-1.1,0-2-0.9-2-2v-32.9c0-1.1,0.9-2,2-2s2,0.9,2,2v32.9C984.2,1036.1,983.3,1037,982.2,1037z"/>
	</g>
	<path class="st1" d="M941.5,1003.9v-0.2c0-14.9,9.2-23.1,19.8-32.5c9.3-8.2,19.8-17.6,26.4-33.3c2.9-6.9,4.3-16.5,4.3-29.2v-0.3
		l0.3,0.1c0.1,0,12.4,3.7,26.7,3.7c9,0,16.8-1.4,23.4-4.2c12.6-5.4,22-11.7,30.3-17.4c7-4.7,13.6-9.2,21.1-12.4l0.2-0.1v0.3
		c2,12.2,4.1,33.7,4.1,33.9c0,0.5,4.3,50.8-0.4,91.5v0.2L941.5,1003.9L941.5,1003.9z"/>
	<path class="st1" d="M1454.4,668.2c-9.5,0-20.1-2.3-32.3-4.9c-12.3-2.7-26.3-5.7-43.1-7.3c-1.6-0.1-3.2-0.2-4.8-0.2
		c-8.8,0-19.1,2.1-31.5,6.4l-0.2,0.1v-0.2c-0.1-0.2-5.3-25-18.3-42.6c-8.4-11.4-18.9-19.2-28.2-26.2c-6.6-4.9-12.4-9.2-16.2-13.9
		l-0.2-0.2l35.9-17.1c49.1-20.8,71-27.2,71.2-27.2h0.1l88.7,128.4l-0.2,0.1C1469,666.7,1462.3,668.2,1454.4,668.2L1454.4,668.2z"/>
	<g>
		<path d="M985.6,946.9c-0.3,0-0.6-0.1-0.9-0.2l-93.6-49.2c-5.9-3.1-10.3-8.3-12.3-14.7c-2-6.4-1.4-13.3,1.8-19.3
			c0.8-1.7,1.8-3.2,3-4.4c8.8-10.5,24.7-12,35.3-3.3c1.5,1.3,2.8,2.6,3.9,4l64.4,83.9c0.6,0.7,0.5,1.8-0.1,2.5
			C986.7,946.7,986.2,946.9,985.6,946.9z M902.9,854.1c-6.1,0-12.2,2.6-16.4,7.6c-1,1-1.8,2.2-2.4,3.6c-2.7,5.1-3.2,10.8-1.5,16.2
			c1.7,5.4,5.4,9.8,10.3,12.4l85.5,45l-58.9-76.7c-0.9-1.2-2-2.3-3.3-3.4C912.4,855.6,907.6,854.1,902.9,854.1z"/>
	</g>
	<g>
		<path d="M921.9,965.2c-6.9,0-13.3-4.6-15.3-11.6c-0.3-1.1-0.5-2-0.6-2.8c-0.4-4.3,0.9-8.5,3.6-11.7c2.7-3.3,6.6-5.3,10.8-5.7
			c1.6-0.1,2.9-0.1,4,0.1l61.6,10.1c0.9,0.2,1.6,0.9,1.7,1.9c0.1,0.9-0.5,1.8-1.4,2l-60,17.1C924.8,965,923.3,965.2,921.9,965.2z
			 M922.1,937.3c-0.4,0-0.8,0-1.3,0.1c-3.2,0.3-6,1.8-8.1,4.3s-3,5.6-2.7,8.8c0.1,0.5,0.2,1.3,0.4,2.2c1.8,6.3,8.4,10,14.7,8.2
			l51.4-14.6l-52.8-8.7C923.3,937.4,922.7,937.3,922.1,937.3z"/>
	</g>
	<g>
		<path d="M983.1,945.2c-0.3,0-0.6-0.1-0.8-0.2l-0.1-0.1c-15.1-7-35.8-16.5-23.7-48.1c9-23.5-0.4-33.5-0.8-33.9
			c-0.8-0.8-0.8-2.1,0-2.8c0.8-0.8,2-0.8,2.8,0c0.5,0.5,11.6,12,1.7,38.1c-10.7,28.1,5.7,35.7,21.7,43l0.1,0.1c1,0.5,1.4,1.7,1,2.7
			C984.6,944.8,983.9,945.2,983.1,945.2z"/>
	</g>
	<g>
		<path d="M1105.4,876.2c-0.8,0-1.6-0.5-1.9-1.3c-13.8-38.1-28.1-61.4-41.8-84c-21.3-34.9-43.3-71-65.1-161.8
			c-0.3-1.1,0.4-2.2,1.5-2.4c1.1-0.3,2.2,0.4,2.4,1.5c21.7,90.2,43.5,126,64.7,160.7c13.9,22.7,28.2,46.2,42.2,84.7
			c0.4,1-0.2,2.2-1.2,2.6C1105.9,876.2,1105.6,876.2,1105.4,876.2z"/>
	</g>
	<g>
		<path d="M1042.7,910.1c-0.9,0-1.7-0.6-2-1.6c-10.5-47.4-17.8-70.1-27.8-101.5c-2.8-8.9-5.8-18.1-9.1-28.8
			c-14.9-47.8-23.3-84.5-33-131.7c-0.2-1.1,0.5-2.1,1.6-2.4c1.1-0.2,2.1,0.5,2.4,1.6c9.6,47.1,18,83.6,32.9,131.3
			c3.3,10.7,6.3,19.9,9.1,28.8c10.1,31.5,17.4,54.3,27.9,101.9c0.2,1.1-0.4,2.1-1.5,2.4C1043,910.1,1042.8,910.1,1042.7,910.1z"/>
	</g>
	<g>
		<path d="M1173.7,656.4c-20.7,0-46.8-21.7-82.3-51.1c-13.9-11.5-29.7-24.6-46.8-37.8c-0.9-0.7-1-1.9-0.4-2.8s1.9-1,2.8-0.4
			c17.2,13.2,33,26.3,47,37.9c36.4,30.2,62.6,52,82.1,50.1c22.7-2.2,40.2-14.3,72.1-36.2c12-8.2,25.6-17.6,42.1-28.2
			c0.9-0.6,2.2-0.3,2.8,0.6c0.6,0.9,0.3,2.2-0.6,2.8c-16.5,10.6-30.1,19.9-42,28.2c-31.3,21.5-50.2,34.5-74,36.8
			C1175.5,656.4,1174.6,656.4,1173.7,656.4z"/>
	</g>
	<g>
		<path d="M1181.1,690.2c-39.4,0-88.7-40-140.8-82.2c-4.4-3.6-8.8-7.1-13.2-10.7c-0.9-0.7-1-2-0.3-2.8c0.7-0.9,2-1,2.8-0.3
			c4.4,3.6,8.9,7.2,13.2,10.7c52.1,42.3,101.4,82.2,139.6,81.3c32.8-0.8,86.2-28.3,121.5-46.6c9.4-4.8,17.5-9,23.6-11.9
			c1-0.5,2.2,0,2.7,1c0.5,1,0,2.2-1,2.7c-6,2.8-14.1,7-23.4,11.8c-35.7,18.4-89.5,46.2-123.3,47
			C1182,690.2,1181.5,690.2,1181.1,690.2z"/>
	</g>
	<g>
		<path d="M1356.8,659.9c-0.9,0-1.7-0.6-2-1.6l-4.8-21.5c-0.2-1.1,0.4-2.1,1.5-2.4c1.1-0.2,2.1,0.4,2.4,1.5l4.8,21.5
			c0.2,1.1-0.4,2.1-1.5,2.4C1357.1,659.9,1356.9,659.9,1356.8,659.9z"/>
	</g>
	<g>
		<path d="M1377.2,658.7C1377.2,658.7,1377.2,658.7,1377.2,658.7c-1.1,0-2-0.9-2-2l0.4-22.5c0-1.1,0.9-2,2-2c0,0,0,0,0,0
			c1.1,0,2,0.9,2,2l-0.4,22.5C1379.2,657.8,1378.3,658.7,1377.2,658.7z"/>
	</g>
	<g>
		<path d="M1398.1,660.3c-0.2,0-0.4,0-0.6-0.1c-1-0.3-1.6-1.5-1.3-2.5l6.1-18.4c0.3-1,1.5-1.6,2.5-1.3c1,0.3,1.6,1.5,1.3,2.5
			l-6.1,18.4C1399.7,659.8,1398.9,660.3,1398.1,660.3z"/>
	</g>
	<g>
		<path d="M1003.4,956.3c-0.3,0-0.5-0.1-0.8-0.2l-20.6-9.2c-1-0.5-1.5-1.6-1-2.6c0.4-1,1.6-1.5,2.6-1l20.6,9.2c1,0.5,1.5,1.6,1,2.6
			C1004.9,955.9,1004.2,956.3,1003.4,956.3z"/>
	</g>
	<g>
		<path d="M1011.6,933.7c-0.1,0-0.2,0-0.3,0l-20.9-2.7c-1.1-0.1-1.9-1.1-1.7-2.2c0.1-1.1,1.1-1.9,2.2-1.7l20.9,2.7
			c1.1,0.1,1.9,1.1,1.7,2.2C1013.5,933,1012.6,933.7,1011.6,933.7z"/>
	</g>
	<g>
		<path d="M988,974.8c-0.5,0-1-0.2-1.3-0.5l-14.2-12.8c-0.8-0.7-0.9-2-0.1-2.8c0.7-0.8,2-0.9,2.8-0.1l14.2,12.8
			c0.8,0.7,0.9,2,0.1,2.8C989.1,974.6,988.5,974.8,988,974.8z"/>
	</g>
	<g>
		<path d="M1393,587c-6.9,0-13.9-1.2-20.9-3.7c-16.2-5.7-30.8-17.7-36.3-29.9c-0.5-1,0-2.2,1-2.6c1-0.4,2.2,0,2.6,1
			c5,11.3,18.7,22.4,33.9,27.7c10.5,3.7,26.4,6.3,42.4-2c1-0.5,2.2-0.1,2.7,0.9c0.5,1,0.1,2.2-0.9,2.7
			C1410.1,585,1401.7,587,1393,587z"/>
	</g>
	<g>
		<path d="M1047,1005.7c-0.1,0-0.2,0-0.2,0c-1.1-0.1-1.9-1.1-1.7-2.2c4.1-33.9,30.2-49.1,54.2-49.1c1.1,0,2,0.9,2,2s-0.9,2-2,2
			c-22.3,0-46.4,14.1-50.2,45.5C1048.9,1005,1048,1005.7,1047,1005.7z"/>
	</g>
	<g>
		<path class="st2" d="M806.2,728.7c-2.9,0-5.7-1.7-6-1.8l-1.1-0.7l-1.1,0.7c-1.9,1.2-3.6,1.8-5.1,1.8c-3.8,0-5.7-3.7-6-4.5
			l-0.8-1.6l-2.9,1c-1.1,0.2-2.1,0.4-3,0.4c-7,0-7.9-7.5-8-9.8l-0.1-2.6l-2.5,0.8c-0.3,0.1-1.2,0.3-2.2,0.3c-1.7,0-3-0.6-4-1.8
			c-1.9-2.2-3.6-7.5-1.4-20.2c4.7-27.2,23.3-49,51.2-79.2l4.1-2.1l62.8,31l-3.8,3.3l-21.6,19.2l-3.3,2.9c-7,6.1-12.5,10.9-15.4,14.1
			c-15.5,16.6-18.2,26.5-21.9,40.3l-0.1,0.5C812.4,726,809.8,728.7,806.2,728.7z"/>
		<path d="M817.2,611.5l59.1,29.3l-1.5,1.3l0,0l0,0l-21.5,19.2l-3.3,2.9c-7,6.1-12.6,11-15.5,14.2c-15.9,16.9-18.7,27.6-22.3,41.2
			l-0.1,0.5c-1.7,6.6-4.8,6.6-5.7,6.6c-1.9,0-4-1-4.9-1.5l-2.1-1.3l-2.1,1.3c-1.5,0.9-2.9,1.4-4,1.4c-2.6,0-4.1-3-4.2-3.3l-1.5-3.2
			l-3.4,1.1l-1.1,0.4c-0.9,0.2-1.7,0.3-2.5,0.3c-5.1,0-5.9-5.5-6-7.8l-0.2-5.2l-5,1.6c-0.2,0.1-0.8,0.3-1.6,0.3
			c-1.1,0-1.9-0.4-2.5-1.1c-3.1-3.7-1.7-14.2-1-18.6c4.6-26.6,22.9-48.1,50.5-77.9L817.2,611.5 M817.2,607l-5.3,2.7
			c-28.3,30.5-47.2,52.6-52,80.4c-1.9,10.8-1.3,18.2,1.8,21.9c1.4,1.7,3.3,2.5,5.6,2.5c1.3,0,2.4-0.3,2.9-0.4
			c0.1,1.8,1,11.7,10,11.7c1.1,0,2.3-0.1,3.6-0.4l1.3-0.4c0.5,1,2.9,5.6,7.9,5.6c1.9,0,4-0.7,6.2-2.1c0.6,0.4,3.6,2.2,7,2.2
			c3.2,0,7.5-1.7,9.6-9.5l0.1-0.5c3.6-13.5,6.2-23.3,21.4-39.5c2.9-3,8.3-7.8,15.3-13.9l3.3-2.9l21.5-19.2l6.1-5.3L817.2,607
			L817.2,607z"/>
	</g>
	<path class="st1" d="M889.2,675.5c-11.8,0-26.8-6.5-33.6-11.1l-0.2-0.1l21.5-19.1c-1.3-0.6-8-3.5-33.6-13.2
		c-21.4-8.1-31.3-21.7-31.4-21.8l-0.1-0.1l0.1-0.1c2.9-3.1,5.9-6.3,9-9.7c2.9-3.1,5.9-6.3,9-9.7c37.3-40.3,64.1-106.2,73.3-150.4
		v-0.1l30.6-19.2l25.9,17.6v0.1c0.1,0.6,5.4,57.1-11.3,117.2c-10.2,36.8-43.6,114.6-50.5,118.3C895.4,675,892.5,675.5,889.2,675.5
		L889.2,675.5z"/>
	<path d="M889.2,675.5c-11.8,0-26.8-6.5-33.6-11.1l-0.2-0.1l21.5-19.1c0,0,14.9,6.2,20,14.4s1.1,14.3,1.1,14.4v0.1h-0.1
		C895.4,675,892.5,675.5,889.2,675.5L889.2,675.5z"/>
	<path class="st1" d="M948.8,657.7c-8-47.4-13.1-81.1-13.2-81.5L948,423.7l0.3,0.3c0.3,0.3,36.2,33.2,143.8,61.6l0,0
		c0,0-14.3-4.6-21.6,17.3c-5.9,17.4-10,30.7-10,30.7c-16.4,51-45.9,82.5-67.7,99.4c-23.6,18.4-43.5,24.8-43.7,24.8l-0.2,0.1
		L948.8,657.7z"/>
	<g>
		<path class="st2" d="M947,435.5c-9.7,0-17.6-7.9-17.6-17.6s7.9-17.6,17.6-17.6s17.6,7.9,17.6,17.6S956.7,435.5,947,435.5z"/>
		<path d="M947,402.2c8.6,0,15.6,7,15.6,15.6s-7,15.6-15.6,15.6s-15.6-7-15.6-15.6S938.3,402.2,947,402.2 M947,398.2
			c-10.8,0-19.6,8.8-19.6,19.6s8.8,19.6,19.6,19.6s19.6-8.8,19.6-19.6S957.8,398.2,947,398.2L947,398.2z"/>
	</g>
	<g>
		<path class="st2" d="M908.1,450.2c-13.7,0-27.4-13.6-34.2-34c-8.8-26.3-5.7-50.8,7.1-57c4.9-2.4,10.3-3.6,16-3.6
			c17,0,31.5,10.8,31.7,10.9c8.8,6.9,13.2,14.1,14,23.5c0.9,10.5-2.6,23.7-11.1,41.6C925.9,443.6,917.6,450.2,908.1,450.2z"/>
		<path d="M897.1,353.6v4l0,0c16,0,29.8,10,30.4,10.4c14.4,11.3,19.8,25.7,2.3,62.6c-5.4,11.3-13.1,17.6-21.7,17.6
			c-12.8,0-25.8-13.1-32.3-32.6c-8.3-24.9-5.6-48.9,6.1-54.6c4.7-2.3,9.7-3.4,15.1-3.4L897.1,353.6 M897.1,353.6
			c-5.5,0-11.2,1.1-16.9,3.8c-13.6,6.6-17.4,31.7-8.2,59.5c7.3,21.9,22,35.3,36.1,35.3c9.5,0,18.8-6.1,25.3-19.9
			c17.6-37,13.7-54.1-3.5-67.5C930,364.9,915,353.6,897.1,353.6L897.1,353.6z"/>
	</g>
	<g>
		<path d="M889.6,414.8c-0.3,0-0.6-0.1-0.9-0.2c-1.6-0.9-3-2.3-3.9-3.9c-1.2-2.6-1.3-6.8-0.2-15.6c0.1-1.1,1.1-1.9,2.2-1.7
			c1.1,0.1,1.9,1.1,1.7,2.2c-0.6,5.1-1.2,11.2-0.2,13.3c0.5,0.9,1.3,1.7,2.2,2.2c1,0.5,1.3,1.7,0.8,2.7
			C891,414.4,890.3,414.8,889.6,414.8z"/>
	</g>
	<g>
		<path d="M899.8,402.5c-1.1,0-2-0.9-2-2v-2.1c0-1.1,0.9-2,2-2s2,0.9,2,2v2.1C901.8,401.6,900.9,402.5,899.8,402.5z"/>
	</g>
	<g>
		<path d="M877.2,397.3c-1.1,0-2-0.9-2-2v-2c0-1.1,0.9-2,2-2s2,0.9,2,2v2C879.2,396.4,878.3,397.3,877.2,397.3z"/>
	</g>
	<g>
		<path d="M896.3,425.2c-0.1,0-0.3,0-0.4,0c-0.6,0-1.2-0.1-1.6-0.3c-1.1-0.3-1.7-1.4-1.5-2.4c0.3-1.1,1.4-1.7,2.4-1.5
			c0.3,0.1,0.6,0.1,0.8,0.1c2.6,0.1,4.8-1.8,4.9-4.4c0.1-1.1,1-1.9,2.1-1.9c1.1,0.1,1.9,1,1.9,2.1
			C904.6,421.6,900.8,425.2,896.3,425.2z"/>
	</g>
	<g>
		<path d="M800.1,728.2c-1.1,0-2-0.8-2-1.9c-1-23.9,12-48.3,12.5-49.3c0.5-1,1.7-1.3,2.7-0.8c1,0.5,1.3,1.7,0.8,2.7
			c-0.1,0.2-13,24.5-12.1,47.3C802.1,727.2,801.3,728.2,800.1,728.2C800.2,728.2,800.1,728.2,800.1,728.2z"/>
	</g>
	<g>
		<path d="M784.7,725.1c-1,0-1.9-0.8-2-1.8c-2.1-26.1,15-53.5,15.7-54.6c0.6-0.9,1.8-1.2,2.8-0.6c0.9,0.6,1.2,1.8,0.6,2.8
			c-0.2,0.3-17.1,27.5-15.1,52.2c0.1,1.1-0.7,2.1-1.8,2.2C784.8,725.1,784.8,725.1,784.7,725.1z"/>
	</g>
	<g>
		<path d="M772.4,714.9c0,0-0.1,0-0.1,0c-1.1-0.1-1.9-1-1.9-2.1c2.1-31,15.2-50.6,15.7-51.4c0.6-0.9,1.9-1.2,2.8-0.5
			c0.9,0.6,1.2,1.9,0.5,2.8c-0.1,0.2-13,19.6-15.1,49.4C774.3,714.1,773.4,714.9,772.4,714.9z"/>
	</g>
	<g>
		<path d="M950.2,422c-0.2,0-0.4,0-0.6-0.1l-9.3-3.1c-1-0.3-1.6-1.5-1.3-2.5c0.3-1,1.5-1.6,2.5-1.3l9.3,3.1c1,0.3,1.6,1.5,1.3,2.5
			C951.8,421.5,951,422,950.2,422z"/>
	</g>
	<path d="M869,376.8c24.7,10.3,51.4-6.2,51.4-6.2c-3.1,16.4-3.1,39,15.4,55.5c0,0,7-13,8.2-33.9s-21.9-33.3-36-36
		S875.2,352.2,869,376.8z"/>
	<g>
		<path d="M937.5,589.4c-0.2,0-0.5,0-0.7-0.1c-1-0.4-1.6-1.5-1.2-2.6c4.9-13.3,8.4-23.7,10.5-31.6c4.4-16.1,7.6-32.3,9.4-48.4
			c0.1-1.1,1.1-1.9,2.2-1.8c1.1,0.1,1.9,1.1,1.8,2.2c-1.9,16.3-5.1,32.7-9.6,49c-2.2,8.1-5.7,18.5-10.7,32
			C939.1,588.9,938.3,589.4,937.5,589.4z"/>
	</g>
	<g>
		<path d="M926.5,617.4c-0.3,0-0.5-0.1-0.8-0.2c-17.9-7.7-27.6-27.5-22.4-46.3c2.8-10,9.3-18.4,18.3-23.6c9.1-5.2,19.6-6.5,29.6-3.7
			c1.1,0.3,1.7,1.4,1.4,2.5c-0.3,1.1-1.4,1.7-2.5,1.4c-9-2.5-18.5-1.3-26.6,3.3c-8.1,4.6-14,12.1-16.4,21.2
			c-4.6,16.8,4.1,34.7,20.2,41.5c1,0.4,1.5,1.6,1.1,2.6C928,616.9,927.3,617.4,926.5,617.4z"/>
	</g>
</g>
<g id="heart">
	<path class="st0" d="M802,163.5c-7.7-35.4-57.8-26.4-40.5,15.1c16,33.3,36.3,71.5,40.2,78.9c0.1,0.2,0.2,0.5,0.3,0.6
		c0.1-0.2,0.2-0.4,0.3-0.6c3.9-7.3,24.2-45.5,40.2-78.9C859.8,137.1,809.7,128.1,802,163.5z"/>
	<path class="st1" d="M802,294.8c-4.7-21.6-35.3-16.1-24.8,9.2c9.7,20.4,22.2,43.7,24.5,48.2c0.1,0.1,0.1,0.3,0.2,0.4
		c0.1-0.1,0.1-0.2,0.2-0.4c2.4-4.5,14.8-27.8,24.5-48.2C837.3,278.7,806.7,273.2,802,294.8z"/>
</g>
<g id="man">
	<g>
		<path d="M368.6,444.6c-0.5,0-1-0.2-1.3-0.5c-11.7-10.7-20-19-20.1-19.1c-0.8-0.8-0.8-2,0-2.8c0.8-0.8,2-0.8,2.8,0
			c0.1,0.1,8.3,8.3,19.9,18.9c0.8,0.7,0.9,2,0.1,2.8C369.7,444.4,369.1,444.6,368.6,444.6z"/>
	</g>
	<g>
		<path d="M379.9,426.1c-0.5,0-1-0.2-1.4-0.5c-11.7-10.7-20-19-20.1-19.1c-0.8-0.8-0.8-2,0-2.8c0.8-0.8,2-0.8,2.8,0
			c0.1,0.1,8.3,8.3,19.9,18.9c0.8,0.7,0.9,2,0.1,2.8C381,425.9,380.4,426.1,379.9,426.1z"/>
	</g>
	<g>
		<path d="M399.4,386c-0.5,0-1-0.2-1.3-0.5c-11.7-10.7-20-19-20.1-19.1c-0.8-0.8-0.8-2,0-2.8c0.8-0.8,2-0.8,2.8,0
			c0.1,0.1,8.3,8.3,19.9,18.9c0.8,0.7,0.9,2,0.1,2.8C400.5,385.8,399.9,386,399.4,386z"/>
	</g>
	<g>
		<path d="M389.6,406.1c-0.5,0-1-0.2-1.3-0.5c-11.7-10.7-20-19-20.1-19.1c-0.8-0.8-0.8-2,0-2.8c0.8-0.8,2-0.8,2.8,0
			c0.1,0.1,8.3,8.3,19.9,18.9c0.8,0.7,0.9,2,0.1,2.8C390.7,405.9,390.1,406.1,389.6,406.1z"/>
	</g>
	<g>
		<path d="M409.2,370.1c-0.5,0-1-0.2-1.4-0.6L388.3,350c-0.8-0.8-0.8-2,0-2.8c0.8-0.8,2-0.8,2.8,0l19.5,19.5c0.8,0.8,0.8,2,0,2.8
			C410.2,369.9,409.7,370.1,409.2,370.1z"/>
	</g>
	<path class="st3" d="M686.1,403.6c-50.7-37-99.7-39-142.8-21.6c-48.3,19.5-85.9,34.9-135.6-18.5l-42.1,79.1
		c0,0,45.2,46.2,94.5,49.3c68.9,4.3,100.7-54.5,165.4-32.9L686.1,403.6z"/>
	<g>
		<path d="M394,468.9c-0.3,0-0.6-0.1-0.9-0.2c-1-0.5-1.3-1.7-0.8-2.7l42.1-79.1c0.5-1,1.7-1.3,2.7-0.8c1,0.5,1.3,1.7,0.8,2.7
			l-42.1,79.1C395.4,468.5,394.7,468.9,394,468.9z"/>
	</g>
	<g>
		<path d="M364.7,443.7c-0.3,0-0.6-0.1-0.9-0.2c-1-0.5-1.3-1.7-0.8-2.7l42.1-79.1c0.5-1,1.7-1.3,2.7-0.8c1,0.5,1.3,1.7,0.8,2.7
			l-42.1,79.1C366.1,443.3,365.4,443.7,364.7,443.7z"/>
	</g>
	<path class="st3" d="M448.5,877.2c1.4-12.3,25.6-52.8,72-120.3c55.8-81.2,55.5-201.1,55.5-202.3v-0.3l87.8,21.7v0.2
		c-0.1,0.9-13.6,88.4-30.8,181.9c-2.2,11.7-4.9,24.6-7.7,38.3c-7.9,38.1-17,81.4-17.1,112.2v0.1h-0.1c-0.1,0-12.4,3.7-26.8,3.7
		c-9,0-16.9-1.4-23.5-4.3c-12.6-5.4-22-11.8-30.4-17.4c-6.9-4.7-13.4-9.1-20.8-12.3C506.4,878.6,448.5,877.4,448.5,877.2z"/>
	<path d="M501.8,915.6c-16.9-4.9-39.1-13.4-48.9-25.6c-5.9-7.4-4.5-12.5-4.5-12.7v-0.1l0,0c0.1-0.1,9-7.1,25.3-7.1
		c10.2,0,21.2,2.7,32.5,8.1l0.1,0.1l-4.1,34.1c0,0-0.1,1.1-0.2,3.1v0.2L501.8,915.6z"/>
	<g>
		<path d="M670.6,1037H462.1c-1.1,0-2-0.9-2-2s0.9-2,2-2h208.5c19.7,0,35.8-16.1,35.8-35.8c0-1.1,0.9-2,2-2s2,0.9,2,2
			C710.4,1019.1,692.5,1037,670.6,1037z"/>
	</g>
	<g>
		<path d="M538.6,1037c-1.1,0-2-0.9-2-2v-32.9c0-1.1,0.9-2,2-2s2,0.9,2,2v32.9C540.6,1036.1,539.7,1037,538.6,1037z"/>
	</g>
	<g>
		<path d="M617.8,1037c-1.1,0-2-0.9-2-2v-32.9c0-1.1,0.9-2,2-2s2,0.9,2,2v32.9C619.8,1036.1,618.9,1037,617.8,1037z"/>
	</g>
	<path class="st4" d="M502.3,1003.9v-0.2c-4.7-40.7-0.4-91-0.4-91.5c0-0.2,2.1-21.7,4.1-33.9V878l0.2,0.1
		c7.5,3.3,14.1,7.7,21.1,12.4c8.3,5.6,17.8,12,30.3,17.4c6.6,2.8,14.4,4.2,23.4,4.2c14.3,0,26.5-3.7,26.7-3.7l0.3-0.1v0.3
		c-0.1,12.5,1.4,22.4,4.3,29.2c6.7,15.8,17.2,25.1,26.4,33.3c10.6,9.4,19.8,17.6,19.8,32.5v0.2L502.3,1003.9L502.3,1003.9z"/>
	<g>
		<path d="M615.6,947.5c-0.6,0-1.1-0.2-1.5-0.7c-0.6-0.7-0.6-1.8-0.1-2.5l64.5-83.9c1.1-1.4,2.4-2.7,3.9-4
			c10.7-8.7,26.6-7.2,35.4,3.3c1.1,1.2,2.1,2.7,3,4.4c3.1,5.9,3.8,12.8,1.8,19.2c-2,6.4-6.4,11.6-12.3,14.7l-93.7,49.2
			C616.2,947.4,615.9,947.5,615.6,947.5z M698.4,854.7c-4.7,0-9.5,1.6-13.4,4.8c-1.3,1.1-2.3,2.2-3.3,3.4l-58.9,76.7l85.6-45
			c5-2.6,8.7-7,10.4-12.4c1.7-5.4,1.2-11.2-1.5-16.2c-0.7-1.4-1.5-2.6-2.4-3.6C710.6,857.3,704.5,854.7,698.4,854.7z"/>
	</g>
	<g>
		<path d="M679.3,965.7c-1.4,0-2.9-0.2-4.3-0.6L615,948c-0.9-0.3-1.5-1.1-1.4-2c0.1-0.9,0.7-1.7,1.7-1.9l61.6-10.1
			c1.1-0.2,2.5-0.2,4-0.1c4.3,0.4,8.1,2.4,10.8,5.7c2.7,3.3,4,7.4,3.6,11.7c-0.1,0.8-0.3,1.7-0.6,2.8
			C692.6,961.1,686.2,965.7,679.3,965.7z M624.6,946.6l51.4,14.6c6.3,1.8,12.9-1.9,14.7-8.2c0.2-0.9,0.4-1.6,0.4-2.2
			c0.3-3.1-0.7-6.2-2.7-8.7c-2-2.5-4.9-4-8.1-4.3c-1.2-0.1-2.1-0.1-3,0.1L624.6,946.6z"/>
	</g>
	<g>
		<path d="M618.1,945.7c-0.8,0-1.5-0.4-1.8-1.2c-0.5-1,0-2.2,1-2.7l0.1-0.1c15.9-7.3,32.4-14.9,21.7-43c-9.9-26.1,1.2-37.6,1.7-38.1
			c0.8-0.8,2-0.8,2.8,0s0.8,2,0,2.8c-0.4,0.4-9.7,10.4-0.7,33.9c12,31.6-8.6,41.1-23.7,48.1l-0.1,0.1
			C618.7,945.6,618.4,945.7,618.1,945.7z"/>
	</g>
	<path class="st3" d="M423.3,719.2c-41.5,0-83-19.6-119.5-36.8c-16.5-7.8-32.1-15.2-46.5-20.2l-0.2-0.1v-0.2
		c0.2-0.9,4.6-23,17.6-40.7c8.5-11.5,19.3-20.1,28.9-27.6c6.6-5.2,12.3-9.7,16.1-14.3l-24.2-11.5l43-35l0.1,0.1
		c7.4,4.8,21.8,20.1,37,36.3c20.2,21.5,43.1,46,51.3,46.9c0.4,0,0.8,0.1,1.2,0.1c7.2,0,15.2-7.2,36.5-26.3
		c4.8-4.3,10.3-9.2,16.6-14.8c27.1-24,47.7-38.2,62.8-43.2h0.1l69.1,60.8l-0.1,0.1c-0.3,0.3-27.9,31.7-64.8,62.8
		c-61.6,52.1-101.1,63.3-123.4,63.6C424.5,719.2,423.9,719.2,423.3,719.2C423.4,719.2,423.4,719.2,423.3,719.2z"/>
	<path d="M225.5,615.2l59-53.1c0.3-0.3,28.5-31.3,47.1-31.3c2.8,0,5.2,0.7,7.3,2h0.1v0.1c0,0,1.3,5-0.4,13.2
		c-1.5,7.5-5.9,19.4-18.2,33.2c-33.4,18.6-48.7,40.1-55.7,54.8c-7.5,16-7.1,27.7-7.1,27.8v0.7L225.5,615.2z"/>
	<g>
		<path d="M581.3,880.3c-0.1,0-0.3,0-0.4,0c-0.9-0.2-1.5-0.9-1.6-1.8l-3.9-46.3l-43.2,3.9c-0.9,0.1-1.8-0.5-2.1-1.3
			c-0.3-0.9,0-1.8,0.7-2.3l31.2-21.5l-19.5-31.3c-0.4-0.7-0.4-1.6,0.1-2.3c0.5-0.7,1.4-0.9,2.2-0.7l37.5,11.9l21.8-38.7
			c0.4-0.8,1.3-1.2,2.2-1c0.9,0.2,1.5,1,1.5,1.8l2,37.4l17.1-6.3c1-0.4,2.2,0.2,2.6,1.2c0.4,1-0.2,2.2-1.2,2.6l-19.6,7.2
			c-0.6,0.2-1.3,0.1-1.8-0.2c-0.5-0.3-0.9-0.9-0.9-1.6l-1.7-33.2L585,792c-0.5,0.8-1.4,1.2-2.3,0.9l-33.8-10.8l17.6,28.3
			c0.6,0.9,0.3,2.1-0.6,2.7l-26.5,18.3L577,828c0.5,0,1.1,0.1,1.5,0.5c0.4,0.3,0.7,0.8,0.7,1.4l3.5,41.2l19.4-38.8
			c0.3-0.6,0.9-1,1.6-1.1c0.7-0.1,1.4,0.3,1.8,0.8l10.8,15c0.6,0.9,0.4,2.1-0.5,2.8c-0.9,0.6-2.1,0.4-2.8-0.5l-8.9-12.3l-21.1,42.2
			C582.7,879.9,582,880.3,581.3,880.3z"/>
	</g>
	<g>
		<path d="M561.8,758c-0.6,0-1.2-0.3-1.6-0.8l-22.8-30.8c-0.7-0.9-0.5-2.1,0.4-2.8c0.9-0.7,2.1-0.5,2.8,0.4l19.5,26.3l1.9-37.5
			c0-1,0.8-1.8,1.7-1.9l33.7-4.4l-31.5-17c-0.5-0.3-0.9-0.8-1-1.4s0.1-1.2,0.5-1.7l17.7-19l-23,3.4c-1.1,0.2-2.1-0.6-2.3-1.7
			c-0.2-1.1,0.6-2.1,1.7-2.3l28.6-4.2c0.8-0.1,1.7,0.3,2.1,1s0.3,1.7-0.3,2.3l-19.8,21.3l34.7,18.7c0.8,0.4,1.2,1.3,1,2.1
			c-0.2,0.9-0.8,1.5-1.7,1.6l-38.2,5l-2.1,41.4c0,0.8-0.6,1.6-1.4,1.8C562.2,758,562,758,561.8,758z"/>
	</g>
	<g>
		<path d="M479.1,821.5c-1,0-1.8-0.7-2-1.7c-0.2-1.1,0.6-2.1,1.7-2.3l37.3-5.4l-24.9-10.8c-1-0.4-1.5-1.6-1-2.6c0.4-1,1.6-1.5,2.6-1
			l31.4,13.6c0.8,0.4,1.3,1.2,1.2,2.1s-0.8,1.6-1.7,1.7l-44.3,6.4C479.3,821.5,479.2,821.5,479.1,821.5z"/>
	</g>
	<g>
		<path d="M549.4,906.2c-1,0-1.9-0.8-2-1.8L543,864l-15.2,26.7c-0.5,1-1.8,1.3-2.7,0.7c-1-0.5-1.3-1.8-0.7-2.7l18.3-32.1
			c0.4-0.8,1.3-1.1,2.1-1c0.8,0.2,1.5,0.9,1.6,1.7l5.1,46.5c0.1,1.1-0.7,2.1-1.8,2.2C549.5,906.2,549.5,906.2,549.4,906.2z"/>
	</g>
	<g>
		<path d="M454.9,684c-0.6,0-1.2-0.3-1.6-0.8l-28.6-38.4l-36.4,26.5c-0.7,0.5-1.7,0.5-2.4,0c-0.7-0.5-1-1.5-0.7-2.3l12.6-34.2
			l-31.2-13.6c-0.8-0.3-1.2-1.1-1.2-2c0.1-0.8,0.6-1.6,1.4-1.8l26.3-7.7l-1.6-21.3c-0.1-1.1,0.7-2.1,1.8-2.1
			c1.1-0.1,2.1,0.7,2.1,1.8l1.7,22.9c0.1,0.9-0.5,1.8-1.4,2.1l-22.5,6.6l27.9,12.2c1,0.4,1.4,1.5,1.1,2.5l-11,29.8l32.7-23.8
			c0.9-0.6,2.1-0.5,2.8,0.4l25.3,33.9l-5.3-42.8c-0.1-1,0.6-2,1.6-2.2l29.8-6.1l-30.4-17.5c-1-0.5-1.3-1.8-0.7-2.7
			c0.5-1,1.8-1.3,2.7-0.7l35,20.1c0.7,0.4,1.1,1.2,1,2.1c-0.1,0.8-0.8,1.5-1.6,1.6l-33.2,6.8l6,48.5c0.1,0.9-0.4,1.8-1.2,2.1
			C455.4,684,455.1,684,454.9,684z"/>
	</g>
	<g>
		<path d="M303.4,684c-1.1,0-2-0.8-2-1.9l-0.6-16.4c0-0.5,0.2-1.1,0.6-1.5c0.4-0.4,0.9-0.6,1.4-0.6h39.4l-32.6-21
			c-0.5-0.3-0.8-0.8-0.9-1.3c-0.1-0.5,0-1.1,0.3-1.5l23-33.2l-37.6,16.6c-0.5,0.2-1.1,0.2-1.6,0c-0.5-0.2-0.9-0.7-1.1-1.2l-5.2-15.4
			c-0.4-1,0.2-2.2,1.3-2.5c1-0.4,2.2,0.2,2.5,1.3l4.5,13.3l42.1-18.6c0.8-0.4,1.8-0.1,2.4,0.6c0.6,0.7,0.6,1.7,0.1,2.4l-25.8,37.3
			l36.6,23.6c0.7,0.5,1.1,1.4,0.8,2.2c-0.3,0.9-1,1.4-1.9,1.4h-44.1l0.5,14.3C305.4,683,304.6,684,303.4,684
			C303.4,684,303.4,684,303.4,684z"/>
	</g>
	<g>
		<path d="M410.2,720.4c-0.1,0-0.2,0-0.3,0c-1.1-0.2-1.8-1.2-1.6-2.3l5.6-33.8l-27.9,30.9c-0.7,0.8-2,0.9-2.8,0.1
			c-0.8-0.7-0.9-2-0.1-2.8l32.5-36c0.6-0.7,1.6-0.8,2.4-0.5c0.8,0.4,1.2,1.3,1.1,2.1l-6.7,40.5C412,719.7,411.2,720.4,410.2,720.4z"
			/>
	</g>
	<g>
		<path d="M544.8,660.4c-0.9,0-1.7-0.6-1.9-1.4l-4.7-15.4l-37.4,14.6c-0.8,0.3-1.7,0.1-2.3-0.6c-0.5-0.7-0.6-1.6-0.1-2.4l26.5-39.8
			l-27.8-12.8c-0.8-0.4-1.3-1.3-1.1-2.2c0.2-0.9,0.9-1.6,1.8-1.6l33.1-2.8l-0.9-29c0-1.1,0.8-2,1.9-2.1c1.1,0,2,0.8,2.1,1.9l1,30.9
			c0,1.1-0.8,2-1.8,2.1l-27.5,2.4l23,10.6c0.5,0.2,0.9,0.7,1.1,1.3c0.2,0.6,0.1,1.2-0.3,1.7l-24.3,36.4l33.5-13.1
			c0.5-0.2,1.1-0.2,1.6,0.1c0.5,0.2,0.9,0.7,1,1.2l5.3,17.5c0.3,1.1-0.3,2.2-1.3,2.5C545.2,660.4,545,660.4,544.8,660.4z"/>
	</g>
	<g>
		<path d="M97.8,712.3c-0.4,0-0.8-0.1-1.2-0.4c-8.7-6.2-14.4-15.3-16.2-25.8c-1.8-10.5,0.6-21,6.8-29.7l120.6-170
			c0.6-0.9,1.9-1.1,2.8-0.5c0.9,0.6,1.1,1.9,0.5,2.8l-120.6,170c-5.5,7.8-7.7,17.3-6.1,26.7c1.6,9.4,6.8,17.7,14.6,23.2
			c0.9,0.6,1.1,1.9,0.5,2.8C99,712,98.4,712.3,97.8,712.3z"/>
	</g>
	<g>
		<path d="M192,571c-0.4,0-0.8-0.1-1.2-0.4l-26.8-19c-0.9-0.6-1.1-1.9-0.5-2.8c0.6-0.9,1.9-1.1,2.8-0.5l26.8,19
			c0.9,0.6,1.1,1.9,0.5,2.8C193.2,570.7,192.6,571,192,571z"/>
	</g>
	<g>
		<path d="M146.2,635.6c-0.4,0-0.8-0.1-1.2-0.4l-26.8-19.1c-0.9-0.6-1.1-1.9-0.5-2.8c0.6-0.9,1.9-1.1,2.8-0.5l26.8,19.1
			c0.9,0.6,1.1,1.9,0.5,2.8C147.4,635.3,146.8,635.6,146.2,635.6z"/>
	</g>
	<path class="st4" d="M502.8,557.1l0.2-0.1c16.9-13.3,30.4-21.5,41.2-25.1h0.1l31.6,27.8c0.1-3.2,0.1-4.9,0.1-5v-0.3l87.8,21.7v0.2
		c-0.1,0.4-7,45.4-17.1,104.9l-0.1,0.3L502.8,557.1z"/>
	<path class="st4" d="M663.4,640.5c-6.9,0-13.6-2.5-18.8-7.1l-108.6-95c-5.7-5-9.2-12-9.7-19.6c-0.5-7.6,2-15,7-20.7l1-1.2
		c5.4-6.2,13.3-9.8,21.5-9.8c6.9,0,13.6,2.5,18.8,7.1l108.6,95c11.9,10.4,13.1,28.4,2.7,40.3l-1,1.2
		C679.5,636.9,671.6,640.5,663.4,640.5z"/>
	<path class="st4" d="M694.3,594.5c-6.9,0-13.6-2.5-18.8-7.1l-101.8-89c-11.9-10.4-13.1-28.4-2.7-40.3l1-1.2
		c5.4-6.2,13.3-9.8,21.5-9.8c6.9,0,13.6,2.5,18.8,7.1l101.8,89c5.7,5,9.2,12,9.7,19.6s-2,15-7,20.7l-1,1.2
		C710.4,591,702.5,594.5,694.3,594.5z"/>
	<path class="st4" d="M660.5,496.8c-6.9,0-13.6-2.5-18.8-7.1l-25.6-22.4c-11.9-10.4-13.1-28.4-2.7-40.3l1-1.2
		c5.4-6.2,13.3-9.8,21.5-9.8c6.9,0,13.6,2.5,18.8,7.1l25.6,22.4c11.9,10.4,13.1,28.4,2.7,40.3l-1,1.2
		C676.6,493.2,668.8,496.8,660.5,496.8z"/>
	<g>
		<path d="M225.4,787.9c-1.7,0-3.3-0.2-5.3-0.5c-13.5-2.7-22.3-16-19.6-29.6l20.7-101.3c0.2-0.9,1-1.6,1.9-1.6c0.9,0,1.8,0.6,2,1.5
			l24.4,100.5c0.4,1.8,0.7,3.8,0.7,5.7c0.1,6.6-2.4,12.9-7.1,17.8C238.4,785.2,232.1,787.8,225.4,787.9z M223.4,666.1l-18.9,92.5
			c-2.3,11.4,5.1,22.6,16.4,24.8c1.7,0.3,3.1,0.5,4.5,0.5c5.6,0,10.9-2.3,14.8-6.3c3.9-4,6.1-9.3,6-14.9c0-1.6-0.2-3.3-0.5-4.8
			L223.4,666.1z"/>
	</g>
	<g>
		<path d="M166.3,730c-0.2,0-0.4,0-0.7,0c-4.6-0.2-8.9-2.1-12-5.5c-0.6-0.7-1.1-1.3-1.7-2.1c-5.3-7.9-3.2-18.6,4.7-23.9l65-43.2
			c0.8-0.5,1.9-0.4,2.5,0.3c0.7,0.7,0.8,1.7,0.2,2.5l-44,64.4c-0.7,1.2-1.6,2.1-2.5,2.9C174.8,728.3,170.6,730,166.3,730z
			 M215.4,664.2l-56.5,37.5c-6.1,4.1-7.7,12.3-3.6,18.3c0.4,0.6,0.9,1.1,1.4,1.7c2.3,2.5,5.6,4,9.1,4.1c3.5,0.1,6.9-1.1,9.5-3.5
			c0.7-0.7,1.4-1.4,1.8-2.2c0,0,0-0.1,0.1-0.1L215.4,664.2z"/>
	</g>
	<g>
		<path d="M657.8,569.9c-0.5,0-0.9-0.2-1.3-0.5l-89.9-78c-0.8-0.7-0.9-2-0.2-2.8c0.7-0.8,2-0.9,2.8-0.2l89.9,78
			c0.8,0.7,0.9,2,0.2,2.8C658.9,569.7,658.4,569.9,657.8,569.9z"/>
	</g>
	<g>
		<path d="M636.8,478.7c-0.5,0-0.9-0.2-1.3-0.5l-29.8-25.9c-0.8-0.7-0.9-2-0.2-2.8s2-0.9,2.8-0.2l29.8,25.9c0.8,0.7,0.9,2,0.2,2.8
			C637.9,478.5,637.4,478.7,636.8,478.7z"/>
	</g>
	<g>
		<path d="M272.2,714.8c-4.5,0-9.5-0.9-14.4-3.6c-8.1-4.5-13.8-13.1-17-25.5c-3.1-12.1-7.9-18.8-11.4-22.2c-3.8-3.7-6.8-4.6-6.9-4.6
			c-1.1-0.3-1.7-1.4-1.4-2.5c0.3-1.1,1.4-1.7,2.4-1.4c0.6,0.2,14.6,4.2,21.1,29.7c2.9,11.3,7.9,19,15.1,23c8.6,4.8,17.9,3,22.7,1.5
			c1.1-0.3,2.2,0.3,2.5,1.3c0.3,1.1-0.3,2.2-1.3,2.5C280.9,713.9,276.8,714.8,272.2,714.8z"/>
	</g>
	<g>
		<path d="M654.2,641c-0.5,0-0.9-0.2-1.3-0.5L532.8,536.4c-0.8-0.7-0.9-2-0.2-2.8c0.7-0.8,2-0.9,2.8-0.2l120.1,104.1
			c0.8,0.7,0.9,2,0.2,2.8C655.3,640.8,654.8,641,654.2,641z"/>
	</g>
	<g>
		<path d="M518,572c-0.6,0-1.2-0.3-1.6-0.8c-0.7-0.9-0.5-2.1,0.4-2.8l29.4-22.6c0.9-0.7,2.1-0.5,2.8,0.4c0.7,0.9,0.5,2.1-0.4,2.8
			l-29.4,22.6C518.9,571.9,518.4,572,518,572z"/>
	</g>
	<g>
		<path d="M542.2,592.6c-0.5,0-1.1-0.2-1.5-0.6c-0.8-0.8-0.7-2.1,0.1-2.8l26.7-24.7c0.8-0.8,2.1-0.7,2.8,0.1
			c0.8,0.8,0.7,2.1-0.1,2.8l-26.7,24.7C543.2,592.4,542.7,592.6,542.2,592.6z"/>
	</g>
	<g>
		<path d="M565.9,613.1c-0.5,0-1-0.2-1.4-0.5c-0.8-0.7-0.9-2-0.1-2.8L589,583c0.7-0.8,2-0.9,2.8-0.1c0.8,0.7,0.9,2,0.1,2.8
			l-24.6,26.7C567,612.9,566.4,613.1,565.9,613.1z"/>
	</g>
	<g>
		<path d="M592,635.7c-0.4,0-0.7-0.1-1-0.3c-0.9-0.6-1.2-1.8-0.7-2.8l19.4-31.6c0.6-0.9,1.8-1.2,2.8-0.7c0.9,0.6,1.2,1.8,0.7,2.8
			l-19.4,31.6C593.3,635.4,592.7,635.7,592,635.7z"/>
	</g>
	<g>
		<path d="M615.1,655.7c-0.2,0-0.5,0-0.7-0.1c-1-0.4-1.6-1.5-1.2-2.6l13.4-36.4c0.4-1,1.5-1.6,2.6-1.2c1,0.4,1.6,1.5,1.2,2.6
			L617,654.4C616.7,655.2,615.9,655.7,615.1,655.7z"/>
	</g>
	<g>
		<path d="M635.7,673.8c-0.1,0-0.3,0-0.4,0c-1.1-0.2-1.8-1.3-1.6-2.4l8.3-40.1c0.2-1.1,1.3-1.8,2.4-1.6c1.1,0.2,1.8,1.3,1.6,2.4
			l-8.3,40.1C637.5,673.2,636.6,673.8,635.7,673.8z"/>
	</g>
	<g>
		<path d="M646,683c-0.5,0-0.9-0.2-1.3-0.5l-142.8-124c-0.8-0.7-0.9-2-0.2-2.8c0.7-0.8,2-0.9,2.8-0.2l142.8,124
			c0.8,0.7,0.9,2,0.2,2.8C647.1,682.8,646.6,683,646,683z"/>
	</g>
	<g>
		<path class="st2" d="M793,729.5c-3.6,0-6.1-4.9-7.6-9c-0.8-2.1-1.4-4.2-2.1-6.2c-3.6-11-6.7-20.4-19.9-34.5
			c-2.9-3.1-8.4-8-15.4-14.1l-3.1-2.7l-3.2-5l39.4-50.5l4.8,3.6c28,30.3,46.8,52.2,51.4,79.4c2.2,12.7,0.5,18-1.4,20.2
			c-1,1.2-2.4,1.8-4,1.8c-1.1,0-1.9-0.2-2.2-0.3l-2.5-0.8l-0.1,2.6c0,0.6-0.2,2.8-1.1,5c-1.3,3.2-3.7,4.8-7,4.8
			c-0.9,0-1.9-0.1-3-0.4l-1.5-0.3l-0.7,1.3c-0.4,0.8-2.8,4.6-7.2,4.6c-2,0-4.1-0.7-6.5-2.2l-1.4-0.9l-1.1,1.2
			C797.5,727.4,795.4,729.5,793,729.5z"/>
		<path d="M781.6,610.3l3.1,2.3c27.7,30,46.2,51.6,50.8,78.3c0.8,4.4,2.2,14.9-1,18.6c-0.6,0.8-1.4,1.1-2.5,1.1
			c-0.8,0-1.4-0.2-1.6-0.2l-5-1.6l-0.2,5.3c0,0.5-0.2,2.4-0.9,4.3c-1.3,3.1-3.4,3.5-5.1,3.5c-0.8,0-1.6-0.1-2.5-0.3l-2.9-0.6
			l-1.5,2.6c-0.2,0.4-2.1,3.6-5.5,3.6c-1.6,0-3.4-0.6-5.4-1.9l-2.7-1.7l-2.3,2.3c-0.6,0.6-2,1.7-3.3,1.7c-1.9,0-4-2.9-5.7-7.7
			c-0.7-2.1-1.4-4.2-2.1-6.1c-3.5-10.7-6.8-20.8-20.3-35.3c-3-3.2-8.5-8.1-15.6-14.2l-2.8-2.5l-2.3-3.6L781.6,610.3 M780.8,604.7
			l-41.5,53.2l4.1,6.4l3.3,2.9c7,6.1,12.4,10.9,15.3,13.9c12.9,13.8,16,23.1,19.4,33.8c0.7,2,1.3,4.1,2.1,6.2
			c2.4,6.9,5.6,10.3,9.4,10.3c3.1,0,5.6-2.4,6.2-2.9c2.6,1.7,5.2,2.5,7.5,2.5c5.6,0,8.5-4.7,9-5.6c1.2,0.3,2.4,0.4,3.4,0.4
			c5.2,0,7.7-3.3,8.8-6c1-2.4,1.2-4.9,1.2-5.7c0.5,0.2,1.5,0.4,2.9,0.4l0,0c2.3,0,4.2-0.9,5.6-2.5c3.1-3.7,3.7-11,1.8-21.9
			c-4.8-27.8-23.7-49.9-52.1-80.6L780.8,604.7L780.8,604.7z"/>
	</g>
	<path class="st4" d="M743.4,664.3c-22.8-20-70.1-61.5-90.4-106.6c-25.6-56.9-13.5-118.7-13.4-119.3v-0.1l25.9-17.6l30.6,19.2v0.1
		c9.1,44.2,36,110.1,73.3,150.4c3.1,3.3,6,6.5,8.9,9.6c3.1,3.3,6.1,6.5,9,9.7l0.1,0.1l-43.9,54.7L743.4,664.3z"/>
	<g>
		<path d="M692.2,616.6c-0.5,0-1.1-0.2-1.5-0.7c-18-20.1-31.2-39.4-39.3-57.4c-16.2-36-17.7-73.4-16.1-98.5c0.1-1.1,1-1.9,2.1-1.9
			c1.1,0.1,1.9,1,1.9,2.1c-1.6,24.6-0.2,61.3,15.7,96.5c8,17.7,21,36.6,38.7,56.4c0.7,0.8,0.7,2.1-0.2,2.8
			C693.2,616.4,692.7,616.6,692.2,616.6z"/>
	</g>
	<path class="st4" d="M145.6,668.2c-7.9,0-14.6-1.6-20.8-4.9l-0.2-0.1l88.7-128.4h0.1c0.2,0.1,22.2,6.4,71.2,27.2l35.9,17.1
		l-0.2,0.2c-3.8,4.7-9.6,9.3-16.4,14.6c-9.6,7.5-20.4,16.1-28.8,27.6c-13,17.6-17.5,40.3-17.6,40.6v0.2l-0.2-0.1
		c-12.4-4.3-22.7-6.4-31.5-6.4c-1.7,0-3.3,0.1-4.8,0.2c-16.8,1.6-30.8,4.6-43.1,7.3C165.7,665.9,155.1,668.2,145.6,668.2z"/>
	<g>
		<path class="st2" d="M652.3,435.5c-9.7,0-17.6-7.9-17.6-17.6s7.9-17.6,17.6-17.6s17.6,7.9,17.6,17.6S662,435.5,652.3,435.5z"/>
		<path d="M652.3,402.2c8.6,0,15.6,7,15.6,15.6s-7,15.6-15.6,15.6s-15.6-7-15.6-15.6S643.7,402.2,652.3,402.2 M652.3,398.2
			c-10.8,0-19.6,8.8-19.6,19.6s8.8,19.6,19.6,19.6s19.6-8.8,19.6-19.6S663.1,398.2,652.3,398.2L652.3,398.2z"/>
	</g>
	<g>
		<path class="st2" d="M691.1,450.2c-9.4,0-17.8-6.6-23.5-18.7c-18.1-38.1-12.3-53.2,2.9-65c0.1-0.1,14.7-10.8,31.6-10.8
			c5.7,0,11.1,1.2,16,3.6c12.8,6.2,15.9,30.7,7.1,57C718.5,436.6,704.8,450.2,691.1,450.2L691.1,450.2z"/>
		<path d="M702.1,357.6c5.4,0,10.5,1.1,15.1,3.4c11.7,5.7,14.4,29.7,6.1,54.6c-6.5,19.5-19.5,32.6-32.3,32.6
			c-8.6,0-16.3-6.2-21.7-17.6c-17.5-36.9-12.2-51.3,2.3-62.6C672.3,367.6,686.1,357.6,702.1,357.6 M702.1,353.6
			c-17.9,0-32.9,11.3-32.9,11.3c-17.2,13.4-21,30.5-3.5,67.5c6.5,13.7,15.8,19.9,25.3,19.9c14.1,0,28.8-13.4,36.1-35.3
			c9.2-27.7,5.4-52.9-8.2-59.5C713.4,354.7,707.6,353.6,702.1,353.6L702.1,353.6z"/>
	</g>
	<path d="M719,357.5c-24.2-11.8-49.8,7.5-49.8,7.5c-10.7,8.3-16.2,18.1-14.6,33.3l74.9-27.6C727.4,364.4,723.8,359.8,719,357.5z"/>
	<circle cx="672" cy="344.1" r="17.2"/>
	<g>
		<path d="M710.7,414.8c-0.7,0-1.4-0.4-1.8-1.1c-0.5-1-0.2-2.2,0.8-2.7c1-0.5,1.8-1.3,2.3-2.3c1-2,0.4-8.1-0.2-13.2
			c-0.1-1.1,0.6-2.1,1.7-2.2c1.1-0.1,2.1,0.6,2.2,1.7c1.1,8.8,1,13-0.2,15.5c-0.9,1.7-2.3,3.1-4,4
			C711.3,414.7,711,414.8,710.7,414.8z"/>
	</g>
	<g>
		<path d="M700.5,402.5c-1.1,0-2-0.9-2-2v-2.1c0-1.1,0.9-2,2-2s2,0.9,2,2v2.1C702.5,401.6,701.6,402.5,700.5,402.5z"/>
	</g>
	<g>
		<path d="M723.1,397.3c-1.1,0-2-0.9-2-2v-2c0-1.1,0.9-2,2-2s2,0.9,2,2v2C725.1,396.4,724.2,397.3,723.1,397.3z"/>
	</g>
	<g>
		<path d="M704,425.2c-4.6,0-8.4-3.6-8.6-8.2c-0.1-1.1,0.8-2,1.9-2.1c1.1-0.1,2,0.8,2.1,1.9c0.1,2.6,2.3,4.6,4.9,4.4
			c0.2,0,0.5-0.1,0.8-0.1c1.1-0.3,2.2,0.4,2.4,1.5c0.3,1.1-0.4,2.2-1.5,2.4c-0.4,0.1-1,0.3-1.6,0.3
			C704.3,425.2,704.2,425.2,704,425.2z"/>
	</g>
	<g>
		<path d="M648.1,422c-0.8,0-1.6-0.5-1.9-1.4c-0.3-1,0.2-2.2,1.3-2.5l12.3-4.1c1-0.3,2.2,0.2,2.5,1.3c0.3,1-0.2,2.2-1.3,2.5
			l-12.3,4.1C648.5,422,648.3,422,648.1,422z"/>
	</g>
	<g>
		<path d="M716.3,642c-0.4,0-0.9-0.1-1.2-0.4c-0.9-0.7-1-1.9-0.3-2.8l46-57.4c0.7-0.9,1.9-1,2.8-0.3c0.9,0.7,1,1.9,0.3,2.8l-46,57.4
			C717.5,641.7,716.9,642,716.3,642z"/>
	</g>
	<g>
		<path d="M799.1,728.2C799.1,728.2,799,728.2,799.1,728.2c-1.2,0-2-1-2-2.1c1-22.8-11.9-47-12.1-47.3c-0.5-1-0.2-2.2,0.8-2.7
			c1-0.5,2.2-0.2,2.7,0.8c0.6,1,13.5,25.5,12.5,49.3C801.1,727.4,800.2,728.2,799.1,728.2z"/>
	</g>
	<g>
		<path d="M814.5,725.1c-0.1,0-0.1,0-0.2,0c-1.1-0.1-1.9-1.1-1.8-2.2c2-24.7-14.9-51.9-15.1-52.2c-0.6-0.9-0.3-2.2,0.6-2.8
			c0.9-0.6,2.2-0.3,2.8,0.6c0.7,1.2,17.8,28.6,15.7,54.6C816.4,724.3,815.5,725.1,814.5,725.1z"/>
	</g>
	<g>
		<path d="M827.2,714.8c-1,0-1.9-0.8-2-1.9c-2-29.8-14.9-49.2-15.1-49.4c-0.6-0.9-0.4-2.2,0.5-2.8c0.9-0.6,2.2-0.4,2.8,0.5
			c0.6,0.8,13.6,20.4,15.7,51.4c0.1,1.1-0.8,2.1-1.9,2.1C827.3,714.8,827.3,714.8,827.2,714.8z"/>
	</g>
	<g>
		<path d="M243.4,659.9c-0.1,0-0.3,0-0.4,0c-1.1-0.2-1.8-1.3-1.5-2.4l4.8-21.5c0.2-1.1,1.3-1.8,2.4-1.5c1.1,0.2,1.8,1.3,1.5,2.4
			l-4.8,21.5C245.1,659.3,244.3,659.9,243.4,659.9z"/>
	</g>
	<g>
		<path d="M223,658.7c-1.1,0-2-0.9-2-2l-0.4-22.5c0-1.1,0.9-2,2-2c0,0,0,0,0,0c1.1,0,2,0.9,2,2l0.4,22.5
			C225,657.8,224.1,658.7,223,658.7C223,658.7,223,658.7,223,658.7z"/>
	</g>
	<g>
		<path d="M202.1,660.3c-0.8,0-1.6-0.5-1.9-1.4l-6.2-18.4c-0.4-1,0.2-2.2,1.3-2.5c1-0.4,2.2,0.2,2.5,1.3l6.2,18.4
			c0.4,1-0.2,2.2-1.3,2.5C202.5,660.3,202.3,660.3,202.1,660.3z"/>
	</g>
	<g>
		<path d="M596.7,956.3c-0.8,0-1.5-0.4-1.8-1.2c-0.5-1,0-2.2,1-2.6l20.5-9.2c1-0.5,2.2,0,2.6,1c0.5,1,0,2.2-1,2.6l-20.5,9.2
			C597.3,956.2,597,956.3,596.7,956.3z"/>
	</g>
	<g>
		<path d="M588.5,933.7c-1,0-1.9-0.7-2-1.7c-0.1-1.1,0.6-2.1,1.7-2.2l20.9-2.7c1.1-0.1,2.1,0.6,2.2,1.7c0.1,1.1-0.6,2.1-1.7,2.2
			l-20.9,2.7C588.7,933.7,588.6,933.7,588.5,933.7z"/>
	</g>
	<g>
		<path d="M612.1,974.8c-0.5,0-1.1-0.2-1.5-0.7c-0.7-0.8-0.7-2.1,0.1-2.8l14.2-12.8c0.8-0.7,2.1-0.7,2.8,0.1
			c0.7,0.8,0.7,2.1-0.1,2.8l-14.2,12.8C613.1,974.6,612.6,974.8,612.1,974.8z"/>
	</g>
	<g>
		<path d="M552.5,1005.7c-1,0-1.9-0.7-2-1.8c-3.8-31.5-28-45.5-50.2-45.5c-1.1,0-2-0.9-2-2s0.9-2,2-2c24,0,50.1,15.2,54.2,49.1
			c0.1,1.1-0.6,2.1-1.7,2.2C552.7,1005.7,552.6,1005.7,552.5,1005.7z"/>
	</g>
	<g>
		<path d="M206.3,587c-8.7,0-17.1-2-24.7-5.9c-1-0.5-1.4-1.7-0.9-2.7c0.5-1,1.7-1.4,2.7-0.9c16,8.3,31.9,5.7,42.4,2
			c15.3-5.3,28.9-16.5,33.9-27.7c0.4-1,1.6-1.5,2.6-1c1,0.5,1.5,1.6,1,2.6c-5.4,12.2-20,24.2-36.3,29.9
			C220.3,585.7,213.2,587,206.3,587z"/>
	</g>
	<g>
		<path d="M567,641.1c-0.5,0-1.1-0.2-1.5-0.6c-0.8-0.8-0.7-2.1,0.1-2.8l13.5-12.8c0.8-0.8,2.1-0.7,2.8,0.1s0.7,2.1-0.1,2.8
			l-13.5,12.8C568,640.9,567.5,641.1,567,641.1z"/>
	</g>
</g>
</svg>
