<?xml version="1.0" encoding="utf-8"?>
<!-- Generator: Adobe Illustrator 25.1.0, SVG Export Plug-In . SVG Version: 6.00 Build 0)  -->
<svg version="1.1" id="Layer_2_1_" xmlns="http://www.w3.org/2000/svg" xmlns:xlink="http://www.w3.org/1999/xlink" x="0px" y="0px"
	 viewBox="0 0 1600 1200" style="enable-background:new 0 0 1600 1200;" xml:space="preserve">
<style type="text/css">
	.st0{fill:#98D8F4;}
	.st1{fill:#F696BB;}
	.st2{fill:#FFFFFF;}
	.st3{fill:#F9494B;}
	.st4{fill:#6C79D9;}
</style>
<g id="man_x27_s_hand">
	<g>
		<path d="M998.2,655.1c-15.2,0-37.3-5.6-59.8-12.2c-0.8-0.3-20.1-6.1-28.3-10.1l-50.7-19.7l26.3-73.6l63.8,18.1
			c1.6,0.6,38.5,14.5,43.6,17.7c3.9,2.5,5.8,5.3,5.8,8.4c0,2.6-1.4,4.8-2.8,6.3c3.6,1,10.2,2.9,20.4,5.9c6.4,1.9,10.3,4.9,11.5,8.9
			c1.1,3.6-0.3,7-1.4,8.8c2.3,2.4,3.4,5.1,3.4,8c0,4.2-2.5,7.5-3.9,9c0.5,4-0.3,7.4-2.2,9.9c-1.9,2.5-4.4,3.5-6.1,4
			c-0.5,2.9-2,5.2-4.4,6.9C1010,654,1004.7,655.1,998.2,655.1z M864.5,610.8l47.4,18.4c7.8,3.9,27.5,9.8,27.7,9.9
			c19.5,5.7,60,17.4,71.5,9.2c1.8-1.3,2.8-3.1,2.9-5.4l0.1-1.7l1.7-0.2c0,0,3.1-0.4,5-2.8c1.4-1.9,1.8-4.5,1.3-7.8l-0.2-1.1l0.8-0.7
			c0,0,3.3-3.1,3.3-6.8c0-2.1-1.1-4.2-3.3-6.2l-1.4-1.3l1.2-1.5c0.1-0.1,2.7-3.4,1.7-6.7c-0.8-2.6-3.9-4.7-8.8-6.2
			c-17-5-23.8-6.9-23.8-6.9l-4.4-1.2l3.8-2.4c1.1-0.7,4-3.1,4-5.6c0-1.7-1.3-3.4-4-5c-3.9-2.4-32.1-13.3-42.8-17.3l-59.9-17
			L864.5,610.8z"/>
	</g>
	<path class="st0" d="M911,662.2c-15.4,0-140.9-61.8-192.1-113.1c-26.4-26.4-31-61.2-30.2-85.8c0.9-26.6,8.1-47.2,8.1-47.4l0.1-0.3
		l0.2,0.2c0.9,0.7,90.2,66.6,161,102c32.1,16.1,61.8,29.6,90.8,41.5h0.1v0.1c0.2,4.4-3.8,25.6-18.8,43.6
		c-12.5,15-18.1,26.3-18.9,27.8c8,3.9,27.6,9.8,27.8,9.9l0.2,0.1l-0.1,0.2C939.1,641.3,928.9,662.2,911,662.2z"/>
	<g>
		<path d="M988,594c-0.2,0-0.4,0-0.5-0.1l-25-7c-1.1-0.3-1.7-1.4-1.4-2.5c0.3-1.1,1.4-1.7,2.5-1.4l25,7c1.1,0.3,1.7,1.4,1.4,2.5
			C989.7,593.4,988.9,594,988,594z"/>
	</g>
	<g>
		<path d="M1022,617c-0.1,0-0.3,0-0.4,0c-0.3-0.1-27.3-6.1-48.2-13.1c-1-0.3-1.6-1.5-1.3-2.5c0.3-1,1.5-1.6,2.5-1.3
			c20.7,6.9,47.5,12.9,47.8,12.9c1.1,0.2,1.8,1.3,1.5,2.4C1023.7,616.4,1022.9,617,1022,617z"/>
	</g>
	<g>
		<path d="M1022,631.9c-0.2,0-0.3,0-0.5-0.1c-0.3-0.1-33.3-9-52.1-14.9c-1.1-0.3-1.6-1.5-1.3-2.5s1.5-1.6,2.5-1.3
			c18.7,5.9,51.6,14.8,51.9,14.9c1.1,0.3,1.7,1.4,1.4,2.5C1023.7,631.3,1022.9,631.9,1022,631.9z"/>
	</g>
	<g>
		<path d="M1014,643c-0.1,0-0.2,0-0.4,0c-0.3-0.1-32.5-6.1-50.3-12.1c-1-0.4-1.6-1.5-1.3-2.5c0.4-1,1.5-1.6,2.5-1.3
			c17.5,5.9,49.4,11.9,49.7,11.9c1.1,0.2,1.8,1.2,1.6,2.3C1015.8,642.3,1014.9,643,1014,643z"/>
	</g>
	<g>
		<path d="M961.9,637c-0.2,0-0.5,0-0.7-0.1c-1-0.4-1.6-1.5-1.2-2.6l13.6-37.4c0.4-1,1.5-1.6,2.6-1.2c1,0.4,1.6,1.5,1.2,2.6
			l-13.6,37.4C963.5,636.5,962.7,637,961.9,637z"/>
	</g>
	<g>
		<path d="M849.5,638c-0.3,0-0.6-0.1-1-0.2c-1-0.5-1.3-1.7-0.8-2.7c10.3-19,3.9-42.8-14.6-54c-19.1-11.7-44.2-5.6-56,13.5
			c-0.6,0.9-1.8,1.2-2.8,0.7c-0.9-0.6-1.2-1.8-0.7-2.8c12.9-21,40.4-27.7,61.5-14.9c20.3,12.4,27.4,38.4,16,59.4
			C850.9,637.6,850.2,638,849.5,638z"/>
	</g>
	<path d="M910.9,662.2L910.9,662.2c-0.2-0.2-4.1-4.2-4.1-13.2c0-8.9,4-18,4-18.1l0.1-0.2l0.2,0.1c7.9,3.9,27.8,9.9,28,10l0.2,0.1
		l-0.1,0.2C939.1,641.3,928.9,662.2,910.9,662.2L910.9,662.2z"/>
</g>
<g id="heart">
	<path class="st1" d="M802,200.6c-7.5-34.4-56.3-25.7-39.5,14.7c15.5,32.4,35.3,69.6,39.1,76.8c0.1,0.2,0.2,0.4,0.3,0.6
		c0.1-0.2,0.2-0.4,0.3-0.6c3.8-7.1,23.6-44.3,39.1-76.8C858.3,174.9,809.5,166.1,802,200.6z"/>
</g>
<g id="woman">
	<g>
		<path class="st2" d="M858.4,789.7c-4.2,0-8.1-3.2-8.2-3.2l-0.8-0.7l-1,0.3c-1.7,0.5-3.3,0.8-4.7,0.8c-6.4,0-7.7-5.6-7.8-6.2
			l-0.4-2.2l-2.2,0.7c-0.8,0.3-1.6,0.4-2.5,0.4c-2.3,0-4.5-1-5.8-2.6s-1.7-3.9-1.1-6.4l8.6-38.8l-2.8,0.4c0,0-0.4,0-1,0
			c-1.7,0-4.7-0.3-6.4-2.6c-1.7-2.2-1.8-6-0.4-11l7.1-25.9l23.4-59.6l65,0.9l-17.8,64.4c-1.7,7.6-4.1,17.9-5.6,24.2
			c-4.1,17.6-11.9,47.9-12.9,50.8c-3.1,8.7-8.1,9.9-10.8,9.9c-1,0-1.7-0.2-1.7-0.2l-1.5-0.4l-0.8,1.4
			C864.2,787.8,861.7,789.7,858.4,789.7z"/>
		<g>
			<path d="M853.7,635l61.1,0.9l-17.1,61.9v0.1v0.1c-1.7,7.6-4.1,17.9-5.5,24.1c-4.1,17.5-11.9,47.7-12.9,50.6
				c-2,5.6-5.1,8.6-8.9,8.6c-0.6,0-1.1-0.1-1.2-0.1l-3-1l-1.6,3c-2.2,4.1-4.5,4.6-6,4.6c-2.9,0-6-2-6.9-2.7l-1.7-1.4l-2.1,0.6
				c-1.5,0.5-2.9,0.7-4.1,0.7c-4.5,0-5.6-3.6-5.8-4.6l-0.7-4.6l-4.5,1.5c-0.6,0.2-1.2,0.3-1.8,0.3c-1.7,0-3.3-0.7-4.3-1.9
				c-0.9-1.2-1.2-2.8-0.7-4.8l8-36l1.3-5.6l-5.7,0.8c0,0-0.3,0-0.8,0c-1,0-3.6-0.2-4.8-1.8c-1.3-1.6-1.3-4.9-0.1-9.2l7-25.8
				L853.7,635 M851,631l-23.9,61l-7.1,26c-4.1,14.7,5.2,16.1,8.7,16.1c0.8,0,1.3-0.1,1.3-0.1l-8,36c-1.6,7.4,3.6,11.5,8.9,11.5
				c1,0,2.1-0.2,3.1-0.5c0,0,1.4,7.9,9.7,7.9c1.5,0,3.3-0.3,5.3-0.9c0,0,4.4,3.7,9.4,3.7c3.3,0,6.8-1.6,9.6-6.7c0,0,0.9,0.3,2.3,0.3
				c3.3,0,9.2-1.5,12.7-11.3c1.1-3.2,9-34,13-51c1.5-6.2,3.8-16.4,5.5-24.2L920,632L851,631L851,631z"/>
		</g>
	</g>
	<path class="st3" d="M903.3,723.6c-4.2,0-7.3-0.4-7.3-0.4h-0.2l0.1-0.2c1.3-5.7,5-21.6,5.5-23.9c-8.2,0.5-16,0.8-23.3,0.8
		c-38.3,0-50.9-7.6-51-7.7l-0.1-0.1l66-280.4l71.3,48.2v0.1c-0.2,1.7-17.2,172.9-34,249C927.4,721.7,912.1,723.6,903.3,723.6
		L903.3,723.6z"/>
	<path d="M903.3,723.6c-4.2,0-7.3-0.4-7.3-0.4h-0.2l0.1-0.2c1.4-6.1,5.5-24,5.5-24.2v-0.1h0.2c1.2-0.1,2.3-0.1,3.4-0.1
		c11.2,0,17.4,2.8,20.7,5.2c3.6,2.6,4.5,5.1,4.5,5.2v0.1v0.1C927.4,721.7,912.1,723.6,903.3,723.6L903.3,723.6z"/>
	<g>
		<path d="M836,780c-0.2,0-0.3,0-0.5-0.1c-1.1-0.3-1.7-1.4-1.4-2.4c0.1-0.3,7-27.2,12-48.9c0.2-1.1,1.3-1.8,2.4-1.5
			c1.1,0.2,1.8,1.3,1.5,2.4c-4.9,21.8-11.9,48.8-12,49.1C837.7,779.4,836.9,780,836,780z"/>
	</g>
	<g>
		<path d="M850,788c-0.2,0-0.3,0-0.5-0.1c-1.1-0.3-1.7-1.4-1.4-2.4c0.1-0.3,8-31.2,13-53.9c0.2-1.1,1.3-1.8,2.4-1.5
			c1.1,0.2,1.8,1.3,1.5,2.4c-5,22.8-12.9,53.8-13,54.1C851.7,787.4,850.9,788,850,788z"/>
	</g>
	<g>
		<path d="M867,785c-0.2,0-0.4,0-0.5-0.1c-1.1-0.3-1.7-1.4-1.4-2.5c4.9-17.7,10.9-48.5,11-48.8c0.2-1.1,1.3-1.8,2.3-1.6
			c1.1,0.2,1.8,1.3,1.6,2.3c-0.1,0.3-6.1,31.3-11,49.2C868.7,784.4,867.9,785,867,785z"/>
	</g>
	<g>
		<path d="M882,736c-0.1,0-0.2,0-0.4,0l-39-7c-1.1-0.2-1.8-1.2-1.6-2.3c0.2-1.1,1.2-1.8,2.3-1.6l39,7c1.1,0.2,1.8,1.2,1.6,2.3
			C883.8,735.3,883,736,882,736z"/>
	</g>
	<path d="M1015.6,904.4c-72,0-123.1-17-123.6-17.2l-0.3-0.1l72.3-80.3l183.1-19c13-2.7,25.1-4.1,35.9-4.1c17.3,0,28.4,3.6,34.7,6.6
		c6.8,3.3,9.5,6.5,9.6,6.6c4.5,7.4,4.1,15.9-1.1,25.4c-20,36.7-109,79.5-198.1,81.9C1023.9,904.3,1019.7,904.4,1015.6,904.4
		L1015.6,904.4z"/>
	<path class="st1" d="M801.7,1035.2v-0.2c0-15.3,10.5-29.6,31.1-52.1c15.5-17,21.2-71.4,24.2-110.8l15.9-78.2l104.4-27.1l3.2,85.2
		c2.2,40.1,2,82.4,1.8,98.6v0.1h-0.1c-25.6,7.3-71.1,27.9-87.5,84.3v0.1L801.7,1035.2L801.7,1035.2z"/>
	<path d="M934.8,1035.2l-9-53.3l0.1-0.1c15-14.4,34.3-25.3,56.1-31.4l0.3-0.1v0.3c-0.1,4.8-0.1,7.5-0.1,7.5c-2.8,56.4-8,76.8-8,77
		v0.2L934.8,1035.2L934.8,1035.2z"/>
	<path d="M1115.9,1035.2L1115.9,1035.2c-0.2-0.3-16.5-23.9-38.7-84.8l-0.1-0.3h0.3c26.4,1.3,52.1,10.7,74.2,27.2l0.1,0.1l-2.5,57.8
		H1115.9z"/>
	<path class="st1" d="M1196.6,1035.2L1196.6,1035.2c-20.2-48.2-68.1-82.2-119.3-84.7h-0.1v-0.1c-10.4-28.6-20.3-61-29.5-96.3
		c-6.5-25.2-11.2-39.9-13.9-43.9l-0.2-0.2l111.4-26.1l46.9,92.1c2.1,3.8,4.2,7.9,6.4,12c18,33.8,40.4,75.9,79.5,107.9
		c28.1,23,25.1,39,25.1,39.2v0.2L1196.6,1035.2L1196.6,1035.2z"/>
	<path class="st3" d="M958.1,406.8c-0.2-0.1-19.9-14-35.4-14c-9.2,0-15.2,4.7-17.8,14l-9,5v0.1c-0.4,4.4-37.3,438.6-38.9,460.1v0.1
		l0.1,0.1c0.1,0,8.9,3.9,27.2,3.9l0,0c21.3,0,58-5.2,111.9-29.9c87.8-40.3,137.1-55.6,151-58c13-2.7,25-4.1,35.8-4.1
		c26.3,0,40.3,8.5,44,13l0.3-0.2C1217.1,777.2,960.8,410.6,958.1,406.8z"/>
	<path class="st3" d="M1043.7,561.1l-86.2-154.3l18.4,3c46.8,19.3,84.7,41.8,112.8,66.8c23.4,20.9,39.5,42.8,47.7,65.4l-0.4,0.1
		l-92,18.8L1043.7,561.1z"/>
	<g>
		<path d="M1044.9,565c-0.7,0-1.4-0.4-1.8-1l-1.1-2c-0.5-1-0.2-2.2,0.8-2.7c1-0.5,2.2-0.2,2.7,0.8l1.1,2c0.5,1,0.2,2.2-0.8,2.7
			C1045.6,564.9,1045.2,565,1044.9,565z"/>
	</g>
	<g>
		<path d="M1043.8,563c-0.7,0-1.4-0.4-1.7-1l-58-104.1c-0.5-1-0.2-2.2,0.8-2.7c1-0.5,2.2-0.2,2.7,0.8l58,104.1
			c0.5,1,0.2,2.2-0.8,2.7C1044.5,562.9,1044.1,563,1043.8,563z"/>
	</g>
	<g>
		<path class="st2" d="M966.8,421.5c-12.1,0-21.9-9.8-21.9-21.9s9.8-21.9,21.9-21.9c12.1,0,21.9,9.8,21.9,21.9
			S978.9,421.5,966.8,421.5z"/>
		<g>
			<path d="M966.8,379.6c11,0,19.9,8.9,19.9,19.9s-8.9,19.9-19.9,19.9s-19.9-8.9-19.9-19.9S955.8,379.6,966.8,379.6 M966.8,375.6
				c-13.2,0-23.9,10.7-23.9,23.9c0,13.2,10.7,23.9,23.9,23.9s23.9-10.7,23.9-23.9C990.7,386.3,980,375.6,966.8,375.6L966.8,375.6z"
				/>
		</g>
	</g>
	<g>
		<path class="st2" d="M917.4,430.7c-18.5,0-34.2-20.2-38.3-49c-4.8-33.6,4.5-62.6,21.4-67.3c3.8-1.1,7.8-1.6,11.7-1.6
			c24.7,0,44.1,20.7,44.3,20.9c9.2,10.3,12.8,20,11.7,31.5c-1.2,12.9-8.4,28-22.5,47.6C937.3,424.5,927.5,430.7,917.4,430.7z"/>
		<g>
			<path d="M912.3,310.8v4l0,0c23.4,0,42.1,19.5,42.8,20.2c15.1,17,18.5,35.8-11,76.6c-8,11.1-17.3,17-26.7,17
				c-8,0-16-4.4-22.5-12.4c-7-8.6-11.9-21-13.8-34.8c-2.3-16.4-1.3-32.1,2.7-44.3c3.8-11.4,9.9-18.7,17.2-20.8
				c3.6-1,7.4-1.5,11.2-1.5L912.3,310.8 M912.3,310.8c-4,0-8.1,0.5-12.3,1.7c-17.7,4.9-27.8,34.2-22.9,69.5
				c4.3,30.5,21.4,50.7,40.3,50.7c10,0,20.6-5.7,29.9-18.7c29.2-40.5,28.3-61.8,10.7-81.7C958,332.4,938.2,310.8,912.3,310.8
				L912.3,310.8z"/>
		</g>
	</g>
	<g>
		<path d="M899,382.9c-0.5,0-0.9-0.2-1.3-0.5c-1.6-1.4-2.9-3.2-3.6-5.3c0,0,0-0.1,0-0.1c-0.8-3.1,0.1-8.2,3.2-18.3
			c0.3-1.1,1.5-1.6,2.5-1.3c1.1,0.3,1.6,1.5,1.3,2.5c-1.7,5.5-3.9,13.1-3.2,16c0.5,1.4,1.3,2.5,2.4,3.5c0.8,0.7,0.9,2,0.2,2.8
			C900.1,382.7,899.6,382.9,899,382.9z"/>
	</g>
	<g>
		<path d="M914,370.4c-0.1,0-0.3,0-0.4,0c-1.1-0.2-1.8-1.3-1.6-2.4l0.5-2.5c0.2-1.1,1.3-1.8,2.4-1.6c1.1,0.2,1.8,1.3,1.6,2.4
			l-0.5,2.5C915.8,369.7,914.9,370.4,914,370.4z"/>
	</g>
	<g>
		<path d="M888.1,359.2c-0.1,0-0.2,0-0.3,0c-1.1-0.2-1.8-1.2-1.6-2.3l0.4-2.4c0.2-1.1,1.2-1.8,2.3-1.6c1.1,0.2,1.8,1.2,1.6,2.3
			l-0.4,2.4C889.9,358.5,889.1,359.2,888.1,359.2z"/>
	</g>
	<g>
		<path d="M906.1,397c-0.8,0-1.5-0.1-2.3-0.3c-0.6-0.1-1.3-0.4-1.8-0.6c-1-0.4-1.5-1.6-1.1-2.6c0.4-1,1.6-1.5,2.6-1.1
			c0.4,0.2,0.8,0.3,1.1,0.4c3.4,0.8,6.7-1.3,7.5-4.6c0.2-1.1,1.3-1.8,2.4-1.5c1.1,0.2,1.8,1.3,1.5,2.4
			C915,393.8,910.8,397,906.1,397z"/>
	</g>
	<g>
		<path d="M970.1,404.8c-0.3,0-0.7-0.1-1-0.3l-12.2-6.8c-1-0.5-1.3-1.8-0.8-2.7c0.5-1,1.8-1.3,2.7-0.8l12.2,6.8
			c1,0.5,1.3,1.8,0.8,2.7C971.5,404.4,970.8,404.8,970.1,404.8z"/>
	</g>
	<circle cx="976.1" cy="300.5" r="37"/>
	<g>
		<path d="M1173,786.3c-0.1,0-0.2,0-0.3,0c-1.1-0.2-1.9-1.2-1.7-2.3l7.8-56.5c0.2-1.1,1.2-1.9,2.3-1.7c1.1,0.2,1.9,1.2,1.7,2.3
			l-7.8,56.5C1174.8,785.6,1174,786.3,1173,786.3z"/>
	</g>
	<g>
		<path d="M1076,814c-0.4,0-0.8-0.1-1.2-0.4l-67-51c-0.7-0.5-1-1.5-0.6-2.3c0.3-0.8,1.2-1.4,2.1-1.2l92.5,10.7l-8.7-76.5
			c-0.1-0.9,0.5-1.8,1.3-2.1c0.9-0.3,1.9,0,2.4,0.9l40.5,66.5l33-44.8c0.7-0.9,1.9-1.1,2.8-0.4c0.9,0.7,1.1,1.9,0.4,2.8l-34.8,47.2
			c-0.4,0.5-1,0.8-1.7,0.8c-0.7,0-1.3-0.4-1.6-1l-37.3-61.2l8,70c0.1,0.6-0.1,1.2-0.6,1.6s-1,0.6-1.6,0.6l-87.8-10.2l61.2,46.6
			c0.9,0.7,1,1.9,0.4,2.8C1077.2,813.7,1076.6,814,1076,814z"/>
	</g>
	<g>
		<path d="M911,875c0,0-0.1,0-0.1,0c-1.1-0.1-1.9-1-1.9-2.1l4-57.1c0-0.6,0.4-1.1,0.8-1.5c0.5-0.3,1.1-0.5,1.7-0.3l45.8,12.7
			l-40.8-37.9c-0.8-0.7-0.9-2-0.1-2.8l39.9-43.7l-52.8,14c-0.6,0.1-1.1,0.1-1.6-0.3s-0.8-0.8-0.9-1.4l-7.7-54.2l-16.4,53.1
			c-0.2,0.5-0.5,1-1,1.2c-0.5,0.2-1.1,0.3-1.6,0.1l-11-4c-1-0.4-1.6-1.5-1.2-2.6c0.4-1,1.5-1.6,2.6-1.2l9,3.3l18.4-59.6
			c0.3-0.9,1.1-1.5,2.1-1.4c0.9,0.1,1.7,0.8,1.8,1.7l8.7,60.8l57.2-15.2c0.9-0.2,1.8,0.1,2.2,0.9c0.5,0.8,0.4,1.7-0.2,2.4
			l-43.2,47.2l45.3,42.2c0.7,0.6,0.8,1.6,0.4,2.4c-0.5,0.8-1.4,1.2-2.3,1l-51.3-14.2l-3.8,54.7C912.9,874.2,912,875,911,875z"/>
	</g>
	<g>
		<path d="M899,877c-0.9,0-1.7-0.6-1.9-1.5l-14.2-52.2l-21.7,15.3c-0.9,0.6-2.2,0.4-2.8-0.5c-0.6-0.9-0.4-2.1,0.5-2.8l24-17
			c0.5-0.4,1.2-0.5,1.8-0.3c0.6,0.2,1.1,0.7,1.3,1.4l15,55c0.3,1.1-0.3,2.2-1.4,2.5C899.3,877,899.2,877,899,877z"/>
	</g>
	<path d="M1214.3,1035.2v-0.2c7-35.7,29.3-59.6,35.9-66.1l0.2-0.1l0.1,0.2c8.4,9.7,17.6,18.8,27.5,26.9c28.1,23,25.1,39,25.1,39.2
		v0.2h-88.8V1035.2z"/>
	<path d="M801.7,1035.2v-0.2c0-15.3,10.5-29.6,31.1-52.1c1.1-1.3,2.2-2.6,3.1-4.1l0.1-0.2l0.2,0.1c20.4,13.3,32.8,31.7,38.1,56.2
		l0.1,0.2L801.7,1035.2L801.7,1035.2z"/>
	<g id="newborn">
		<path class="st1" d="M949.8,648.2c-8.1,0-15.7-1.8-22.3-5.5c-17.3-9.4-27.3-29.9-28-57.7s7.8-59.5,24-89.4
			c26.7-49.1,68.2-82.1,103.3-82.1c8.1,0,15.7,1.8,22.3,5.5c35.8,19.4,37.6,85.4,4,147.1C1026.4,615.2,984.9,648.2,949.8,648.2z"/>
		<path class="st2" d="M1018.7,514.7c-22.1,0-40.1-18-40.1-40.1s18-40.1,40.1-40.1c22.1,0,40.1,18,40.1,40.1
			S1040.8,514.7,1018.7,514.7z"/>
		<path d="M1053.7,493.8c-19.4-10.6-26.7-35-16.1-54.4l0.1-0.2l0.2,0.1c9.4,5.1,16.3,13.6,19.3,23.9s1.9,21.1-3.2,30.6l-0.1,0.2
			L1053.7,493.8z"/>
		<path d="M1002.6,460.5c-6.6,0-13.3-1.7-19.1-4.9l-0.2-0.1l0.1-0.2c7-12.9,20.6-21,35.3-21c6.6,0,13.3,1.7,19.1,4.9l0.2,0.1
			l-0.1,0.2C1030.9,452.5,1017.4,460.5,1002.6,460.5z"/>
		<g>
			<path d="M998.4,472.9c-0.4,0-0.7-0.1-1.1-0.3c-0.9-0.6-1.2-1.8-0.6-2.8l0.5-0.8c0.6-0.9,1.8-1.2,2.8-0.6c0.9,0.6,1.2,1.8,0.6,2.8
				l-0.5,0.8C999.7,472.6,999.1,472.9,998.4,472.9z"/>
		</g>
		<g>
			<path d="M1032.7,491.6c-0.3,0-0.5-0.1-0.8-0.2c-1-0.4-1.5-1.6-1-2.6l0.4-0.9c0.4-1,1.6-1.5,2.6-1c1,0.4,1.5,1.6,1,2.6l-0.4,0.9
				C1034.2,491.2,1033.5,491.6,1032.7,491.6z"/>
		</g>
		<g>
			<path d="M1012.9,495.4c-1.7,0-3.4-0.4-5-1.3c-5-2.7-6.8-9-4.1-14c0.5-1,1.7-1.3,2.7-0.8c1,0.5,1.3,1.7,0.8,2.7
				c-1.7,3-0.5,6.9,2.5,8.6c1.5,0.8,3.2,1,4.9,0.5c1.6-0.5,2.9-1.5,3.7-3c0.5-1,1.7-1.3,2.7-0.8c1,0.5,1.3,1.7,0.8,2.7
				c-1.3,2.4-3.5,4.2-6.1,5C1014.9,495.3,1013.9,495.4,1012.9,495.4z"/>
		</g>
		<g>
			<path d="M947.5,576.5c-0.1,0-0.1,0-0.2,0c-3.9,0-7.5-1.6-10.3-4.4l-0.5-0.5c-0.6-0.6-1.2-1.3-1.7-2c-4.5-6.6-2.7-15.6,3.9-20.2
				l59.1-39.9c0.8-0.5,1.9-0.4,2.6,0.3c0.7,0.7,0.8,1.8,0.2,2.6l-41.4,58c0,0-0.1,0.1-0.1,0.1c-0.5,0.6-1.1,1.3-1.6,1.8
				C954.9,575,951.3,576.5,947.5,576.5z M991,519.1l-49.9,33.7c-4.8,3.3-6.1,9.9-2.9,14.6c0.3,0.5,0.7,1,1.2,1.4l0.5,0.5
				c2,2.1,4.6,3.2,7.4,3.2c2.8,0,5.5-1,7.4-3c0.4-0.4,0.9-0.9,1.3-1.5L991,519.1z"/>
		</g>
		<g>
			<path d="M999.7,572.6H999c-7.5,0-13.6-6.1-13.6-13.6c0-1.3,0.2-2.5,0.5-3.5l11.5-44.7c0.2-0.9,1-1.5,1.9-1.5c0,0,0,0,0,0
				c0.9,0,1.7,0.6,1.9,1.5l11.6,44.7c1.9,7.2-2.5,14.7-9.7,16.6c0,0-0.1,0-0.1,0l-0.3,0.1C1001.8,572.4,1000.8,572.6,999.7,572.6z
				 M999.3,519.3l-9.6,37.3c0,0,0,0.1,0,0.1c-0.2,0.6-0.3,1.3-0.3,2.3c0,5.3,4.3,9.6,9.6,9.6h0.7c0.7,0,1.4-0.1,2.2-0.3l0.2,0
				c5.1-1.4,8.1-6.7,6.8-11.8L999.3,519.3z M987.8,556.1L987.8,556.1L987.8,556.1z"/>
		</g>
		<g>
			<path d="M958.6,520.8c-0.9,0-1.8-0.7-2-1.6c-0.2-1.1,0.5-2.1,1.6-2.3l40.7-7.5c1.1-0.2,2.1,0.5,2.3,1.6c0.2,1.1-0.5,2.1-1.6,2.3
				l-40.7,7.5C958.8,520.8,958.7,520.8,958.6,520.8z"/>
		</g>
	</g>
	<g>
		<path class="st2" d="M949,706.9c-6.4,0-10.4-1.9-12.3-5.8l-0.6-1.1h-1.2c-0.1,0-5.9-0.1-8.7-3.4c-1.3-1.6-1.7-3.6-1.3-6.3l0.3-1.6
			l-1.5-0.6c0,0-4.3-1.9-5.3-5.5c-0.6-2.2,0.1-4.7,2.2-7.5l1.1-1.5l-1.4-1.2c0,0-3.6-3.1-3.2-6.9c0.4-3.1,3.4-6.1,8.8-8.8l28.8-14.4
			l-5.2-1.3c-5.8-1.5-4.8-6.6-4.5-7.6c0.8-3.3,11.3-10.2,23.5-18.3c5.8-3.9,12.5-8.3,19.6-13.2l59-30.2l32.4,75.4l-31.4,17.1
			c-9.9,5.9-29.4,16.1-29.6,16.2C985.3,698.3,962.6,706.9,949,706.9z"/>
		<path d="M1045.9,574.5l30.9,71.7l-29.8,16.3h-0.1h-0.1c-9.8,5.9-29.2,16-29.4,16.2c-32.3,17.4-55.3,26.2-68.4,26.2
			c-8.2,0-10-3.5-10.6-4.7l-1.1-2.2h-2.5c-1,0-5.3-0.4-7.2-2.7c-0.3-0.4-1.4-1.6-0.9-4.7l0.5-3.1l-2.9-1.2c-1-0.4-3.6-2-4.2-4.2
			c-0.4-1.6,0.2-3.5,1.9-5.8l2.2-3l-2.9-2.4c0,0-2.8-2.5-2.5-5.1c0.3-2.3,3-4.9,7.7-7.3l24-12l10.2-5l-10.9-2.5c0,0-1.3-0.4-2.3-1.3
			c-0.7-0.7-1.4-1.7-0.9-3.9c0.9-2.7,12.5-10.4,22.7-17.1c5.8-3.9,12.4-8.2,19.5-13.2L1045.9,574.5 M1047.9,569l-61,31.3
			c-24,16.7-42.6,27-44,32.7c-2,8,6,10,6,10l-24,12c-18,9-6,19-6,19c-8,11,4,16,4,16c-2,12,12,12,12,12c2.4,4.8,7.4,6.9,14.1,6.9
			c16.4,0,43.4-12.2,70.3-26.7c0,0,19.6-10.3,29.6-16.3l33-18L1047.9,569L1047.9,569z"/>
	</g>
	<path class="st3" d="M1142.1,569L1142.1,569c-0.5-9.3-2.4-18.4-5.7-27v-0.1l-60.4-3l-32.2,22c-18.5,14.1-40.9,29.5-57,39.2
		l-0.2,0.1l0.1,0.2c0.1,0.1,7.6,12.4,24.1,25.8c2.3,1.9,4.5,3.6,6.5,5.2c12.2,9.7,21.1,16.7,31.3,34.5l7.4,33.2
		c24-15.5,45.9-36.9,61.8-60.2C1134.4,614.6,1143,589.8,1142.1,569z"/>
	<g>
		<path d="M1056,699c-0.7,0-1.4-0.4-1.8-1c-0.5-1-0.2-2.2,0.8-2.7c16.8-9.3,42.6-31.3,62.3-59.4c0.6-0.9,1.9-1.1,2.8-0.5
			c0.9,0.6,1.1,1.9,0.5,2.8c-20.1,28.6-46.5,51.1-63.7,60.6C1056.7,698.9,1056.3,699,1056,699z"/>
	</g>
	<path d="M1050.1,699.9c-8.6,0-16.6-4.8-21.7-8.8c-5.6-4.3-9.2-8.7-9.2-8.8l-0.2-0.2l29.6-16.3l0.1,0.2c11.9,21.8,7.4,32.9,7.3,33
		v0.1h-0.1C1054,699.7,1052.1,699.9,1050.1,699.9z"/>
	<g>
		<path d="M955.5,644.2c-0.7,0-1.4-0.4-1.8-1.1c-0.5-1-0.1-2.2,0.8-2.7l17.4-9.2c1-0.5,2.2-0.1,2.7,0.8c0.5,1,0.1,2.2-0.8,2.7
			l-17.4,9.2C956.1,644.1,955.8,644.2,955.5,644.2z"/>
	</g>
	<g>
		<path d="M921.9,676c-0.9,0-1.7-0.6-1.9-1.4c-0.3-1.1,0.3-2.2,1.3-2.5c15.9-4.8,34.7-13.4,47.7-19.9c1-0.5,2.2-0.1,2.7,0.9
			c0.5,1,0.1,2.2-0.9,2.7c-13.1,6.5-32.2,15.3-48.3,20.1C922.3,676,922.1,676,921.9,676z"/>
	</g>
	<g>
		<path d="M924.9,691c-0.9,0-1.6-0.6-1.9-1.4c-0.3-1.1,0.3-2.2,1.3-2.5c0.3-0.1,29-8.9,52-19.6c1-0.5,2.2,0,2.7,1c0.5,1,0,2.2-1,2.7
			c-23.3,10.8-52.3,19.7-52.6,19.8C925.3,691,925.1,691,924.9,691z"/>
	</g>
	<g>
		<path d="M936.9,702c-0.9,0-1.8-0.7-2-1.6c-0.2-1.1,0.5-2.1,1.6-2.3c0.2,0,18.5-3.6,45.8-16.9c1-0.5,2.2-0.1,2.7,0.9
			c0.5,1,0.1,2.2-0.9,2.7c-27.8,13.6-46,17.1-46.8,17.3C937.1,702,937,702,936.9,702z"/>
	</g>
	<g>
		<path d="M987.9,604c-0.6,0-1.3-0.3-1.6-0.9c-0.6-0.9-0.4-2.2,0.5-2.8l84.1-58c0.9-0.6,2.2-0.4,2.8,0.5c0.6,0.9,0.4,2.2-0.5,2.8
			l-84.1,58C988.7,603.9,988.3,604,987.9,604z"/>
	</g>
	<g>
		<path d="M1102,660c-0.3,0-0.6-0.1-0.9-0.2l-33-16c-0.5-0.2-0.9-0.7-1-1.2c-0.2-0.5-0.1-1.1,0.1-1.6l34.3-64.9l-72.8,31.7
			c-0.6,0.3-1.3,0.2-1.9-0.2c-0.6-0.4-0.9-1-0.9-1.7v-32c0-1.1,0.9-2,2-2s2,0.9,2,2v28.9l75.2-32.8c0.8-0.3,1.7-0.1,2.3,0.5
			c0.6,0.6,0.7,1.5,0.3,2.3l-36,68.2l31.1,15.1c1,0.5,1.4,1.7,0.9,2.7C1103.5,659.6,1102.7,660,1102,660z"/>
	</g>
	<g>
		<path d="M871.7,700.8c-0.1,0-0.1,0-0.2,0c-1.1-0.1-1.9-1.1-1.8-2.2L886.4,501c0.1-1.1,1.1-1.9,2.2-1.8c1.1,0.1,1.9,1.1,1.8,2.2
			L873.7,699C873.6,700,872.7,700.8,871.7,700.8z"/>
	</g>
	<g>
		<path d="M900,312.5c31.6-8.8,58,19.9,58,19.9c16.7,18.8,18.4,38.9-6.3,75.4c0,0-25.3-26.1-6.5-70.6c-36.7,13.6-64-4.6-64-4.6
			C885.5,322,891.9,314.7,900,312.5z"/>
	</g>
	<g>
		<path d="M832,736c-0.2,0-0.3,0-0.5-0.1c-1.1-0.3-1.7-1.4-1.5-2.4l5-20c0.3-1.1,1.4-1.7,2.4-1.5c1.1,0.3,1.7,1.4,1.5,2.4l-5,20
			C833.7,735.4,832.9,736,832,736z"/>
	</g>
</g>
<g id="man">
	<g>
		<path class="st2" d="M366.8,972.7l31.9-67.7c3-5.5,5.9-10.9,8.6-16c2.2-4.2,4.4-8.2,6.4-12l29-55.9l44.2-65.4l61.9,95.7l-27.1,106
			c-4.9,13.1-10,25.3-15,36.5l-11.4,12.9L366.8,972.7z"/>
		<path d="M486.9,759.3l59.8,92.5l-26.8,105.1c-4.9,12.9-9.8,25-14.8,36l-10.4,11.7l-125-33.1l30.8-65.4c3-5.5,5.9-10.8,8.6-16
			c2.2-4.2,4.3-8.2,6.4-12l0,0l0,0l28.9-55.8L486.9,759.3 M487,752l-46,68l-29,56c-4.7,8.6-9.6,18.2-15.1,28.1L364,974l132,35
			l12.4-14c4.6-10.1,9.7-22.4,15.2-37L551,851L487,752L487,752z"/>
	</g>
	<path class="st0" d="M300.8,1035.2v-0.2c0-0.2-3-16.2,25.1-39.2c33-27,54.3-61.6,70.9-91.8l0.1-0.2l0.2,0.1
		c42.8,23.1,80.3,53.7,111.6,90.9l0.1,0.1l-0.1,0.1c-12.8,28.2-21.4,39.9-21.5,40l-0.1,0.1L300.8,1035.2L300.8,1035.2z"/>
	<path class="st4" d="M523.6,958.2c-0.1-0.1-15.1-11.3-33.7-44.1c-6.4-11.2-11.7-23.8-16.9-36c-8.7-20.4-17.6-41.5-31.9-57.8
		L392.8,805c1.4-6.1,13.8-20.5,36.4-46.5c25.4-29.3,63.7-73.5,112.6-136.6c44.3-57.1,56.9-73.8,57-74v-0.1h0.1
		c0.1,0,10.1-2.5,21.9-2.5c15,0,26.5,4,33.2,11.5c6.1,6.8,8.5,16.7,7.1,29.2c-4.4,39.2-21.5,72.1-41.3,110.3
		c-21.4,41.3-45.6,88-63.7,157.7c-10,38.6-20.9,73.6-32.3,104l-0.1,0.2L523.6,958.2z"/>
	<path d="M411.8,876.1c-0.3-0.4-26.1-40.5-19-71.2c0.1-0.1,4.2-4.7,12.5-4.7c10.4,0,21.9,6.6,35.3,19.6l0.4,0.5l-29,56L411.8,876.1z
		"/>
	<g>
		<path d="M365,958.9c-0.2,0-0.5,0-0.7-0.1l-101.6-36.3c-6.5-2.3-11.6-7-14.5-13.2c-2.9-6.2-3.3-13.1-1-19.6
			c0.7-1.8,1.4-3.3,2.2-4.7c3.6-5.9,9.3-10,15.9-11.6c6.7-1.6,13.5-0.5,19.4,3.2c1.6,1,3.1,2.2,4.5,3.5l77.2,75.4
			c0.7,0.7,0.8,1.7,0.3,2.5C366.3,958.6,365.7,958.9,365,958.9z M271.3,876.8c-1.7,0-3.3,0.2-5,0.6c-5.6,1.3-10.4,4.8-13.4,9.7
			c-0.7,1.2-1.3,2.6-1.9,4.1c-1.9,5.4-1.6,11.2,0.8,16.5c2.5,5.2,6.8,9.2,12.3,11.1l93,33.2l-70.7-69c-1.1-1.1-2.4-2.1-3.7-2.9
			C279.2,877.9,275.3,876.8,271.3,876.8z"/>
	</g>
	<g>
		<path d="M365.4,958.4c-0.7,0-1.4-0.4-1.8-1.1l-36.9-73.4c-2.4-4.8-2.8-10.2-1.1-15.3c1.7-5.1,5.2-9.1,10-11.5
			c1-0.6,2.3-1.1,3.9-1.4c10.6-2.8,21.5,3.6,24.4,14.2c0.3,1.5,0.6,2.9,0.7,4.4l2.8,82.1c0,0.9-0.6,1.8-1.5,2
			C365.7,958.4,365.6,958.4,365.4,958.4z M344.5,859c-1.3,0-2.7,0.2-4,0.5c-1.2,0.3-2.2,0.7-3,1.1c-3.9,1.9-6.7,5.2-8.1,9.2
			c-1.4,4.1-1,8.4,0.9,12.2l32.8,65.3l-2.5-72.9c-0.1-1.2-0.3-2.4-0.5-3.6C358.1,863.8,351.6,859,344.5,859z"/>
	</g>
	<g>
		<path d="M290.1,1003c-1.1,0-2-0.9-2-1.9c0-1.1,0.8-2,1.9-2.1c0,0,3.6-0.2,8.4-3.3c4.4-2.9,10.8-8.9,16-21.4
			c13.2-31.9,34.3-24.8,51.2-19.1c1,0.4,1.6,1.5,1.3,2.5c-0.4,1-1.5,1.6-2.5,1.3l-0.1,0c-16.9-5.7-34.5-11.6-46.2,16.8
			C307.2,1002.2,290.9,1003,290.1,1003C290.1,1003,290.1,1003,290.1,1003z"/>
	</g>
	<g>
		<path d="M500,933c-0.3,0-0.5-0.1-0.8-0.2c-1-0.4-1.5-1.6-1-2.6c8.9-20.4,15.8-39.2,23.8-60.9c10-27.3,21.4-58.1,40.2-102.1
			c29.7-69.3,96.5-181.1,97.1-182.2c0.6-0.9,1.8-1.3,2.7-0.7c0.9,0.6,1.3,1.8,0.7,2.7c-0.7,1.1-67.3,112.7-96.9,181.8
			c-18.8,43.9-30.1,74.7-40.1,101.9c-8,21.8-14.9,40.6-23.9,61.1C501.5,932.6,500.8,933,500,933z"/>
	</g>
	<g>
		<path d="M435,815c-0.4,0-0.8-0.1-1.1-0.4c-0.9-0.6-1.1-1.9-0.5-2.8c107.8-154.2,174.4-246.1,175-247c0.6-0.9,1.9-1.1,2.8-0.4
			s1.1,1.9,0.4,2.8c-0.7,0.9-67.2,92.8-175,247C436.3,814.7,435.6,815,435,815z"/>
	</g>
	<g>
		<path d="M468,868c-0.3,0-0.6-0.1-1-0.2c-1-0.5-1.3-1.7-0.8-2.7c83-153,154-284,154-284c0.5-1,1.7-1.3,2.7-0.8
			c1,0.5,1.3,1.7,0.8,2.7c0,0-71,131-154,284C469.4,867.6,468.7,868,468,868z"/>
	</g>
	<g>
		<path class="st2" d="M625.3,994.6c-0.9-11.1-1.3-23.4-1.3-36.6c0-0.3,0-33.2,2-56.8l3.9-59.4l101.5-13.5l18.5,90.4
			c1,7.6,2.1,14.7,3.2,21l8.7,59.8l-128.3,21.4L625.3,994.6z"/>
		<path d="M729.8,830.5l18.1,88.5c1,7.6,2.1,14.7,3.2,20.9l8.4,57.8l-124.7,20.8l-7.5-24.2c-0.8-11-1.3-23.2-1.3-36.3
			c0-0.3,0-33.1,2-56.7l0,0l0,0l3.8-57.7L729.8,830.5 M733,826l-105,14l-4,61c-2,24-2,57-2,57c0,14.7,0.5,27,1.3,37l8.7,28l132-22
			l-8.9-61.8c-1.2-6.6-2.3-13.6-3.2-20.9L733,826L733,826z"/>
	</g>
	<path class="st0" d="M629.9,1035.2L629.9,1035.2c0-0.2-4.4-11.5-6.7-40.1V995l0.1-0.1c15.7-11.7,60-40.5,131.7-55.9h0.2v0.2
		c4.1,22.1,9.3,36.4,15.9,43.7c20.6,22.6,31.1,36.8,31.1,52.1v0.2H629.9z"/>
	<path class="st4" d="M580.8,920c0.1-8.5,8.7-43.6,40-116.1c18.7-43.3,13.7-88.5,8.9-132.3c-3.4-30.7-6.9-62.4-1.9-92.7v-0.2
		l100.4,6l-6.1,26.2c1.9,17.2,3.9,33.9,6,51.6c4.7,39.1,10.1,83.4,15,146.4c0.8,9.8,1.4,20,2.1,30.9c0.7,11,1.5,22.3,2.3,33.5
		c0.7,9.6,1.5,17.9,2.2,25.6c0.7,7,1.4,13.3,2.2,19.2v0.2l-0.1,0.1c-0.1,0-6.2,2.5-18.9,2.5l0,0c-14.2,0-30.7-3-49-8.8
		c-31.5-10-49.9-11.1-56.4-11.1c-1.8,0-2.9,0.1-3.3,0.1L580.8,920z"/>
	<path d="M622,958.2c-0.4-0.1-35.7-7.9-40.6-31.5c-0.5-2.2-0.6-4.4-0.6-6.7v-0.1l0,0c0.1-0.2,7.4-16.7,42.8-18.7h0.5
		c-1,16.9-2,56.4-2,56.8v0.2H622z"/>
	<g>
		<path d="M716,922c-1.1,0-2-0.9-2-1.9c-5.9-217.4-14.9-314.9-15-315.9c-0.1-1.1,0.7-2.1,1.8-2.2c1.1-0.1,2.1,0.7,2.2,1.8
			c0.1,1,9.1,98.6,15,316.1C718,921,717.2,922,716,922C716,922,716,922,716,922z"/>
	</g>
	<g>
		<path d="M653,906c-0.1,0-0.2,0-0.3,0c-1.1-0.1-1.9-1.1-1.7-2.2c1-7.3,2-15.1,3.1-23.2c4.7-34.5,10-73.7,13.9-118.8
			c4.9-57.2,3-164.7,3-165.8c0-1.1,0.9-2,2-2c1.1-0.1,2,0.9,2,2c0,1.1,1.9,108.8-3,166.2c-3.9,45.1-9.2,84.4-13.9,119
			c-1.1,8.1-2.1,15.8-3.1,23.1C654.9,905.3,654,906,653,906z"/>
	</g>
	<path class="st0" d="M728.7,670.2c-2.4-19.5-6.6-56.1-6.9-59c-2.2-0.1-4.4-0.1-6.6-0.1c-23.8,0-42,4.7-61.4,9.8
		c-19.6,5.1-40,10.4-66.9,10.4c-35.7,0-58-8.4-70.5-15.5c-13.5-7.7-18.6-15.5-18.7-15.6l-0.1-0.1L645.8,407l52.2,12l65,211.1
		c0.1,0.2,7.3,21.7-34.2,40.4l-0.2,0.1L728.7,670.2z"/>
	<path d="M728.8,670.2c-2.4-19.5-6.6-56.1-6.9-59h0.4c34.8,2,40.9,18.5,41,18.7s7.3,21.7-34.2,40.4l-0.2,0.1L728.8,670.2z"/>
	<g>
		<path class="st2" d="M654.9,706.9c-13.6,0-36.3-8.6-69.3-26.4c-0.2-0.1-19.7-10.3-29.5-16.2l-31.5-17.2l32.4-75.4l59,30.2
			c7.1,5,13.7,9.3,19.6,13.2c12.2,8.1,22.7,15,23.5,18.3c1.5,5.9-3.9,7.4-4.5,7.6l-5.2,1.3l28.8,14.4c5.4,2.7,8.4,5.7,8.8,8.8
			c0.5,3.8-3.1,6.9-3.2,6.9l-1.4,1.2l1.1,1.5c2,2.8,2.8,5.3,2.2,7.5c-1,3.6-5.3,5.4-5.3,5.5l-1.4,0.6l0.3,1.6c0.4,2.7,0,4.7-1.3,6.3
			c-2.8,3.3-8.7,3.4-8.7,3.4h-1.2l-0.6,1.1C665.3,705,661.2,706.9,654.9,706.9L654.9,706.9z"/>
		<path d="M558,574.5l57,29.2c7.1,4.9,13.7,9.3,19.5,13.2c10.2,6.7,21.7,14.4,22.7,17.1c0.6,2.2-0.1,3.2-0.8,3.9
			c-1,0.9-2.2,1.3-2.2,1.3l-10.9,2.4l10,5l24,12c4.7,2.3,7.4,4.9,7.7,7.2c0.3,2.6-2.4,5.1-2.5,5.1l-2.9,2.4l2.2,3
			c1.7,2.3,2.3,4.2,1.9,5.8c-0.6,2.2-3.2,3.8-4.2,4.2l-2.9,1.2l0.5,3.1c0.5,3.1-0.5,4.3-0.8,4.7c-1.8,2.1-5.9,2.7-7.2,2.7h-2.5
			l-1.1,2.2c-0.6,1.2-2.3,4.7-10.6,4.7c-13.1,0-36.1-8.8-68.4-26.2c-0.2-0.1-19.6-10.3-29.4-16.1H557h-0.1l-29.8-16.3L558,574.5
			 M654,639.1L654,639.1L654,639.1 M556,569l-34,79l33,18c10,6,29.6,16.3,29.6,16.3c26.8,14.4,53.8,26.7,70.3,26.7
			c6.8,0,11.7-2.1,14.1-6.9c0,0,14,0,12-12c0,0,12-5,4-16c0,0,12-10-6-19l-24-12c0,0,8-2,6-10c-1.4-5.7-20-16-44-32.7L556,569
			L556,569z"/>
	</g>
	<path class="st0" d="M548,699.2c-24-15.5-46-36.9-61.9-60.2c-16.6-24.4-25.2-49.2-24.3-70c1.1-24.3,14.1-51.2,36.5-75.9
		c28.9-31.7,72.5-59.7,129.6-83.3l18.5-3l-86.1,154.1c18.5,14.1,40.8,29.5,56.9,39.1l0.2,0.1l-0.1,0.2c-0.1,0.1-7.6,12.4-24.1,25.8
		c-2.3,1.9-4.5,3.6-6.5,5.2c-12.2,9.7-21.1,16.7-31.3,34.5L548,699.2z"/>
	<path d="M553.8,699.9c-2,0-4-0.3-5.9-0.8h-0.1V699c-0.2-0.4-5.5-9.9,7.3-32.9l0.2-0.3l29.6,16.3l-0.2,0.2c0,0-3.6,4.4-9.2,8.8
		C570.4,695.2,562.5,699.9,553.8,699.9L553.8,699.9z"/>
	<g>
		<path d="M648.2,643.8c-0.3,0-0.6-0.1-0.9-0.2l-17.2-8.8c-1-0.5-1.4-1.7-0.9-2.7c0.5-1,1.7-1.4,2.7-0.9l17.2,8.8
			c1,0.5,1.4,1.7,0.9,2.7C649.6,643.4,648.9,643.8,648.2,643.8z"/>
	</g>
	<g>
		<path d="M682,676c-0.2,0-0.4,0-0.6-0.1c-16.1-4.9-35.2-13.6-48.3-20.1c-1-0.5-1.4-1.7-0.9-2.7c0.5-1,1.7-1.4,2.7-0.9
			c13,6.4,31.8,15.1,47.7,19.9c1.1,0.3,1.7,1.4,1.3,2.5C683.7,675.4,682.9,676,682,676z"/>
	</g>
	<g>
		<path d="M679,691c-0.2,0-0.4,0-0.6-0.1c-0.3-0.1-29.3-9-52.6-19.8c-1-0.5-1.4-1.7-1-2.7c0.5-1,1.7-1.4,2.7-1
			c23,10.7,51.8,19.5,52,19.6c1.1,0.3,1.7,1.4,1.3,2.5C680.7,690.4,679.9,691,679,691z"/>
	</g>
	<g>
		<path d="M667,702c-0.1,0-0.2,0-0.4,0c-0.8-0.1-19-3.7-46.8-17.3c-1-0.5-1.4-1.7-0.9-2.7c0.5-1,1.7-1.4,2.7-0.9
			c27.3,13.3,45.6,16.9,45.8,16.9c1.1,0.2,1.8,1.3,1.6,2.3C668.8,701.3,667.9,702,667,702z"/>
	</g>
	<g>
		<path d="M616,604c-0.4,0-0.8-0.1-1.1-0.4l-74-51c-0.9-0.6-1.1-1.9-0.5-2.8c0.6-0.9,1.9-1.1,2.8-0.5l74,51c0.9,0.6,1.1,1.9,0.5,2.8
			C617.3,603.7,616.6,604,616,604z"/>
	</g>
	<g>
		<path d="M559,565c-0.3,0-0.7-0.1-1-0.3c-1-0.5-1.3-1.8-0.8-2.7l59.1-106.1c0.5-1,1.8-1.3,2.7-0.8c1,0.5,1.3,1.8,0.8,2.7L560.7,564
			C560.4,564.6,559.7,565,559,565z"/>
	</g>
	<g>
		<path d="M745,574c-0.9,0-1.6-0.6-1.9-1.4l-47-153c-0.3-1.1,0.3-2.2,1.3-2.5c1.1-0.3,2.2,0.3,2.5,1.3l47,153
			c0.3,1.1-0.3,2.2-1.3,2.5C745.4,574,745.2,574,745,574z"/>
	</g>
	<g>
		<path d="M685,616c-1.1,0-2-0.9-2-2l-1-184c0-1.1,0.9-2,2-2c0,0,0,0,0,0c1.1,0,2,0.9,2,2l1,184C687,615.1,686.1,616,685,616
			C685,616,685,616,685,616z"/>
	</g>
	<g>
		<path class="st2" d="M637.1,421.5c-12.1,0-21.9-9.8-21.9-21.9s9.8-21.9,21.9-21.9s21.9,9.8,21.9,21.9S649.2,421.5,637.1,421.5z"/>
		<g>
			<path d="M637.1,379.6c11,0,19.9,8.9,19.9,19.9s-8.9,19.9-19.9,19.9s-19.9-8.9-19.9-19.9S626.1,379.6,637.1,379.6 M637.1,375.6
				c-13.2,0-23.9,10.7-23.9,23.9c0,13.2,10.7,23.9,23.9,23.9s23.9-10.7,23.9-23.9C661.1,386.3,650.4,375.6,637.1,375.6L637.1,375.6z
				"/>
		</g>
	</g>
	<g>
		<path class="st2" d="M686.5,430.7c-10.1,0-19.9-6.2-28.3-17.9c-30.3-42-26.6-61.4-10.8-79.2c0.2-0.2,19.6-20.9,44.3-20.9
			c4,0,7.9,0.5,11.7,1.6c17,4.7,26.2,33.6,21.4,67.3C720.7,410.5,704.9,430.7,686.5,430.7L686.5,430.7z"/>
		<g>
			<path d="M691.6,314.8c3.8,0,7.5,0.5,11.2,1.5c7.3,2,13.4,9.4,17.2,20.8c4.1,12.2,5.1,28,2.7,44.3c-2,13.9-6.9,26.2-13.8,34.8
				c-6.5,8-14.5,12.4-22.5,12.4c-9.4,0-18.6-5.9-26.7-17c-29.5-40.9-26.1-59.6-11-76.6C649.5,334.3,668.2,314.8,691.6,314.8
				 M691.6,310.8c-25.9,0-45.7,21.5-45.7,21.5c-17.6,19.8-18.5,41.2,10.7,81.7c9.4,13,19.9,18.7,29.9,18.7c18.9,0,36-20.2,40.3-50.7
				c5-35.3-5.1-64.6-22.9-69.5C699.7,311.3,695.6,310.8,691.6,310.8L691.6,310.8z"/>
		</g>
	</g>
	<g>
		<path d="M703.9,312.5c-31.6-8.8-58,19.9-58,19.9c-16.7,18.8-18.4,38.9,6.3,75.4c0,0,25.3-26.1,6.5-70.6c36.7,13.6,64-4.6,64-4.6
			C718.4,322,712,314.7,703.9,312.5z"/>
	</g>
	<g>
		<path d="M704.9,382.9c-0.6,0-1.1-0.2-1.5-0.7c-0.7-0.8-0.6-2.1,0.2-2.8c1.1-0.9,1.9-2.1,2.4-3.5c0.7-2.9-1.5-10.5-3.2-16
			c-0.3-1.1,0.3-2.2,1.3-2.5c1.1-0.3,2.2,0.3,2.5,1.3c3.2,10.1,4.1,15.2,3.2,18.3c0,0,0,0.1,0,0.1c-0.7,2.1-1.9,3.8-3.6,5.3
			C705.8,382.7,705.4,382.9,704.9,382.9z M707.9,376.5L707.9,376.5L707.9,376.5z"/>
	</g>
	<g>
		<path d="M689.9,370.4c-0.9,0-1.8-0.7-2-1.6l-0.5-2.5c-0.2-1.1,0.5-2.1,1.6-2.4c1.1-0.2,2.1,0.5,2.4,1.6l0.5,2.5
			c0.2,1.1-0.5,2.1-1.6,2.4C690.2,370.4,690,370.4,689.9,370.4z"/>
	</g>
	<g>
		<path d="M715.8,359.2c-1,0-1.8-0.7-2-1.7l-0.4-2.4c-0.2-1.1,0.6-2.1,1.6-2.3c1.1-0.2,2.1,0.6,2.3,1.6l0.4,2.4
			c0.2,1.1-0.6,2.1-1.6,2.3C716,359.2,715.9,359.2,715.8,359.2z"/>
	</g>
	<g>
		<path d="M697.7,397c-1.9,0-3.7-0.5-5.4-1.5c-2.3-1.4-3.9-3.7-4.5-6.3c-0.2-1.1,0.4-2.1,1.5-2.4c1.1-0.2,2.1,0.4,2.4,1.5
			c0.7,3.3,4.1,5.4,7.4,4.6c0.4-0.1,0.8-0.2,1.2-0.4c1-0.4,2.2,0.1,2.6,1.1s-0.1,2.2-1.1,2.6c-0.5,0.2-1.2,0.5-1.9,0.6
			C699.2,396.9,698.5,397,697.7,397z"/>
	</g>
	<g>
		<path d="M633.8,404.8c-0.7,0-1.4-0.4-1.7-1c-0.5-1-0.2-2.2,0.8-2.7l12.2-6.8c1-0.5,2.2-0.2,2.7,0.8c0.5,1,0.2,2.2-0.8,2.7
			l-12.2,6.8C634.5,404.7,634.1,404.8,633.8,404.8z"/>
	</g>
	<g>
		<path d="M465.6,602.3c-0.9,0-1.7-0.6-1.9-1.4c-0.3-1.1,0.3-2.2,1.4-2.5c9.7-2.9,18.3-8.9,24.2-17.2c14.7-20.4,10-49.1-10.4-63.8
			c-0.9-0.6-1.1-1.9-0.5-2.8c0.6-0.9,1.9-1.1,2.8-0.5c22.3,16,27.4,47.2,11.4,69.4c-6.4,8.9-15.8,15.5-26.4,18.7
			C466,602.3,465.8,602.3,465.6,602.3z"/>
	</g>
	<g>
		<path d="M637,637c-0.2,0-0.4,0-0.7-0.1c-1-0.4-1.6-1.5-1.2-2.5l26-74c0.4-1,1.5-1.6,2.5-1.2c1,0.4,1.6,1.5,1.2,2.5l-26,74
			C638.6,636.5,637.8,637,637,637z"/>
	</g>
	<g>
		<path d="M673,587c-0.8,0-1.5-0.5-1.9-1.2l-8.8-21.4l-21.5,9.5c-1,0.4-2.2,0-2.6-1s0-2.2,1-2.6l23.4-10.3c0.5-0.2,1.1-0.2,1.6,0
			c0.5,0.2,0.9,0.6,1.1,1.1l9.6,23.3c0.4,1-0.1,2.2-1.1,2.6C673.5,587,673.3,587,673,587z"/>
	</g>
	
		<ellipse transform="matrix(0.3955 -0.9185 0.9185 0.3955 -77.2944 937.6154)" class="st4" cx="673.7" cy="527.5" rx="35.8" ry="36.9"/>
	<circle cx="673.7" cy="527.5" r="3.3"/>
	<g>
		<path d="M766.6,977.8c-0.7,0-1.4-0.4-1.8-1.1c-0.4-0.8-0.2-1.9,0.5-2.4l87.2-69.7c11.4-9.1,28-7.3,37.1,4.1c1.1,1.3,2.1,2.9,3,4.7
			c3.2,6.2,3.7,13.4,1.5,20.1c-2.2,6.7-6.9,12.1-13.2,15.3c-2,1-3.8,1.7-5.6,2.1l-108.3,26.9C766.9,977.8,766.8,977.8,766.6,977.8z
			 M869,902.8c-4.9,0-9.8,1.6-14,4.9l-80.1,64l99.4-24.7c1.5-0.3,3-0.9,4.7-1.7c5.3-2.7,9.3-7.3,11.2-13c1.9-5.7,1.4-11.8-1.3-17.1
			c-0.7-1.5-1.5-2.8-2.4-3.9C882.1,905.6,875.6,902.8,869,902.8z"/>
	</g>
	<g>
		<path d="M766.8,978c-0.6,0-1.1-0.2-1.5-0.7c-0.7-0.8-0.6-2.1,0.2-2.8c22-18.4,40.8-56.3,30.3-96.1c-0.3-1.1,0.4-2.2,1.4-2.4
			c1.1-0.3,2.2,0.4,2.4,1.4c10.9,41.4-8.7,81-31.7,100.1C767.7,977.8,767.3,978,766.8,978z"/>
	</g>
	<g>
		<path d="M766,1011c-0.4,0-0.9-0.1-1.3-0.4c-0.9-0.7-1-2-0.3-2.8l13.5-16.7c0.7-0.9,2-1,2.8-0.3c0.9,0.7,1,2,0.3,2.8l-13.5,16.7
			C767.2,1010.7,766.6,1011,766,1011z"/>
	</g>
	<g>
		<path d="M743.7,989.1c-0.7,0-1.4-0.4-1.8-1.1c-0.5-1-0.1-2.2,0.9-2.7l22.4-11c1-0.5,2.2-0.1,2.7,0.9c0.5,1,0.1,2.2-0.9,2.7
			l-22.4,11C744.3,989,744,989.1,743.7,989.1z"/>
	</g>
	<g>
		<path d="M385,977c-0.5,0-1-0.2-1.4-0.5l-24-22c-0.8-0.7-0.9-2-0.1-2.8c0.7-0.8,2-0.9,2.8-0.1l24,22c0.8,0.7,0.9,2,0.1,2.8
			C386.1,976.8,385.5,977,385,977z"/>
	</g>
	<g>
		<path d="M363.5,1001.5c-0.6,0-1.2-0.3-1.6-0.8l-17.3-22.8c-0.7-0.9-0.5-2.1,0.4-2.8c0.9-0.7,2.1-0.5,2.8,0.4l17.3,22.8
			c0.7,0.9,0.5,2.1-0.4,2.8C364.3,1001.4,363.9,1001.5,363.5,1001.5z"/>
	</g>
</g>
</svg>
