
<svg version="1.0" xmlns="http://www.w3.org/2000/svg"
 width="20" height="20" viewBox="0 0 48.000000 48.000000"
 preserveAspectRatio="xMidYMid meet">

<g transform="translate(0.000000,48.000000) scale(0.100000,-0.100000)"
fill="#fff" stroke="#fff">
<path d="M191 392 c-28 -24 -42 -43 -37 -50 5 -9 19 -4 47 19 l39 31 29 -24
c16 -13 58 -49 93 -81 36 -31 68 -57 72 -57 13 0 5 28 -14 45 -13 12 -20 33
-22 69 -3 50 -4 51 -37 54 -18 2 -38 -1 -44 -7 -7 -7 -20 -3 -43 14 -18 14
-34 25 -36 25 -2 0 -23 -17 -47 -38z m179 -48 c0 -22 -2 -25 -15 -14 -8 7 -15
19 -15 26 0 8 7 14 15 14 10 0 15 -10 15 -26z"/>
<path d="M75 289 c-19 -17 -35 -37 -35 -45 0 -17 12 -18 28 -2 9 9 12 -8 12
-78 0 -57 4 -94 12 -102 18 -18 282 -17 297 2 14 17 11 171 -4 171 -6 0 -11
-34 -13 -78 l-3 -77 -34 0 -34 0 -3 63 -3 62 -55 0 -55 0 -3 -47 c-2 -38 0
-48 12 -48 12 0 16 10 16 35 0 32 2 35 30 35 29 0 30 -1 30 -50 l0 -50 -80 0
-80 0 0 99 c0 75 4 101 15 111 8 7 15 16 15 21 0 18 -31 8 -65 -22z"/>
</g>
</svg>
