<?xml version="1.0" standalone="no"?>
<!DOCTYPE svg PUBLIC "-//W3C//DTD SVG 20010904//EN"
 "http://www.w3.org/TR/2001/REC-SVG-20010904/DTD/svg10.dtd">
<svg version="1.0" xmlns="http://www.w3.org/2000/svg"
 width="50.000000pt" height="50.000000pt" viewBox="0 0 50.000000 50.000000"
 preserveAspectRatio="xMidYMid meet">

<g transform="translate(0.000000,50.000000) scale(0.100000,-0.100000)"
fill="#000000" stroke="none">
<path d="M130 399 c-109 -85 -144 -120 -106 -106 14 6 16 -8 16 -128 l0 -135
210 0 210 0 0 135 c0 115 2 134 15 129 29 -11 15 12 -25 42 -35 26 -40 34 -40
72 0 40 -2 42 -29 42 -19 0 -31 -6 -33 -16 -2 -12 -13 -8 -50 20 -26 20 -48
36 -50 36 -2 -1 -55 -41 -118 -91z m174 26 c49 -40 66 -44 66 -15 0 11 5 20
10 20 6 0 10 -16 10 -36 0 -27 7 -41 25 -56 24 -19 25 -22 25 -154 l0 -134
-60 0 -60 0 0 95 0 95 -70 0 -70 0 0 -95 0 -95 -60 0 -60 0 0 134 0 135 91 70
c50 39 96 71 101 71 5 0 29 -16 52 -35z m-4 -290 l0 -85 -50 0 -50 0 0 85 0
85 50 0 50 0 0 -85z"/>
<path d="M260 140 c0 -5 5 -10 10 -10 6 0 10 5 10 10 0 6 -4 10 -10 10 -5 0
-10 -4 -10 -10z"/>
</g>
</svg>
