<svg xmlns="http://www.w3.org/2000/svg" xmlns:xlink="http://www.w3.org/1999/xlink" width="684.763" height="506.494" viewBox="0 0 731.67 404.487"><path fill="#3f3d56" d="m0,403.29721c0,.66003.53003,1.19,1.19006,1.19h729.28998c.65997,0,1.19-.52997,1.19-1.19,0-.65997-.53003-1.19-1.19-1.19H1.19006c-.66003,0-1.19006.53003-1.19006,1.19Z"/><g><g><path fill="#ffb6b6" d="m254.28441,136.56316l6.24486-21.88741,9.10519,4.68633,44.02066-16.29033,7.3895-3.13454c2.19034-2.9221,5.04874-5.27629,8.33542-6.86685,8.16702-4.09051,16.89795-3.19262,19.50061,2.00561,2.60223,5.19743-1.90823,12.72595-10.07855,16.81723-3.24185,1.67881-6.83789,2.55702-10.4884,2.56105l-25.16998,12.21292-34.14407,16.87912-14.71524-6.98312.00002-.00002Z"/><path fill="#e6e6e6" d="m237.52126,107.22835l1.26518,17.13948,19.17975,18.81966,1.5928-4.12425,3.45837-8.93571,4.56055-11.82621,1.0473-2.70511-15.03419-17.31421-12.48038-14.38003c-2.94591,7.37593-4.16794,15.35063-3.58942,23.32639h.00003Z"/></g><g><path fill="#f84f4f" d="m342.8161,67.05564s-1.92297-6.2735.62973-11.12093c2.5527-4.84744,5.48288-10.44408,5.48288-10.44408,0,0,4.52045,1.22757,2.37277,10.7549,0,0,6.21829-12.78117,8.66437-11.60406s1.73022,4.35289,1.73022,4.35289h0c2.09753-.28929,4.17059.67409,5.30191,2.46391l-3.38336,7.79958s9.08792-7.63669,10.14462-6.77277c1.0567.86391,2.64667,7.1252,2.64667,7.1252,0,0,4.02017-1.17949,5.78131.26037,1.76114,1.43986-4.53552,10.86642-4.53552,10.86642,1.80707-2.87057,4.2417-3.39121,7.26642-1.69959,0,0-3.58652,14.52181-13.36279,14.40376-3.35071-.04046-10.73141,5.20404-15.03781,2.86733-8.2583-4.48104-13.70148-19.25292-13.70148-19.25292h.00006Z"/><path fill="#3f3d56" d="m354.38565,68.93363c-2.73645-7.29115-4.12012-9.48021-4.12012-9.48021,0,0-7.0365-1.16903-7.98752,6.7509l-1.49268-2.63077s-2.37418,5.71301,5.55664,16.0612c8.58163,11.19739,18.01297,8.37919,18.91473,6.76663,0,0,13.67603,2.24856,18.65866-10.60258l-4.45618-.58737-13.90308,7.08599.24197-5.0791c.15939-3.34557-3.65564-5.35902-6.32773-3.3396,0,0-2.34821,2.34607-5.08466-4.94508,0,0-.00006,0-.00006,0Z"/><path fill="#3f3d56" d="m332.25,124.03945c-.40579-.23152-.63162-.70751-.52271-1.18755,4.37531-19.41145,18.40802-41.75336,18.54916-41.97705.32236-.50912,1.0014-.66511,1.50555-.33943.50867.32211.66113.99544.33923,1.50483-.13953.22091-13.97336,22.25188-18.26627,41.29206-.13196.5871-.71582.95684-1.30356.82389-.10892-.02411-.20929-.06422-.30139-.11675,0,0-.00003,0-.00003,0Z"/></g><g><path fill="#ffb6b6" d="m385.80981,95.36458c2.69843,1.54869,4.98663,3.72038,6.67349,6.33462l10.58267,6.4468,31.84167,17.92227,12.17566,13.79799-11.08347,9.43527-39.2262-27.9752-11.34094-7.72119c-3.10446-.2219-6.11035-1.1841-8.76566-2.80694-6.69931-3.96508-10.08243-10.63644-7.55838-14.89845,2.52466-4.26286,10.00034-4.5027,16.70114-.53518,0,0,0,.00002,0,.00002Z"/><polygon fill="#e6e6e6" points="434.904 126.069 438.7 146.994 439.169 149.613 482.482 121.651 485.744 108.351 485.722 108.232 482.275 92.128 434.904 126.069"/></g><g><polygon fill="#ffb6b6" points="217.011 386.603 228.055 389.985 246.358 348.996 230.058 344.004 217.011 386.603"/><path fill="#2f2e41" d="m254.92584,397.9433h0c.16646.68448-.22469,2.60925-.43098,3.28275h0c-.63412,2.07013-2.82635,3.23428-4.89656,2.60013l-34.20174-10.47684c-1.41223-.43259-2.20645-1.92816-1.77383-3.34045l.43617-1.42392s-.38097-4.79791,4.71825-9.00577c0,0,3.06415,5.45651,11.51501.96899l2.96635-2.87158,10.71552,14.32944,7.36562,3.28683c1.61145.71906,3.16907.93576,3.58604,2.65039l.00014.00003h.00002Z"/></g><g><polygon fill="#ffb6b6" points="330.348 396.82 341.567 394.077 336.328 349.494 319.768 353.543 330.348 396.82"/><path fill="#2f2e41" d="m368.72723,387.17075h0c.49316.50299,1.14163,2.35699,1.30884,3.04123h0c.51401,2.10318-.77423,4.22488-2.87747,4.73892l-34.74771,8.49231c-1.43478.35065-2.88223-.52817-3.23291-1.96301l-.35355-1.44666s-2.78156-3.92786-.55234-10.15189c0,0,5.42404,3.12128,10.3902-5.0575l1.08005-3.9848,16.53729,6.83173,8.01035-.94336c1.7525-.20642,3.20175-.81696,4.4371.44308l.00015-.00003v-.00003Z"/></g><g><polygon fill="#ffb6b6" points="453.795 395.759 440.847 395.758 434.688 345.816 453.797 345.817 453.795 395.759"/><path fill="#2f2e41" d="m409.43384,395.46573h0c-.40314.67899-.61588,2.87042-.61588,3.66h0c0,2.427,1.96744,4.39453,4.39453,4.39453h40.09784c1.6557,0,2.99796-1.34219,2.99796-2.99796v-1.6694s1.98361-5.01743-2.10028-11.20166c0,0-5.07571,4.84235-12.66016-2.74207l-2.23657-4.05173-16.18979,11.84039-8.97375,1.10458c-1.96326.24164-3.70389-.03751-4.71378,1.66333h-.00015l.00003-.00003Z"/></g><g><polygon fill="#ffb6b6" points="496.61 385.95 484.06 389.133 465.809 342.239 484.332 337.541 496.61 385.95"/><path fill="#2f2e41" d="m453.53952,396.57392h0c-.22382.75726.10889,2.93372.30304,3.69907h0c.5968,2.35248,2.98767,3.77579,5.34024,3.17899l38.86664-9.86014c1.60486-.40714,2.57587-2.03821,2.1687-3.64313l-.41052-1.61813s.6889-5.35114-4.79031-10.34125c0,0-3.72913,5.9418-12.94571.45529l-3.16425-3.37735-12.7811,15.45792-8.42661,3.27734c-1.84357.71698-3.5994.87445-4.16003,2.77139l-.00015.00003.00006-.00003Z"/></g><path fill="#2f2e41" d="m433.91086,161.79938l37.09381,4.36398,6.54596,16.36491s14.18292,16.36491-4.36398,48.00374l-6.54596,50.18573,24.32819,77.20746-27.05661,1-25.77075-73.74304-11.86761-63.37811-1.091-25.09286,8.72794-34.9118h.00003Z"/><polygon fill="#2f2e41" points="436.093 218.531 426.274 221.804 429.969 358.925 459.969 358.925 436.093 218.531"/><path fill="#2f2e41" d="m314.44702,192.8927l25.09286,169.1041-18.54691,1.091-35.45731-104.18994-9.49118,51.38086-34.69409,50.62711-17.4559-4.36398,27.63789-71.91556-6.90901-53.54877s-7.63696-24.00186,0-34.9118,69.82364-3.27298,69.82364-3.27298v-.00003Z"/><polygon fill="#ffb6b6" points="478.096 56.518 478.642 77.793 462.822 82.702 456.822 77.793 455.185 59.791 478.096 56.518"/><polygon fill="#ffb6b6" points="258.806 58.7 265.352 40.154 290.445 57.609 284.99 72.883 258.806 58.7"/><path fill="#e6e6e6" d="m426.03418,129.0802l3.49084,15.601,3.93835,17.61998,37.95572,4.46201,11.06284-45.11218,3.26181-13.29969-.0213-.11933-3.44772-16.10388-3.19681-14.88078h-22.50708l-24.25278,27.43893c-3.98203,4.51633-6.36057,10.17906-6.85175,16.06979-.22906,2.76051-.04367,5.56471.56787,8.32416Z"/><circle cx="460.64" cy="42.336" r="24.002" fill="#ffb6b6"/><circle cx="288.263" cy="34.699" r="24.002" fill="#ffb6b6"/><path fill="#e6e6e6" d="m237.52126,107.22835l1.26518,17.13948,5.31326,72.03758.14169.14169c.09856.10974,10.28827,10.00433,26.82791,1.19008,15.96112-8.5106,47.22919,3.18562,47.54507,3.30495l.96048.36011-7.61566-33.28598-5.48746-23.94754-3.9277-17.20447-4.17859-18.23047-8.54205-37.32287-34.54105-15.60207-12.04462,23.39138c-.78575,1.53847-1.50545,3.09825-2.12712,4.70172-2.94591,7.37593-4.16794,15.35063-3.58942,23.32639,0,0,.00006.00002.00006.00002Z"/><path fill="#2f2e41" d="m297.53659,31.97106l3.27298-2.18199v-7.63696s15.27393,3.27298,12.00095-8.72795c-3.27298-12.00094-18.42477-14.43894-30.54785-13.09193-.49094.05455-.9819.10364-1.47162.14769-11.70074,1.05245-21.21854,9.94302-22.66254,21.60191-1.56851,12.66415-.93906,26.1721,8.86023,26.25414l9.81894,3.27298s-4.36398-20.72889,4.36398-16.36491,16.3649-3.27298,16.3649-3.27298c0,0,.00003,0,.00003,0Z"/><g><path fill="#f84f4f" d="m325.88464,64.32493s-4.77917-4.49602-4.96417-9.9714-.41342-11.78855-.41342-11.78855c0,0,4.53467-1.17393,7.39069,8.16553,0,0-.93286-14.18292,1.77509-14.37271s3.65994,2.92337,3.65994,2.92337h0c1.6785-1.29074,3.95651-1.4813,5.82611-.48736l.92651,8.45116s4.10904-11.13666,5.45496-10.90994c1.34592.22671,5.82983,4.87715,5.82983,4.87715,0,0,2.90729-3.01673,5.15051-2.63887s1.44559,11.6859,1.44559,11.6859c.14703-3.38881,2.00366-5.04754,5.46915-5.0772,0,0,4.08133,14.39057-4.46854,19.13281-2.93039,1.62535-6.74203,9.83818-11.64047,9.94269-9.39355.20041-21.44177-9.93257-21.44177-9.93258Z"/><path fill="#3f3d56" d="m336.86429,60.22266c-5.99002-4.97681-8.27667-6.19245-8.27667-6.19245,0,0-6.69104,2.47166-3.59222,9.82197l-2.60022-1.54529s.76901,6.13871,12.78571,11.19662c13.00278,5.47299,19.798-1.64866,19.78207-3.49616,0,0,12.99292-4.82431,10.95212-18.45565l-4.16159,1.69815-8.56424,13.04456-2.30685-4.53147c-1.5195-2.98485-5.83093-2.84309-7.15109.23512,0,0-.87698,3.20143-6.867-1.77538v-.00002Z"/><path fill="#3f3d56" d="m344.94638,119.05562c-.46719,0-.89923-.30151-1.04251-.77243-5.81934-19.02847-4.70279-45.38813-4.69107-45.65235.02771-.60196.54016-1.07395,1.13947-1.04092.60144.0277,1.06754.53697,1.04037,1.13894-.01172.26103-1.10965,26.25205,4.59729,44.91721.17633.57533-.14755,1.18582-.72397,1.36161-.10654.03303-.21362.04794-.31964.04794,0,0,.00006,0,.00006,0Z"/></g><g><path fill="#ffb6b6" d="m253.15669,145.2033l19.84993-5.19775.54166,9.21596,32.84122,26.68405,5.82324,4.29576c3.27261.35878,6.41107,1.49655,9.15353,3.31709,6.92188,4.46043,10.23154,11.64752,7.39212,16.05251-2.83902,4.40427-10.75079,4.35892-17.67477-.10371-2.79034-1.74525-5.12198-4.13274-6.80026-6.96362l-21.02704-13.92728-28.76595-18.74979-1.33372-14.62323.00005.00002Z"/><polygon fill="#e6e6e6" points="266.047 77.793 283.615 87.768 280.329 150.609 246.711 156.222 266.047 77.793"/></g><g><path fill="#ffb6b6" d="m456.25827,190.16532c1.90915-2.45665,4.37814-4.42036,7.20169-5.72701l7.85678-9.58253,22.17908-29.03769,15.35815-10.13701,7.80106,12.28868-33.16187,34.95135-9.2243,10.15607c-.65176,3.04337-2.02292,5.88611-3.99948,8.28975-4.8588,6.08234-11.93607,8.5041-15.80533,5.41151-3.87003-3.09334-3.0672-10.52963,1.79422-16.61311v-.00002Z"/><polygon fill="#e6e6e6" points="465.345 92.013 486.071 77.21 517.405 144.879 493.496 145.818 465.345 92.013"/></g><path fill="#2f2e41" d="m440.45682,29.78908s3.66409-7.58397,5.62805-1.98393,12.43842,19.60015,12.43842,19.60015c0,0,5.56454,7.77784-.65466,14.31122s-19.63959,38.26694-.98199,32.97802c18.65762-5.28893,28.15009,7.15561,28.15009,7.15561,0,0,16.039,1.24445,13.74771-14.93345s-14.07504-26.75576-14.07504-46.3559-11.12909-28.00021-17.67563-27.06687-30.50485,1.05059-26.57697,16.29514c0,0,.00003.00002.00003.00002Z"/></g></svg>