
<svg version="1.0" xmlns="http://www.w3.org/2000/svg"
 width="20" height="20" viewBox="0 0 58.000000 58.000000"
 preserveAspectRatio="xMidYMid meet">

<g transform="translate(0.000000,58.000000) scale(0.100000,-0.100000)"
fill="#fff" stroke="#fff">
<path d="M17 549 c-15 -9 -17 -30 -17 -199 0 -158 3 -191 16 -204 12 -13 40
-16 136 -16 l120 0 42 -47 c38 -42 47 -46 96 -50 46 -4 61 -1 89 19 53 36 73
69 73 121 0 58 -28 107 -77 133 l-35 19 0 102 c0 79 -3 105 -16 117 -13 14
-46 16 -212 16 -115 0 -204 -5 -215 -11z m411 -51 l-3 -33 -175 -3 c-211 -3
-220 -2 -220 38 l0 30 201 0 200 0 -3 -32z m2 -113 c0 -54 0 -54 -37 -64 -21
-6 -62 -11 -90 -11 -29 0 -53 -4 -53 -10 0 -5 16 -10 36 -10 l36 0 -21 -34
c-12 -18 -21 -47 -21 -65 l0 -31 -125 0 -125 0 0 140 0 140 200 0 200 0 0 -55z
m10 -161 c0 -31 4 -37 34 -49 41 -17 53 -32 37 -48 -9 -9 -23 -6 -59 13 -40
21 -47 30 -50 58 -4 42 3 62 23 62 11 0 15 -10 15 -36z"/>
<path d="M74 357 c-3 -8 -4 -39 -2 -68 l3 -54 63 -3 63 -3 -3 68 -3 68 -58 3
c-42 2 -59 -1 -63 -11z m106 -57 l0 -40 -40 0 -40 0 0 40 0 40 40 0 40 0 0
-40z"/>
</g>
</svg>
