<?xml version="1.0" standalone="no"?>
<!DOCTYPE svg PUBLIC "-//W3C//DTD SVG 20010904//EN"
 "http://www.w3.org/TR/2001/REC-SVG-20010904/DTD/svg10.dtd">
<svg version="1.0" xmlns="http://www.w3.org/2000/svg"
 width="406" height="306" viewBox="0 0 64.000000 64.000000"
 preserveAspectRatio="xMidYMid meet">

<g transform="translate(0.000000,64.000000) scale(0.100000,-0.100000)"
fill="#f84f4f" stroke="none">
<path d="M0 630 c0 -5 5 -10 10 -10 6 0 10 5 10 10 0 6 -4 10 -10 10 -5 0 -10
-4 -10 -10z"/>
<path d="M33 613 c-1 -26 0 -27 13 -8 17 23 18 35 2 35 -7 0 -14 -12 -15 -27z"/>
<path d="M176 517 c-11 -8 -23 -48 -37 -125 -19 -105 -19 -115 -4 -138 13 -20
24 -24 64 -24 26 0 50 -2 53 -5 2 -3 -2 -32 -10 -65 -14 -56 -14 -62 3 -80 34
-38 95 -13 95 39 0 33 24 84 60 124 29 33 37 37 81 37 l49 0 0 124 0 124 -168
1 c-120 0 -174 -3 -186 -12z m329 -87 l0 -75 -30 0 c-30 0 -30 0 -33 64 -4 81
1 93 35 89 28 -3 28 -4 28 -78z"/>
</g>
</svg>
